<?xml version="1.0" encoding="utf-8"?>
<!-- Generator: Adobe Illustrator 27.3.1, SVG Export Plug-In . SVG Version: 6.00 Build 0)  -->
<svg version="1.1" id="Layer_1" xmlns="http://www.w3.org/2000/svg" xmlns:xlink="http://www.w3.org/1999/xlink" x="0px" y="0px"
	 viewBox="0 0 115 32" style="enable-background:new 0 0 115 32;" xml:space="preserve">
<style type="text/css">
	.st0{fill:#0061FE;}
</style>
<g>
	<g>
		<path class="st0" d="M8.7,21.5l3,1.8v-11l6.5-3.7l6.5,3.7v7.5l-6.5,3.8l-3.7-2.1v3.5l3.7,2.1l9.5-5.5v-11L18.2,5l-9.5,5.5V21.5z
			 M18.2,11.8l-3.7,2.1v4.2l3.7,2.1l3.7-2.1v-4.2L18.2,11.8z"/>
	</g>
	<g>
		<path d="M51.9,22.7c-0.1,0-0.1,0-0.2,0c-0.6,0-1.3,0-1.9,0c0,0-0.1,0-0.1,0c-0.1,0-0.1,0-0.1-0.1c0,0,0-0.1,0-0.1
			c0-0.3,0-0.6,0-0.9c0-0.1,0-0.1,0-0.2c0,0-0.1,0.1-0.1,0.1c-0.6,0.7-1.4,1.1-2.3,1.3c-0.6,0.1-1.2,0.1-1.7,0
			c-0.6-0.1-1.1-0.3-1.5-0.7c-0.4-0.3-0.7-0.7-0.8-1.2c-0.2-0.7-0.2-1.3,0.1-2c0.2-0.5,0.6-0.9,1.1-1.3c0.4-0.2,0.8-0.4,1.2-0.5
			c0.2,0,0.3-0.1,0.5-0.1c0.3-0.1,0.6-0.1,0.9-0.1c0.9-0.1,1.7,0,2.6,0c0.1,0,0.1,0,0.2,0c0-0.1,0-0.2,0-0.3
			c-0.1-0.7-0.6-1.2-1.2-1.3c-0.5-0.1-0.9-0.1-1.4,0c-0.6,0.1-1,0.5-1.4,1c0,0-0.1,0.1-0.1,0.1c0,0,0,0,0,0
			c-0.7-0.3-1.5-0.7-2.2-1.1c0-0.1,0-0.1,0.1-0.1c0.4-0.5,0.8-0.9,1.3-1.2c0.5-0.3,1-0.6,1.6-0.7c0.5-0.1,1.1-0.2,1.6-0.2
			c0.7,0,1.3,0.1,1.9,0.3c1,0.4,1.7,1.1,2,2.1c0.1,0.3,0.2,0.6,0.2,1c0,1.9,0,3.8,0,5.7C51.9,22.4,51.9,22.5,51.9,22.7z M49.5,18.8
			c0,0-0.1,0-0.1,0c-0.8,0-1.6,0-2.3,0c-0.3,0-0.6,0-0.8,0.2c-0.4,0.2-0.7,0.4-0.7,0.8c0,0.4,0.1,0.7,0.4,0.9
			c0.3,0.1,0.5,0.2,0.8,0.2c0.3,0,0.5,0,0.8-0.1c0.7-0.2,1.3-0.5,1.8-1.1C49.5,19.4,49.6,19.1,49.5,18.8z"/>
		<path d="M81.9,16.4c-0.2-0.1-2.1-1-2.2-1.1c0.1-0.2,0.2-0.3,0.4-0.5c0.4-0.4,0.8-0.8,1.3-1.1c0.3-0.2,0.7-0.3,1.1-0.4
			c0.5-0.1,1.1-0.2,1.6-0.2c0.3,0,0.6,0,0.8,0c0.4,0,0.9,0.1,1.3,0.3c0.9,0.4,1.6,1,2,1.9c0.1,0.4,0.2,0.8,0.2,1.2c0,2,0,3.9,0,5.9
			c0,0,0,0.1,0,0.1c-0.1,0-0.1,0-0.2,0c-0.7,0-1.3,0-2,0c0,0,0,0-0.1,0c-0.1,0-0.1,0-0.1-0.1c0,0,0-0.1,0-0.1c0-0.3,0-0.6,0-0.8
			c0-0.1,0-0.1,0-0.2c0,0-0.1,0-0.1,0.1c-0.6,0.7-1.4,1.1-2.3,1.3c-0.6,0.1-1.2,0.1-1.8,0c-0.6-0.1-1.1-0.3-1.5-0.7
			c-0.4-0.3-0.7-0.7-0.8-1.3c-0.2-0.7-0.2-1.3,0.1-2c0.2-0.5,0.6-0.9,1-1.2c0.4-0.3,0.8-0.4,1.2-0.5c0.1,0,0.3-0.1,0.4-0.1
			c0.2,0,0.5-0.1,0.7-0.1c1-0.1,1.9,0,2.9,0c0,0,0.1,0,0.2,0c0-0.1,0-0.2,0-0.2c-0.1-0.5-0.3-0.9-0.7-1.2c-0.2-0.1-0.5-0.2-0.7-0.2
			c-0.4,0-0.8-0.1-1.2,0c-0.6,0.1-1,0.5-1.4,1C82,16.3,81.9,16.4,81.9,16.4C81.9,16.4,81.9,16.4,81.9,16.4z M86,18.8
			c0,0-0.1,0-0.2,0c-0.8,0-1.6,0-2.3,0c-0.3,0-0.6,0-0.8,0.1c-0.4,0.2-0.7,0.4-0.7,0.8c0,0.4,0.1,0.7,0.4,0.9
			c0.3,0.2,0.5,0.2,0.8,0.2c0.3,0,0.5,0,0.8-0.1c0.8-0.2,1.4-0.6,1.8-1.2C86,19.4,86.1,19.1,86,18.8z"/>
		<path d="M99,18.9c0.1,0.3,0.2,0.6,0.3,0.8c0.3,0.5,0.8,0.8,1.3,1c0.3,0.1,0.6,0.1,0.9,0.1c0.3,0,0.6,0,0.9-0.1
			c0.5-0.2,0.8-0.5,1.1-0.8c0.1-0.1,0.1-0.2,0.2-0.3c0.1,0.1,0.2,0.1,0.3,0.2c0.5,0.3,1,0.6,1.5,0.9c0,0,0,0,0.1,0
			c0.1,0.1,0.1,0.1,0,0.2c-0.1,0.1-0.2,0.3-0.3,0.4c-0.4,0.4-0.7,0.8-1.2,1c-0.4,0.3-0.9,0.4-1.4,0.5c-0.5,0.1-1,0.1-1.6,0.1
			c-1,0-2-0.3-2.8-0.9c-0.8-0.6-1.3-1.3-1.6-2.3c-0.2-0.7-0.3-1.4-0.2-2.1c0.2-1.5,0.8-2.7,2.1-3.6c0.5-0.3,1-0.6,1.6-0.7
			c0.6-0.1,1.2-0.2,1.9-0.1c0.6,0.1,1.1,0.2,1.6,0.5c0.9,0.4,1.6,1.1,2,2c0.2,0.4,0.4,0.9,0.5,1.4c0,0.3,0.1,0.6,0.1,0.9
			c0,0.2,0,0.5,0,0.7c0,0.1,0,0.1,0,0.2c-0.1,0-0.1,0-0.2,0c-2.2,0-4.4,0-6.6,0C99.4,18.9,99.2,18.9,99,18.9z M103.8,17
			c0-0.1,0-0.1,0-0.2c-0.2-0.5-0.5-0.9-0.9-1.1c-0.6-0.3-1.2-0.5-1.8-0.4c-0.9,0.1-1.5,0.6-1.9,1.3c-0.1,0.1-0.1,0.2-0.1,0.3
			C99.2,17,103.6,17,103.8,17z"/>
		<path d="M41.8,15.3c0,0.8,0,1.5,0,2.3c-0.1,0-0.1,0-0.2,0c-1.7,0-3.4,0-5.1,0c-0.1,0-0.2,0-0.3,0c0,0.1,0,0.2,0,0.2
			c0,1.5,0,3.1,0,4.6c0,0.1,0,0.1,0,0.2c-0.1,0-2.2,0.1-2.5,0c0-0.1,0-0.1,0-0.2c0-3.7,0-7.4,0-11.1c0-0.3,0-0.7,0-1
			c0-0.1,0-0.2,0-0.2c0.1,0,0.1,0,0.1,0c0.2,0,0.3,0,0.5,0c2.3,0,4.5,0,6.8,0c0.2,0,0.4,0,0.5,0c0.1,0,0.1,0,0.1,0.1
			c0,0.7,0,1.4,0,2.1c0,0.1,0,0.1-0.1,0.2c0,0-0.1,0-0.1,0c-1.7,0-3.4,0-5.2,0c-0.1,0-0.1,0-0.2,0c0,0.1,0,0.1,0,0.2
			c0,0.8,0,1.6,0,2.4c0,0,0,0,0,0c0,0.2,0,0.2,0.2,0.2c1.7,0,3.4,0,5.2,0C41.6,15.3,41.7,15.3,41.8,15.3z"/>
		<path d="M69,19c0.2,0,2.1,0.8,2.3,0.9c0,0,0,0,0,0.1c-0.2,0.5-0.5,0.9-0.8,1.3c-0.2,0.3-0.5,0.5-0.8,0.7c-0.3,0.2-0.6,0.4-0.9,0.5
			c-0.3,0.1-0.7,0.2-1,0.3c-0.2,0-0.5,0.1-0.7,0.1c-0.6,0-1.2,0-1.7-0.2c-1-0.3-1.8-0.8-2.5-1.7c-0.3-0.4-0.6-0.9-0.8-1.4
			c-0.1-0.2-0.1-0.5-0.2-0.7c-0.1-0.4-0.1-0.7-0.1-1.1c0-1,0.3-1.8,0.9-2.6c0.7-1,1.6-1.6,2.8-1.8c0.6-0.1,1.1-0.2,1.7-0.1
			c0.3,0,0.6,0.1,0.9,0.2c0.8,0.2,1.5,0.6,2,1.2c0.4,0.4,0.7,0.9,1,1.4c0,0,0,0.1,0.1,0.2c-0.1,0-0.1,0.1-0.2,0.1
			c-0.6,0.2-1.2,0.5-1.8,0.7c0,0-0.1,0-0.1,0c-0.1,0-0.1,0-0.2-0.1c-0.1-0.1-0.2-0.3-0.2-0.4c-0.4-0.6-0.9-0.9-1.6-1
			c-0.7-0.1-1.3,0.1-1.9,0.5c-0.4,0.3-0.7,0.8-0.8,1.3c-0.1,0.2-0.1,0.5-0.1,0.7c0,0.3,0.1,0.6,0.1,0.8c0.2,0.6,0.6,1,1.1,1.3
			c0.2,0.2,0.5,0.2,0.8,0.3c0.1,0,0.2,0,0.3,0c1.1,0.1,1.9-0.5,2.4-1.3C69,19.1,69,19.1,69,19z"/>
		<path d="M89.3,13.4c0.2,0,0.4,0,0.6,0c0.2,0,0.4,0,0.5,0c0.2,0,0.4,0,0.6,0c0-0.1,0-0.1,0-0.2c0-0.5,0-1.1,0-1.6
			c0-0.1,0-0.2,0.1-0.3c0.7-0.4,1.4-0.8,2.1-1.2c0.1,0,0.1-0.1,0.2-0.1c0,0.1,0,0.2,0,0.2c0,1,0,2,0,2.9c0,0,0,0.1,0,0.1
			c0,0.1,0,0.1,0.1,0.1c0,0,0.1,0,0.1,0c0.7,0,1.3,0,2,0c0.1,0,0.1,0,0.2,0c0,0.1,0,0.1,0,0.2c0,0.6,0,1.2,0,1.8c0,0,0,0.1,0,0.1
			c0,0.1,0,0.1-0.1,0.1c0,0-0.1,0-0.1,0c-0.7,0-1.3,0-2,0c-0.1,0-0.1,0-0.2,0c0,0.1,0,0.1,0,0.2c0,1.2,0,2.4,0,3.6
			c0,0.3,0,0.5,0.1,0.8c0.2,0.4,0.7,0.6,1,0.5c0.2,0,0.4-0.1,0.5-0.2c0,0,0.1-0.1,0.2-0.1c0,0.1,0.1,0.1,0.1,0.1
			c0.3,0.5,0.6,1.1,0.9,1.6c0.1,0.1,0.1,0.2-0.1,0.3c-0.4,0.3-0.9,0.5-1.4,0.6c-0.4,0.1-0.8,0.1-1.2,0c-0.2,0-0.3,0-0.5-0.1
			c-0.4-0.1-0.8-0.3-1.2-0.6c-0.3-0.3-0.6-0.6-0.7-1c-0.1-0.4-0.2-0.8-0.2-1.2c0-0.3,0-0.5,0-0.8c0-1.2,0-2.3,0-3.5
			c0-0.1,0-0.1,0-0.2c-0.1,0-0.1,0-0.2,0c-0.4,0-0.9,0-1.3,0c-0.1,0-0.1,0-0.2,0C89.3,14.8,89.3,14.1,89.3,13.4z"/>
		<path d="M53.7,22.7c0-0.1,0-0.2,0-0.3c0-3.5,0-7.1,0-10.6c0-0.8,0-1.6,0-2.4c0,0,0,0,0,0c0-0.2,0-0.2,0.2-0.2c0.2,0,0.5,0,0.7,0
			c0.4,0,0.8,0,1.2,0c0.2,0,0.2,0,0.2,0.3c0,2.4,0,4.7,0,7.1c0,2,0,4,0,6c0,0.3,0,0.3-0.3,0.3c-0.6,0-1.3,0-1.9,0
			C53.8,22.7,53.8,22.7,53.7,22.7z"/>
		<path d="M60.3,22.7c-0.1,0-0.1,0-0.2,0c-0.7,0-1.3,0-2,0c0,0-0.1,0-0.1,0c-0.1,0-0.1,0-0.1-0.1c0,0,0-0.1,0-0.1
			c0-4.4,0-8.7,0-13.1c0-0.3,0-0.3,0.3-0.3c0.6,0,1.3,0,1.9,0c0.1,0,0.1,0,0.2,0C60.3,13.6,60.3,18.2,60.3,22.7z"/>
		<path d="M75,13.4c0,0.4,0,0.8,0,1.2c0,0,0,0,0,0c0,0,0-0.1,0.1-0.1c0.3-0.6,0.9-1,1.6-1.2c0.4-0.1,0.8-0.1,1.2-0.1
			c0.4,0,0.8,0.1,1.2,0.3c0,0,0.1,0,0.1,0c0,0.2-0.8,2.2-0.9,2.4c0,0-0.1,0-0.1-0.1c-0.3-0.1-0.6-0.2-0.9-0.2c-0.3,0-0.5,0-0.8,0.1
			c-0.6,0.2-1,0.5-1.2,1.1c-0.1,0.2-0.1,0.3-0.1,0.5c-0.1,1.7,0,3.4,0,5.2c0,0,0,0.1,0,0.1c0,0,0,0,0,0c0,0-0.1,0-0.2,0
			c-0.7,0-1.3,0-2,0c0,0-0.1,0-0.1,0c-0.1,0-0.1,0-0.1-0.1c0,0,0-0.1,0-0.1c0-2.9,0-5.8,0-8.7c0-0.1,0-0.2,0-0.2
			c0-0.1,0-0.1,0.1-0.1c0.1,0,0.1,0,0.2,0c0.6,0,1.2,0,1.8,0C74.9,13.4,74.9,13.4,75,13.4z"/>
	</g>
</g>
</svg>
