<?xml version="1.0" encoding="utf-8"?>
<!-- Generator: Adobe Illustrator 27.3.1, SVG Export Plug-In . SVG Version: 6.00 Build 0)  -->
<svg version="1.1" id="Layer_1" xmlns="http://www.w3.org/2000/svg" xmlns:xlink="http://www.w3.org/1999/xlink" x="0px" y="0px"
	 viewBox="0 0 400 400" style="enable-background:new 0 0 400 400;" xml:space="preserve">
<style type="text/css">
	.st0{fill:#040F17;}
	.st1{fill:#FFF6E8;}
	.st2{fill:#BC9369;}
</style>
<g>
	<path class="st0" d="M119.8,383.5c-32.4-14.8-59.2-35.9-80.6-63.6c-16.4-21.2-28.7-46.3-34.6-72.5c-1.6-7.1-2.8-13.8-3.7-19.9
		c-0.3-2-0.5-3.9-0.6-5.7c-0.2-2-0.3-3.9-0.3-5.7c-0.1-10.8-0.1-21.5,0-32.2c0-3.4,0.4-6.9,0.9-10.2c1.4-9.1,3.3-18.1,5.8-26.9
		c5.9-21.3,14.7-40.7,26.5-58c13-19.2,28.9-35.8,47.7-49.9c24.5-18.3,52.2-30.2,83.1-35.8c4.5-0.8,9.5-1.5,15.2-2.1
		c2.3-0.2,4.5-0.4,6.5-0.6c7.4-0.5,15.5-0.5,24.3-0.2c1.4,0.1,2.7,0.2,3.9,0.3c2.5,0.3,5,0.2,7.5,0.7c1.6,0.3,3.1,0.2,4.7,0.5
		c1,0.2,1.9,0.4,2.8,0.5c0.9,0.1,1.9,0.2,2.9,0.4c35.3,5.7,67,20.2,95.1,43.5c29.3,24.2,50.1,54.4,62.5,90.6
		c4.8,13.9,7.9,27.5,9.4,40.9c0.2,1.4,0.3,2.8,0.4,4.2c0.1,1.9,0.4,3.7,0.5,5.6c0.4,9.3,0.4,17.9,0,25.6c-0.3,4.9-0.9,10.8-1.9,17.8
		c-5.5,36.9-20.4,69.5-44.7,97.8c-24.4,28.4-54.5,48.8-90.2,61.3c-11.2,3.9-23.3,6.9-36.2,8.9c-1.5,0.2-3,0.4-4.5,0.5
		c-2,0.1-3.9,0.4-5.9,0.5c-7.9,0.2-16.1,0.5-24.1,0.4c-3.6-0.1-7.3-0.2-10.9-0.5c-4.2-0.3-8.9-0.9-14-1.7
		C149.8,394.7,134,390,119.8,383.5z M194.4,226.3c3.3,0.2,6.8,0.3,10.4,0.1c0.3,0,0.5,0.1,0.5,0.5c0.1,2.1,0.1,4.1,0.1,6
		c0.1,49.2,0.1,100.3,0.1,153.3c0,0.3,0.2,0.5,0.5,0.5c0,0,0,0,0,0c5.3-0.1,10.5-0.5,15.7-1.2c28.8-4,55.5-14,80.1-30.2
		c19.2-12.6,35.8-28.4,49.8-47.4c8.6-11.6,15.9-24.9,22.1-39.8c1.8-4.4,3.3-8.5,4.4-12.5c4.3-14.7,6.8-28.5,7.5-41.3
		c0.8-12.8,0.6-24.1-0.5-34c-3.4-30-13.9-58.3-31.6-84.8c-2.3-3.5-5-7-8-10.6c-8.3-10-16.3-18.2-23.8-24.7c-8.5-7.3-17.9-14-28-20.1
		c-20.7-12.4-42.5-20.3-65.5-23.7c-23.2-3.4-46.2-2.7-69,2.1c-4.7,1-9.1,2.1-13.3,3.4c-15.1,4.7-28.8,10.7-41.1,18.2
		c-21,12.7-39,28.9-54.1,48.5c-14.4,18.7-24.9,41.1-30.9,63.7c-1.5,5.6-2.7,11.3-3.8,17.3c-2.5,13.9-3.1,27.3-2.6,40.8
		c1.1,24.6,7.1,49.6,18.4,71.6C45.2,308,64,331,87.8,348.5c3.6,2.7,7.2,5.2,10.8,7.5c23.4,15.3,49,25,77,29.1
		c5.9,0.9,11.9,1.3,18,1.4c0.3,0,0.5-0.2,0.5-0.5l0.1-159.4C194.1,226.4,194.2,226.3,194.4,226.3
		C194.3,226.3,194.4,226.3,194.4,226.3z"/>
	<path class="st1" d="M194.4,226.3c-0.1,0-0.3,0.1-0.3,0.2c0,0,0,0,0,0L194,385.9c0,0.3-0.2,0.5-0.5,0.5c-6,0-12-0.5-18-1.4
		c-27.9-4.1-53.6-13.8-77-29.1c-3.5-2.3-7.1-4.8-10.8-7.5C64,331,45.2,308,31.7,281.9c-11.3-22-17.3-47-18.4-71.6
		c-0.6-13.6,0.1-27,2.6-40.8c1.1-6,2.3-11.7,3.8-17.3c6-22.7,16.4-45,30.9-63.7c15.1-19.6,33.1-35.7,54.1-48.5
		c12.3-7.5,26-13.6,41.1-18.2c4.2-1.3,8.7-2.5,13.3-3.4c22.8-4.8,45.8-5.5,69-2.1c23,3.4,44.9,11.3,65.5,23.7
		c10.1,6.1,19.5,12.8,28,20.1c7.5,6.5,15.5,14.7,23.8,24.7c3,3.6,5.7,7.1,8,10.6C371,121.8,381.6,150,385,180
		c1.1,9.9,1.3,21.2,0.5,34c-0.8,12.9-3.3,26.6-7.5,41.3c-1.1,3.9-2.6,8.1-4.4,12.5c-6.1,14.9-13.5,28.2-22.1,39.8
		c-14,19-30.6,34.8-49.8,47.4c-24.7,16.2-51.4,26.3-80.1,30.2c-5.2,0.7-10.4,1.1-15.7,1.2c-0.3,0-0.5-0.2-0.5-0.5c0,0,0,0,0,0
		c0-52.9,0-104-0.1-153.3c0-1.8-0.1-3.8-0.1-6c0-0.3-0.2-0.5-0.5-0.5C201.2,226.5,197.7,226.5,194.4,226.3z M181.1,220.4
		c-2.5-2.1-4.7-4.5-6.5-7.2c-1.6-3-2.8-6.3-3.6-9.7l-0.7-5c-0.1-3.5,0.4-6.9,1.4-10c0.1-1.1,0.3-1.8,0.7-2.3l4.9-7.9l5.6-4.7
		c3-1.9,6.3-3.4,9.8-4.3c1-0.1,1.8-0.3,2.3-0.5c3.4-0.3,6.5-0.3,9.4,0l2,0.4c3.4,0.9,6.6,2.3,9.5,4.3l6,4.7c2.1,2.4,3.8,5,5,8
		l0.7,2.2c1,3.3,1.4,6.6,1.5,9.8l-0.6,5.3c-0.2,0.4-0.5,1.2-0.8,2.5c-0.5,2.2-1.6,4.6-3.1,7.3c-1.8,2.6-3.9,5-6.4,7.2
		c-2.4,1.7-5.1,3.2-8,4.5c-0.4,0.2-0.4,0.4-0.2,0.7c3.4,4.5,7.3,8.2,11.9,11.3c8.5,5.7,17.6,9.3,27.3,10.7c17.6,2.6,34.6,0.6,50.9-6
		c11-4.4,21.2-10.7,30.6-18.8c7.6-6.6,14.9-12.8,21.7-18.6c0.3-0.3,0.3-0.5,0-0.8c-16-16.6-33.8-29.9-56.6-34.6
		c-0.2,0-0.3-0.2-0.3-0.5c0-0.1,0-0.1,0.1-0.1c6-8.8,10.3-18,12.9-27.6c0.9-3.4,1.6-7.2,2.2-11.6c1.3-10.5,1-20.1,1-30.2
		c0-0.5-0.2-0.7-0.7-0.8c-24-3-49.2-0.8-69.7,11.9c-0.3,0.2-0.4,0.1-0.4-0.2c-0.6-5.6-2.1-11.3-4.5-17.1
		c-7.7-18.7-20-33.3-36.5-46.4c-0.2-0.2-0.4-0.2-0.6,0c-3.1,2.6-6.2,5.3-9.4,8.2c-10.6,9.7-18.9,20.7-25.1,33
		c-2.5,5-4.2,9.8-5.2,14.4c-0.5,2.5-1,5.1-1.5,7.8c-0.1,0.3-0.2,0.4-0.5,0.3c-4-2.2-7.4-3.9-10.3-5.2c-8.5-3.7-17.7-6.1-27.6-7.2
		c-9.5-1.1-20.1-1-31.9,0.3c-0.2,0-0.4,0.2-0.4,0.4c-0.3,6.8-0.3,13.6-0.1,20.2c0.6,17.7,5.7,34.9,15.8,49.8
		c0.1,0.1,0.1,0.3-0.1,0.4c0,0-0.1,0-0.1,0c-17.3,3.6-33.7,12.8-46.5,24.7c-3.6,3.3-7.1,6.7-10.5,10.2c-0.1,0.1-0.1,0.4,0,0.5
		c0,0,0,0,0,0c7.3,6.3,14.6,12.6,22.1,18.8c4.6,3.8,9.2,7.2,13.8,10.2c19.2,12.2,40.3,17.3,63.4,15c8.1-0.8,16-3,23.7-6.6
		c7.9-3.7,14.6-9.1,20.1-16.1c0.1-0.1,0.1-0.3,0-0.4c0,0,0,0,0,0L181.1,220.4z M220.4,197.4c0-11.4-9.3-20.6-20.7-20.6
		s-20.7,9.2-20.7,20.6c0,11.4,9.3,20.6,20.7,20.6l0,0C211.1,218,220.4,208.8,220.4,197.4L220.4,197.4z M179.1,272.4
		c4.7-2.5,6.4-8.3,3.9-13l0,0c-2.5-4.7-8.4-6.5-13.1-4v0c-4.7,2.5-6.4,8.3-3.9,13c0,0,0,0,0,0C168.5,273,174.4,274.8,179.1,272.4
		C179.1,272.4,179.1,272.4,179.1,272.4z M234.1,263.8c0-5.3-4.3-9.6-9.7-9.6c-5.3,0-9.7,4.3-9.7,9.6c0,5.3,4.3,9.6,9.7,9.6l0,0
		C229.8,273.4,234.1,269.1,234.1,263.8z M173.5,346.3c1.3-0.4,3.5-0.9,6.6-1.4c0.8-0.1,1.3-0.5,1.6-1c4.4-9,3.8-20.4,0.7-29.5
		c-7.8-22.7-28.1-39.2-50.7-47.6c-9.1-3.4-18.9-5.7-28.7-6.1c-10.1-0.4-19.9,0.6-29.5,3c-0.5,0.1-0.7,0.4-0.6,0.9
		c2.2,16.1,7.8,30.6,16.8,43.7c14.4,20.8,35.8,32.6,60.6,37.1C158,346.8,165.7,347.1,173.5,346.3z M217.5,344.4
		c0.7,0.6,1.6,0.9,2.6,1c2.1,0.2,4,0.5,5.6,0.8c2.1,0.3,3.8,0.4,4.9,0.4c12.1,0.1,23.6-1.8,34.4-5.6c17.9-6.3,33.2-17.7,44.1-33.2
		c3.4-4.8,5.9-8.9,7.7-12.6c4.8-9.8,7.9-20,9.2-30.8c0-0.3-0.2-0.6-0.4-0.6c-12.2-3.2-26.1-4.3-38.8-2.3
		c-29.1,4.7-57.3,22-68.7,49.2c-2.1,5.1-3.4,10.3-3.7,15.5c-0.3,4.1-0.3,7.2,0,9.2C214.8,338.7,215.8,341.6,217.5,344.4z"/>
	<path class="st0" d="M218.2,220.5c5.3,4.2,11.2,7.5,18,9.7c11.8,3.9,23.8,5,35.9,2.8c6.5-1.2,12.6-3,18.2-5.3
		c12.4-5.2,24.4-13.6,35.2-22.2c0.4-0.3,0.8-0.7,1.1-1c0.1-0.1,0.1-0.2,0-0.3c0,0,0,0,0,0c-3.8-2.9-7.6-6.1-11.8-8.5
		c-9.2-5.3-19.5-9-30.3-10.2c-5.8-0.6-11.4-0.8-16.9-0.6c-0.6,0-1.1,0.1-1.3,0.3c-2.3,1.3-4.5,2.7-6.8,4c-9.3,5.3-19.5,8.4-30.4,9.2
		c0-3.2-0.5-6.5-1.5-9.8c17.1-2.6,35-10.3,46.9-22.7c13.3-13.7,17.9-32.3,18.6-51c0-0.1-0.1-0.2-0.2-0.2c0,0,0,0,0,0
		c-11.8,0.7-24.9,3-35.9,7.6c-9.7,4.1-17.3,10.5-22.6,19.2c-0.9,1.5-2.5,4.6-4.6,9.2c-1.3,2.9-2.8,5.9-4.5,9.1
		c-2.7,4.9-5.8,9.5-9.4,13.7c-2.9-2-6.1-3.4-9.5-4.3c7.2-8.3,12.4-17.5,15.8-27.8c3.7-11.3,3.9-23.2,0.6-34.4
		c-2.5-8.6-6.7-16.8-12.7-24.9c-3.1-4.2-6.8-7.8-10-11.9c-0.1-0.2-0.4-0.2-0.6-0.1c0,0,0,0,0,0c-3.8,3.6-7.2,7.4-10.3,11.3
		c-14,17.6-18.7,41-11,62.5c2.9,8.1,6.9,15.6,12,22.2c1.2,1.5,2,2.5,2.6,3c-3.5,1-6.8,2.4-9.8,4.3c-0.5-0.7-1.3-1.8-2.5-3.2
		c-5.7-6.8-9.2-15.9-13.4-24.2c-5.8-11.6-14.9-19.8-27.1-24.6c-4.6-1.8-9.4-3.3-14.4-4.3c-6.7-1.4-13.2-2.4-19.5-2.9
		c-0.2,0-0.3,0.1-0.4,0.3c0,0,0,0,0,0c0.3,7.8,1.3,15.3,3.1,22.4c1.6,6.5,4.4,12.9,8.3,19.3c6.9,11.1,16.7,18.4,28.4,24.1
		c8.3,4.1,17.1,6.7,26.3,8c-1.1,3.2-1.5,6.5-1.4,10c-13.5-1.2-25.8-5.6-37-13.1c-0.7-0.5-1.6-0.7-2.5-0.7c-7.2-0.1-14.9,0.2-22,1.5
		c-14.1,2.6-26.4,8.7-37,18.2c0,0,0,0.1,0,0.1c0,0,0,0,0,0c9.6,7.3,18.4,14.1,28.9,19.6c21.1,11,44.4,13.3,66.7,4.6
		c4.9-1.9,9.4-4.7,13.6-8.2l7.9,4.6c0.1,0.1,0.2,0.3,0.1,0.4c0,0,0,0,0,0c-5.5,7-12.2,12.4-20.1,16.1c-7.7,3.6-15.6,5.9-23.7,6.6
		c-23.1,2.2-44.2-2.8-63.4-15c-4.6-3-9.2-6.3-13.8-10.2c-7.5-6.2-14.8-12.5-22.1-18.8c-0.2-0.1-0.2-0.4,0-0.5c0,0,0,0,0,0
		c3.4-3.4,6.9-6.8,10.5-10.2c12.8-12,29.2-21.2,46.5-24.7c0.2,0,0.3-0.2,0.2-0.4c0,0,0-0.1,0-0.1c-10.1-14.9-15.1-32.1-15.8-49.8
		c-0.2-6.6-0.2-13.3,0.1-20.2c0-0.2,0.1-0.4,0.4-0.4c11.8-1.3,22.4-1.4,31.9-0.3c9.8,1.1,19,3.5,27.6,7.2c2.9,1.2,6.4,3,10.3,5.2
		c0.3,0.2,0.5,0.1,0.5-0.3c0.5-2.7,1-5.3,1.5-7.8c1-4.6,2.7-9.4,5.2-14.4c6.1-12.3,14.5-23.3,25.1-33c3.1-2.9,6.3-5.6,9.4-8.2
		c0.2-0.2,0.4-0.2,0.6,0c16.5,13.1,28.8,27.7,36.5,46.4c2.4,5.8,3.9,11.5,4.5,17.1c0,0.3,0.2,0.4,0.4,0.2C261.8,97.2,287,95,311,98
		c0.5,0.1,0.7,0.3,0.7,0.8c0.1,10.1,0.3,19.7-1,30.2c-0.5,4.4-1.3,8.3-2.2,11.6c-2.6,9.6-6.9,18.8-12.9,27.6
		c-0.1,0.2-0.1,0.4,0.1,0.5c0,0,0.1,0,0.1,0.1c22.8,4.7,40.5,18,56.6,34.6c0.3,0.3,0.3,0.6,0,0.8c-6.9,5.8-14.1,12-21.7,18.6
		c-9.4,8.1-19.6,14.4-30.6,18.8c-16.3,6.6-33.3,8.6-50.9,6c-9.7-1.5-18.8-5-27.3-10.7c-4.6-3.1-8.5-6.8-11.9-11.3
		c-0.2-0.3-0.2-0.5,0.2-0.7C213.1,223.7,215.8,222.2,218.2,220.5z"/>
	<path class="st2" d="M206.3,169.2l-2-0.4c-0.1-14.9-0.2-29.9-0.3-44.8c0-6.5-1-13.2-3-20c-0.4-1.4-0.9-2.7-1.5-4.1
		c-0.1-0.1-0.2-0.2-0.4-0.1c-0.1,0-0.1,0.1-0.2,0.2c-1.4,3.7-2.5,7.5-3.2,11.4c-0.9,4.8-0.8,11-0.9,16.7
		c-0.2,13.5-0.1,27.1,0.1,40.7c-0.5,0.3-1.3,0.4-2.3,0.5c-0.6-0.5-1.4-1.5-2.6-3c-5.1-6.7-9.1-14.1-12-22.2
		c-7.7-21.4-3-44.8,11-62.5c3.1-3.9,6.5-7.7,10.3-11.3c0.2-0.2,0.4-0.2,0.6,0c0,0,0,0,0,0c3.3,4.1,6.9,7.7,10,11.9
		c6,8,10.2,16.3,12.7,24.9c3.3,11.2,3.1,23.1-0.6,34.4C218.8,151.6,213.5,160.9,206.3,169.2z"/>
	<path class="st0" d="M204.4,168.7c-2.9-0.4-6-0.4-9.4,0c-0.2-13.6-0.3-27.2-0.1-40.7c0.1-5.7,0-11.9,0.9-16.7
		c0.7-3.9,1.8-7.7,3.2-11.4c0.1-0.2,0.2-0.2,0.4-0.2c0.1,0,0.1,0.1,0.2,0.2c0.6,1.3,1.2,2.7,1.5,4.1c1.9,6.8,2.9,13.5,3,20
		C204.2,138.8,204.3,153.8,204.4,168.7z"/>
	<path class="st2" d="M182.9,173.6l-5.6,4.7c-3.4-3.5-6.8-6.9-10.2-10.3c-6.9-7-14.3-13.9-22.1-20.5c-4.4-3.8-9.1-7.2-13.9-10.6
		c-0.4-0.3-0.4-0.2-0.3,0.2c3.3,6.9,7.5,13.5,12.4,19.8c7.5,9.6,17.2,19.4,29.1,29.4c-0.3,0.5-0.6,1.3-0.7,2.3c-9.2-1.3-18-4-26.3-8
		c-11.7-5.7-21.5-13-28.4-24.1c-3.9-6.4-6.7-12.8-8.3-19.3c-1.8-7.2-2.8-14.7-3.1-22.4c0-0.2,0.1-0.3,0.3-0.3c0,0,0,0,0,0
		c6.3,0.5,12.8,1.5,19.5,2.9c4.9,1,9.7,2.5,14.4,4.3c12.3,4.9,21.3,13.1,27.1,24.6c4.2,8.3,7.7,17.5,13.4,24.2
		C181.6,171.8,182.4,172.8,182.9,173.6z"/>
	<path class="st2" d="M227.6,188.4l-0.7-2.2c1.1-1.1,3.8-3.6,7.9-7.5c3.5-3.3,7.9-7.7,13-13.1c3.6-3.8,6.5-7.1,8.6-9.9
		c4.5-5.9,8.4-12.1,11.8-18.6c0.1-0.2,0.1-0.3-0.2-0.1c-8.5,5.6-16.4,11.8-23.7,18.6c-4.8,4.5-11.2,10.6-16.4,16.2
		c-2,2.2-4.1,4.3-6.2,6.5l-6-4.7c3.6-4.2,6.8-8.8,9.4-13.7c1.7-3.2,3.2-6.2,4.5-9.1c2.1-4.6,3.6-7.7,4.6-9.2
		c5.3-8.7,12.8-15.1,22.6-19.2c11-4.6,24-6.9,35.9-7.6c0.1,0,0.2,0.1,0.3,0.2c0,0,0,0,0,0c-0.7,18.6-5.3,37.2-18.6,51
		C262.5,178.1,244.7,185.8,227.6,188.4z"/>
	<path class="st0" d="M177.3,178.3l-4.9,7.9c-11.9-10-21.6-19.8-29.1-29.4c-4.9-6.3-9.1-12.9-12.4-19.8c-0.2-0.4-0.1-0.5,0.3-0.2
		c4.8,3.4,9.5,6.8,13.9,10.6c7.8,6.7,15.2,13.5,22.1,20.5C170.5,171.4,173.9,174.8,177.3,178.3z"/>
	<path class="st0" d="M226.8,186.1c-1.3-3-3-5.6-5-8c2.1-2.2,4.1-4.3,6.2-6.5c5.3-5.6,11.6-11.7,16.4-16.2
		c7.3-6.8,15.2-13,23.7-18.6c0.2-0.2,0.3-0.1,0.2,0.1c-3.4,6.5-7.3,12.7-11.8,18.6c-2.1,2.8-5,6.1-8.6,9.9c-5.2,5.4-9.5,9.8-13,13.1
		C230.6,182.5,228,185,226.8,186.1z"/>
	<ellipse class="st0" cx="199.6" cy="197.4" rx="20.7" ry="20.6"/>
	<path class="st2" d="M170.3,198.5l0.7,5c-16.1-0.2-32.3-0.1-48.4,0.2c-5.8,0.1-11.3,1-16.6,2.6c-0.3,0.1-0.6,0.3-0.9,0.5
		c-0.1,0.1-0.1,0.2,0,0.3c0,0,0,0,0.1,0c6.3,2.8,12,4.2,19.3,4.8c11,0.9,20,1.3,27,1.3c7.7,0,15.4,0.1,23.1,0.1
		c1.8,2.7,3.9,5.1,6.5,7.2c-4.1,3.5-8.7,6.3-13.6,8.2c-22.3,8.8-45.6,6.4-66.7-4.6c-10.5-5.5-19.4-12.3-28.9-19.6c0,0,0-0.1,0-0.1
		c0,0,0,0,0,0c10.5-9.5,22.8-15.6,37-18.2c7.1-1.3,14.7-1.6,22-1.5c0.9,0,1.8,0.2,2.5,0.7C144.4,192.9,156.8,197.3,170.3,198.5z"/>
	<path class="st2" d="M218.2,220.5c2.5-2.2,4.6-4.6,6.4-7.2c16.4,0.2,32.7-0.2,48.9-1.3c7.2-0.5,14-2,20.5-4.4
		c0.8-0.3,0.8-0.6,0-0.9c-3.1-1.1-6.4-2-9.7-2.5c-2.2-0.4-5.6-0.6-10.2-0.6c-15.2-0.1-30.4-0.1-45.6,0l0.6-5.3
		c10.9-0.8,21-3.9,30.4-9.2c2.3-1.3,4.6-2.7,6.8-4c0.3-0.2,0.7-0.2,1.3-0.3c5.5-0.2,11.1,0,16.9,0.6c10.7,1.1,21,4.9,30.3,10.2
		c4.2,2.4,8,5.5,11.8,8.5c0.1,0.1,0.1,0.2,0,0.3c0,0,0,0,0,0c-0.3,0.4-0.7,0.7-1.1,1c-10.8,8.6-22.8,17-35.2,22.2
		c-5.6,2.3-11.7,4.1-18.2,5.3c-12.1,2.2-24.1,1.1-35.9-2.8C229.4,227.9,223.4,224.7,218.2,220.5z"/>
	<path class="st0" d="M171,203.5c0.9,3.5,2.1,6.7,3.6,9.7c-7.7,0-15.4,0-23.1-0.1c-7,0-16-0.5-27-1.3c-7.3-0.6-12.9-2-19.3-4.8
		c-0.1,0-0.1-0.2-0.1-0.3c0,0,0,0,0-0.1c0.2-0.2,0.5-0.4,0.9-0.5c5.3-1.6,10.8-2.5,16.6-2.6C138.7,203.4,154.8,203.3,171,203.5z"/>
	<path class="st0" d="M228.5,203.5c15.3-0.1,30.5-0.1,45.6,0c4.6,0,7.9,0.2,10.2,0.6c3.3,0.6,6.6,1.4,9.7,2.5c0.8,0.3,0.8,0.6,0,0.9
		c-6.5,2.5-13.3,3.9-20.5,4.4c-16.3,1.1-32.6,1.6-48.9,1.3c1.6-2.7,2.6-5.1,3.1-7.3C228,204.8,228.3,203.9,228.5,203.5z"/>
	
		<ellipse transform="matrix(0.7356 -0.6774 0.6774 0.7356 -132.5869 187.9306)" class="st0" cx="174.5" cy="263.8" rx="9.6" ry="9.7"/>
	<ellipse class="st0" cx="224.4" cy="263.8" rx="9.7" ry="9.6"/>
	<path class="st0" d="M181.7,343.9c-2.2-5.3-3.7-8.8-4.5-10.6c-3.3-7.4-8.5-14.4-13.8-20.7c-13.4-16-30.1-27-50.1-33.1
		c-4.3-1.3-8.5-2.3-12.8-2.9c-0.3,0-0.6,0.2-0.6,0.5c0,0,0,0.1,0,0.1l0,6.7c0,0.5,0.3,1,0.8,1.1c12.6,3.5,24.5,8.3,35.2,15.3
		c13.4,8.9,24.1,20.5,31.9,34.9c2,3.6,3.8,7.3,5.7,11.2c-7.8,0.8-15.5,0.5-23.2-0.9c-24.8-4.5-46.3-16.3-60.6-37.1
		c-9-13.1-14.6-27.6-16.8-43.7c-0.1-0.5,0.1-0.7,0.6-0.9c9.6-2.4,19.4-3.4,29.5-3c9.8,0.4,19.5,2.7,28.7,6.1
		c22.6,8.4,42.9,24.8,50.7,47.6C185.5,323.5,186.1,334.9,181.7,343.9z"/>
	<path class="st0" d="M225.8,346.2c1.9-4.4,3.3-7.4,4.2-9c4.9-9.1,10.7-17.1,17.4-24.1c7.8-8.1,17.1-14.6,27.9-19.7
		c7.7-3.6,15.4-6.5,23.2-8.7c0.3-0.1,0.6-0.4,0.6-0.8l0-7.1c0-0.3-0.2-0.5-0.5-0.5c0,0,0,0-0.1,0c-20.3,3.2-39.4,12.5-54.1,26.4
		c-7.7,7.3-14.2,15.3-19.4,24c-3.1,5.2-5.6,11-7.4,17.5c-1.7-2.8-2.8-5.7-3.1-8.8c-0.2-2.1-0.2-5.1,0-9.2c0.3-5.3,1.6-10.4,3.7-15.5
		c11.4-27.2,39.6-44.5,68.7-49.2c12.7-2,26.6-0.9,38.8,2.3c0.3,0.1,0.5,0.3,0.4,0.6c-1.3,10.7-4.4,21-9.2,30.8
		c-1.8,3.6-4.4,7.8-7.7,12.6c-10.9,15.4-26.2,26.8-44.1,33.2c-10.9,3.8-22.3,5.7-34.4,5.6C229.5,346.6,227.9,346.5,225.8,346.2z"/>
	<path class="st2" d="M181.7,343.9c-0.3,0.6-0.8,0.9-1.6,1c-3.1,0.5-5.3,1-6.6,1.4c-1.8-3.9-3.7-7.6-5.7-11.2
		c-7.9-14.4-18.5-26-31.9-34.9c-10.6-7-22.6-11.8-35.2-15.3c-0.5-0.1-0.8-0.6-0.8-1.1l0-6.7c0-0.3,0.2-0.6,0.6-0.6c0,0,0.1,0,0.1,0
		c4.3,0.6,8.5,1.6,12.8,2.9c20,6.1,36.7,17.1,50.1,33.1c5.3,6.3,10.5,13.3,13.8,20.7C178,335,179.5,338.6,181.7,343.9z"/>
	<path class="st2" d="M225.8,346.2c-1.6-0.4-3.5-0.6-5.6-0.8c-1-0.1-1.9-0.4-2.6-1c1.9-6.5,4.3-12.4,7.4-17.5
		c5.2-8.6,11.7-16.6,19.4-24c14.7-13.9,33.8-23.2,54.1-26.4c0.2,0,0.5,0.1,0.5,0.4c0,0,0,0,0,0.1l0,7.1c0,0.3-0.2,0.7-0.6,0.8
		c-7.8,2.2-15.6,5.1-23.2,8.7c-10.7,5-20,11.6-27.9,19.7c-6.7,7-12.6,15-17.4,24.1C229.1,338.8,227.7,341.8,225.8,346.2z"/>
</g>
</svg>
