<?xml version="1.0" encoding="utf-8"?>
<!-- Generator: Adobe Illustrator 27.3.1, SVG Export Plug-In . SVG Version: 6.00 Build 0)  -->
<svg version="1.1" id="Layer_1" xmlns="http://www.w3.org/2000/svg" xmlns:xlink="http://www.w3.org/1999/xlink" x="0px" y="0px"
	 viewBox="0 0 100 100" style="enable-background:new 0 0 100 100;" xml:space="preserve">
<g fill='currentColor'>
	<path d="M32.1,0H7.7C5.6,0,3.8,1.8,3.8,3.9v24.4v28.2v24.4c0,2.1,1.8,3.9,3.9,3.9h20.5c2.1,0,3.9-1.8,3.9-3.9V56.6V32.1
		c0-2.1,1.8-3.9,3.9-3.9h20.6c2.1,0,3.9-1.8,3.9-3.9V3.9c0-2.1-1.8-3.9-3.9-3.9H32.1z"/>
	<path d="M68,71.8H43.6c-2.1,0-3.9,1.8-3.9,3.9v20.5c0,2.1,1.8,3.9,3.9,3.9h24.4h24.4c2.1,0,3.9-1.8,3.9-3.9V75.6
		c0-2.1-1.8-3.9-3.9-3.9H68z"/>
	<path d="M68,11.5v20.5c0,2.1-1.8,3.9-3.9,3.9H43.6c-2.1,0-3.9,1.8-3.9,3.9v20.5c0,2.1,1.8,3.9,3.9,3.9h24.4h24.4
		c2.1,0,3.9-1.8,3.9-3.9V35.8V11.5c0-2.1-1.8-3.9-3.9-3.9H71.9C69.7,7.6,68,9.4,68,11.5z"/>
</g>
</svg>
