<?xml version="1.0" encoding="utf-8"?>
<!-- Generator: Adobe Illustrator 27.3.1, SVG Export Plug-In . SVG Version: 6.00 Build 0)  -->
<svg version="1.1" id="Layer_1" xmlns="http://www.w3.org/2000/svg" xmlns:xlink="http://www.w3.org/1999/xlink" x="0px" y="0px"
	 viewBox="0 0 200 90" style="enable-background:new 0 0 200 90;" xml:space="preserve">
<style type="text/css">
	.st0{fill:#FFFFFF;}
</style>
<g>
	<path class="st0" d="M113.9,15.6c0,0-13.7,16.9-13,18c1-1.1-4.9-18.2-4.9-18.2S94.7,11.8,90.8,0h-14h-34H17.2l-2.6,11.1h19.3h4.6
		c12.4,0,20,5.1,17.9,14.2c-2.3,9.9-13.1,14.1-24.7,14.1h-4.3l5.6-24.2H13.6L5.5,50.6h27.4c20.6,0,40.2-11.1,43.7-25.3
		c0.6-2.6,0.5-9.2-1.1-13.1c0-0.1-0.1-0.3-0.2-0.5c-0.1-0.1-0.2-0.7,0.2-0.8c0.2-0.1,0.5,0.3,0.5,0.4c0,0,0.2,0.5,0.4,0.8l17.4,50.3
		l44.4-51.2l18.8-0.1h4.6c12.4,0,20.1,5.1,18,14.2c-2.3,9.9-13.2,14.1-24.8,14.1h-4.4l5.6-24.2h-19.3l-8.2,35.4h27.4
		c20.6,0,40.3-11.1,43.6-25.3C202.9,11.1,188.4,0,167.6,0h-18.1h-22.7C115.9,13.1,113.9,15.6,113.9,15.6L113.9,15.6z"/>
	<path class="st0" d="M94.4,62.6C42.3,62.6,0,68.7,0,76.3C0,83.8,42.3,90,94.4,90c52.2,0,94.5-6.1,94.5-13.7
		C188.9,68.7,146.7,62.6,94.4,62.6z M91.1,81.1c-12,0-21.6-2.1-21.6-4.6c0-2.5,9.6-4.6,21.6-4.6c11.9,0,21.5,2.1,21.5,4.6
		C112.6,79.1,103,81.1,91.1,81.1z"/>
</g>
</svg>
