<?xml version="1.0" encoding="utf-8"?>
<!-- Generator: Adobe Illustrator 27.3.1, SVG Export Plug-In . SVG Version: 6.00 Build 0)  -->
<svg version="1.1" id="Layer_1" xmlns="http://www.w3.org/2000/svg" xmlns:xlink="http://www.w3.org/1999/xlink" x="0px" y="0px"
	 viewBox="0 0 260 260" style="enable-background:new 0 0 260 260;" xml:space="preserve">
<style type="text/css">
	.st0{fill:#FFFFFF;stroke:#000000;stroke-miterlimit:10;}
	.st1{fill:#EF4444;}
</style>
<g>
	<g>
		<path class="st0" d="M130.3,69.3c-0.6-0.2-1.3-0.2-1.5-0.1c-0.1,0.2-3,0.6-6.3,0.9c-35.7,3.6-63.6,35.4-63,71.7
			c0.6,29.9,20.1,56.5,48.3,66c8.4,2.7,12.8,3.4,23.7,3.3c37.3-0.3,67.8-30.7,69-68.9c1.2-35.9-27.6-69-62.4-72
			C134.4,69.9,131,69.5,130.3,69.3z M180.9,154.8c-2.8,10.4-6.4,16.4-13.7,23.7c-14.4,14.3-36.2,19-55.6,12
			c-35.5-12.9-46.4-59.1-20.3-86.4c8.3-8.7,21.1-15.2,32.7-16.5c1.4-0.2,4.5-0.3,7-0.2C166,88.5,190.3,121.2,180.9,154.8z"/>
		<path class="st0" d="M115.7,106.1c-6.2,2.9-11.8,8.3-15.8,15.2c-4.9,8.6-6.3,20.5-2.4,20.5c1.9,0,2.7-1.6,3.3-6.4
			c1.5-13.7,13.9-25.9,27.9-27.3c4.7-0.5,5.3-0.8,5.3-2.9c0-1.3-0.4-2.4-0.9-2.4s-1.5-0.2-2.3-0.4
			C128.6,101.8,121.1,103.6,115.7,106.1z"/>
		<path class="st0" d="M125.4,128.8c-5.2,2.3-7.8,6.2-7.7,12.1c0,7.7,5.3,12.5,13.5,12.2c6.3-0.3,11.8-5.9,11.8-12.1
			c0-4.5-2.5-9.5-5.7-11.4C132.9,127,129.7,126.8,125.4,128.8z"/>
		<path class="st0" d="M28.4,71.2c-6,0-11.8,0.1-13,0.3c-3,0.6-4.9,4.5-3.5,7.1c1.4,2.6,3.5,3,16.4,3c9.4,0,11.1-0.2,12.8-1.9
			c2.4-2.4,2.4-4.4,0.1-6.7C39.6,71.4,37.7,71.2,28.4,71.2z"/>
		<path class="st0" d="M37.8,52.7c-6.3-0.4-19.5-0.4-21.3-0.1c-2.7,0.5-5.5,3.1-5.5,5.2c0,0.9,0.9,2.5,2,3.5
			c1.7,1.6,3.9,1.9,13.3,1.9c12.1,0.2,16.1-0.9,17-4.4C44,56.2,40.9,52.9,37.8,52.7z"/>
	</g>
	<path class="st1" d="M122.1,1.9c-4.4,2-7.9,6.4-8.7,11.1c-1.3,8.2-0.5,7.5-10.1,7.6c-8.7,0.1-8.8,0.1-11.5-3.2
		c-4.8-5.8-8.2-6.8-23.6-6.7c-18,0.2-19.4,0.5-24.6,5.7l-4.3,4.3l-11.5,0.2c-8.8,0.1-12.3,0.5-15.3,2c-5.1,2.4-9.8,7.8-11.3,12.7
		C0.3,38.5,0,66.4,0,140c0,112.1-0.3,106.5,6.9,113.7c2,2,5.5,4.2,7.7,4.9c4.9,1.4,223.4,1.7,229.7,0.3c5.8-1.4,10.5-5.1,13.2-10.5
		l2.5-5v-102c0-68.9-0.4-103.3-1.1-105.9c-1.3-4.8-7.1-11.3-11.8-13.3c-2.3-1-7.3-1.6-14.1-1.7l-10.5-0.2l-0.6-4.7
		c-0.9-6-3.1-9.7-7.7-12.8l-3.6-2.5l-42.3-0.1C130.3,0.1,125.6,0.3,122.1,1.9z M37.8,52.7c3.1,0.2,6.2,3.5,5.5,6.1
		c-0.9,3.5-4.9,4.6-17,4.4c-9.4,0-11.6-0.3-13.3-1.9c-1.1-1-2-2.6-2-3.5c0-2.1,2.8-4.7,5.5-5.2C18.3,52.3,31.5,52.3,37.8,52.7z
		 M138.1,70.2c34.8,3,63.6,36.1,62.4,72c-1.2,38.2-31.7,68.6-69,68.9c-10.9,0.1-15.3-0.6-23.7-3.3c-28.2-9.5-47.7-36.1-48.3-66
		c-0.6-36.3,27.3-68.1,63-71.7c3.3-0.3,6.2-0.7,6.3-0.9c0.2-0.1,0.9-0.1,1.5,0.1C131,69.5,134.4,69.9,138.1,70.2z M41.2,73
		c2.3,2.3,2.3,4.3-0.1,6.7c-1.7,1.7-3.4,1.9-12.8,1.9c-12.9,0-15-0.4-16.4-3s0.5-6.5,3.5-7.1c1.2-0.2,7-0.3,13-0.3
		C37.7,71.2,39.6,71.4,41.2,73z M124,87.6c-11.6,1.3-24.4,7.8-32.7,16.5c-26.1,27.3-15.2,73.5,20.3,86.4c19.4,7,41.2,2.3,55.6-12
		c7.3-7.3,10.9-13.3,13.7-23.7c9.4-33.6-14.9-66.3-49.9-67.4C128.5,87.3,125.4,87.4,124,87.6z M133.1,102.8c0.5,0,0.9,1.1,0.9,2.4
		c0,2.1-0.6,2.4-5.3,2.9c-14,1.4-26.4,13.6-27.9,27.3c-0.6,4.8-1.4,6.4-3.3,6.4c-3.9,0-2.5-11.9,2.4-20.5c4-6.9,9.6-12.3,15.8-15.2
		c5.4-2.5,12.9-4.3,15.1-3.7C131.6,102.6,132.6,102.8,133.1,102.8z M137.3,129.6c3.2,1.9,5.7,6.9,5.7,11.4c0,6.2-5.5,11.8-11.8,12.1
		c-8.2,0.3-13.5-4.5-13.5-12.2c-0.1-5.9,2.5-9.8,7.7-12.1C129.7,126.8,132.9,127,137.3,129.6z"/>
</g>
</svg>
