<?xml version="1.0" encoding="utf-8"?>
<!-- Generator: Adobe Illustrator 26.1.0, SVG Export Plug-In . SVG Version: 6.00 Build 0)  -->
<svg version="1.1"
	 id="svg2793" xmlns:cc="http://creativecommons.org/ns#" xmlns:dc="http://purl.org/dc/elements/1.1/" xmlns:rdf="http://www.w3.org/1999/02/22-rdf-syntax-ns#" xmlns:serif="http://www.serif.com/" xmlns:svg="http://www.w3.org/2000/svg"
	 xmlns="http://www.w3.org/2000/svg" xmlns:xlink="http://www.w3.org/1999/xlink" x="0px" y="0px" viewBox="0 0 512 512"
	 style="enable-background:new 0 0 512 512;" xml:space="preserve">
<style type="text/css">
	.st0{fill:url(#Matrix_00000085236896063954677150000013628838434427821709_);}
</style>
<rect width="512" height="512"/>
<linearGradient id="Matrix_00000031891434078621605760000006297533154236836501_" gradientUnits="userSpaceOnUse" x1="20.3738" y1="491.6212" x2="491.6275" y2="20.3675" gradientTransform="matrix(1 0 0 -1 0 512)">
	<stop  offset="0" style="stop-color:#00FF1E"/>
	<stop  offset="0.3439" style="stop-color:#00CE16"/>
	<stop  offset="0.5436" style="stop-color:#00980C"/>
	<stop  offset="0.8343" style="stop-color:#007106"/>
	<stop  offset="0.8881" style="stop-color:#005902"/>
	<stop  offset="1" style="stop-color:#005000"/>
</linearGradient>
<path id="Matrix" style="fill:url(#Matrix_00000031891434078621605760000006297533154236836501_);" d="M72.3,97.6
	c0,11.7-9.5,21.2-21.2,21.2c-11.7,0-21.2-9.5-21.2-21.2V61.9c0-11.7,9.5-21.2,21.2-21.2c11.7,0,21.2,9.5,21.2,21.2V97.6z M51.2,10.8
	C23,10.8,0,33.7,0,61.9v35.7c0,28.2,23,51.2,51.2,51.2c28.2,0,51.1-22.9,51.1-51.2V61.9C102.3,33.7,79.4,10.8,51.2,10.8 M277.2,97.6
	c0,11.7-9.5,21.2-21.2,21.2c-11.7,0-21.1-9.5-21.1-21.2V61.9c0-11.7,9.5-21.2,21.1-21.2c11.7,0,21.2,9.5,21.2,21.2V97.6z M256,10.8
	c-28.2,0-51.1,23-51.1,51.2v35.7c0,28.2,22.9,51.2,51.1,51.2c28.2,0,51.2-22.9,51.2-51.2V61.9C307.2,33.7,284.2,10.8,256,10.8
	 M482,97.6c0,11.7-9.5,21.2-21.1,21.2c-11.7,0-21.2-9.5-21.2-21.2V61.9c0-11.7,9.5-21.2,21.2-21.2c11.7,0,21.1,9.5,21.1,21.2V97.6z
	 M460.9,10.8c-28.2,0-51.2,23-51.2,51.2v35.7c0,28.2,23,51.2,51.2,51.2c28.2,0,51.1-22.9,51.1-51.2V61.9
	C512,33.7,489,10.8,460.9,10.8 M153.6,139.1c8.3,0,15-6.7,15-15V25.8c0-8.3-6.7-15-15-15s-15,6.7-15,15v98.3
	C138.6,132.3,145.3,139.1,153.6,139.1 M358.4,139.1c8.3,0,15-6.7,15-15V25.8c0-8.3-6.7-15-15-15s-15,6.7-15,15v98.3
	C343.4,132.3,350.1,139.1,358.4,139.1 M72.3,450.1c0,11.7-9.5,21.1-21.2,21.1c-11.7,0-21.2-9.5-21.2-21.1v-35.7
	c0-11.7,9.5-21.1,21.2-21.1c11.7,0,21.2,9.5,21.2,21.1V450.1z M51.2,363.3C23,363.3,0,386.2,0,414.4v35.7c0,28.2,23,51.1,51.2,51.1
	c28.2,0,51.1-23,51.1-51.1v-35.7C102.3,386.2,79.4,363.3,51.2,363.3 M277.2,450.1c0,11.7-9.5,21.1-21.2,21.1
	c-11.7,0-21.1-9.5-21.1-21.1v-35.7c0-11.7,9.5-21.1,21.1-21.1c11.7,0,21.2,9.5,21.2,21.1V450.1z M256,363.3
	c-28.2,0-51.1,23-51.1,51.1v35.7c0,28.2,22.9,51.1,51.1,51.1c28.2,0,51.2-23,51.2-51.1v-35.7C307.2,386.2,284.2,363.3,256,363.3
	 M482,450.1c0,11.7-9.5,21.1-21.1,21.1c-11.7,0-21.2-9.5-21.2-21.1v-35.7c0-11.7,9.5-21.1,21.2-21.1c11.7,0,21.1,9.5,21.1,21.1
	V450.1z M460.9,363.3c-28.2,0-51.2,23-51.2,51.1v35.7c0,28.2,23,51.1,51.2,51.1c28.2,0,51.1-23,51.1-51.1v-35.7
	C512,386.2,489,363.3,460.9,363.3 M153.6,363.3c-8.3,0-15,6.7-15,15v98.3c0,8.3,6.7,15,15,15s15-6.7,15-15v-98.3
	C168.6,370,161.9,363.3,153.6,363.3 M358.4,363.3c-8.3,0-15,6.7-15,15v98.3c0,8.3,6.7,15,15,15s15-6.7,15-15v-98.3
	C373.4,370,366.7,363.3,358.4,363.3 M174.7,273.8c0,11.7-9.5,21.2-21.1,21.2c-11.7,0-21.2-9.5-21.2-21.2v-35.7
	c0-11.7,9.5-21.1,21.2-21.1c11.7,0,21.1,9.5,21.1,21.1V273.8z M153.6,187c-28.2,0-51.2,22.9-51.2,51.2v35.7
	c0,28.2,22.9,51.2,51.2,51.2c28.2,0,51.2-23,51.2-51.2v-35.7C204.7,210,181.8,187,153.6,187 M379.6,273.8c0,11.7-9.5,21.2-21.2,21.2
	c-11.7,0-21.1-9.5-21.1-21.2v-35.7c0-11.7,9.5-21.1,21.1-21.1c11.7,0,21.2,9.5,21.2,21.1V273.8z M358.4,187
	c-28.2,0-51.1,22.9-51.1,51.2v35.7c0,28.2,23,51.2,51.1,51.2c28.2,0,51.2-23,51.2-51.2v-35.7C409.6,210,386.6,187,358.4,187
	 M66.2,300.3V202c0-8.3-6.7-15-15-15s-15,6.7-15,15v98.3c0,8.3,6.7,15,15,15S66.2,308.6,66.2,300.3 M474.6,300.3V202
	c0-8.3-6.7-15-15-15s-15,6.7-15,15v98.3c0,8.3,6.7,15,15,15S474.6,308.6,474.6,300.3 M271,300.3V202c0-8.3-6.7-15-15-15
	s-15,6.7-15,15v98.3c0,8.3,6.7,15,15,15S271,308.6,271,300.3"/>
</svg>
