<?xml version="1.0" encoding="utf-8"?>
<!-- Generator: Adobe Illustrator 26.1.0, SVG Export Plug-In . SVG Version: 6.00 Build 0)  -->
<svg version="1.1"
	 id="svg2793" xmlns:cc="http://creativecommons.org/ns#" xmlns:dc="http://purl.org/dc/elements/1.1/" xmlns:rdf="http://www.w3.org/1999/02/22-rdf-syntax-ns#" xmlns:serif="http://www.serif.com/" xmlns:svg="http://www.w3.org/2000/svg"
	 xmlns="http://www.w3.org/2000/svg" xmlns:xlink="http://www.w3.org/1999/xlink" x="0px" y="0px" viewBox="0 0 512 512"
	 style="enable-background:new 0 0 512 512;" xml:space="preserve">
<style type="text/css">
	.st0{fill:url(#_23-Matric_00000005964842251898582890000002791699099865313688_);}
</style>
<rect width="512" height="512"/>
<linearGradient id="_23-Matric_00000145037493899704457890000016009334747271987585_" gradientUnits="userSpaceOnUse" x1="20.3737" y1="20.3787" x2="491.6291" y2="491.6341">
	<stop  offset="0" style="stop-color:#FFCCA6"/>
	<stop  offset="0.1097" style="stop-color:#FBC79F"/>
	<stop  offset="0.2649" style="stop-color:#EFB78D"/>
	<stop  offset="0.4473" style="stop-color:#DC9E6E"/>
	<stop  offset="0.6503" style="stop-color:#C17B44"/>
	<stop  offset="0.868" style="stop-color:#9F4F0E"/>
	<stop  offset="0.8848" style="stop-color:#9C4B0A"/>
</linearGradient>
<path id="_23-Matric" transform="translate(-2048,-4096)" style="fill:url(#_23-Matric_00000145037493899704457890000016009334747271987585_);" d="
	M2120.31,4193.58c0,11.66-9.49,21.15-21.15,21.15c-11.67,0-21.16-9.49-21.16-21.15v-35.67c0-11.67,9.49-21.16,21.16-21.16
	c11.66,0,21.15,9.49,21.15,21.16V4193.58z M2099.16,4106.75c-28.21,0-51.16,22.95-51.16,51.16v35.67c0,28.2,22.95,51.15,51.16,51.15
	c28.2,0,51.15-22.95,51.15-51.15v-35.67C2150.31,4129.7,2127.36,4106.75,2099.16,4106.75 M2325.16,4193.58
	c0,11.66-9.49,21.15-21.16,21.15c-11.66,0-21.15-9.49-21.15-21.15v-35.67c0-11.67,9.49-21.16,21.15-21.16
	c11.67,0,21.16,9.49,21.16,21.16V4193.58z M2304,4106.75c-28.2,0-51.15,22.95-51.15,51.16v35.67c0,28.2,22.95,51.15,51.15,51.15
	c28.21,0,51.16-22.95,51.16-51.15v-35.67C2355.16,4129.7,2332.21,4106.75,2304,4106.75 M2530,4193.58
	c0,11.66-9.49,21.15-21.15,21.15c-11.67,0-21.16-9.49-21.16-21.15v-35.67c0-11.67,9.49-21.16,21.16-21.16
	c11.66,0,21.15,9.49,21.15,21.16V4193.58z M2508.85,4106.75c-28.21,0-51.16,22.95-51.16,51.16v35.67c0,28.2,22.95,51.15,51.16,51.15
	c28.2,0,51.15-22.95,51.15-51.15v-35.67C2560,4129.7,2537.05,4106.75,2508.85,4106.75 M2201.58,4235.05c8.28,0,15-6.72,15-15v-98.3
	c0-8.28-6.72-15-15-15s-15,6.72-15,15v98.3C2186.58,4228.33,2193.3,4235.05,2201.58,4235.05 M2406.42,4235.05c8.28,0,15-6.72,15-15
	v-98.3c0-8.28-6.72-15-15-15s-15,6.72-15,15v98.3C2391.42,4228.33,2398.14,4235.05,2406.42,4235.05 M2120.31,4546.11
	c0,11.66-9.49,21.15-21.15,21.15c-11.67,0-21.16-9.49-21.16-21.15v-35.68c0-11.66,9.49-21.15,21.16-21.15
	c11.66,0,21.15,9.49,21.15,21.15V4546.11z M2099.16,4459.28c-28.21,0-51.16,22.95-51.16,51.15v35.68c0,28.2,22.95,51.15,51.16,51.15
	c28.2,0,51.15-22.95,51.15-51.15v-35.68C2150.31,4482.23,2127.36,4459.28,2099.16,4459.28 M2325.16,4546.11
	c0,11.66-9.49,21.15-21.16,21.15c-11.66,0-21.15-9.49-21.15-21.15v-35.68c0-11.66,9.49-21.15,21.15-21.15
	c11.67,0,21.16,9.49,21.16,21.15V4546.11z M2304,4459.28c-28.2,0-51.15,22.95-51.15,51.15v35.68c0,28.2,22.95,51.15,51.15,51.15
	c28.21,0,51.16-22.95,51.16-51.15v-35.68C2355.16,4482.23,2332.21,4459.28,2304,4459.28 M2530,4546.11
	c0,11.66-9.49,21.15-21.15,21.15c-11.67,0-21.16-9.49-21.16-21.15v-35.68c0-11.66,9.49-21.15,21.16-21.15
	c11.66,0,21.15,9.49,21.15,21.15V4546.11z M2508.85,4459.28c-28.21,0-51.16,22.95-51.16,51.15v35.68c0,28.2,22.95,51.15,51.16,51.15
	c28.2,0,51.15-22.95,51.15-51.15v-35.68C2560,4482.23,2537.05,4459.28,2508.85,4459.28 M2201.58,4459.28c-8.28,0-15,6.72-15,15v98.3
	c0,8.28,6.72,15,15,15s15-6.72,15-15v-98.3C2216.58,4466,2209.86,4459.28,2201.58,4459.28 M2406.42,4459.28c-8.28,0-15,6.72-15,15
	v98.3c0,8.28,6.72,15,15,15s15-6.72,15-15v-98.3C2421.42,4466,2414.7,4459.28,2406.42,4459.28 M2222.73,4369.84
	c0,11.67-9.49,21.16-21.15,21.16c-11.67,0-21.16-9.49-21.16-21.16v-35.67c0-11.66,9.49-21.15,21.16-21.15
	c11.66,0,21.15,9.49,21.15,21.15V4369.84z M2201.58,4283.02c-28.21,0-51.16,22.95-51.16,51.15v35.67
	c0,28.21,22.95,51.16,51.16,51.16c28.2,0,51.15-22.95,51.15-51.16v-35.67C2252.73,4305.97,2229.78,4283.02,2201.58,4283.02
	 M2427.58,4369.84c0,11.67-9.49,21.16-21.16,21.16c-11.66,0-21.15-9.49-21.15-21.16v-35.67c0-11.66,9.49-21.15,21.15-21.15
	c11.67,0,21.16,9.49,21.16,21.15V4369.84z M2406.42,4283.02c-28.2,0-51.15,22.95-51.15,51.15v35.67c0,28.21,22.95,51.16,51.15,51.16
	c28.21,0,51.16-22.95,51.16-51.16v-35.67C2457.58,4305.97,2434.63,4283.02,2406.42,4283.02 M2114.16,4396.32v-98.3
	c0-8.28-6.72-15-15-15s-15,6.72-15,15v98.3c0,8.28,6.72,15,15,15S2114.16,4404.6,2114.16,4396.32 M2522.57,4396.32v-98.3
	c0-8.28-6.72-15-15-15s-15,6.72-15,15v98.3c0,8.28,6.72,15,15,15S2522.57,4404.6,2522.57,4396.32 M2319,4396.32v-98.3
	c0-8.28-6.72-15-15-15s-15,6.72-15,15v98.3c0,8.28,6.72,15,15,15S2319,4404.6,2319,4396.32"/>
</svg>
