<?xml version="1.0" encoding="utf-8"?>
<!-- Generator: Adobe Illustrator 27.3.1, SVG Export Plug-In . SVG Version: 6.00 Build 0)  -->
<svg version="1.1" id="Layer_1" xmlns="http://www.w3.org/2000/svg" xmlns:xlink="http://www.w3.org/1999/xlink" x="0px" y="0px"
	 viewBox="0 0 1000 1000" style="enable-background:new 0 0 1000 1000;" xml:space="preserve">
<style type="text/css">
	.st0{fill:#FFFFFF;}
</style>
<rect width="1000" height="1000"/>
<g>
	<rect x="733.8" y="205.9" class="st0" width="116.2" height="578.7"/>
	<path class="st0" d="M501.3,564c0,40.3-9.5,71.2-30.8,90.1c-21.3,21.3-49.8,30.8-87.8,30.8c-33.2,2.4-64-9.5-87.8-30.8
		c-19-19-30.8-49.8-30.8-90.1V205.9H150.3V564c-2.4,45.1,9.5,87.8,30.8,125.7c19,33.2,49.8,59.3,83,78.3
		c38,16.6,78.3,26.1,118.6,26.1s83-7.1,121-26.1c35.6-16.6,64-42.7,85.4-78.3c23.7-37.9,33.2-83,33.2-125.7V205.9H503.7V564H501.3z"
		/>
</g>
</svg>
