<?xml version="1.0" encoding="utf-8"?>
<!-- Generator: Adobe Illustrator 27.3.1, SVG Export Plug-In . SVG Version: 6.00 Build 0)  -->
<svg version="1.1" id="Layer_1" xmlns="http://www.w3.org/2000/svg" xmlns:xlink="http://www.w3.org/1999/xlink" x="0px" y="0px"
	 viewBox="0 0 500 500" style="enable-background:new 0 0 500 500;" xml:space="preserve">
<style type="text/css">
	.st0{fill:#FFFFFF;}
	.st1{fill:#86171A;}
	.st2{fill:#108888;}
</style>
<path d="M450,500H50c-27.6,0-50-22.4-50-50V50C0,22.4,22.4,0,50,0h400c27.6,0,50,22.4,50,50v400C500,477.6,477.6,500,450,500z"/>
<g id="Mf7ADa.tif">
	<g>
		<path class="st0" d="M150.7,69.3c0-6,0.1-12,0-17.9c0-1.1,0.3-1.3,1.3-1.3c33.2,0,66.4,0,99.5,0.1c4.6,0,9.2,0.6,13.8,1.3
			c6.3,0.9,12.4,2.3,18.4,4.5c5.7,2.1,11.2,4.7,16.5,7.7c6.4,3.6,12.2,8.2,17.6,13.2c5.3,4.8,9.9,10.2,14,16
			c4.7,6.7,8.3,13.9,11.2,21.5c2.1,5.5,3.6,11.1,4.7,16.9c0.1,0.8,0.5,1.6,0.7,2.4c-0.2,1,0,1.9,0.1,2.9c0.5,4.6,0.9,9.2,0.9,13.8
			c0,37.4,0.1,74.8,0,112.2c-0.1,26.2,0.8,52.4-0.6,78.6c-0.2,3.9-0.9,7.6-1.7,11.4c-0.8,4-1.9,7.8-3.3,11.6
			c-4.3,11.9-10.1,22.9-18.6,32.3c-3.1,3.5-6.3,7-10,9.8c-1.5,1.1-3,2.4-4.4,3.6c-8.6,7.3-18.5,12.2-29.1,15.9
			c-4.4,1.6-9,2.7-13.7,3.5c-3,0.5-6,0.6-8.9,1c-9.8,1.2-19.6,0.5-29.5,0.6c-25.1,0.1-50.1,0-75.2,0c-1.1,0-2.3,0-3.4-0.1
			c0-1.6-0.1-3.2-0.1-4.8c0-117.9,0-235.7,0-353.6C150.8,71.3,150.9,70.3,150.7,69.3L150.7,69.3z M215.9,371.1
			c0.5,0,1.1,0.1,1.6,0.1c10.5,0,20.9,0,31.4,0c0.7,0,1.4,0.2,2.1,0.2c1.7-0.2,3.3-0.5,5-0.8c4.4-0.6,8.5-2.1,12.4-4
			c0.4-0.2,0.6-0.8,0.8-0.8c1.4,0.1,2.1-1,3.1-1.6c3.7-2.4,7-5.3,9.5-9c0.9-1.3,2.2-2.4,2.6-4c0.4-0.3,0.8-0.6,1-1.2
			c1.2-2.9,2.4-5.7,3.2-8.8c0.4-1.6,1.3-3.2,1.1-4.6c-0.2-2.3,0.2-4.5,0.2-6.8c-0.1-54-0.1-108-0.1-162.1c0-2.2-0.1-4.3-0.1-6.5
			c0-1.5,0-2.9,0-4.4c0,0,0.1-0.1,0-0.1c0-0.1,0-0.1-0.1-0.2c-0.1-4.1,0.2-8.2-0.4-12.3c-0.8-4.7-1.8-9.1-4.2-13.3
			c-1.9-3.3-3.8-6.5-6.5-9.1c-8-8-17.7-12-28.9-12.1c-12.4-0.1-24.8,0-37.2,0c-2.5,0-2.5,0-2.5,2.5c0,0.1,0,0.3,0,0.4
			c0,5.3,0,10.5,0,15.8c-0.2,2.3-0.1,4.6-0.1,6.9c0,76.5,0,153,0,229.4c0,1.8,0,3.6,0,5.4c0,0.9,0.4,1.1,1,1.1
			C212.7,371.2,214.3,371.1,215.9,371.1z"/>
		<path class="st1" d="M150.7,69.3c0.2,1,0.1,2,0.1,3c0,117.9,0,235.7,0,353.6c0,1.6,0,3.2,0.1,4.8c-0.4,0.9-0.1,1.9-0.1,2.9
			c0,4.9,0,9.8,0,14.8c0,1.5-0.4,1.7-1.9,1.5c-0.8-0.1-1.6-0.1-2.4,0.1c-0.8,0.2-1.5-0.2-1.5-1.1c0-0.3,0-0.6,0-0.9
			c0-123.9,0-247.8,0-371.7c0-1.8,0-3.6,0-5.5c0-1,0.4-1.5,1.4-1.4C147.8,69.3,149.2,69.3,150.7,69.3
			C150.6,69.3,150.7,69.3,150.7,69.3L150.7,69.3z"/>
		<path class="st2" d="M348.7,341c1.4-26.2,0.5-52.4,0.6-78.6c0.2-37.4,0-74.8,0-112.2c0-4.6-0.4-9.2-0.9-13.8
			c-0.1-1-0.3-1.9-0.1-2.9c1.9,3.4,2.7,7.1,3.7,10.8c1.3,4.6,2,9.4,2.4,14.2c0.3,3,0.5,6,0.5,9.1c0,53.3,0,106.6,0,159.9
			c0,8.1,0,16.1,0,24.2c0,6.2-0.7,12.3-2,18.3c-0.8,3.8-1.7,7.6-2.9,11.4c-1.5,4.7-3.4,9.3-5.6,13.7c-3.2,6.4-7,12.3-11.5,17.9
			c-7.5,9.3-16.4,17-26.7,23c-8.7,5.1-18.1,8.9-27.9,11.1c-9.4,2.2-13.2,2.6-18.9,2.2c0.5-0.1,1-0.2,1.4-0.3c3.2-0.3,6.4-1,9.5-1.6
			c5.3-1,10.5-2.4,15.5-4.4c14.1-5.5,26.3-13.7,36.6-24.8c10.3-11,17.7-23.7,22.2-38.1c1.6-5,2.6-10,3.5-15.2
			c1.1-6.8,1.2-13.6,1.2-20.4c0-1-0.1-2-0.2-3C349.1,341.3,349,341.1,348.7,341z"/>
		<polygon class="st2" points="150.7,69.3 150.7,69.3 150.6,69.3 150.7,69.3 		"/>
		<path class="st2" d="M210.2,128.4c1.6,0.2,3.2,0.2,4.7,0.2c1.1,0,1.1,1,1,1.7c-0.2,2.1,0,4.3,0,6.4c0,77.9,0,155.7,0,233.6
			c0,0.3,0,0.5,0,0.8c-1.6,0-3.2,0.1-4.8,0.1c-0.7,0-1-0.2-1-1.1c0-1.8,0-3.6,0-5.4c0-76.5,0-153,0-229.4
			C210.1,133,209.9,130.7,210.2,128.4z"/>
		<path class="st1" d="M284.4,351.1c-0.6-1.2-0.1-2.5-0.1-3.8c0-5.9,0-11.8,0-17.7c0-52.8,0-105.7,0-158.5c0-7.1-1-14-4.3-20.4
			c-2.8-5.4-6.6-10-11.4-13.8c-4.5-3.5-9.5-5.9-15-7.2c-0.9-0.2-2,0.1-3-0.9c1.8,0,3.3-0.3,4.7,0.1c2,0.6,4.1,1,6.1,1.5
			c5.7,1.4,10.5,4.3,14.9,8.2c5.2,4.6,9,10.2,11.4,16.8c0.6,1.7,1.3,3.4,1.2,5.2c0,0.7,0.4,0.7,0.9,0.6c0,2.2,0.1,4.3,0.1,6.5
			c0,54,0,108,0.1,162.1c0,2.3-0.4,4.5-0.2,6.8c0.1,1.4-0.7,3.1-1.1,4.6c-0.8,3-2,5.9-3.2,8.8C285.2,350.5,284.8,350.8,284.4,351.1z
			"/>
		<path class="st1" d="M289.9,156.9c-0.2,0.1-0.4,0-0.3-0.2c0,0,0.2-0.1,0.3-0.1C289.9,156.6,289.9,156.7,289.9,156.9
			C289.9,156.8,289.9,156.9,289.9,156.9z"/>
	</g>
</g>
</svg>
