<?xml version="1.0" encoding="utf-8"?>
<!-- Generator: Adobe Illustrator 26.1.0, SVG Export Plug-In . SVG Version: 6.00 Build 0)  -->
<svg version="1.1" id="Layer_1" xmlns="http://www.w3.org/2000/svg" xmlns:xlink="http://www.w3.org/1999/xlink" x="0px" y="0px"
	 viewBox="0 0 100 100" style="enable-background:new 0 0 100 100;" xml:space="preserve">
<style type="text/css">
	.st0{fill:#A6A5A5;}
	.st1{fill:#FFFFFF;}
	.st2{fill:#929292;}
	.st3{fill:#767777;}
	.st4{fill:#575757;}
	.st5{fill:#313031;}
	.st6{fill:#919090;}
	.st7{fill:#767676;}
	.st8{fill:#565857;}
	.st9{fill:#010000;}
	.st10{fill:#787978;}
	.st11{fill:#919291;}
</style>
<g>
	<rect class="st0" width="100" height="100"/>
	<circle class="st1" cx="50.2" cy="50.06" r="9.8"/>
	<g>
		<polygon class="st2" points="100,60.67 100,51.62 61.83,53.72 		"/>
		<polygon class="st3" points="100,51.62 100,45.02 61.83,53.72 		"/>
		<polygon class="st4" points="100,45.02 100,42.81 61.83,53.72 		"/>
		<polygon class="st5" points="100,42.81 100,36.07 61.83,53.72 		"/>
		<polygon points="96.98,0 95.84,0 87.15,0 73.02,0 63.77,0 60.86,0 52.45,0 61.83,53.72 100,36.07 100,3.17 100,1.34 100,0 		"/>
	</g>
	<g>
		<polygon class="st6" points="0,100 1.98,100 39.22,57.11 0,85.25 		"/>
		<polygon class="st7" points="16.02,100 39.22,57.11 1.98,100 		"/>
		<polygon class="st8" points="18.92,100 39.22,57.11 16.02,100 		"/>
		<polygon class="st9" points="100,100 100,92.82 92.49,86.02 39.22,57.11 18.92,100 		"/>
	</g>
	<g>
		<polygon points="0,75.71 47.04,38.13 12.57,0 0,0 		"/>
		<polygon class="st10" points="47.04,38.13 24.91,0 12.57,0 		"/>
		<polygon class="st11" points="47.04,38.13 36.34,0 24.91,0 		"/>
	</g>
</g>
</svg>
