<?xml version="1.0" encoding="utf-8"?>
<!-- Generator: Adobe Illustrator 27.3.1, SVG Export Plug-In . SVG Version: 6.00 Build 0)  -->
<svg version="1.1" id="Layer_1" xmlns="http://www.w3.org/2000/svg" xmlns:xlink="http://www.w3.org/1999/xlink" x="0px" y="0px"
	 viewBox="0 0 100 100" style="enable-background:new 0 0 100 100;" xml:space="preserve">
<style type="text/css">
	.st0{fill:#0061FE;}
	.st1{fill:#FFFFFF;}
</style>
<path class="st0" d="M0,0v100h100V0H0z M82.5,68.7L50,87.5l-12.5-7.2v-12L50,75.5l22-12.8V37.2L50,24.5L27.9,37.2v37.5l-10.4-6V31.2
	L50,12.5l32.5,18.7V68.7z M37.5,57.2V42.8L50,35.5l12.5,7.2v14.4L50,64.4L37.5,57.2z"/>
<path class="st1" d="M82.5,68.7L50,87.5l-12.5-7.2v-12L50,75.5l22-12.8V37.2L50,24.5L27.9,37.2v37.5l-10.4-6V31.2L50,12.5l32.5,18.7
	V68.7z M37.5,57.2V42.8L50,35.5l12.5,7.2v14.4L50,64.4L37.5,57.2z"/>
</svg>
