<?xml version="1.0" encoding="utf-8"?>
<!-- Generator: Adobe Illustrator 27.3.1, SVG Export Plug-In . SVG Version: 6.00 Build 0)  -->
<svg version="1.1" id="Layer_1" xmlns="http://www.w3.org/2000/svg" xmlns:xlink="http://www.w3.org/1999/xlink" x="0px" y="0px"
	 viewBox="0 0 1000 1000" style="enable-background:new 0 0 1000 1000;" xml:space="preserve">
<style type="text/css">
	.st0{fill:#C9C9C9;}
</style>
<rect class="st0" width="1000" height="1000"/>
<path d="M804.3,439.9c-13.2,13.5-26.4,27.1-39.7,40.5c-57.3,57.5-114.5,115-172,172.3c-8.5,8.5-17.5,16.6-27.1,23.8
	c-12.9,9.6-27.7,11.5-41.6,3c-11.7-7.2-23-15.7-32.8-25.3c-39.4-38.6-78.2-77.9-117.2-116.9c-3.2-3.2-6.7-6.2-10.6-9.8
	c-3,2.5-5.6,4.2-7.8,6.4c-54.8,54.7-109.5,109.6-164.4,164.2c-8.5,8.5-17.5,16.6-27.3,23.6c-16,11.5-39.9,8.4-56.2-6.3
	c-12.2-11-14.4-29.7-4.2-47.1c5.8-9.9,12.6-19.6,20.6-27.7c66.6-67.2,133.7-133.8,200.4-200.8c26.9-27,46.6-26.9,75.6,0
	c43.8,40.7,85.6,83.5,128.1,125.6c13.1,12.9,12.4,12.7,25.6-0.7c58.8-59.2,117.8-118.2,177-177.1c3.1-3.1,8.6-3.7,12.9-5.5
	c-1.7-2.2-3.5-4.4-5.2-6.5c-4.9-0.3-9.7-0.7-14.6-0.8c-27.8-0.1-55.8,1.4-83.4-0.6c-14.1-1.1-28.6-6.9-41.4-13.4
	c-12.4-6.3-12.7-20.8-10.6-32.4c4.3-24.6,12-39.8,37-39.9c74.1-0.3,148.3-2.1,222.4-2.3c27.2-0.1,44.4,16.8,46.5,43.9
	c1.7,21.2,2.1,42.6,2.2,63.9c0.3,48.7,0.5,97.4-0.2,146.1c-0.2,10.7-3.1,22-7.4,31.8c-9.1,20.6-24.8,29.3-44.5,22.3
	c-25.6-9-33.3-11.2-33.6-38.8c-0.5-37.9-0.1-75.7-0.1-113.6C808.7,441.2,806.5,440.6,804.3,439.9z"/>
</svg>
