<?xml version="1.0" encoding="utf-8"?>
<!-- Generator: Adobe Illustrator 27.3.1, SVG Export Plug-In . SVG Version: 6.00 Build 0)  -->
<svg version="1.1" id="Layer_1" xmlns="http://www.w3.org/2000/svg" xmlns:xlink="http://www.w3.org/1999/xlink" x="0px" y="0px"
	 viewBox="0 0 1000 1000" style="enable-background:new 0 0 1000 1000;" xml:space="preserve">
<style type="text/css">
	.st0{fill:#0F172A;}
	.st1{fill:#DE9B1D;}
	.st2{fill:#D28518;}
	.st3{fill:#D68E1B;}
	.st4{fill:#AC4D2D;}
	.st5{fill:#C36C3E;}
	.st6{fill:#BB6138;}
	.st7{fill:#B65A34;}
	.st8{fill:#EAB023;}
	.st9{fill:#B15330;}
	.st10{fill:#A9492B;}
	.st11{fill:#DD8D51;}
	.st12{fill:#E59757;}
	.st13{fill:#CE7945;}
	.st14{fill:#D17D48;}
	.st15{fill:#D8874D;}
	.st16{fill:#C97342;}
	.st17{fill:#D6834B;}
	.st18{fill:#E7AB21;}
	.st19{fill:#EDB625;}
	.st20{fill:#E3A31F;}
	.st21{fill:#E66B6E;}
	.st22{fill:#F6C92D;}
	.st23{fill:#EBB123;}
	.st24{fill:#E56A6D;}
	.st25{fill:#E86E71;}
	.st26{fill:#F1BD28;}
</style>
<rect class="st0" width="1000" height="1000"/>
<g>
	<path class="st1" d="M585.8,760.8c-5.1,18.8-12.5,36.7-20.6,54.4c-2.5,5.4-7.3,8.8-10.1,13.8c-1,1.8-2.2,3.5-3.3,5.3
		c-0.3,0.3-0.5,0.7-0.8,1.1c-0.3,0.3-0.6,0.7-0.8,1c-1.8,1.1-3.2,2.7-3.9,4.8l-0.1,0.1c-4.8,2.3-7.9,6.3-10.5,10.7
		c-0.5,1.3-1.3,2.3-2,3.4c-0.3,0.3-0.7,0.5-1.1,0.7c-0.6,0.3-1.1,0.7-1.7,0.9c-0.3,0.3-0.7,0.5-1,0.8c-1.1,0.7-2.2,1.3-3.3,2
		c-0.4,0.2-0.9,0.4-1.4,0.4c-5.6,1.1-9.6,5.2-14.2,8c-5.3,3.3-10.4,7-15.2,11.1c-5.9,4.9-12.9,6.1-20.1,6.7c-3.7,0.3-6.4-1.1-8.5-4
		c-6.3-8.5-10.9-18-14.5-27.8c-9.2-25.3-17.9-50.8-23.3-77.2c-2.2-10.9-5.4-21-10.5-30.8c-3.3-6.2-4.7-13.3-7.3-20
		c-1.8-4.8-4.5-8.6-8.4-12.1c-8.8-8.1-17.3-16.5-21.9-27.9c-2.5-6.1-6.5-11-11.2-15.6c-8.9-8.7-18-17.2-25.3-27.3
		c-0.4-0.5,0.2-0.1-0.3-0.4c-9.8-5.5-11-15.7-13.3-25.1c-2.4-10-5.8-19.8-7.6-30c-2.7-15.3-5.3-30.6-6.9-45.9
		c-1.1-11.3-2.1-22.6-4.6-33.6c-0.9-4-2.8-7.6-3.7-11.5c-0.1-0.5-0.2-1-0.2-1.5c-2.8-10.7-4.9-21.7-10.6-31.4
		c-0.3-0.4-0.5-0.8-0.6-1.3c-0.2-1.4-0.9-2.5-1.6-3.6c-0.3-0.6-0.6-1.2-0.8-1.8c-0.4-1-0.5-2.1-0.7-3.1c-0.5-1.6-0.9-3.3-1.6-4.8
		c-0.5-0.9-0.8-1.8-1.1-2.8c-0.3-0.5-0.6-1.1-0.8-1.6c-0.5-1-0.9-1.9-1.1-3c-0.2-0.9-0.6-1.8-0.5-2.7c0.7-5.6-3.4-9.5-5.1-14.1
		c-8.2-21.9-19.7-42.3-30.3-63.1c-2-4-4.2-7.9-6.2-11.9c-0.9-1.8-1.9-3.3-3.9-4c-0.3-0.3-0.6-0.7-0.7-1.2c-1-5.4-5.1-8.9-8.3-14.5
		c-0.5,5.5-0.9,9.6,1.8,13.4c0.5,0.8,0.7,1.7,0.9,2.5c0.2,1.3,0.7,2.4,1.1,3.6c0.2,0.9,0.4,1.8,0.6,2.7c0,7.5,3.3,13.6,8.5,18.8
		c0.3,0.4,0.5,0.8,0.6,1.3c0.2,3.2,2.1,5.4,4.2,7.4c0.3,0.4,0.5,0.8,0.6,1.3c0,2.5,1.8,4,3.3,5.6c0.3,0.4,0.4,0.8,0.6,1.3
		c0.8,4.6,3.1,8.3,6.7,11.2c0.6,1,1.2,2.1,1.2,3.3c0.1,5,2.5,8.9,6.3,11.9c0.8,1.6,1.8,3.1,2.9,4.5c0.6,0.9,1.1,1.8,1.4,2.8
		c0.3,1.2,0.8,2.3,1.8,3.1c0.7,0.6,1,1.4,1.5,2.2c3.1,7.4,7.5,14,11.2,21.1c0.8,1,1,2.2,1.3,3.3c5,16.1,10.4,32.1,16.2,48
		c0.8,1.1,0.9,2.4,1,3.6c3.1,7,2.6,14.7,4.7,21.9c0.6,1.5,0.5,3,0.5,4.6c0.1,2.1,0.7,4.2,0.5,6.3c-0.3,2.1,0.1,4,0.8,6
		c0.8,2.1,1.9,4.5-0.1,6.7c-3.1,1.7-4.1-0.6-4.6-2.8c-0.6-2.9-2.1-5.3-3.6-7.7c-0.4-1-0.8-2-0.7-3.1c0.3-4.3-2.3-8-2.6-12.2
		c1.4-4.1-0.3-7.8-1.6-11.4c-6.3-18.1-11.7-36.6-17.2-55c-1.4-4.6-3.8-8.6-6.3-12.5c-8.5-13.1-16.4-26.5-22.2-41
		c-1-2.5-2.4-4.5-4.6-6.1c-2.6-6-6.8-11.1-8.8-17.4c-0.5-1.6-2.5-2-3.2-3.5c-3.1-6-6.6-11.8-9.9-17.7c-1.4-2.6-2.8-5.1-1.2-8.2
		c1.4-1.7,0.6-3.6,0.2-5.3c-1.9-9.6-4.1-19.2-3.8-29.2c0.2-0.8,0.7-1.4,1.1-2.1c2.3-4.2,5-4.5,8-0.6c2.9,3.9,4.7,8.5,7.1,12.6
		c2.1,3.5,4.2,6.9,5.9,10.6c1.9,4.1,5,6.3,9.6,5.8c6.4-0.8,10.2,1.6,11.8,8.3c1,4.2,4.3,7.5,7,11c4.7,6,9.3,12,13.7,18.2
		c1.7,2.3,3.6,4.1,6.6,4.4c3.2,0.4,4.6,2.3,5.4,5.3c1,3.4,2.1,6.8,5.9,8.3c3.5,5.6,3,12.3,4.6,18.4c0.7,2.6,0.9,5.3,1.4,8
		c0.2,0.9,0.4,1.7,0.7,2.6c4.9,8.6,10.3,16.9,16.1,25c2.6,3.5,6.7,5.4,10.1,8c1.7,1.4,3.9,2.4,4.6,4.7c0.4,2.2,1.7,3.7,3.5,5
		c3,2.2,5.5,4.9,7,8.3c1.8,4,0.9,5.9-3.6,7.2c-6.8-0.6-13.4,0.9-20.2,0.9c-3.6,0-5.5,3.3-3.6,6.1c5.5,8.2,6.2,17.8,8.1,27
		c3.5,17,6.1,34.3,9.1,51.4c1.3,7.3,4.2,14.2,5.5,21.5c1.7,9.4,2.2,18.9,1.9,28.4c-0.3,10.3,4.9,17.2,11.6,23.9
		c9.6,9.5,19,19.2,28.5,28.9c1,1,1.8,2.3,2.3,3.7c3.4,9.2,10.1,15.7,17.3,22.1c4.7,4.3,7.8,10.3,10.4,16.1c4.5,10,10.1,19,17.1,27.6
		c6,7.3,13.9,11.7,20.2,18.2c2.3,2.4,6.6,4.3,4.5,8.6c-2.2,4.5-6.3,2.4-9.9,1.6c-2.5-0.6-4.9-1.5-7.3-2.6c-4.9-2.2-6.3-1.3-6.4,4.3
		c-0.1,9.1,2.1,17.9,3.9,26.7c2.7,13.1,5.6,26.2,12.1,38.1c4.2,7.7,9.5,14.6,14.8,21.5c3.1,4.1,8.1,5.8,12.9,7.3
		c2.9,0.9,5.5-0.3,7.6-2.1c5.9-5,11.8-9.9,19.2-12.8c2.8-1.1,4.8-3.8,6.9-6c3-3.1,6.4-5.3,10.7-6.2c3.9-0.8,7.2-2.6,9.9-5.6
		c3-3.5,6.9-5.8,10.9-7.9c6.9-3.8,11.6-9.2,13.2-17c0.9-4.6,5.3-7.8,5-12.9c0.9-2.6,2.9-4.5,3.8-7.1c4-3.4,4.9-8.1,5.6-12.9
		c0.1-0.7,0.1-1.4,0.2-2.1c0.9-2.9,2.1-5.8,2.7-8.8c0.3-1.7,1.2-3.2,1.3-5c1.7-4.2,2.5-8.7,4.1-12.9c0.6-1.6,1-3.5,3.1-4
		c1.2-0.1,2.2,0.3,2.9,1.4c1.3,2.2-0.1,4.1-0.8,6.1C588.6,753.5,587,757,585.8,760.8z"/>
	<path class="st2" d="M449.5,872.1c-0.1-0.6-0.2-1.2-0.4-1.8c-7.1-16.9-10.9-34.8-16.6-52.1c-1.1-3.4-1.9-6.7-4.5-9.4
		c-0.3-0.7-0.5-1.5-0.7-2.2c-0.2-0.5-0.4-0.9-0.5-1.4c-0.1-0.5,0-1,0-1.5c-0.3-6-3.5-11.1-4.9-16.8c-0.2-0.4-0.3-0.9-0.3-1.4
		c0-0.5-0.1-0.9-0.1-1.4c-4.1-18.2-11.6-34.8-23.3-49.3c-2.6-5.7-5.9-11-9-16.4c-1.5-2.5-3.3-5.1-6.7-5.4c-4.3-2.4-5.5-7.3-8.7-10.6
		l0,0c-0.8-0.4-0.5-1.3-0.9-1.8c-8.2-11.6-20.5-18.2-31.8-26c-7.5-5.1-15.3-9.9-19.8-18.3c-9.8-15.1-6.7-32-6.9-48.4
		c0-0.5,0.1-1,0.3-1.4c1.1-2.2,0.8-5.6,4.3-5.7c3.6-0.2,4.3,2.8,5,5.5c1.9,8,4.1,15.9,6,23.9c1.1,4.9,3.6,8.6,8.2,10.7
		c5.4,2.4,9,6.6,12.3,11.2c6.1,8.5,13.1,16.4,19.2,24.8c10.3,14.1,22.5,26.6,32.9,40.4c2.8,3.7,3.8,8.5,6.1,12.6
		c3.1,5.5,5.7,11.2,9,16.6c8.3,13.4,10.1,28.9,14.6,43.6c7.6,25,14.1,50.3,24.3,74.4c2.4,5.6,5.4,10.9,9,15.9c4,5.7,8.8,5.8,14.9,5
		c7.7-0.9,13.3-5.1,19-9.4c1.4-1.1,2.6-2.5,4.7-1.6c3,3.4-1.9,4.5-2,7c-1,3.3-4.8,4.5-5.9,7.7c-3.5,4.1-7.9,6.4-13.2,7
		c-3.3,1.1-6.7,2.1-9.9,3.4c-1.9,0.8-3.2,0.8-4.7-0.7c-2.6-2.6-5.4-5-8.1-7.4c-5.1-4.3-7.6-10-9.2-16.3c-0.5-0.6-0.3-1.6-0.9-2.1
		l0,0C449.9,872.7,449.6,872.4,449.5,872.1z"/>
	<path class="st3" d="M504.4,874.9c-3.1,0-5.2,2.1-7,3.9c-7.1,7-16.6,7.3-25.5,9c-1,0.2-2.1,0.2-2.7-0.7c-3.2-4.5-7.9-7.5-10.6-12.5
		c-6.7-12.3-10.1-25.8-14.2-39c-5.8-18.8-11.8-37.6-17.4-56.4c-3.1-10.3-5.2-20.9-10.8-30.4c-5.5-9.3-10.1-19.1-15-28.7
		c-3.9-7.7-10.8-13.5-16.3-20.3c-5-6.1-10.1-12.1-14.7-18.5c-6.1-8.3-13.4-15.7-19.1-24.3c-4.5-6.7-9.4-12.6-17-15.9
		c-3.5-1.5-5.1-4.7-6-8.3c-2.1-9-4.4-17.9-6.7-26.8c-0.4-1.5-0.4-3.7-2.6-3.5c-1.8,0.2-1.6,2.3-1.7,3.6c-1.1,10.1-0.5,20.3-0.3,30.4
		c0.1,7,4.3,12.8,4.4,19.6c-8.7-6.2-7.9-15.9-9.6-24.9c-1.9-9.7,0.6-19.1,0.3-28.6c0.5,0,1.1-0.2,1.1-0.7
		c-0.3-9.2,3.8-17.7,4.2-26.8c0.2-4-0.3-7.7-2.2-11.2c-0.5-0.6-0.9-1.3-1.1-2c-0.3-0.9-0.5-1.9-0.7-2.8c-0.1-0.7-0.1-1.4,0-2.1
		c0.4-2.3-0.6-4.5-0.8-6.8c0.1-0.7,0.6-1.3,1-1.8c-0.3-4.3-2.3-8.3-1.8-12.7c3.6-2.9,1.6-6.8,1-9.9c-1.7-8.6-2.5-17.5-5.3-25.9
		c-0.6-1.9-0.6-3.9,2.3-3.9c5.1,10.2,6.3,21.3,7.5,32.3c1.4,12.8,4.3,25.4,5.5,38.3c2.1,21.8,9.4,42.4,14.3,63.6
		c0.5,2,0.8,4.4,2.8,5.5c5.2,2.8,8.2,7.6,11.7,12c7.4,9.3,16.4,16.9,24.5,25.4c1.9,2,3.7,4,4.8,6.6c5.7,14.1,15.1,25.4,26.8,34.8
		c2.6,2.1,4,5.1,5.2,8.1c2.2,5.7,4.4,11.5,6.2,17.3c1.8,5.8,4.9,10.9,7.7,16.1c3.5,6.5,3.8,13.6,4.7,20.6
		c1.6,11.9,5.4,23.2,8.9,34.6c2,6.5,4.4,12.8,5.9,19.4c4,16.7,12.7,31.3,20.2,46.5c3.7,7.4,6.8,8,15,6.8c8.4-1.2,14.1-6.8,20.6-11.1
		c6.3-4.2,12.5-8.5,18.8-12.7c1.5-1,3.1-1.7,5-1.7c1.3,2,0.2,3.4-1.1,4.6c-5.2,4.7-11.3,8-17,11.9
		C506.6,875.7,505.5,875.7,504.4,874.9z"/>
	<path class="st4" d="M298.5,542.9c-0.5-1.3-1-2.7-1.5-4c-3.4-9.7-8.1-18.9-12.3-28.2c-12-26-23.8-52-35.3-78.1
		c-0.2-0.4-0.3-0.9-0.5-1.3c-1.1-2.4-1.5-4.7,1.6-6c2.9-1.3,5.2-0.2,6.3,2.6c7.1,17.6,15,34.8,21.9,52.4c3.5,8.9,6.9,18,12.1,26.3
		c4.8,7.6,8,16.1,11.6,24.4c1.8,4.1,3.8,8.1,6.7,11.6c2,6.6,2.8,13.4,4.7,19.9c0.4,1.5,0.3,2.8-0.9,3.9c-1.2,0.7-2.2,0.4-3.2-0.4
		l0.1,0c-0.3-0.3-0.5-0.6-0.7-1c-0.2-0.3-0.3-0.6-0.2-0.9c-0.3-0.3-0.5-0.6-0.7-1c-0.1-0.4-0.2-0.7-0.3-1.1
		c-0.3-0.3-0.5-0.5-0.7-0.9c-1.4-3.2-2.8-6.4-4.2-9.6c-0.2-0.3-0.5-0.7-0.7-1.1c-0.1-0.3-0.2-0.6-0.3-0.9c-0.7-1.3-0.6-3-1.9-4l0,0
		c-0.6-0.5-0.4-1.4-0.9-1.9l0,0C298.7,543.5,298.6,543.2,298.5,542.9z"/>
	<path class="st4" d="M373.8,702.4c4.2,1.7,5.5,6.7,9.6,8.7c8.5,9.1,12.7,20.6,17.8,31.6c6.9,14.7,12.9,29.9,20.5,44.3
		c2.9,5.5,3.8,11.8,7.1,17.2l0,0c0.3,0.3,0.5,0.6,0.8,0.9c0.1,0.7,0.3,1.4,0.4,2.1c1.9,4.9,4.4,9.7,3.1,15.2
		c-0.4,0.4-0.9,0.5-1.4,0.2c-7.3-13.2-13.7-26.9-20.3-40.5c-8.6-17.8-17.2-35.6-25.6-53.6C381.9,719.9,377,711.5,373.8,702.4z"/>
	<path class="st3" d="M686.6,559.6c-4.3,12.3-10,24-16.7,35.2c-1,0.9-1.3,2.1-1.8,3.2l0,0c-3.9,4.5-6.3,10-9.2,15.2
		c-0.3,1.1-1.2,1.9-1.6,2.9c-0.2,0.4-0.5,0.8-0.8,1.1c-4.4,3.3-6.2,8.4-9.1,12.7c-2.7,4-4.4,8.6-8.3,11.7c-3.1,0.5-4,3.4-5.6,5.5
		c-1.3,1.8-2.2,4.9-5.7,3.1c-1.7-2.2-0.2-4,0.9-5.7c11.7-19,23.1-38.1,36.8-55.7c5.5-7,8-15.4,11.3-23.4c7.3-17.5,15.6-34.5,23-52
		c0.9-2.2,1.6-4.5,2.4-6.7c0.7-1.9,1.6-3.2,3.8-2.7c0.7,0.3,1.3,0.8,1.8,1.5c1.5,2.1,0.4,4-0.4,5.9c-2.8,6.6-5.8,13.1-7.8,20
		C695.5,540.9,691.5,550.4,686.6,559.6z"/>
	<path class="st5" d="M638.1,639.6c4.7-6.8,9.4-13.6,14.1-20.3c1-1.4,1.7-3.1,3.3-4c2.8,1.9,1.2,4,0.2,5.9
		c-3.6,6.9-6.8,13.9-10.3,20.7c-7.1,14.1-14,28.3-21.2,42.3c-1,1.9-1.6,3.9-2.3,5.8l-0.1,0.1c-2.2,1.3-2.4,3.6-2.9,5.7l0,0.1
		c-1.6,0.8-1.5,2.4-1.9,3.8l0,0.1c-1.7,0.8-1.5,2.5-2,3.9c-0.2,1.5-0.9,2.7-1.8,3.8c-1,0.3-1.1,1-0.9,1.8c-0.4,0.7-0.7,1.3-1.1,2
		c-2.2,1.4-2.3,3.8-3,5.9c0,0.3-0.1,0.6-0.3,0.8c-0.3,0.4-0.5,0.7-0.7,1.1l0.1,0c-4.9,6.4-7.4,14.1-11.8,20.7
		c-1.2,1.8-1.9,4.4-5,3.3c-3.2-1.7-1.8-4.2-0.7-6.2c8.5-15.6,15.6-31.9,23.5-47.8c6-12.1,11.6-24.4,17.2-36.7
		C632.4,647.9,635.7,644,638.1,639.6z"/>
	<path class="st6" d="M621.9,690.1c-0.3-4.1,2-7.4,3.6-10.8c8.7-17.6,17.4-35.2,26.1-52.8c1.8-3.6,4.4-6.8,3.8-11.2l0,0
		c1-0.7,1.2-2,1.9-2.9c3.1-5.1,5.1-11.1,10.8-14.4c0.2,1.2-0.5,2.2-1,3.2c-14.6,29-29.3,58-44,87
		C622.9,688.8,622.3,689.4,621.9,690.1z"/>
	<path class="st7" d="M494.7,887.5c1.9-2.3,3.8-4.6,5.8-6.8c1.6-1.5,3.6-2.1,5.7-2.2c5.7-0.3,10.2-3,13.5-7.4
		c4.2-5.6,8.4-11.1,12.7-16.6c0.7-0.9,1.3-1.8,2-2.8c1-0.8,2-0.9,2.9,0c-6.9,13.3-14.8,25.9-25,37
		C506.3,891,500.4,891.5,494.7,887.5z"/>
	<path class="st4" d="M494.7,887.5c6-0.5,11.8,0.9,17.7,1.2c-3.9,5.6-9,8.3-15.9,7.7c-4.4-0.4-8.9-0.2-13.4-0.3
		C487.4,893.9,491.1,890.8,494.7,887.5z"/>
	<path class="st8" d="M312.5,565.9c-1.6-7.7-3.3-15.5-4.9-23.2c-1-2-2.1-4,0.2-5.8c2.3,1,1.8,3.4,2.5,5.3c0.8,2.3,0.6,5.1,3.2,6.5
		c0,0.6,0,1.3,0,1.9c0.1,2.4,0.6,4.7,1.9,6.8c0,0.6,0,1.3,0,1.9c0,0.8,0.4,1.4,0.9,2c0,0.6,0,1.3,0,1.9c3.1,7.4,1.1,14.7-0.3,22
		c-0.3,1.6,0.3,5.1-3.5,4.2c0-2.3,0.1-4.6,0.1-7c0.5-1.2,0.4-2.4,0-3.6c0-1,0-2.1,0.1-3.1c0.3-1,0.4-1.9-0.1-2.9l-0.1-0.1
		c-0.6-0.5-0.5-1.1-0.4-1.8c0.4-1.3-0.3-2.5-0.3-3.8C312.1,566.6,312.3,566.3,312.5,565.9z"/>
	<path class="st3" d="M433.1,822.5c0.1-5.3-2.2-10.2-3-15.3c1.7,1.2,2.3,3,2.8,5c2.9,10.9,5.9,21.8,8.6,32.8
		c1.7,6.8,4.4,13.2,6.6,19.7c0.6,1.9,1.2,3.7,1.1,5.6c-6.3-11.1-9.2-23.4-12.5-35.6c-0.6-2.2-1.4-4.2-2-6.4c-0.5-0.5-0.4-1.4-0.8-2
		l0,0C432.9,825.3,432.8,823.9,433.1,822.5z"/>
	<path class="st6" d="M590.6,742.2c4.3-1.2,5-5.5,7.1-8.6c2.4-3.6,4.2-7.5,6.2-11.3c0.8-1.4,1.5-2.9,3.3-3.2
		c-6.8,14.1-13.8,28.1-21.5,41.7c0.3-5.8,3.1-11,4.1-16.7C590.1,743.5,589.8,742.6,590.6,742.2z"/>
	<path class="st1" d="M312.7,589.2c1.5-0.7,2.1-2.1,2.2-3.5c0.6-6.8,4.4-13.4,1.1-20.4c-0.3-0.6,0.3-1.5,0.5-2.3
		c2.4,4.4,3.3,8.9,2.2,13.9c-1.4,6.6-2.2,13.3-3.5,20c-0.4,2.2-0.1,5.1-3.3,5.8C312,598.2,310.5,593.6,312.7,589.2z"/>
	<path class="st7" d="M686.6,559.6c3.2-9.8,7.7-19,11.6-28.5c1.2-1.1,2.3-2.6,4-0.8c-1.2,2.8-2.4,5.7-3.7,8.5
		c-1.6,1.6-1.7,4-2.9,5.8c-2,3.9-4,7.7-6,11.6C688.9,557.6,688.7,559.4,686.6,559.6z"/>
	<path class="st3" d="M537.4,851.7c-1,0-2,0-2.9,0c2.9-4.7,5.7-9.3,11.8-10.4c-2.3,3.4-6,5.6-8.1,9.3
		C538,851,537.6,851.3,537.4,851.7L537.4,851.7z"/>
	<path class="st9" d="M312.9,570.7c-0.1,0.6-0.2,1.3-0.3,1.9c-1-2.2-2-4.4-3-6.6c1,0,1.9,0,2.9-0.1c0.1,0.3,0.2,0.7,0.4,1
		C313.2,568.2,313.2,569.5,312.9,570.7z"/>
	<path class="st3" d="M546.3,841.2c-0.2-2.8,1-4.5,3.9-4.8C549.5,838.5,548.1,840,546.3,841.2z"/>
	<path class="st6" d="M618.9,695.9c-0.1-2.5-0.4-5,2.9-5.7C621.4,692.4,620.4,694.3,618.9,695.9z"/>
	<path class="st6" d="M608.2,717.3c0-2.5-0.2-5,3-5.9C610.6,713.6,609.7,715.5,608.2,717.3z"/>
	<path class="st6" d="M617,699.8c-0.2-1.7-0.2-3.3,1.9-3.8C618.7,697.5,618.1,698.7,617,699.8z"/>
	<path class="st10" d="M433.1,822.5c0.2,1.3,0.5,2.6,0.7,3.9c-1.2-1-1.7-2.4-2-3.8C432.2,822.6,432.6,822.6,433.1,822.5z"/>
	<path class="st6" d="M615,703.7c-0.1-1.7-0.2-3.4,2-3.9C616.8,701.4,616.1,702.7,615,703.7z"/>
	<path class="st9" d="M300,545.6c1.9,0.7,1.9,2.3,1.9,4C301,548.4,300.3,547.1,300,545.6z"/>
	<path class="st6" d="M612.3,709.4c-1-1.2-0.3-1.7,0.9-1.8C612.9,708.2,612.6,708.8,612.3,709.4z"/>
	<path class="st6" d="M668.1,598c-0.2-1.5,0.4-2.5,1.8-3.2C669.8,596.1,669.4,597.3,668.1,598z"/>
	<path class="st3" d="M312.8,578.6c0.8,1.2,0.8,2.4,0,3.6C312.8,581.1,312.8,579.9,312.8,578.6z"/>
	<path class="st3" d="M312.8,572.7c0.7,0.9,0.9,1.9,0.1,2.9C312.9,574.6,312.8,573.7,312.8,572.7z"/>
	<path class="st4" d="M372.8,700.5c0.6,0.5,0.9,1.1,0.9,1.8C373,702,372.8,701.3,372.8,700.5z"/>
	<path class="st3" d="M450.1,873c0.3,0.7,0.6,1.4,0.9,2.1C450.2,874.6,450.2,873.8,450.1,873z"/>
	<path class="st10" d="M433.8,826.4c0.3,0.7,0.6,1.3,0.8,2C433.9,827.9,433.7,827.2,433.8,826.4z"/>
	<path class="st9" d="M299.1,543.7c0.3,0.6,0.6,1.3,0.9,1.9C299.7,544.9,299.4,544.3,299.1,543.7z"/>
	<path class="st6" d="M607.1,719.1c0.2-0.4,0.5-0.7,0.7-1.1C607.6,718.4,607.4,718.8,607.1,719.1z"/>
	<path class="st9" d="M298.5,542.9c0.2,0.2,0.4,0.5,0.5,0.8c-0.2-0.1-0.5-0.1-0.7-0.1C298.4,543.3,298.4,543.1,298.5,542.9z"/>
	<path class="st9" d="M302.2,550.5c0.2,0.4,0.5,0.7,0.7,1.1C302.7,551.2,302.4,550.9,302.2,550.5z"/>
	<path class="st9" d="M307.1,561.2c0.2,0.3,0.4,0.6,0.7,0.9C307.5,561.8,307.3,561.5,307.1,561.2z"/>
	<path class="st3" d="M551,835.4c0.3-0.4,0.5-0.7,0.8-1.1C551.8,834.9,551.5,835.2,551,835.4z"/>
	<path class="st7" d="M537.3,851.7c0.3-0.4,0.5-0.8,0.8-1.2C538.2,851.1,537.9,851.5,537.3,851.7z"/>
	<path class="st9" d="M308.1,563.1c0.2,0.3,0.4,0.7,0.7,1C308.5,563.8,308.3,563.5,308.1,563.1z"/>
	<path class="st3" d="M449.5,872.1c0.2,0.3,0.5,0.6,0.7,0.9C449.9,872.7,449.7,872.4,449.5,872.1z"/>
	<path class="st9" d="M309,565c0.2,0.3,0.5,0.7,0.7,1C309.5,565.7,309.2,565.4,309,565z"/>
	<path class="st11" d="M171,184.2c1.1-6.6,4.1-12,9.4-16.2c3.9-3.1,7.4-6.6,11.1-9.9c7-4.5,13.4-9.9,21-13.3
		c8-3.6,15.8-7.4,24.7-8.5c12.8-1.6,25-6.2,37.9-8c15.7-2.1,31.4-3.7,47.2-4.6c15.4-0.9,30.9-1.5,46.3-3.5c2.9-0.4,5.8-0.2,8.7-0.3
		c27.2-0.4,54.4-2.7,81.7-2c12.5-4.5,25.5-3.4,38.2-2.6c20.4,1.2,40.9,2,61.3,3.4c20.4,1.4,40.8,3.8,61.1,6.1
		c18.9,2.1,37.5,6.2,56.3,9.5c17,3,33.9,7.2,50.1,12.7c25.2,8.5,49.9,18.4,73.4,31.1c4.3,2.3,8.7,4.3,13.3,5.7c3.3,1,6.5,2,9.9,0.6
		c1.4-0.6,2.5,0.2,3.7,0.8c2.3,5.3,4.2,10.8,5.7,16.4c-0.3,6.7-2.3,8.3-9.7,7c-10-1.8-19.7-5-29.2-8.4
		c-15.2-5.4-29.4-13.1-44.6-18.6c-11.9-4.3-23.3-10.4-36-12.3c-0.5-0.1-1.1-0.3-1.6-0.5c-8.8-4.4-18.5-5.5-27.8-8
		c-25.9-6.9-52.4-11.1-78.9-14.4c-20.9-2.6-42-4.3-63.1-5.5c-20.3-1.2-40.6-2.3-60.9-2.3c-20.2,0-40.6-0.2-60.8,0.8
		c-29.9,1.6-59.9,3-89.7,6.3c-12.3,1.4-24.8,1.7-37.1,2.4c-11.9,0.7-23.9,0-35.7,1.6c-0.6,0.1-1.3,0.2-1.9,0.1
		c-14.3-2.9-27.8,1.9-41.6,3.9c-2.6,0.4-4.4,1.7-6,3.7c-1.3,1-3.1,0.9-4.4,1.9c-1.1,0.6-1.9,1.6-2.8,2.3c-0.4,0.3-0.8,0.5-1.3,0.6
		c-2.2,0-3.6,1.6-5.1,2.9c-7.9,4-12.3,11.4-18,17.6C174.6,184.3,173.5,186.3,171,184.2z"/>
	<path class="st12" d="M826.5,185.2c-5.5,4.9-11.3,2.4-16.7,0.1c-10.6-4.6-21.2-9.5-31.5-14.8c-14.9-7.5-30.8-12.4-46.1-18.7
		c-13.9-5.7-28.8-8.3-43.2-11.9c-27-6.8-54.6-11.3-82.3-14.3c-15.7-1.6-31.3-3.7-47.1-4.5c-18-0.9-36-1.4-54-2.9
		c-11.1-1-22.2-0.4-33.3-0.8c-2.1-0.1-4.2-0.1-5.8,1.7c-1.4,1.4-3.3,1.2-5,1.2c-7.1,0-14.2,0.1-21.3,0c-22.9-0.3-45.8,1.2-68.6,2.4
		c-22.5,1.1-45,2.8-67.4,4.6c-20.6,1.7-40.7,6.5-60.9,10.2c-17.6,3.2-33.2,9.8-47.6,19.7c-1.1,0.8-2.3,2-3.9,1
		c6.4-7.1,13.8-12.5,22.8-16c10.2-3.9,19.4-10.2,29.9-13.2c17.3-4.9,34.6-9.7,52.1-13.7c10.3-2.4,21-3.2,31.5-4.7
		c10.2-1.5,20.3-3,30.5-4.5c5.4-0.8,10.8-0.7,16.2-1c7.3-0.4,14.8-0.7,22-1.5c13-1.3,26.1-1.5,39.2-2.4c13.2-0.9,26.4-0.3,39.6-0.3
		c2.6,0,5.1-0.1,7.7-0.1c4.4-0.7,8.9,0.1,13.3-0.5c1.4,0,2.7,0,4.1,0c2.2,0.5,4.4-0.2,6.6,0.4c10.8,0.1,21.5,0.8,32.2,1.4
		c12.6,0.7,25.3,0.3,37.9,1.7c13.4,1.6,26.9,2.8,40.4,3.9c21.6,1.8,42.8,6.5,64.2,9.5c26,3.6,50.8,11.7,75.5,19.9
		c13.9,4.6,27.3,11.7,39.7,19.6c9,5.7,16,14.4,23.9,21.8C823.1,180.5,825.4,182.3,826.5,185.2z"/>
	<path class="st13" d="M836.3,222.1c-0.3,2.3-0.6,4.5-0.8,6.8c-3.2,6.2-3.9,6.7-11.2,6.1c-2.9-0.2-5.8-0.5-8.6-1.4
		c-12.3-3.7-25.2-3.9-37.6-6.8c-0.5-0.1-1-0.3-1.4-0.2c-14.2,2-27.5-4.6-41.6-4.4c-5.8,0.1-11.3-2.5-17-3.6
		c-8.1-1.6-16.1-3.4-24.2-5.1c-2.2-0.4-4.5-0.8-6.3-2.3c-1.9-2-0.8-3.7,0.4-5.3c-1.3,1.2-1.4,3-1.8,4.8c-0.3,0.4-0.7,0.8-1.1,1
		c-0.7,0.4-1.5,0.6-2.3,0.6c-31.5-7.8-63.1-14.7-95.4-18.5c-24-2.8-48-5.4-72.3-5.5c-12.1-0.1-24.1,0-36.2,0.2
		c-44.2,0.8-87.8,6.9-131.4,14c-14.2,2.3-28.3,4.8-42.7,5.6c-8.2,0.5-16.4-0.3-24.6-0.2c-16.1,0.2-31.8-2.4-47.2-6.8
		c-12.9-3.7-24.9-9.8-34.9-19.1c-3.9-3.6-5.1-3.5-9.5-0.2c-2.3,1.7-4.5,4.7-8,1.9c-0.9-1.1-1.2-2.6-0.3-3.6
		c4.3-5.1,7.4-11.3,13.4-15c4.1-2.5,7.8-2,11.2,0.8c11.1,9.2,24,13.7,38.1,16.5c11.4,2.3,22.7,4.3,34.4,4.5
		c13.9,0.1,27.7-0.7,41.5-2.3c23.9-2.6,47.6-6.6,71.5-9.1c22.9-2.5,45.8-5.1,68.9-5.1c16.5,0,33-1.8,49.6-0.8
		c20.9,1.2,41.8,1.8,62.7,3.7c27.8,2.6,55.4,6.6,82.7,12.7c25.9,5.8,52,11.4,77.3,19.6c6.8,2.2,14,2.2,20.8,4.2
		c23.7,6.8,48,10.9,72.6,13.3c2.5,0.2,4.8,0,7.1-1.1C833.4,221.2,834.9,220.6,836.3,222.1z"/>
	<path class="st14" d="M836.3,222.1c-6.9,6.3-15,2.9-22.6,2.4c-15.1-0.9-29.7-6-44.7-7.5c-6.6-0.7-12.6-4.1-19.1-5.2
		c-19.8-3.1-38.6-10.1-58.1-14.3c-15.7-3.4-31.2-8.4-47-11c-23-3.9-45.9-8.2-69.3-10.2c-18.5-1.6-36.9-3-55.4-3.7
		c-9.6-0.3-19.3-0.9-28.9-0.8c-5,0-10,0.1-15,0.4c-3.3,0.2-5.3,0.6-5.1,4.8c-0.5-3.2-2.2-4.2-5-4.3c-11.9-0.2-23.8,0.9-35.7,1.6
		c-12.5,0.7-25,2.2-37.5,3.3c-11.4,1-22.7,2.5-34,4.4c-11,1.8-22,2.9-33,4.2c-13.9,1.7-27.8,3.3-41.8,3.4
		c-6.4,0.1-12.9-0.3-19.3-0.7c-13.9-1-27.1-5.1-40.4-8.6c-7.2-1.8-13.3-6.5-19.1-11.1c-6.7-5.3-9.5-5.3-14.7,1.5
		c-3.2,4.2-6.4,8.4-9.7,12.5c-0.4,2.1-3.4,2.5-3.2,5.1c-2.2,3.1-5.8,4.9-8,8.1c-0.7,1.1-2.1,1.3-3.4,0.5c1.1-4.4,2.7-8.6,4.7-12.7
		c3.7-2.1,5.3-6.1,8.2-9.1c4.3-4.4,7.4-10.2,14.3-11.2c1.7-1.1,3.5-2.2,4.9-3.8c0.3,0,0.6,0,1,0c0.7-0.6,1.5-0.9,2.4-1
		c6.8-2.1,13,1.2,19.2,2.8c16.6,4.1,33.2,7.2,50.4,7.7c33.6,1,66.8-2.7,100-6.7c13.3-1.6,26.6-2,39.9-3.2c16.2-1.5,32.4-2.4,48.7-2
		c3.8,0.1,6.5-1.6,8.2-4.9c0.4-0.4,0.9-0.7,1.4-0.9c1.3,0,2.2,0.6,2.8,1.6c1.6,2.5,3.9,3.1,6.7,3.1c12.7,0.1,25.4,0.3,38.2,0.8
		c21.9,1,43.7,2.4,65.5,4.6c21.2,2.2,42.1,5.7,63,9.4c16.9,3,33.3,7.4,49.9,11.5c25.4,6.4,50,15.4,75,22.7c11.2,3.3,22.8,5.6,34.5,7
		c3.7,0.5,7.3,1.5,10.9,2.1c6.9,1.2,13.9,3.2,19.7-2.8C837.6,215.4,836.5,218.8,836.3,222.1z"/>
	<path class="st15" d="M205.1,156.2c1.7-3.4,5.3-5,8.3-5.1c6.7-0.3,12.9-2.8,19.4-3.7c6.4-0.9,12.8-1.2,19.2-0.1
		c4.5,0.8,8.9-0.8,13.5-0.8c25.7-0.4,51.4-1.9,77-4.5c16-1.6,32.1-2.4,48.1-3.4c19-1.2,38-1.8,56.9-2.2c23.1-0.5,46.3-0.3,69.3,0.8
		c15.6,0.7,31.2,1.2,46.7,2.7c17,1.7,34,3.2,50.9,5.5c19,2.6,37.9,5.6,56.6,9.9c12.3,2.8,24.4,6.1,36.6,9.2c2,0.5,4.2,1,4.9,3.4
		c-0.1,0.2-0.3,0.4-0.4,0.6c0.2-0.2,0.3-0.4,0.5-0.5c2.6-1.2,5-0.6,7.5,0.3c20,7.3,39.8,15.1,59.2,23.8c13.6,6.1,27.6,10.8,42.2,14
		c6.3,1.4,7.2,1,10.5-4.4c1.6,2.7,2.3,5.7,2.8,8.7c-1.3,4.7-4.6,5.9-8.9,5.1c-6.2-1.2-12.3-2.5-18.5-3.6c-11.2-2-21.5-6.5-32.5-8.8
		c-4.1-0.9-7.8-2.9-11.7-4.5c-14.9-6.1-30.3-10.8-45.4-16.5c-4.2-1.6-8.4-2.6-12,1.5c-0.6,0.7-1.8,0.7-2.8,0.4
		c-0.5-0.2-0.9-0.6-1.3-1c-0.8-4.8-4-6.5-8.5-7.8c-28.8-8.1-58.2-13.2-87.8-17c-25.4-3.3-50.9-6.1-76.6-6.5
		c-16.4-0.3-32.8-2-49.3-1.7c-3.6,0.1-7.1,0.4-10.2,2.5l0,0c-9.2-3.7-19-2.8-28.5-2.3c-13.4,0.6-26.7,1.9-40.1,2.3
		c-15.2,0.5-30.2,2.3-45.3,3.5c-20.7,1.6-41.5,3-62.2,5.2c-5.7,0.6-11.3-0.3-16.9-0.4c-13.1-0.2-26.2,0.4-39.2-1.3
		c-9.5-1.3-18.9,0.7-28.3-1.1C207.7,158,205.9,158,205.1,156.2z"/>
	<path class="st5" d="M166.3,196.9c2.8-3.7,6-7,9.8-9.7c1.5-1.3,3-1.8,5.1-1.8c1.8,0,3.6-0.4,5.2-1.7c3-2.4,5.7-1.7,8.1,1
		c10.5,11.8,24.4,18,38.9,22.6c13.5,4.3,27.4,7.7,41.9,6.6c18.5-1.4,36.9-3.9,55.1-7.1c30.5-5.4,61-10.9,91.8-13.8
		c16.5-1.6,33.1-3.1,49.7-3.1c25.7,0.1,51.5,0.2,77.2,2.2c31.5,2.5,62.8,6.8,93.8,13.5c26.6,5.7,53.1,12.3,79.8,18
		c15.3,3.3,30.6,7.1,46.3,7.2c8.2,0.1,16.4,0.9,24.6,0.7c5.4-0.1,10.5,0.9,15.5,3.1c4.7,2.1,9.9,2.7,14.8,4.5c2.4,0.9,4.8,0,6.9-1.2
		c1.6-0.9,3.2-1.7,4.8-0.2c0.3,3.3-1.1,6.1-2.5,8.9c-1,0.8-2,1.6-2.9,2.5c-4.1,4-9.6,4.7-14.7,1.8c-1.8-1-3.8-1.8-5.5-2.9
		c-8.6-5.6-18.5-4.9-28.1-5.7c-5.5-0.5-10.8-2.1-16.3-2.1c-26.9-0.1-52.5-7.7-78.3-13.6c-3.2-0.7-6.3-1.1-9.3,0.9
		c-1,0.6-2.1,0.7-3.3,0.2c-1.7-1.6-3.9-2.2-6.1-2.8c-25.8-6.6-51.9-11.9-78.3-15.3c-21.2-2.8-42.5-5.2-64-5.6
		c-14.2-0.3-28.4-0.3-42.5-0.6c-3.1-0.1-6.2-0.2-9,1.4c-0.6,0.3-1.2,0.4-1.9,0.4c-35.2-1.8-69.6,4.9-104.1,10.8
		c-26.4,4.5-52.6,10-79.3,12.3c-16.2,1.4-32.6,2.9-48.7-0.3c-17.9-3.5-35.5-8.3-50.1-20.4c-2.3-1.9-4.9-3.1-7.7-3.9
		c-7.6-2.3-12.1,1-12.3,9.1c-0.9,3.7-2.4,7.3-2.4,11.2c0,1.9-1,3-2.9,3.2C163.1,216.9,161.4,206.8,166.3,196.9z"/>
	<path class="st16" d="M835.5,237.6c-1.7,0.4-2.7,1.6-4,2.6c-2.3,1.7-5.1,3.1-7.7,1.8c-5.6-3-12.2-3-17.8-6
		c-3.6-1.9-7.7-2.5-11.8-2.2c-8,0.6-16-0.8-24.1-0.5c-10.2,0.4-20.4-2.1-30.6-3.9c-17.5-3.1-34.7-7.5-52-11.4
		c-24.7-5.6-49.4-11-74.3-15.6c-16.5-3.1-33.2-4.3-49.8-6.4c-18.7-2.3-37.6-2.3-56.4-3.1c-7.4-0.3-14.7-1-22.1,0.2
		c-6,0.9-11.8-1.3-17.8-0.9c-18.6,1.2-37.2,2.4-55.8,4.5c-35,3.9-69.4,11.3-104.1,16.3c-12.6,1.8-25.2,3.8-38,3.3
		c-17-0.6-33.5-4.2-49.1-11.4c-7.9-3.6-15.7-7.6-22.5-13.2c-5.8-4.9-7.8-5.2-14.8-4.5c-2.2,0.2-4.5,0.1-6.8,0.1
		c0.5-2.6,2.3-3.8,4.8-3.9c3.4-0.1,5.5-2.1,7.4-4.7c3.6-4.7,4.9-4.7,9.1-0.6c12.6,12.4,27.8,19.4,45,22.9c4.7,1,9.5,1.7,14.2,2.8
		c8.4,1.8,16.9,1.3,25.4,1.9c25.7,1.7,50.7-3.2,75.8-7.2c24.2-3.8,48.4-7.1,72.8-9.6c10.9-1.1,21.9-2.2,32.7-2.2
		c16.5,0,33-3.3,49.6-0.5c1.6,0.3,3.2,0.1,4.8,0.1c20.4-0.6,40.5,2.4,60.7,4c23.5,1.9,46.5,7,69.6,11.6c12,2.4,24.2,4.3,35.7,8.7
		c0.5,0.4,1,0.4,1.5,0.1c0.2-0.1,0.4-0.3,0.6-0.4c0.4-0.6,0.8-1.4,1.8-0.7c15.3,3.4,30.4,7.6,45.8,9.9c10.8,1.6,21.7,4.6,32.3,4.7
		c12.9,0.1,25.2,3.2,37.8,4.3c5.6,0.5,11,2.2,16.5,3.4c5.6,1.2,11.1,1.9,15.6-3C835.5,231.8,835.5,234.7,835.5,237.6z"/>
	<path class="st17" d="M469.6,152.3c-0.4-3.5,1.2-4.9,4.8-4.9c17.5-0.1,35.1,0.2,52.6,1.8c4.3,0.4,8.7,0.2,13,0.2
		c9.7-0.2,19.2,1.5,28.9,2.2c13.6,0.9,27.1,3,40.7,4.5c13.3,1.5,26.3,4.6,39.5,6.5c17.3,2.4,33.9,7.7,50.8,11.8
		c5.9,1.4,5.9,1.5,3.5,7c-0.2,0.6-0.3,1.2-0.4,1.9c-0.2,0.2-0.3,0.3-0.5,0.5c0.2-0.1,0.4-0.3,0.6-0.4c0.5-0.4,1.3-0.7,1.5-1.2
		c2.4-5.7,6.3-5.4,11.3-3.5c17.2,6.5,34.6,12.2,51.8,18.8c11.3,4.3,22.9,8.4,35.1,10.4c7.1,1.2,14,3.6,21.1,4.9
		c4.3,0.7,8,0.6,11.2-2.4c0.8,0.3,0.9,1.1,0.9,1.8c-3.2,6.8-4.9,7.8-12.4,6.4c-15.7-2.9-31.4-5.2-46.9-8.8
		c-13.1-3.1-26-7.3-38.9-11.6c-17.9-6-35.9-11.2-54.2-15.7c-6.7-1.7-13.4-3.5-20.2-4.9c-14.9-3.3-30.1-5.5-45.1-8.4
		c-14.3-2.7-28.7-3.2-43.1-5.2c-16-2.2-32-2.9-48.1-3.6c-16.9-0.7-33.8-1.9-50.7-1c-4.4,0.2-6.4-0.6-6-5.2
		C470.3,153.5,469.8,152.9,469.6,152.3z"/>
	<path class="st6" d="M674.9,226.9c3.3-5.1,7.8-4.2,12.7-2.9c20.6,5.2,41.3,10.1,62.3,13.2c5.4,0.8,10.8-0.8,16.3,0.3
		c10.4,2.1,21,2.9,31.6,3.3c6.1,0.2,11.6,3.9,16.8,6.8c5,2.9,9.2,3.3,13.9,0.3c1.4-0.9,2.8-1.6,4.5-1.4c-0.1,0.6-0.1,1.3-0.2,1.9
		c-1.1,1,0.3,2.9-1.4,3.7c-0.2,0-0.4,0.1-0.6,0.2c-6.4,6.3-7.4,14.7-8.8,22.9c-0.1,0.4-0.3,0.9-0.6,1.2c-1.5,2.4-2.6,5.1-3.2,7.8
		c-0.8,1.2-0.7,2.8-1.7,3.9l-0.4-0.1c-0.2,0.4-0.6,0.8-0.7,1.3c-0.4,1.3-0.8,2.6-1.1,3.9l-0.2,0.3c-0.2,0.8-0.5,1.5-0.7,2.3
		c-0.3,0.3-0.4,0.6-0.6,0.9c-1.1,2.7-2.2,5.4-3.3,8c-0.3,0.1-0.5,0.2-0.4,0.6c-0.8,2.1-1.7,4.2-2.5,6.3c-0.1,0.1-0.2,0.3-0.3,0.4
		c-0.2,0.7-0.4,1.5-0.7,2.2c-0.2,0.3-0.4,0.6-0.6,1c-0.1,0.4-0.2,0.7-0.4,1.1c-0.3,0.2-0.4,0.5-0.5,0.8c-0.1,0.4-0.3,0.9-0.4,1.3
		c-0.1,0.1-0.2,0.3-0.3,0.4c-1.2,2.8-2.3,5.5-3.5,8.3c-1,1.1,0.2,3-1.6,3.7c-0.1,0.3-0.2,0.7-0.3,1c-0.6,2.4-0.6,5.1-3,6.7
		c-1.1,1.1-1.6,2.5-1.8,3.9c-3.9,8.4-7.7,16.7-11.6,25.1c-1.1,2.4-1.9,5.1-3.7,7.1c-0.5-0.1-0.9-0.4-1.3-0.8c-1.8-1.8-2-4.1-2-6.4
		c0-1.3,0.1-2.6,0.6-3.8c0.1-0.5,0.3-0.9,0.6-1.4c0.6-0.9,1.9-1.3,2.4-2.4c8.8-19.5,19.4-38.1,26.8-58.2c1.7-4.5,1.9-9.2,0.9-13.8
		c-1.5-6.6-6.6-8.5-11.9-4.4c-2.7,2.1-5.6,2.2-8.7,2.1c-7.3-0.1-14.5-0.2-21.3,3.2c-6.3-2.1-13-3.5-17.4-9.3
		c0.1-2.1,1.3-3.1,3.3-3.5c10.7-2,21.4-3.3,32.1-5.3c3.5-0.6,12.1-8.9,12.5-12.3c0.1-0.6,0.2-1.5-0.3-1.9c-3.5-3.1-4.6-8.5-11-8.9
		c-8.7-0.6-17.4-2.5-26.2-2.6c-2.6,0-5.1,0.3-7.5,1.4c-1.1,0.1-2.1,0-3.2-0.1c-5.5-2.5-11.1-4.1-17.1-1.9c-1.1,0.2-2.1-0.2-3.2-0.4
		c-12.8-4.8-26.3-6.4-39.4-9.7c-4.2-1-8.4-1.7-12.4-3.5c-1.2-1.2-0.9-2.4,0.1-3.5C674.4,227.1,674.7,227,674.9,226.9z"/>
	<path class="st7" d="M165.4,227c1.8-4.7,1.4-9.7,2-14.6c1.2-1.3,2.4-2.6,3.5-4c3.4-4.5,5.4-5,10.5-2.2c7.8,4.3,15.5,8.5,23.8,11.8
		c16.3,6.5,33.1,10.2,50.7,11.6c22,1.8,43.4-2,64.9-5.4c26.8-4.1,53.3-9.9,80.2-13.5c18-2.4,36.1-5,54.4-5.6
		c16.2-0.5,32.4-2.2,48.6-1.8c26.8,0.6,53.4,2,80,5.5c27.9,3.7,55.3,9.4,82.7,15.8c2,0.5,4.1,0.9,6,1.9c0.7,0.5,1.1,1.2,1.1,2.1
		c-0.1,0.5-0.2,1.1-0.2,1.6c-0.2,1.2-0.8,2.1-1.7,2.7c-5.4,1.3-10.3-1.2-15.3-2.3c-19.5-4.6-39.1-8.3-58.8-11.8
		c-12.8-2.3-25.9-3.1-38.9-4.5c-22.2-2.5-44.5-3.5-66.8-3.3c-28.2,0.2-56.4,2.1-84.5,5.6c-17.7,2.2-35.1,5.9-52.7,8.7
		c-24.3,3.9-48.5,8.8-73.1,11.2c-17.8,1.7-35.2-0.2-52.7-2.2c-16.8-1.8-31.6-8.5-46.6-15.2c-4.8-2.2-9.9,0.9-11.2,7.1
		c-0.5,2.5-0.5,5.1,0,7.7c2,12.1,9.3,22.1,12.9,33.6c1,3.4,2.3,6.7,3.4,10c0.1,1.8,0.7,3.5,1.8,5.1c5.3,14.9,12.1,29.2,16.9,44.3
		c-0.2,1.9,1.5,4.7-2.2,4.9c-1.2-2.3-2.4-4.6-3.6-6.9c-0.4-1.3-0.9-2.6-1.3-3.9c-0.2-0.3-0.4-0.6-0.7-0.9l0,0
		c-3.7-2.5-3.7-6.9-5.1-10.5c-3.3-8.4-7.5-16.5-9.4-25.4c-0.1-0.6-0.2-1.3-0.3-1.9c-0.2-0.4-0.4-0.7-0.7-1c-0.2-1.5-0.7-2.9-1.9-3.9
		c-1-0.8-1.6-1.8-2.1-2.9c-1.6-6.9-4.5-13.2-7.4-19.6c-1.1-2.5-2-4.9-2.1-7.6c-0.7-4.8-2.8-9.3-4.2-13.9
		C164.5,231.1,164.1,229.1,165.4,227z"/>
	<path class="st7" d="M821.4,275.4c-1.7-4.6,1.2-8.7,1.3-13.1c0.2-5.5,3.4-8.3,8.2-10.1c-1.7,6.3-4.4,12.3-6.8,18.4
		c-0.3,0.2-0.5,0.4-0.5,0.8c-0.1,0.4-0.2,0.8-0.3,1.2C822.9,273.7,823.5,275.4,821.4,275.4z"/>
	<path class="st9" d="M496.5,100.3c-4.4,1-8.9,0.6-13.3,0.5C487.6,99.6,492.1,100.1,496.5,100.3z"/>
	<path class="st9" d="M507.2,100.8c-2.2,0.3-4.4,0.4-6.6-0.4C502.9,100,505.1,99.8,507.2,100.8z"/>
	<path class="st7" d="M815.4,289.2c0.2-0.4,0.5-0.8,0.7-1.3C815.9,288.3,815.7,288.8,815.4,289.2z"/>
	<path class="st9" d="M204,331.7c1.4-1.6,0.5-3.3,0.2-5c2.5-1.7,3.8,0.1,4.9,1.9c1.3,2.1,1.8,4.4,2.6,6.7c2.1,6,3.6,6.9,9.9,6.4
		c1.1-0.1,2.2-0.6,3.3-0.5c4.4,2.1,3.4,6.6,4.4,10.2c1.5,7.1,6.5,12.5,9.5,18.8c0.8,1.6,2,2.9,2.3,4.7c10,35.3,25.9,68.2,39.8,102
		c6.7,16.3,14.8,32,22.1,48.1c1.5,3.2,1.8,6.9,3.8,10c0.4,0.6,0.7,1.3,1.1,1.9c-0.1,1.9-0.1,3.9-0.2,5.8c-2.1-0.8-2.7-2.7-3.5-4.4
		c-3.4-7.3-6.2-15-10.1-21.9c-13.4-23.6-21.6-49.4-32.7-73.9c-1.9-4.3-3.8-8.6-5.6-12.9c-0.8-2-2.1-3.6-4.3-2.7
		c-2.5,1-1.1,3.2-0.4,4.6c7.8,16.8,14.1,34.2,22.2,50.9c5.9,12.3,11.9,24.6,16.7,37.5c1.6,4.4,4,8.4,5.8,12.7c0.8,2,2.7,3.8,1.4,6.3
		c-4.9-8.4-8.4-17.5-12.6-26.3c-1.5-3-3.1-5.9-4.6-8.9c-1.4-3.6-2.6-7.3-4.9-10.5c-5-11.2-9.9-22.5-15.1-33.7
		c-16.7-36.2-33.7-72.2-48.3-109.2C209,344.1,205.7,338.2,204,331.7z"/>
	<path class="st8" d="M777.4,385.8c0.1,0.6,0.1,1.2,0.2,1.9c0.8,0.8,0.2,2.1,0.8,3c0,1.6,0,3.2,0,4.9c-2,3.4-1.7,7.4-2.6,11
		c-2.8,11.4-9.8,17.3-21.3,18.1c-3.7,0.2-7.3,1.3-10.9,2.3c-5.1,1.4-9.8,0.8-14.9-1.2c-9-3.5-18.3-6.1-27.7-8.5
		c-3.3-0.9-6.3-2.6-9.7-2.8c-5.1-0.3-7,1.1-8,6.2c-1.3,6.4-1.3,6.4-7.8,6.4c-14.5,0-29,0-43.6,0c-5.5,0-11-0.4-16.2,1.5
		c-1.8-0.2-3.6-0.3-5.2-0.9c-15.6-6-30.8-1.4-46,1.6c-1.8,0.3-3.3,1.3-4.8,2.2c-7.2,4.3-13.9,9.3-21.3,13.3
		c-3.4,1.9-4.7,5.7-7.3,8.2c-0.1,0.4-0.3,0.8-0.4,1.3c0,0.6-0.2,1.3-0.4,1.9c-0.1,0.4-0.4,0.7-0.6,1c-0.2,0.3-0.4,0.6-0.6,0.9
		c-0.1,0.2-0.2,0.3-0.3,0.5c-0.1,0.3-0.3,0.6-0.5,0.9c-0.2,0.3-0.4,0.6-0.6,0.8c-0.2,0.3-0.4,0.5-0.6,0.8c-0.1,0.1-0.2,0.3-0.3,0.4
		c-0.3,0.4-0.6,0.8-1,1.2c-0.2,0.3-0.5,0.5-0.8,0.8c-0.5,0.4-1,0.9-1.3,1.6c-0.1,0.4-0.3,0.7-0.5,1c-0.5,0.8-0.9,1.8-1.3,2.7
		c-1.5,2.3-2.6,4.8-4.6,6.7c-0.7,0.4-1.4,0.7-2,1.3c-2.3,2.3-3.7,4.5,0.3,6.5c0.4,4.8,0,9.3-3.3,13.2c-10.1,2.9-9.8,2.9-10.5,13.6
		c-0.5,7.9-1.4,15.7,1.1,23.5c3.6,11.6,8.2,22.6,16.1,32c2.7,3.2,6.1,5.8,9.7,8c2.5,1.5,5,3.1,6.8,5.4c6.4,8.3,15.5,11.5,25.1,14.2
		c6.8,1.9,13.5,4.2,20.7,4.7c2.9,0.2,5.8-0.1,8.6-0.8c9.1-2.5,18.2-3.9,27.7-2.4c1.8,0.3,3.5,0,5.3-0.2c5.1-0.5,7.3,1.8,5.6,6.5
		c-2.3,6.2-4.5,12.4-7.6,18.3c-1.7,3.3-3.4,6.6-4.5,10.1c-4.1,12.9-8.7,25.6-14.2,38c-2.5,5.6-4.1,11.5-4.5,17.7
		c-1,14.6-4.4,28.9-8.6,42.9c-1,3.5-0.1,7.1-1.4,10.5c-0.2,1.2-0.3,2.4-0.5,3.6c-0.3,1.1-1.2,1.9-1.3,3.1c-0.2,1.5-1.1,2.8-1.2,4.3
		c-1.4,1.5-1.4,3.5-1.7,5.4c0,1.6-0.9,2.9-1.3,4.4c-1.9,2.7-2,6-2.5,9.1c-0.1,0.7-0.2,1.4-0.6,2c-2,3.1-2.3,6.7-3.4,10
		c-2.3,6.5-5.4,12.5-11.5,16.1c-5.8,3.4-10,8.2-12.4,14.4c-4.2,10.9-12,16.4-23.6,17.8c-11.2,1.3-21.8,5.6-32.5,9.2
		c-7.1,2.4-14.3,2.4-21.5,1.7c-4.3-0.4-7.3-3.7-9-7.4c-4.3-9.6-7.7-19.5-10.2-29.7c-0.2-0.9-0.3-1.9-0.1-2.9
		c0.8-4,12-12.6,16.1-12.7c9.2-0.1,18.2,1.9,27.4,1.5c8.9-0.4,18.2,0.3,26.3-4.7c7.1-4.4,13.3-9.4,12.5-19c-0.2-2.5,2-4.4,2-6.9
		c2-3.3,5.3-4.9,8.5-6.7c2.6-1.5,4.8-3.6,7.5-5.1c4.1-2.3,4.6-7.5,8.1-10.3c2.2-1.2,2.2-3.8,3.6-5.5c1.3-1.6,2.1-3.7,4.6-3.8
		c0.5,0,1,0.2,1.4,0.5c0.4,0.3,0.7,0.7,1,1.1c0.8,1.2,1.2,2.9,3.1,2.5c1.6-0.4,2-2,2.4-3.4c2-6.3,3.2-12.8,3.9-19.4
		c1-9.1,2.4-18.2,1.1-27.4c-0.6-4.4,0.4-8.7,2.2-12.7c5.4-12.6,10.4-25.3,14.1-38.5c2-7,4.8-13.6,7.6-20.3c1.4-3.3,0.4-4.8-3.3-5.1
		c-2.6-0.2-5.1,0.1-7.6,1.2c-8.4,3.6-16.6,4-25.8,1.3c-8-2.4-16.2-5.3-24.6-6.3c-2.7-0.3-4.8-1.5-6.7-3.4c-3.3-3.3-6.7-6.5-9.8-10
		c-1.9-2.2-4.1-4.3-6.7-5.5c-10.3-4.7-15-14.7-22-22.6c-2.2-2.4-2.5-6.2-3.1-9.6c-0.4-1.9-0.3-4-1.1-5.7
		c-6.5-12.4-4.1-25.8-4.4-38.9c-0.3-3.6,1.5-7.1,0.1-10.7c-0.6-2.3,0.1-4.5,0.5-6.7c0.4-2.5,0.3-4.8-1.6-6.8c-1.2-1.9-0.9-4.1-1-6.1
		c-0.3-7.8-1.2-8.8-9.2-8.8c-8.7,0-17.4,0.1-26.2-0.1c-2.5-0.1-6.8,0.9-6.8-2.6c0-4,4.4-2.8,7-2.9c9.2-0.2,18.4,0,27.6-0.1
		c5.5-0.1,6.4-1.3,5.9-6.8c-0.4-5-0.3-10-1.2-14.9c-0.4-2-1.1-3.6-2.2-5.3c-1.2-1.9-2.6-2.6-4.3-0.9c-3.1,3.3-6.4,2.3-9.7,0.7
		c-3.5-1.7-5.6-0.3-5.4,3.6c0.1,0.8,0.3,1.6,0.6,2.3c2.7,6.5-0.6,12.9-7.7,14c-4.4,0.7-8,2.1-10.8,5.5c-1.5,1.7-3.5,2.3-5.6,0.9
		c-1.9-2.3-0.4-4.3,0.8-6.1c3.6-5.3,7.1-10.7,11-15.9c3.2-4.2,4.7-8.9,6.3-13.9c4.9-15.9,4.7-31.6,0.5-47.5c-0.2-0.7-0.4-1.4-0.5-2
		c-0.3-2.6-1.2-5-2.7-7.2c-0.4-0.5-0.7-1-1-1.6c-0.4-0.7-0.9-1.4-1.4-2.1c-0.4-0.6-0.7-1.1-1.1-1.7c-2.1-3.4-4.3-6.7-6.3-10.2
		c-1.3-2.2-2.1-4.5,1-6c12.1-0.5,24.2-0.2,36.3-0.2c71.6,0,143.1,0,214.7,0c1.6,0,3.2,0,4.8,0.1c5.4,4.1,9.7,9.2,12.8,15.2
		c1.1,2.1,2.2,3.9,4.2,5.1c0.8,0.5,1.8,1,2.1,1.9c2,6.7,8.3,9.5,12.6,14c2,2.1,3.4,4.3,3.5,7.2c0.1,2.3,0.7,4.5,0.9,6.7
		c0.3,3,2,4.5,4.8,5.3c10.1,3.2,20.7-0.9,26.1-10C773,387.1,773.7,383.9,777.4,385.8z"/>
	<path class="st18" d="M585.8,738.4c1.6-14.9,7.5-29.2,8-44.2c0.6-18.3,8.9-34.1,15.1-50.6c0.9-2.4,1.7-4.9,2.3-7.4
		c3.2-11.7,9.6-22.1,13.8-33.5c0.4-1.2,1.1-2.4,1.5-3.6c0.7-2,0.2-3.3-2.2-2.9c-7.8,1.5-15.7-1.6-23.5,0.6c-1.8,0.5-3.9,0.3-5.7,0.9
		c-10.8,4.2-21.2,1.8-31.6-1.7c-5-1.7-10.1-3.3-15.2-4.7c-2.9-0.8-5.5-1.9-7.5-4.2c-6.1-7.2-13.9-12.4-21.5-17.9
		c-2.7-1.9-3.6-4.9-5.4-7.3c-9.6-12.8-15-27.3-15.1-43.3c-0.1-6.1,0.8-12.1,0.5-18.3c-0.2-3.9,1.7-6,5.9-5.5c1.9,0.2,3.9,0,5.8,0
		c1.9,0.6,2.1,2.1,2.1,3.9c0.1,10.6,2.6,20.8,5.1,30.9c1.8,7.4,7.7,12.9,11.5,19.5c4,7,9.1,13,16.8,16.1c0.7,0.3,1.4,0.8,2,1.3
		c11.1,10.2,25.5,11,39.1,13.7c7.9,1.6,15.5-2.3,23.4-3c11.1-1,18.8-8.7,28-13.6c8.6-4.6,12.5-13.2,18.1-20.4c1.6-2,3-4.2,4.6-6.2
		c5.9-16.5,10.4-33.1,5.6-50.9c-1.9-7-2.4-14.3-7.1-20.3c-1.3-1.7-2-3.7-0.3-5.8c2.1-1.7,4.6-1.3,7-1.5c3.1-0.2,5-1.7,5.8-4.8
		c1.7-6.7,2.7-13.6,3.5-20.5c0.5-4.2-2.4-4.8-5.6-4.8c-9.5-0.1-19,0-28.6,0c-4.8,0-9.7,0.5-14.5-0.7c-2.2-0.5-3.9,1.4-6.1,1.3
		c-2.8-0.4-6.2,0.2-6.8-3.9c19.7,0,39.3,0,59,0c6.2,0,6.2,0,7.2-6c0.3-1.9,0.8-3.8,1.5-5.6c0.6-1.6,1.8-3,3.6-2.6
		c4,0.9,8.2,0.8,12.3,2.2c9.2,3.2,18.5,6.3,28.1,8.3c0.8,0.2,1.7,0.2,2.3,0.7c5.7,4.5,11.7,3.3,17.8,1c2.6-1,5.3-1.2,8.1-1.4
		c10.2-0.5,14.5-3.8,17.8-13.3c1-3.1,2-6.1,3.1-9.2c0.6-1.7,1.1-3.4,3-4.1c1.2,6.2,1.4,12.4-1,18.4c-2.1,2.7-2.6,6-3.7,9.1
		c-1.2,3.3-2.8,5-6.4,3.4c-1.9-0.8-3.8-0.2-5.5-0.4c0.7,0,1.5,0,2.4,0c1.2,0.1,2.8-0.4,3.3,1.3c0.4,1.6-0.4,3.1-1.8,3.6
		c-10.5,3.5-17.4,12-25.5,18.8c-8.7,7.3-17.5,14.6-26.6,21.4c-2.7,2-4.3,4.8-5.2,7.9c-4.8,17.4-11.6,34.1-19,50.4
		c-7.1,15.7-13.8,31.5-20,47.5c-1.6,4.3-4.6,7.7-7.1,11.4c-7.3,11.2-14.7,22.3-22.1,33.4c-12,18-21.3,37.5-31.9,56.3
		c-4.9,8.8-6.6,19.1-9.8,28.7c-3.2,9.6-6,19.3-9.2,28.9C588.9,737.5,588.7,739.8,585.8,738.4z"/>
	<path class="st19" d="M777.4,385.8c-2.2,0.9-2.7,3.1-3.7,4.9c-5.8,11-22.7,15.7-33.3,9.3c-1.5-0.9-2.5-2.1-2.2-3.9
		c0.6-2.9-0.6-5.7-0.5-8.7c0-2.2-0.8-4.4-2.7-5.4c-3.5-1.7-5-5.8-8.8-7.2c-1.1-0.4-2.1-2.1-2.5-3.4c-0.8-2.8-3.1-4.3-4.6-6.4
		c-4.6-6.4-9.5-12.7-13.2-19.8c1.7-2.1,4.2-1.4,6.3-1.4c17.5-0.1,35.1,0,52.6,0c7.4,0,7.4,0,9.8,6.7c1.5,1.8,1.9,4,2,6.2
		c-0.3,2.3-1.3,4.6-0.2,6.9c0.1,1.3,0.2,2.7,0.4,4c0.5,1.9,0.1,3.8,0.2,5.8c0,0.9-0.1,1.9,0.3,2.8
		C777.4,379.3,777.4,382.5,777.4,385.8z"/>
	<path class="st20" d="M585.8,738.4c2-0.8,2.1-2.7,2.6-4.4c5.5-17.4,11.1-34.7,16.6-52.1c2.2-7,6.7-12.8,10.1-19.2
		c5.9-11.1,11.9-22.2,18.4-32.9c6.2-10.2,12.8-20.1,19.7-29.8c9.4-13.2,17.1-27.2,22.5-42.5c5.5-15.5,13.6-30,19.4-45.3
		c4.6-12.2,9-24.5,12.6-37c0.5-1.7,1.1-3.4,2.5-4.6c3.2-2.7,7.2-4.4,9.8-8.3c1.3-1.9,5.2-2.3,7.5-4.5c9.2-8.3,18.7-16.2,28-24.5
		c3-2.6,7-3,10.6-5.2c-2.1-2.6-4.9-0.8-7-1.9c0.2-0.2,0.4-0.5,0.6-0.4c7.4,1.1,12.9-1.1,15-9c0.3-1.3,1.3-2.2,2.6-2.7
		c-1.3,6.8-2.5,13.6-3.8,20.3c-2.3,3.4-5.7,5.2-9.5,6.2c-9.2,2.3-16,8.2-22.6,14.3c-8.1,7.6-16.6,14.8-25.5,21.4
		c-4.1,3-5,7.1-6.4,11.4c-4.8,14.6-10.6,28.7-16.9,42.7c-6.6,14.7-13.8,29.1-19.2,44.3c-4,11.2-12.4,19.6-18.7,29.3
		c-10.6,16.4-21.5,32.7-30.8,50c-3.3,6.2-6.9,12.3-10.3,18.5c-0.8,1.4-1.6,2.8-1.6,4.5c0,0.5-0.1,0.9-0.3,1.3
		c-0.6,1.4-0.9,2.9-1.3,4.3c-7,19.9-13,40.2-21.8,59.4c-0.2,0.4-0.6,0.8-0.9,1.1c-2.6,5.3-2.8,11.4-5.9,16.6c-0.9,0.2-1.2-0.1-1-1
		c0.3-1.6,0.7-3.2,1-4.8c0.1-1.8,0.6-3.5,1.9-4.8c0.3-1.6,0.6-3.2,1-4.8c0-0.8,0.4-1.4,1-1.9C585.8,740.9,585.8,739.6,585.8,738.4z"
		/>
	<path class="st1" d="M610,677.4c0.1-4.3,3.1-7.4,5-10.8c12.9-24,26.9-47.5,42.9-69.5c10.5-14.4,16.4-30.6,23.4-46.4
		c6.5-14.6,13-29.1,19.3-43.8c3.3-7.7,6.3-15.5,8.2-23.7c1-4.1,2.9-7.2,6.5-9.7c4.7-3.1,8.3-7.8,12.7-10.9c5.5-4,10.7-8.3,15.3-12.9
		c8.5-8.6,19.7-11.2,30.2-15.5c-0.4,3.1-0.8,6.2-2.9,8.7c-7.6,7.3-15.8,14-25,19.1c-9.2,5.1-17.2,11.9-25.9,17.6
		c-7,4.6-9.2,11.9-11.3,19.3c-0.6,2.1-0.5,4.5-2.5,6c-3.4,2.5-2.8,6.7-4.3,9.9c-8,17.4-16.6,34.6-23.2,52.6
		c-5.7,15.4-15.7,27.6-24.7,40.7c-8.4,12.4-16.1,25.3-24,38c-0.8,1.3-1.1,2.7-1.2,4.1c0,0.2,0,0.4,0,0.7c0.1,1.1,0.5,2.3,0,3.4
		c-4.1,7.1-9.2,13.6-13.5,20.6C614,676.5,612.7,678.6,610,677.4z"/>
	<path class="st2" d="M705.8,504.9c0.4-7.3,3-14.1,5.2-21c1-3.2,5-4.2,7.6-6.2c7-5.3,14.1-10.7,21.4-15.3c7.7-4.9,15-10.4,22.9-14.9
		c2.6-1.5,4.2-4.6,7.7-4.6c-6.4,14.4-19.6,20.3-32.8,26.2c-3.8,1.7-6.7,4.1-8.9,7.5c-3,3.3-5.5,7-7.9,10.8c-5.6,3.3-7.5,9.1-10,14.6
		c-0.8,1.8-1,4.7-4.3,3.9C706.5,505.6,706.1,505.2,705.8,504.9z"/>
	<path class="st7" d="M719.4,485.5c2.9-3.3,5.6-6.8,9.5-8.9c-0.3,1-0.6,2-0.8,3c-1.1,1.1-1.6,2.5-2,3.9c-2,3.1-3.6,6.3-4.8,9.7
		c-2,3-3.6,6.3-4.8,9.8c-0.6,0.7-1.1,1.4-1.7,2.1c-3.4-1.8-2.3-4.4-1.4-7.1C714.9,493.6,718,490,719.4,485.5z"/>
	<path class="st18" d="M778.3,390.6c-0.3-1-0.5-2-0.8-3C778.8,388.4,778.4,389.5,778.3,390.6z"/>
	<path class="st8" d="M777.3,376.1c-0.2-0.7-0.4-1.4-0.7-2.1c0.4-0.4,0.6-0.3,0.7,0.3l0.3,0.2C777.6,375,777.5,375.5,777.3,376.1z"
		/>
	<path class="st5" d="M719.4,485.5c0.2,4.4-1.5,8.4-3.3,12.3c-1.1,2.4-1.9,4.7-1.3,7.4c0,0.3-0.1,0.5-0.3,0.7
		c-0.3,0.3-0.7,0.6-0.7,1.1l0,0.1c-1.8,1.5-3,3.2-2.7,5.6c-0.4,0.7-0.8,1.4-1.2,2.1c-1.4,0.8-2.2,2-1.7,3.7c-0.5,1.5-1,2.9-2.1,4.1
		c-1.5,0.8-2.5,1.8-1.8,3.7c-0.5,1.5-1,2.9-2.1,4c-1.3,0.3-2.7,0.5-4,0.8c1.7-7.2,4.9-13.7,7.3-20.6c0.5-1.5,1.2-2.9,1.2-4.6
		c0.3-0.5,0.8-1,0.9-1.6C709.6,496.8,714,490.8,719.4,485.5z"/>
	<path class="st7" d="M711.1,512.7c-1.6-3.1,0-4.6,2.7-5.6C713.4,509.2,712.4,511,711.1,512.7z"/>
	<path class="st7" d="M704.3,526.3c-2-2.5-0.7-3.3,1.8-3.7C706,524,705.3,525.2,704.3,526.3z"/>
	<path class="st7" d="M708.2,518.5c-1.7-2.3-0.4-3.2,1.7-3.7C709.8,516.3,709.2,517.5,708.2,518.5z"/>
	<path class="st7" d="M713.8,507c0.2-0.4,0.5-0.7,0.7-1.1C714.3,506.3,714,506.7,713.8,507z"/>
	<path class="st21" d="M463.7,373.3c1.3,8.2,2.7,16.4,3.8,24.6c0.7,4.9-1.6,9.4-2.4,14.2c-0.6,4-1.6,7.9-2.4,11.8
		c-0.8,4-2.1,7.7-4.6,11c-5.4,7.4-10.5,15-15.7,22.5c-0.1,0.2-0.1,0.5-0.2,0.7c-8.7,7.1-17.2,14.7-28.3,18c-8.3,2-16.7,3.3-25.1,4.8
		c-3,0.5-6.1,0.2-9.1-0.5c-5-1.2-10-2.7-15.1-3.2c-9.7-1-16.5-6.5-22.9-13c-0.4-0.5-0.8-1.1-1.3-1.4c-15.1-7.9-21.5-23-29.9-36.3
		c-0.2-0.3-0.2-0.6,0-0.9c-1.6-8.3-3.1-16.7-4.7-25c-0.1-0.8-0.5-1.5-0.8-2.2c-2.1-2-2.1-4.5-1.5-7.1c1.5-7.2,3-14.5,4.6-21.7
		c1.1-6.6,5.4-11.5,9-16.8c1.3-2,3.1-3.8,4.1-5.9c4.5-9.4,12.9-14.3,21.6-19c3.6-2,7.5-3.5,10.1-6.9c1.8-1.5,3.9-2,6.2-2.5
		c6-1.1,12.1-1.9,18.1-3.2c6.2-1.4,12.4-1.7,18.7-0.5c14.3,2.9,28.4,6.1,39.6,16.3c0.6,0.4,1.2,0.8,1.8,1.3c2.7,2.5,6.2,3.9,8.9,6.3
		c1.3,1.2,2.2,2.7,2.5,4.5c0,0.7-0.2,1.4-0.4,2.1c2.4,5.2,6,9.7,8.9,14.6c0.3,0.3,0.5,0.7,0.8,1c0.4,0.6,0.8,1.3,1.1,1.9
		c0.3,0.3,0.5,0.7,0.8,1c1.5,2.7,3.2,5.4,3.1,8.7C463.2,372.6,463.4,373,463.7,373.3z"/>
	<path class="st20" d="M569.3,795.5c-2.4,5.8-4.7,11.6-6.5,17.7c-1.9,6.3-6.6,10.2-12,13.3c-4.9,2.8-9.7,5.8-13.4,10.2
		c-2,2.3-4.7,3.3-7.6,3.8c-4.6,0.8-8.4,3-11.5,6.6c-3.6,4-7.7,7.1-13,8.9c-4.3,1.4-7.3,5.2-10.7,8.2c-6.2,5.3-8.7,5.7-16.1,2.2
		c-4.7-2.2-8.5-5.2-12-9.4c-16.4-19.6-22.6-43.1-26.8-67.5c-1.2-6.8-2.3-13.7-1.9-20.7c0.4-6.9,1.4-7.6,7.3-4.4
		c4,2.1,8.3,3.4,12.7,4.6c1.6,0.4,3.4,0.7,4.3-1.1c0.8-1.6-0.8-2.7-1.8-3.6c-5.5-4.9-11.5-9.4-16.7-14.7c-8-8.2-16.4-16.2-20.5-27.4
		c-2.8-7.7-7.2-14.6-12.2-20.8c-3-3.7-6.9-7-10.4-10.4c-3.6-3.5-6.1-7.5-7.8-12c-1.2-3.1-3-5.6-5.3-7.9
		c-9.3-9.2-18.2-18.7-27.8-27.6c-8.9-8.3-10.5-18.5-10.6-29.9c0-9.3-0.1-18.7-3-27.8c-5.7-18.1-7.4-37-11.1-55.4
		c-1.8-9.2-3.6-18.3-5.6-27.5c-0.7-3.2-1.2-6.3-4.2-8.8c-2.5-2.1-2.1-5.9-0.8-9.1c1.2-3.1,4-2.2,6.3-2.3c6.6-0.1,13.2,0,19.9,0
		c1.6,3-0.4,4.1-2.6,5c-8.8,3.7-9.3,4.8-7.1,14.2c5.2,21.8,9.1,43.9,12.9,66c1.1,6.2,2.8,12.3,4.8,18.2c3.9,11.6,4.2,23.7,5.9,35.7
		c1.7,11.2,5.5,21.5,13.5,29.9c4.2,4.4,8.6,8.7,13,13c3.4,3.3,6.3,6.9,8.4,11.1c2.7,5.1,7.3,8.6,11.2,12.6c3.2,3.3,6.1,6.6,8.3,10.6
		c1,1.9,2.2,3.6,4.4,4.2c1.5,1,2,2.5,2.1,4.1c0.7,6.9,4.1,12.6,7.2,18.7c7.8,15.6,21.2,25.1,35.5,33.7c3.8,2.3,8.3,2.4,12.5,3.6
		c12.3,3.8,24.7,3.9,37.1,0.7c2.3-0.6,4.7-1.3,6.9,0.5c1.1,1.8,2.3,3.5,3.5,5.2c3.3,4.5,2.7,7.2-2,10.3c-6.9,4.5-14.7,6-22.6,6
		c-9.9,0.1-19.9,0.9-29.9-1.1c-5.5-1.1-11.6-0.4-17.3,0.6c-3,0.6-4.8,2.5-5.3,5.5c-0.3,1.8-0.5,3.6,0,5.3c4.2,14.9,8,29.7,18.1,42.2
		c6.4,8,17.1,7.4,23.4,3.4c2.8-1.7,5.6-3.2,8.7-3.9c5.4-1.3,10.5-3,15-6.4c2.6-2,6-2.3,9.2-2.8c5.7-0.9,11.4-2.1,16.3-5.5
		c3.4-2.3,6.4-4.9,7.7-8.8c3-8.4,10.2-13.1,16-19C566.6,794.5,567.9,794.3,569.3,795.5z"/>
	<path class="st18" d="M421.9,704.4c-2.3-0.7-4-2.5-5.1-4.3c-4.3-7.3-10.7-12.7-16.6-18.6c-0.6-0.6-1.2-1.2-1.5-1.9
		c-4.2-9.4-11.9-16-19.2-22.8c-11.9-11.1-17.2-25-18.5-40.7c-0.8-10.2-2.1-20.2-5.3-29.9c-4.1-12.8-6.2-26-8.4-39.2
		c-2.6-15.9-6.1-31.7-10-47.3c-1.9-7.5,0.4-11.7,7.8-13.9c2-0.6,4.2-0.8,5-3.2c2.7-0.4,3.2-1.8,2-4.1c-1.7-3.2-3.1-6.7-6.4-8.9
		c-2-1.3-3.9-2.9-4.3-5.6c0.2,0,0.4,0,0.5,0.1c11.4,10.3,26.5,10.7,40.3,14.2c6.1,1.5,12-1.4,18.1-2.1c4.6-0.5,9.2-1.5,13.7-2.3
		c3.1,3.3,6.9,5.2,11.5,5.2c1.5,0,2.9,0.1,4.3,0.6c0.9,0.3,1.7,1,1.8,2c0.1,1.3-0.8,2-1.9,2.5c-0.3,0.1-0.6,0.2-0.9,0.2
		c-11.9,0.2-21.7,7.9-33.3,9.1c-0.5,0-1,0.1-1.4,0.4c-7.9,6.6-17.4,4.2-26.4,4.4c-10.7,0.3-11.2,0.3-9.2,11
		c2.6,14.4,6.3,28.6,9.2,43c3.4,16.7,8.4,33.1,12.7,49.6c4.7,17.8,10.7,35.1,18.9,51.6c2,4,2.9,4.2,5.9,1.5c6.8-6,13.2-5.2,18.5,2.2
		c0.6,0.8,1.5,1.3,2.1,2c1.6,2.5,0.4,5.1-0.1,7.5c-1.1,5.2-2.1,10.4-3.3,15.6c-0.9,4.2-1.1,8.3,0.4,12.4
		C422.8,698.1,426,701.8,421.9,704.4z"/>
	<path class="st20" d="M310.5,369.3c-1.7,8.1-3.5,16.2-5.2,24.3c-0.3,1.5-0.3,3.2-0.4,4.7c-3.7-1.6-6-4.5-6.7-8.2
		c-0.6-3.2-2-4.5-5.1-4.4c-2.3,0-3.9-1.3-5.2-3.1c-6-8-12-15.9-17.9-24c-2.5-3.4-4.9-6.8-5.7-11c-0.5-2.8-2.5-3.9-4.9-3.4
		c-9.5,2-13.9-3.2-17.3-11.1c-2.7-6.3-6.5-12.2-10-18.2c-2.3-3.9-3.3-3.8-5.7,0.1c-2.9-0.4-2.1-2.4-1.9-4.2c1-2.1,3-3.6,3.4-6
		c1-1.5,2.4-2.1,4.2-1.9c2.1,0.1,3.7,1.2,4.8,2.8c2.6,3.8,6.2,5.8,10.4,7.5c13.2,5.3,26.8,9.3,40.3,13.7c4.1,1.3,6.5,3.5,7.8,7.6
		c2.2,6.8,2.9,7,10.1,7.1c2.9,0,5.8-0.1,8.7,0.1c1.9,0.2,4.3,0.2,4.2,2.8c-0.1,2.3-2.3,2.4-4.1,2.5c-2.6,0.2-5.2,0.1-7.7,0.2
		c-5.6,0.2-6.2,1.3-4.8,6.9C303.4,360.2,307.1,364.6,310.5,369.3z"/>
	<path class="st18" d="M569.3,795.5c-6.8,6.5-14.3,12.1-18.3,21.3c-3.3,7.7-11.4,10.5-18.8,13.2c-2.4,0.9-5.1,0.9-7.6,1.4
		c-3.3,0.6-6.5,1.5-9.3,3.7c-3.6,2.9-8.1,3.9-12.5,5c-3.5,0.8-6.6,2.1-9.6,4.3c-7.1,5.2-18,4.4-23.8-2.2c-5.9-6.8-11.7-13.7-14-22.9
		c-1.3-5.3-3.6-10.4-5.3-15.6c-0.9-2.8-1.7-5.6-1.9-8.5c-0.8-9.6,1-11.6,10.6-12.5c6.4-0.6,12.6-0.3,19,0.3
		c13.7,1.3,27.7,2.2,41.1-2.5c1.7-0.6,3.3-1.4,4.8-2.3c4.7-2.6,4.9-3.5,1.7-7.9c-1.1-1.5-1.7-3.1-1.8-4.9c0.1-2.4,2-3,3.9-3.5
		c1.7-0.4,3.2-1.4,4.8-2c2.5-1.1,4.3-4.4,7.8-2.2c-0.8,3.3-1.1,6.6-0.9,10.2c0.2,4.3-3.3,8.4-6.7,11.8c-7.4,7.4-16.4,10.1-26.8,10.2
		c-8.8,0.1-17.6,0.5-26.4-1c-3.5-0.6-7.3,0.4-11-0.2c-1.5-0.3-3,0.4-3.8,1.7c-1.8,3.1-4,5.7-7.3,7.5c-1.5,0.8-1.1,2.5-0.7,4
		c2.5,9.8,5.8,19.5,9.9,28.8c1.8,4.3,5.6,6,10.5,6.4c11.1,1,21-3.4,31-6.6c8.2-2.6,16.5-4.4,24.9-5.9c6.2-1.1,10.7-4.1,13.2-10
		c1.2-2.8,2.7-5.5,4.1-8.2c2.3-4.3,4.9-8.3,9.4-10.8c7.8-4.3,12.7-10.7,14.7-19.4c0.6-2.5,0.8-5.6,3.7-7c1.3,1.3-0.3,2.6,0,3.9
		c0,0.6,0,1.3,0,1.9c-2,4.5-2.4,9.7-5.8,13.6C571.2,791,570.3,793.2,569.3,795.5z"/>
	<path class="st2" d="M309.7,496.2c-1.3,1.9-0.4,3.8,0.2,5.5c3.7,10.2,3.6,21.1,5.5,31.7c0.2,1.4,0.7,3.2-0.6,4.1
		c-1.3,0.9-1.8-1.5-3.1-1.5c0-2.2,0-4.5,0-6.7c-0.9-0.8-0.9-2.2-1.9-2.9c0.2-8-2.1-15.6-3.9-23.2c-0.6-0.7-1.3-1.3-1.9-2
		c-1-5.9-3.1-11.4-5.1-17c-3.9-10.7-7.4-21.5-10.4-32.4c-0.6-0.7-1.3-1.3-1.9-2c-0.1-4.7-4-7.5-5.6-11.5c-1.3-3.4-3.4-6.5-5.1-9.8
		c-0.6-0.7-1.3-1.3-1.9-1.9c-0.3-1.3-0.7-2.6-1-3.8c-0.6-0.7-1.2-1.3-1.9-2c-0.7-1.6-1.3-3.2-2-4.8c-3-3.8-4.3-8.5-6.8-12.6
		c-0.3-1-0.7-1.9-1-2.9c-2.3-3.9-4.1-8-6.8-11.6c0-0.3,0-0.6,0-1c-1.7-1.7-2.1-4.2-3.9-5.8c0-0.3,0-0.6,0-1
		c-2.2-2.3-2.6-5.5-4.8-7.8c0-0.3,0-0.6,0-1c-4.1-6-7-12.6-9.7-19.4c0-1,0-1.9,0-2.9c-0.9-0.8-0.9-2.2-1.9-2.9c0-1,0-1.9,0-2.9
		c0.1-1.3-0.4-2.5-0.7-3.7c-0.4-1.6-0.4-3.3,1.5-4c1.8-0.8,3.3-0.2,4.4,1.6c1.4,2.1,2.7,4.4,4.6,6.2c0,0.3,0,0.6,0,0.9
		c4.1,5,6.4,10.9,9.3,16.5c8.4,16.6,17.9,32.6,25.2,49.7c3.5,8.2,6.9,16.5,10.7,24.6c0.6,1.2,1.2,2.2,2.2,3.1c0,1,0,1.9,0,2.9
		c0.6,0.7,1.3,1.3,1.9,2c0,0.6,0,1.3,0,1.9c0.6,0.7,1.3,1.3,1.9,2c0.3,1.9,0.7,3.9,1,5.8c0.9,0.8,1,1.8,1,2.9c0,0.6,0,1.3,0,1.9
		c0.9,0.8,0.9,2.2,1.9,2.9c0,0.3,0,0.6,0,1c2.9,8.4,5.5,16.8,7.8,25.4c0.7,2.6,1.3,5.3,2.9,7.5C309.7,495.6,309.7,495.9,309.7,496.2
		z"/>
	<path class="st6" d="M252.7,395.3c3.3,3.5,5.2,7.8,7.1,12c6.5,14.5,15.2,27.6,23.6,41c3.1,4.9,3.7,10.6,5.4,15.9
		c4.8,14.6,9.2,29.2,13.8,43.8c1.5,4.6,2.5,9.4,2.2,14.3c-3.2,1.7-3.9-1-4.7-2.8c-10.3-22.9-20.8-45.7-29.9-69.1
		c-6.1-15.7-13-31.2-18.6-47.1C250.7,400.6,248.9,397.5,252.7,395.3z"/>
	<path class="st7" d="M252.7,395.3c-0.5,4.9,1.7,9.2,3.3,13.5c5.5,14.8,12,29.2,17.7,43.9c6.7,17.1,14,33.9,21.3,50.7
		c2.2,5.2,5,10.1,6.8,15.5c0.5,1.5,1.4,2.9,3.1,3.5c0.6,4.2,2.2,8.2,1.9,12.6c-4.7-3.1-5.2-8.7-7.4-13.3
		c-6.9-14.7-14.6-29.1-20.8-44.1c-8.2-19.8-16.4-39.6-25.1-59.2c-4.5-10.2-7.2-21.1-11.2-31.4c-1.5-3.8-1.5-7.9-1.2-12
		C245.6,381.3,249.4,388.1,252.7,395.3z"/>
	<path class="st16" d="M610,677.4c6.2-7.6,10.8-16.2,16.4-24.2c0.7-0.9,0.9-2.2,1.9-2.9l0,0c3.8-3,5.1-8.3,9.6-10.6
		c0,6.3-4.4,11-6.7,16.3c-10.7,23.9-22.1,47.5-34,70.9c-1.6,3.1-3.4,6.2-5.2,9.3c-1.1,1.9-2.7,3.7-1.5,6.2c-0.3,0.6-0.5,1.3-0.8,1.9
		c-0.7-0.3-1.4-0.7-2.1-1c6.2-18.6,11.6-37.5,18.7-55.8c0.7-1.9,1.1-4,1.7-6C608.1,679.6,608.9,678.4,610,677.4L610,677.4z"/>
	<path class="st3" d="M291.3,439.1c-2.6-0.6-3.5-2.8-4.3-4.9c-11.3-29.3-27.3-56.3-41.3-84.2c-0.8-1.6-1.9-3-1.9-4.9
		c2.3,0.1,3.2,1.8,4.2,3.5c10.7,20.4,21.7,40.6,31.2,61.6C283.6,419.7,287.3,429.4,291.3,439.1z"/>
	<path class="st5" d="M532.4,854.5c-0.5,6-5.3,9.7-8.1,14.4c-2.1,3.6-5,6.6-8.5,9c-4.7,3.3-10,2.9-15.3,2.7c0.4-2.5,2.8-3.7,4-5.8
		c5.3-5,12.1-8,17.6-12.7c1.4-1.2,2.8-2.2,3.7-3.8l0,0c1.1-1.3,2.5-2,3.9-2.9c0.3,0,0.7-0.1,1-0.2c0.3-0.2,0.6-0.5,0.9-0.8
		C531.8,854.5,532.1,854.5,532.4,854.5z"/>
	<path class="st18" d="M226.4,311.1c-0.5,1.3-1,2.6,0,3.9c-0.3,9.7,2.7,19.1,3.4,28.7c0.2,2.6,0.5,5.1-0.6,7.6
		c-1.6-3.1-3.1-6.1-4.7-9.2c-4.5-2-4.8-6-4.9-10.1c1.6-2.3,1.5-4.7,0.6-7.2c-1.1-3-2.2-6-1.6-9.3
		C219.4,311.3,222.3,309.6,226.4,311.1z"/>
	<path class="st3" d="M243.9,344.1c-2.5,0-3.5-2-4.7-3.7c-0.9-1.3-1.7-3.1-3.7-2.4c-1.9,0.7-0.7,2.5-0.7,3.8c0,0.8-0.4,1.5-0.6,2.3
		c-2.6-5.2-2.9-10.7-2.8-16.4c0-1,0.2-2,1.3-2.4c1.1-0.3,1.9,0.4,2.4,1.2C238.3,332.3,241.9,337.8,243.9,344.1z"/>
	<path class="st3" d="M309.7,495.2c-1.3-0.4-2.3-1.4-2.6-2.7c-2.5-10.2-6.6-19.9-8-30.3c0.5,0.4,1.3,0.7,1.4,1.2
		C303.9,474,307.8,484.3,309.7,495.2z"/>
	<path class="st3" d="M236.1,352.8c3.9,6.1,7.1,12.6,9.7,19.4C240,367,237.6,360.2,236.1,352.8z"/>
	<path class="st20" d="M572.2,788.7c1.9-4.5,2.3-9.7,5.8-13.6C577.2,780.2,577.2,785.5,572.2,788.7z"/>
	<path class="st3" d="M262.3,403.2c3.7,3.4,5,8.1,6.8,12.6C264.8,412.7,263.5,408,262.3,403.2z"/>
	<path class="st3" d="M254.5,388.7c3.7,3,5.8,7,6.8,11.6C257.7,397.2,256,393,254.5,388.7z"/>
	<path class="st18" d="M580.9,758.7c0.3,0.3,0.6,0.6,1,1c-0.3,1.6-0.7,3.2-1,4.8c-1.4,0.6-0.4,3.4-2.9,2.9
		C577.5,764,578.2,761,580.9,758.7z"/>
	<path class="st20" d="M578,767.4c0.9-1,1.4-2.5,2.9-2.9c-0.3,3.1-1.2,6.1-2.9,8.7c-0.9-1.3-0.2-2.6,0-3.9
		C578,768.7,578,768.1,578,767.4z"/>
	<path class="st3" d="M245.8,373.2c3.2,1.6,3.8,4.8,4.8,7.8C247.4,379.4,246.8,376.1,245.8,373.2z"/>
	<path class="st3" d="M250.6,381.9c2.7,1,3.2,3.5,3.9,5.8C251.9,386.7,251.3,384.3,250.6,381.9z"/>
	<path class="st3" d="M529.6,855.5c-0.9,1.5-2.1,2.7-3.9,2.9C526.1,856.3,527.6,855.6,529.6,855.5z"/>
	<path class="st3" d="M309.8,526.2c1.4,0.5,1.8,1.6,1.9,2.9C310.3,528.7,309.8,527.6,309.8,526.2z"/>
	<path class="st3" d="M234.2,347c1.4,0.5,1.9,1.6,1.9,2.9C234.7,349.5,234.2,348.4,234.2,347z"/>
	<path class="st3" d="M299.1,461.3c-1.4-0.5-1.9-1.6-1.9-2.9C298.5,458.9,299,460,299.1,461.3z"/>
	<path class="st3" d="M297.2,456.5c-0.7-0.9-1-1.9-1-2.9C297.7,454.1,298.1,455.1,297.2,456.5z"/>
	<path class="st3" d="M286.5,449.7c1,0.3,1.6,1,1.9,2C287.4,451.3,286.8,450.7,286.5,449.7z"/>
	<path class="st3" d="M295.2,447.8c-1-0.3-1.6-1-1.9-2C294.3,446.1,294.9,446.8,295.2,447.8z"/>
	<path class="st3" d="M303.9,501c1,0.3,1.6,1,1.9,2C304.8,502.7,304.2,502,303.9,501z"/>
	<path class="st3" d="M293.3,443.9c-1-0.3-1.6-1-1.9-2C292.3,442.3,293,442.9,293.3,443.9z"/>
	<path class="st3" d="M273.9,426.5c1,0.3,1.6,1,1.9,1.9C274.8,428.1,274.2,427.5,273.9,426.5z"/>
	<path class="st3" d="M271,420.7c1,0.3,1.6,1,1.9,2C271.9,422.3,271.3,421.6,271,420.7z"/>
	<path class="st3" d="M310.5,425.5c0,0.3,0,0.6,0,0.9C310.3,426.1,310.3,425.8,310.5,425.5z"/>
	<path class="st3" d="M531.5,854.6c-0.3,0.3-0.6,0.5-0.9,0.8C530.9,855.1,531.2,854.9,531.5,854.6z"/>
	<path class="st9" d="M428.9,804.2c-4.9-3.4-5.7-9.1-7.9-14c-11.4-25.3-22.7-50.7-35.9-75.2c-0.7-1.3-1.1-2.7-1.6-4
		c3.6,1.2,5.8,4.1,7.8,6.9c3.5,4.7,6.6,9.8,8.7,15.4c5.6,12.5,13.4,23.9,17.7,37c1.6,4.9,2.8,9.9,5.5,14.4l0,0
		c0.3,0.3,0.6,0.6,0.8,0.9C425.5,791.9,427.2,798.1,428.9,804.2z"/>
	<path class="st7" d="M423.1,784.8c-3.4-1.5-4.1-4.9-5.2-7.8c-4.8-13.2-11.5-25.5-16.6-38.6c-0.6-1.7-1.5-3.2-1.4-5.1
		C411,749,421,765.1,423.1,784.8z"/>
	<path class="st7" d="M423.9,785.8c-0.3-0.3-0.6-0.6-0.8-0.9C423.3,785.1,423.6,785.4,423.9,785.8z"/>
	<path class="st9" d="M429.6,805.1c-0.3-0.3-0.5-0.6-0.8-0.9C429.1,804.5,429.4,804.8,429.6,805.1z"/>
	<path class="st1" d="M315.5,557.3c-2.4-1.8-3-4.1-1.9-6.8C314.9,552.5,315.3,554.9,315.5,557.3z"/>
	<path class="st1" d="M316.4,561.2c-1-0.4-1.6-0.9-0.9-2C315.8,559.8,316.1,560.5,316.4,561.2z"/>
	<path class="st5" d="M657.4,612.4c0,1.4-0.5,2.5-1.9,2.9C655.7,614,656.3,613.1,657.4,612.4z"/>
	<path class="st3" d="M312.9,570.7c0-1.2,0-2.5,0-3.7C313.7,568.2,313.6,569.5,312.9,570.7z"/>
	<path class="st17" d="M205.1,156.2c7.3,0.2,14.8-1.2,21.8-0.4c12.5,1.5,25,1.7,37.5,2.3c6.7,0.3,13.5-0.2,20.3,0.9
		c5.1,0.9,10.2-0.7,15.4-1.1c19.9-1.4,39.8-2.7,59.6-4.8c23.7-2.5,47.5-3.3,71.2-4.9c10.5-0.7,20.9-0.2,31.4-0.8
		c4-0.2,6.5,0.9,7.4,4.9c0,7.7,0,7.8-7.7,7.7c-22.4-0.3-44.7,2.1-67,3.5c-19.1,1.2-38,4.3-57.1,5.6c-18,1.2-35.9,3.7-53.9,3.3
		c-16.8-0.3-33.8,0-50.3-5c-8.8-2.7-18.1-4.1-27-6.8c-1.6-0.5-3.5-0.3-5.3-0.5c-0.6-1.1,0.4-1.4,1-1.9
		C203.2,157.5,204.1,156.9,205.1,156.2z"/>
	<path class="st15" d="M198.3,160.1c-0.6,2.6-2.3,3.8-4.9,3.8C194.3,161.7,196.2,160.7,198.3,160.1z"/>
	<path class="st15" d="M202.2,158.2c-0.3,0.6-0.6,1.3-1,1.9c-0.6,0-1.3,0-1.9,0C199.8,158.7,200.9,158.2,202.2,158.2z"/>
	<path class="st14" d="M687.5,209.5c-0.6,0.2-1.2,0.5-1.8,0.7c0-4.2,3.1-6.6,5.5-9.5C691.3,204.3,688.1,206.3,687.5,209.5z"/>
	<path class="st14" d="M685.1,210.6c-0.5,0.6-1,0.3-1.5-0.1C684.1,210.6,684.6,210.6,685.1,210.6z"/>
	<path class="st11" d="M712.7,168c-0.1,0.2-0.3,0.4-0.4,0.5c0.1-0.2,0.2-0.4,0.3-0.6C712.6,167.9,712.7,168,712.7,168z"/>
	<path class="st6" d="M672.8,228c-10.1-1.1-19.8-4.6-29.8-6.4c-17.8-3.2-35.3-7.6-53.3-9.7c-14.1-1.7-28.1-3.6-42.3-4.4
		c-17.5-1-35.1-1.8-52.6-1.9c-5.3,0-10.6,0.1-15.9,0.9c-7.9,1.1-16,0.4-24,0.8c-11.9,0.7-23.7,2.4-35.5,3.6
		c-36.6,3.7-72.4,12.1-108.8,17.5c-14.6,2.2-29.3,4.6-44.2,4.3c-25.3-0.6-49.5-5.8-72.5-16.7c-4.2-2-8.2-4.5-12.2-6.9
		c-5.5-3.3-6.2-3.3-10.9,1c-1.1,1-2.2,1.9-3.7,2.2c1.5-3.4,3-6.7,4.6-10.1c1.3-2.7,3.3-3.9,6.3-2.9c5.3,1.8,10.9,2.7,15.1,7
		c6.9,7.1,16.4,9.3,25.2,12.9c20.3,8.4,41.4,8.4,62.8,6.8c37.3-2.6,73.6-11.1,110.3-17.1c18.4-3,37-4.9,55.7-6.5
		c8.2-0.7,16.6,0.4,24.5-0.7c13-1.8,26-1.1,38.9-0.9c21.6,0.2,43.1,2,64.5,4.3c31.8,3.5,63,9.9,94.1,17.2c2.5,0.6,5.3,0.9,5.4,4.5
		l-0.2,0.2C674.3,227.8,673.9,228.6,672.8,228z"/>
	<path class="st15" d="M703,183.4c-0.2,0.1-0.4,0.2-0.7,0.3c0.2-0.1,0.4-0.3,0.5-0.4C702.8,183.2,703,183.4,703,183.4z"/>
	<path class="st22" d="M747.4,279.5c5.9,1.6,11.1,4.8,16.6,7.3c4.1,1.2,8.5,1.9,9.7,7.1c0.3,1.3,0.4,2.5,1.1,3.7
		c2.8,5.1,2,6.8-2.6,10.3c-6.8,5.1-14.2,5.4-22,4.1c-14.1-2.3-28.5-5-40.7-11.9c-16.5-9.3-34-14.4-51.9-18.9
		c-8.2-2.1-15.2-6.9-23.5-8.6c-21.1-4.4-42.2-8.6-63.9-9.7c-20.9-1.1-41.7-3.3-62.6-5.2c-7.8-0.7-15.7-1.2-23.6-1.5
		c-2-0.1-4-0.5-4.5-2.8c-0.6-2.5,1-3.9,3-4.9c1.4-0.7,2.8-1.6,4.5-1.6c7.5-0.1,15-0.7,22.4,0.2c5.2,0.6,10.6,1.2,15.7,1.4
		c10.8,0.4,21.4,2.7,32.2,2.3c1.8-0.1,3.5,0.1,5.2-0.8c0.7-0.2,1.5-0.2,2.3-0.2c2.1-0.1,4.1,0.2,6.2,0.4c0.7,0.2,1.3,0.5,2,0.6
		c3.4,2.5,7.2,3.3,11.3,2.4c0.5,0,0.9,0.1,1.4,0.2c1.6,0.8,3.3,0.7,4.9,0.5c13.2,0.7,26.4,1.6,39.2,5.6c5.9,1.8,12.4,1.4,18.5,3.3
		c1.5,0.4,3,0,4.5,0.7c4,2.3,8.6,1.5,12.8,2c17.8,2,35.9,2.6,53.2,8.1c3.9,1.2,8.1,1.1,11.9,2.8c1,0.4,2.6,0.5,3.5-0.8
		c0.4-0.3,0.9-0.5,1.4-0.7c0.5-0.2,1-0.3,1.5-0.2c0.8,0.1,1.5,0.5,2.2,0.8C741.5,277.4,745.9,275.6,747.4,279.5z"/>
	<path class="st9" d="M736.9,276.6c-0.3-0.1-0.7-0.3-1-0.4c-0.8-0.3-1.5,0.2-2.2,0.5c-7.2-0.8-13.9-3.2-20.7-5.4
		c-1.7-0.6-3.1-1.7-2.8-3.9c1.8-3.8,5.1-2.5,8-2.3c5.9,0.6,11.8,1.1,17.7,1.8c8.8,1.1,17.1-1.5,25.6-2.6c3.5-0.4,7-1.1,10.4-2
		c1.9-0.5,3.7-1.3,4.8-3c1.8-2.7,0.8-5.8-2.3-6.3c-2.5-0.4-5-1.4-7.6-1.2c-10.6,0.7-20.8-2.3-31.2-3.4c-2.1-0.2-4.1-0.5-6.2,0
		c-1.1,0.4-2.1,0.4-3.2,0.2c-3.2-1.7-6.7-2.5-10.3-2.3c-0.7,0.1-1.5,0.2-2.2,0.1c-1.6-0.6-3.1-1.2-4.9-0.7c-1,0.3-2,0.3-3,0
		c-1.2-0.4-2.3-0.9-3.6-0.8c-0.8-0.1-1.6-0.4-2.3-0.9c-5.9-2.8-12.4-3.5-18.7-4.6c-10.8-1.9-21.5-4.3-32.1-6.6
		c-15-3.4-30.1-6.3-45.3-9c-23.7-4.2-47.6-6.7-71.7-8c-13.3-0.7-26.6-1.7-39.9-1.8c-5.4,0-11,0.2-15.7,3.6c-1.7,0.9-3.5,0.9-5.2,0
		c-3.3-3-7.4-2.9-11.4-2.6c-9.3,0.9-18.7,0.7-27.8,3.2c-0.8,0.3-1.7,0.2-2.5,0c-12.4,0.3-24.7,2.1-37,4c-28.5,4.5-56.9,10-85.4,14.6
		c-11.5,1.8-23,3.4-34.6,4c-10.8,0.5-21.8-0.3-32.7-1.4c-9.5-1-19-2.5-28.5-3.1c-8.9-0.6-16.7-4.8-24.7-7.9c-1.1-0.4-2-1-3.1-1.4
		c-4.8-1.9-6.1-1.2-7.5,3.8c-1.2,4.1-2.9,5.1-6.9,4.1c-3.5-8.1,1.8-13.9,5.6-19.9c1.4-2.2,3.6-0.8,5.2,0.2
		c9.4,5.9,20.1,8.6,30.2,12.9c8.9,3.8,18.6,3.8,27.9,5.5c8.7,1.6,17.6,2.4,26.4,2.3c18.9-0.3,37.5-3.2,56.2-6.2
		c14.8-2.4,29.5-5.4,44.3-7.6c9.4-1.4,18.7-3.4,28-5.1c12.2-2.3,24.6-2.8,36.9-4.3c18.3-2.3,36.7-2,55-3.1c15.4-1,30.5,0.7,45.8,1
		c12.8,0.2,25.4,1.7,38,3c17.8,1.8,35.5,4.4,53,8c15.2,3.1,30.4,6.1,45.4,9.6c1.6,0.4,3.1,1,4.7,0.2c0.4-0.5,0.8-0.6,1.4-0.4
		c16.6,4.2,33.3,7.8,50.2,10.8c1,0.2,1.9,0.3,2.7,1c1,0,1.9,0,2.9,0c5.9-0.1,11.7,0.3,17.4,1.9c1,0,1.9,0,2.9,0
		c11.4-0.4,22.7,1.3,33.9,2.9c3.3,0.5,5.9,1.6,6.5,5.3c0,0.3,0.2,0.6,0.3,0.9c2,3.9,4.3,7.6-0.2,11.6c-3.1,2.8-5.6,5.1-10.2,5.9
		c-11.1,1.9-22.4,2.9-33.3,5.7c-2.6,0.7-5.2-0.5-7.9-0.2C738,276.7,737.4,276.7,736.9,276.6z"/>
	<path class="st5" d="M771.8,293.6c-1.9-3-6.4-3.1-7.8-6.7c3.6-2.8,7.7-3.9,12.2-3.8c3.5,0.1,7.1,0,10.6,0c2,0,3.8-0.3,5.4-1.6
		c2.7-2.2,5.3-5,9.4-2.8c4.4,2.3,6.4,6,7,10.8c1,7.4-1.8,13.9-4.5,20.4c-7.1,16.9-15.3,33.3-23.9,49.4c-0.8,1.5-1.6,2.8-3.4,3.2
		c-1.8-1.3-1.2-3.4-1.6-5.2c-0.3-1.8-0.7-3.5-1-5.3c-0.7-2.5-0.4-4.9,0.4-7.3c1.6-4.5,0.9-9.3,1.8-14c0.6-3.4,1.3-6.8,1.6-10.3
		c-0.7-2.6,2.1-4.5,1.5-7c-0.5-1.8,0.2-3.4,0.8-5c1-2.8,0.3-4.8-2.3-6.2C776.1,299.2,774,296.4,771.8,293.6z"/>
	<path class="st7" d="M737.8,276.4c9.2-1.6,18.3-3.5,27.5-4.8c5.7-0.8,11.4-2,17.1-3.2c3.7-0.8,5.7-3.9,7.8-6.8
		c0.2-0.3,0.3-0.6,0.3-0.9c0.6-3.5-5.5-11.9-9.1-12.5c-9.2-1.5-18.4-2.7-27.8-2.9c-1.5,0-2.9-0.1-4.2-1c4.7-1.9,9.6-1.1,14.3-0.7
		c7.7,0.6,15.3,1.8,23,2.8c2.4,0.3,4.4,1.1,5.4,3.5c0.8,1.9,2.4,2.9,4.1,3.9c3,1.7,3.1,3.9,0.9,6.3c-3,3.3-6.4,6.3-9.2,9.9
		c-1.3,1.8-3.5,2.1-5.6,2.4c-10.2,1.5-20.3,3.1-30.5,4.7c-1.8,0.3-3.5,0.7-4.5,2.4c-3.1-0.8-6.3-1.5-9.4-2.3
		c-0.3-0.1-0.5-0.3-0.4-0.5C737.6,276.5,737.7,276.4,737.8,276.4z"/>
	<path class="st7" d="M726.2,242.4c-12.1-0.7-23.7-4.1-35.5-6.5c-4.3-0.9-8.5-1.8-12.7-2.7c-1.9-0.4-3.8-0.6-5.1-2.4
		c-0.6-0.3-0.6-0.7,0-1l0.1-0.1c0.3-0.4,0.6-0.4,1,0c16.5,3.6,33.1,7.2,49.7,10.7C724.8,240.8,725.7,241.3,726.2,242.4z"/>
	<path class="st7" d="M746.6,244.4c-5.9-0.1-11.7-0.6-17.4-1.9C735.2,240.9,741,241.2,746.6,244.4z"/>
	<path class="st8" d="M775.1,357.4c1.8,1.3,1.2,3.4,1.6,5.2c-0.1,0.3-0.2,0.6-0.3,0.9C774.2,361.9,773.6,359.8,775.1,357.4z"/>
	<path class="st5" d="M777.4,374.2c-0.2-0.1-0.5-0.2-0.7-0.3c0.1-2.2,0.1-4.3,0.2-6.5C777.9,369.7,777.5,372,777.4,374.2z"/>
	<path class="st5" d="M673.9,229.8l-0.5,0c0,0-0.5,0-0.5,0c0-0.6-0.1-1.2-0.1-1.8c0.6-0.3,1.2-0.5,1.9-0.8
		C674.5,228,674.2,228.9,673.9,229.8z"/>
	<path class="st4" d="M169.3,234.7c3.1-1,4.8-2.8,4.5-6.4c-0.5-5.4,1.8-7.2,6.9-5.4c7.1,2.6,14.1,5.5,21,8.6
		c6.5,2.9,13.5,3,20.3,4.1c15,2.4,30.1,2.8,45.2,3.7c7.6,0.4,15.1-1.4,22.6-2.3c38.1-4.5,75.6-12.9,113.6-18.4
		c8.7-1.3,17.5-2.5,26.4-2.4c1.2,3.8-1.7,3.8-4,4.2c-7.3,1.2-14.8,1.6-22.1,2.7c-30.2,4.6-60.2,10-90.2,15.2
		c-14.3,2.5-28.8,5.1-43.2,5c-18.5-0.1-37.1,0.1-55.5-2.9c-5.7-0.9-11.6-1.6-17.1,1.2c-2,1-4.3,2-4.3,4.7c0.1,2.5,2.3,3.3,4.2,4.2
		c10.2,4.7,20.7,7.5,32.1,8.1c19.7,1.2,38.4-4.2,57.4-7.4c31.2-5.2,62.1-11.8,93.3-17.2c29-5,58.2-7.6,87.6-7.7
		c7.2,0,14.5-0.5,21.7-0.8c13.2-0.6,26.4,1.3,39.6,2.1c16.6,1,33.1,2.8,49.5,5.6c18.8,3.2,37.5,6.4,56,11.2
		c5.3,1.4,10.7,2.4,16.1,3.4c2.7,0.5,5.4,1.1,7.1,3.6c0.7,1.5,0,2.9-0.4,4.3c-2,3.2-5,2.4-7.8,1.9c-14.6-2.3-29.2-5.2-43.8-7.5
		c-16.2-2.6-32.6-3.7-48.9-4.8c-2.9-0.2-5.8-0.5-8.6-1c-1.8-0.1-3.6,0-5.5-0.1c-1-0.1-1.9-0.4-2.8-0.5c-0.8-0.1-1.5-0.2-2.3-0.4
		c-4.7-0.1-9.4,0.4-13.9-1.1c-9.7-4.5-20-4.9-30.5-4.5c-9.6,0.4-19.3,0.2-28.9,0.7c-7.5,0.4-15,0.9-22.6,0.4
		c-6.3-0.4-12.6,0.5-18.8,1.2c-13.9,1.4-27.9,2.2-41.7,4.7c-29.1,5.3-58.2,11.1-87.2,16.9c-15.4,3.1-31.1,5.2-46.4,8.7
		c-11.3,2.6-22.5,5.6-33.9,7.4c-2.7,0.4-4.6,2.1-4.2,5c1.5,10.5,2.3,21.2,7.1,30.9c1.9,6.2,4.4,12.2,4.8,18.7c1,3.2,2,6.3,3,9.5
		c-6.2,4.4-12.1,2.6-14.6-4.2c-1.5-3.9-1.4-8.7-5.8-11.2c-3.1-7.5-6.2-15.1-9.2-22.6c-2.8-7-5.5-14-8.2-20.9
		c-0.1-1.8-0.6-3.5-1.9-4.8c-1.9-7.8-4.9-15.2-8.1-22.5C173.7,249,169.5,242.5,169.3,234.7z"/>
	<path class="st9" d="M184.8,278.3c2.1,1,2.9,2.6,1.9,4.8C185.6,281.7,185.2,280,184.8,278.3z"/>
	<path class="st5" d="M672.9,229.9c0,0.3,0,0.7,0,1c-0.3,0-0.6,0.1-0.8,0.1C671.7,230.2,672.2,230,672.9,229.9z"/>
	<path class="st4" d="M239.9,401.5c2.9,2.3,3.9,5.7,5.3,8.9c1.6,3.9,3.4,7.7,5,11.5c0.4,1,0.7,2.4-0.7,2.9c-1.2,0.4-1.8-0.6-2.1-1.5
		C244.4,416.2,240.7,409.4,239.9,401.5z"/>
	<path class="st23" d="M494.7,503.9c0,5.3,0.2,10.7-0.1,16c-0.3,6.7,0.3,13.2,3.6,19.2c0.5,1,1,2.1,1.1,3.2
		c0.4,12.1,8,20.2,15.4,28.6c2.8,3.1,5.8,5.4,9.3,7.3c5.7,3,9.4,8.3,13.5,13c3.8,4.3,8.3,6.5,13.8,6.7c2.3,0.1,4.4,0.7,6.4,2
		c1.8,1.1,3.7,2,5.9,1.9c3.5-0.1,6.9,0.5,9.9,1.9c7.3,3.6,14.3,1.8,21-1.1c4.2-1.9,8.5-1.9,12.8-1.6c4.2,0.3,5.7,2.7,3.7,6.2
		c-7,12.2-9.6,25.9-14.1,38.9c-2.6,7.6-6,14.9-9.1,22.4c-1.7,4.1-2.8,8.5-1.8,12.8c1.5,6.7,0.1,13.2-0.4,19.7
		c-0.8,10.3-2.2,20.5-5.9,30.3c-0.6,1.7-0.2,4.7-2.8,4.4c-2.4-0.2-4.2-2.3-5.2-4.6c-0.5-1.3-0.3-2.9-0.4-4.3c0-0.2-0.1-0.5-0.1-0.7
		c-0.1-0.5,0-1,0.2-1.4c4.8-17.5,9.4-34.6,5.1-53.5c-3.5-15.2-11-27.9-21.3-38.2c-11-11.1-25.1-18.3-41.4-21.2
		c-14.5-2.6-28.2-0.3-41.3,4c-10.6,3.5-19.9,11-28.7,18.4c-0.7,0.5-0.8,1.4-1.1,2.1c-0.8,2.4-2.9,4-3.8,6.4
		c-0.2,0.4-0.5,0.8-0.7,1.2c-0.3,0.4-0.6,0.7-0.9,1.1c-0.3,0.4-0.6,0.7-1,1.1c-1.7,1.9-3,4.4-6.2,3.9c-3.2,0.5-4.9-1.1-5.4-4.1
		c-1.1-6.8-2.9-13.5-3.7-20.4c-0.7-5.9-2.6-11.6-3.2-17.6c-0.1-1.1-0.5-2.3-1.3-3.1c-7.6-7.9-7.5-18.1-8.4-28
		c-0.1-1,0.1-2.1-0.4-2.9c-5-8.1-3-17.2-4-25.9c-1.1-9.1-3.9-18-4-27.2c-0.1-7.1,0-14-2.9-20.7c-1.4-3.3,0.7-5.6,4.3-5.9
		c4.2-0.3,8.3-1.2,12.5-1.2c24.3,0,48.7,0,73,0.1c3,0,6.2-0.6,8.5,2.3C495.2,498.2,495.7,501.1,494.7,503.9z"/>
	<path class="st24" d="M663.1,538.8c-4.7,6.9-9.4,13.8-14.3,20.6c-2.4,3.4-6.3,5-9.5,7.3c-0.5,0.4-1.2,0.5-1.7,0.9
		c-12.1,10.5-27.2,13-42.2,15.5c-6.5,1.1-12.8-0.9-19.1-2.2c-5.2-1.1-10.3-2.3-15.5-3.5c-0.6-0.1-1.4-0.1-1.9-0.5
		c-11.9-8.8-25.5-15-33.7-29.2c-6.7-11.6-11.6-23-13.3-36.1c-0.7-5.6-1.9-11-1-16.6c1.9-4,2.4-8.3,2.9-12.6
		c-0.4-0.5-0.8-1.1-0.9-1.8c0.2-1.4,0.7-2.7,1.1-4c0.4-1.1,1.1-2,1.8-2.9c1.3-2.3,2.7-4.7,4-7c1-0.6,1.3-1.7,1.9-2.6l0.1-0.2
		c0.9-0.7,1.2-1.8,1.8-2.7l0.1-0.3c0.5-0.5,0.4-1.2,0.8-1.7l0.2-0.3c0.3-0.2,0.5-0.4,0.7-0.7l0.2-0.2c0.5-0.5,0.4-1.2,0.8-1.7
		l0.2-0.3c0.3-0.2,0.5-0.4,0.7-0.7l0.2-0.2c0.5-0.4,0.4-1.1,0.8-1.6l0.3-0.3c2.7-1.9,5-1.7,7,1.2c3.2,4.8,7.6,8.1,13,10.3
		c4.7,1.9,7.6,7,13.2,7.6c1.9,0.2,3.7,1.1,5.7,1.1c1.1,0,2.7-0.1,3.2,0.7c2.4,4.6,8.8,4.6,10.9,9.5c0.3,0.7,1,1.5,1.7,1.6
		c7.5,1.8,12.3,8.1,19.2,11c0.4,0.2,0.9,0.5,1.4,0.4c6.4-0.6,10.3,1.4,10.2,8.7c0,2.4,2.6,3,4.4,3.9c11.3,5.8,22.7,11.2,32.5,19.5
		c1.9,1.6,4.2,2.4,6.3,3.6C659.8,534.2,662.3,535.6,663.1,538.8z"/>
	<path class="st21" d="M436.6,641.4c1.3-1.9,2.5-3.8,3.8-5.8c4.9-2.5,6.6-2.3,9,2.3c2.5,4.7,6.9,6.5,11.1,8.8
		c0.6,0.3,1.5,0.2,1.8,0.6c6.3,7.7,17,8.4,24.2,15.1c4.5,4.2,9.9,7.9,15.1,11.5c3.3,2.3,7.9,2.6,11.6,5.2
		c5.6,3.8,11.8,6.8,17.6,10.4c0.3,0.2,0.5,0.6,0.8,0.5c8.6-1.3,11.4,6.9,17,10.4c2.5,1.5,4.7,3.4,7.7,3.9c2.6,0.4,3.7,2.5,4.9,4.3
		c2,3,4.7,4.8,7.9,6.1c5.5,2.2,6,3.6,3,8.9c-0.6,1.1-1,2.4-1.9,3.4c-1.8,3.6-3.5,7.1-6.7,9.6c-0.7,0.5-1.5,0.4-2.3,0.1
		c-4.4-1.7-6.6-0.1-5.7,4.5c0.4,2.1,0.7,4,0.2,6c-4.6,4.5-10.7,6.7-15.6,10.8c-2.2,1.3-4.5,2.5-6.7,3.8c-3.7-1.2-7.3-1.8-11.2-0.2
		c-2.8,1.1-6,0.5-9-0.5c-12.1-4-23.8-8.8-35.7-13.2c-8.2-3.1-15.3-8.7-22.2-14.2c-8-6.4-14.7-14.1-21.6-21.7
		c-3.2-3.5-5.2-6.9-6.3-11.3c-0.8-3.1-2.7-5.5-6.3-5.7c-1.4-3.9-2-7.8-1-12.1c1.8-7.6,3.2-15.3,4.7-22.9c-1.7-5.6-0.7-7.3,6.1-11.6
		c1.8-1.2,2.5-3.3,3.8-4.9c0.3-0.3,0.6-0.7,0.9-1l0,0C436,642.1,436.3,641.8,436.6,641.4z"/>
	<path class="st25" d="M663.1,538.8c-7.9-3.6-14.7-8.9-21.8-13.8c-7.9-5.3-16.2-9.8-24.9-13.7c-3.3-1.5-7.3-2.4-5.1-7.8
		c1.1-2.9-1.7-4.1-3.9-4.2c-4.8,0-8.4-4.2-13.4-3.4c-0.8,0.1-1.8-0.5-1.9-1.3c-0.3-4.1-3.6-4.4-6.4-5.3c-3.1-1.1-5.3-2.8-7.6-5.5
		c-2.3-2.7-6.8-4.1-9.5-7.5c-0.8-1.1-3.9,0.1-6-0.8c-4.6-1.8-9.6-2.4-12.8-7c-0.9-1.3-3-1.7-4.6-2.5c-4-1.9-8.1-3.6-10.2-8.2
		c-1.1-2.5-3.1-4.6-6.4-4.4c2.9-5.4,5.5-10.6,12.1-13c4.1-1.5,7.8-4.5,11.2-7.3c9.7-8.2,22-7.7,33.4-10.6c8.1-2.1,15.5,0.6,23.2,2.1
		c2.1,0.4,4.1,0.9,6.2,0.9c2.2,1.1,4.5,1.8,6.9,1.8c3.3-0.3,6.3,0.6,9.1,2.4c6.3,4.1,12.4,8.6,18.6,13c5.4,3.8,7.6,9.8,11.1,15
		c0.8,1.2,0.3,2.5-0.2,3.7c0,0.2,0,0.4,0.1,0.5c9.9,12.2,9.2,27.5,12.1,41.8c0.6,2.9-0.9,6.3-1.6,9.4c-1.4,6.4-3,12.8-4.3,19.2
		C666.1,534.8,664.9,536.9,663.1,538.8z"/>
	<path class="st25" d="M570.3,726.8c-0.5-2.9,3-4.9,1.9-7.7c-1.2-3-4.9-1.6-7.1-3.4c-2.2-1.8-4.9-2.9-6-6c-0.5-1.5-1.7-2.9-3.4-3.2
		c-5.1-0.6-8.1-5.2-12.8-6.6c-1.5-0.5-1.8-2.2-2.3-3.5c-1-3.4-3.4-4.4-6.4-3.1c-3,1.4-4.5,0.3-5.7-2.2c-0.3-0.6-0.8-1.4-1.2-1.4
		c-6.5-0.4-9.7-6.9-15.6-8.3c-1.5-0.3-2.8-0.7-3.5-2.2c-0.4-0.9-1.2-1.8-2.2-1.5c-5.9,1.5-7.8-4.2-11.6-6.4
		c-0.1-0.1-0.2-0.3-0.3-0.4c-7.9-3.7-12.8-12.1-22-13.8c-1.4-0.2-3.3-0.6-3.9-1.6c-3.9-6-10.9-7-16.3-10.7c-1.6-1.1-3.2-2.2-3.8-4.2
		c-1.2-3.9-3.9-5.3-7.8-5c1.8-3.6,4.1-6.5,7.9-8.6c6.1-3.4,12-7.4,17.7-11.5c6.3-4.6,14-4.1,21-5.9c3.5-0.9,7.2-1.2,10.8-2
		c6.1-1.3,11.7,1.3,17.5,2.1c5.5,0.8,11.3,1.7,16.3,3.9c5.3,2.3,10,6.2,14.9,9.5c0.3,0.2,0.4,0.5,0.7,0.6
		c14.3,7,19.6,21.5,27.8,33.5c3.2,4.7,2.4,10.9,3.9,16.3c0.5,1.8,0.5,3.8,1,5.7c2.8,8.8,0.9,17.4-1.4,25.9c-1.9,6.9-2,14.4-6.4,20.5
		c-0.3,0.4-0.6,0.7-1,1.1l0-0.1C570.9,726.7,570.6,726.8,570.3,726.8z"/>
	<path class="st23" d="M442.4,457.4c2.6,0.1,4.3-1.4,5.5-3.4c1.9-3,4.6-4.4,8.1-4.3c3.1,0.1,5.5-1.3,7.7-3.4
		c2.5-2.4,3.5-4.6,0.6-7.3c-4.2-4-0.3-7.6,0.9-10.9c1-2.9,4.6-1.4,7-1.5c0.8-0.1,2.5,0.1,1.5,1.4c-0.9,1.2-2.1,1.8,0.2,2.5
		c1.7,0.5,3.8,1.2,4.7-0.9c1.7-4.2,5.3-2.8,8.3-2.9c0.8,0,2,0.2,1.6,1.2c-1.7,4.6,1.9,8.2,2,12.6c0.1,4.3-0.1,8.7,0.8,13
		c1.4,7,0.4,8-6.6,8c-11,0-21.9,0-32.9,0c-0.6,0-1.1,0.1-1.6,1c11.6,0,23.2,0,34.7,0c6.5,0,7.4,0.9,7.7,7.5c0.2,3-0.6,6.2,1,9
		c0.4,4.4-0.4,5.2-6.1,6c-1.4,0.1-2.8,0.1-4.1,0.1c-1.3,0-2.6-0.2-4-0.4c-1.6-0.3-3.1-0.1-4.7,0.1c-5.3-0.3-10.6-0.3-15.9,0.3
		c-0.8,0-1.5,0.1-2.3,0.1c-1.5,0-2.9,0-4.4,0c-4.7,0-9.4,0.1-14-0.1c-2.2-0.1-4.2-0.6-5-3c-0.8-2.3-0.2-4.2,1.4-5.7
		c3.3-3.1,4.6-6.5,2-10.7c-0.8-1.3-0.4-3.5,1-3.7C440.4,461.2,440.6,458.5,442.4,457.4L442.4,457.4z"/>
	<path class="st23" d="M546.6,789.4c-1.8-0.3-4.1-0.8-5.3-2.4c-1.3-1.8,0.9-3.1,1.5-4.7c4.5-10.3,12-18.3,19.6-26.3
		c0.4-0.5,0.9-1,1.4-1.3c1.7-1,3.3-3.4,5.5-1.8c1.8,1.4,0.2,3.5-0.2,5.3c-1.5,5.9-3.1,11.8-4.4,17.8c-0.9,4-2.8,6.7-7,7.7
		c-2.8,0.7-5.5,1.8-7.5,4.1C549.4,788.8,548.3,789.5,546.6,789.4z"/>
	<path class="st18" d="M779.7,320c-1.6,9-1.7,18.2-3.8,27.1c-0.4,1.7-1.1,3.3-1.7,5c-0.3-0.3-0.9-0.6-1-1c-1.1-6.1-5.5-6.1-10.4-6
		c-18.9,0.2-37.9,0.1-56.8,0.1c-32.4,0-64.8,0-97.2,0c-5,0-10.3-1-12.6,5.5c-2-2.1,1.1-3.6-0.3-4.8c-1.4-1.3-3.4-0.6-5.1-0.6
		c-33.2,0-66.4-0.2-99.6,0.1c-7.1,0.1-14.1-0.3-21.2-0.2c-7.3,0.2-14.5,0-21.8,0.1c-0.2-0.3-0.5-0.7-0.7-1c1.3-2.5,3.8-2.2,6-2.3
		c6.5-0.2,12.9-0.1,19.4-0.1c3.6,0,6.6-0.8,8.4-4.4c1.5-2.9,3.5-2.8,4.9,0c1.7,3.4,4.5,4.4,7.9,4.4c32.3,0,64.5,0.1,96.8,0
		c7.3-3.5,14.5-0.1,21.8,0c21.8,0.2,43.6,0.1,65.3,0c3.5,0,7.1,0.8,10.6,0c8.4,0,16.7-0.2,25,0.2c15.8-0.5,31.6-0.1,47.4-0.3
		c2.7,0,5.5,0.2,8-1.3c3.7-2.5,3.7-6.5,4.1-10.3c0.3-2.6,0.4-5.2,1.3-7.6C775.2,320.4,776.5,317.8,779.7,320z"/>
	<path class="st24" d="M555.8,747.1c-2.4-3.4-4.1-7-2.2-11.3c0.8-1.8,1.5-3.8,3.8-4c2.3-0.2,4,1,5.1,3c0.3,0.6,0.7,1.1,1.1,1.6
		C561.6,740.5,559.5,744.4,555.8,747.1z"/>
	<path class="st18" d="M515.8,473.9c0.1,1,0.2,2.1-0.7,2.9c-0.8,1.2-0.9,2.5-0.9,3.9c-0.1,0.6-0.2,1.3-0.3,1.9
		c-2.1-0.8-4,3.5-5.7,0.8c-1.5-2.4,2.4-2.5,3.2-4.3C512.3,477.1,513.1,474.6,515.8,473.9z"/>
	<path class="st18" d="M487,482.6c1.9-1.9,6.2,0.5,6.8-3.8c1.5,1.8,2.5,3.3,1.3,6c-0.9,2.1-0.3,4.9-0.3,7.5
		c-0.2,0.1-0.4,0.2-0.7,0.2c-0.8-0.1-1.8-0.5-1.9-1.3C491.9,487.5,489.2,485.2,487,482.6z"/>
	<path class="st18" d="M494.7,503.9c0-2.9,0-5.8-0.1-8.7c-0.7-1-0.8-1.9,0-2.9l0,0C496.2,496.2,496.2,500.1,494.7,503.9z"/>
	<path class="st18" d="M583.8,749c-0.4,1.7-0.8,3.4-1.9,4.8C580.9,751.6,581.7,750,583.8,749z"/>
	<path class="st25" d="M523.7,461.4c0,1.3-0.4,2.3-1.8,2.7C521.9,462.8,522.5,461.9,523.7,461.4z"/>
	<path class="st25" d="M521.7,464.3c0,1.3-0.4,2.4-1.9,2.6C520,465.7,520.6,464.8,521.7,464.3z"/>
	<path class="st18" d="M585.8,742.2c-0.3,0.6-0.6,1.3-1,1.9C584.1,743,584.8,742.5,585.8,742.2z"/>
	<path class="st25" d="M528.5,453.8c-0.3,0.5-0.5,1-0.8,1.6C527.9,454.8,528.2,454.3,528.5,453.8z"/>
	<path class="st25" d="M524.6,459.5c-0.3,0.6-0.5,1.1-0.8,1.7C523.8,460.5,523.9,459.8,524.6,459.5z"/>
	<path class="st25" d="M526.6,456.6c-0.3,0.6-0.6,1.1-0.8,1.7C525.7,457.6,525.8,456.9,526.6,456.6z"/>
	<path class="st18" d="M457.9,360.7c-0.3-0.3-0.5-0.7-0.8-1C457.4,360,457.6,360.4,457.9,360.7z"/>
	<path class="st18" d="M459.8,363.6c-0.3-0.3-0.5-0.7-0.8-1C459.3,362.9,459.6,363.3,459.8,363.6z"/>
	<path class="st25" d="M525.6,458.5c-0.2,0.2-0.5,0.5-0.7,0.7C525.1,459,525.3,458.7,525.6,458.5z"/>
	<path class="st18" d="M463.7,373.3c-0.3-0.3-0.5-0.7-0.8-1C463.2,372.6,463.4,373,463.7,373.3z"/>
	<path class="st25" d="M527.5,455.6c-0.2,0.2-0.5,0.5-0.7,0.7C527,456.1,527.3,455.8,527.5,455.6z"/>
	<path class="st8" d="M660.2,461.4c-2.8-4.3-5.7-8.6-8.3-13c-1-1.7-2.4-2.6-3.8-3.6c-8.8-5.9-16.8-13-26.5-17.5
		c1.6-0.9,3.4-0.8,5.2-0.8c16.1,0,32.2,0,48.3,0c5.4,0,5.3,0.3,4.2,5.5c-1.7,8.3-3.2,16.7-4.4,25.1c-0.4,3.1-1.6,4.3-4.6,4.2
		C667,461.3,663.6,461.3,660.2,461.4z"/>
	<path class="st20" d="M689.9,461.5c6.9,0,13.7,0,20.6,0c0,0.2,0,0.3,0,0.5c-7,0-14,0-21,0C689.7,461.8,689.8,461.7,689.9,461.5z"/>
	<path class="st1" d="M610,677.4c-0.3,1.5-0.9,2.8-1.9,3.9C606.9,679.1,608.2,678.1,610,677.4z"/>
	<path class="st3" d="M628.4,650.2c-0.2,1.3-0.9,2.3-1.9,2.9C626.5,651.8,627,650.7,628.4,650.2z"/>
	<path class="st8" d="M688.4,344.1c-27.6,0-55.1,0-82.7,0c-2.1,0-4.8,0.7-4.4-3.9c-3.2,4.3-7.2,3.9-11.2,3.9c-32.7,0-65.4,0-98.1,0
		c-7.4,0-7.4,0-8.5-6.7c-1,6.7-1,6.7-8.1,6.7c-9.3,0-18.7,0-28,0c-2.5-5-7.9-6.6-11.9-9.8c-0.3-0.3-0.7-0.5-1-0.8
		c-11.4-10.4-25.7-13.7-40.3-16.6c-11-2.1-21.2,2.2-31.8,3.4c-3.1,0.3-6.3,0.9-9.1,2.6c-3.3,0-5.5,2.4-8.1,3.8
		c-5.3,2.8-7.2,2.7-10.7-2c-1.7-2.3-3.5-2.9-6.1-2.6c-5,0.4-10,0.1-15,0.2c-8.4,0.1-15.3-4.5-22.6-7.8c-8.1-3.6-15.9-7.6-24-11.3
		c-4.5-2-9.2-1.5-13.8-0.9c-3.8,0.5-7.7,0.7-11.5,1.2c-3.1,0.4-6.1-0.2-8.4-2.7c-0.4-0.8-0.5-1.7-0.4-2.5c0.3-1.6,1.3-2.7,2.9-3.1
		c14.2,1.1,28.1-1.6,42.1-3c4.9-0.5,9.1,0.9,12.7,3.6c12.3,9,25.8,10.5,40.4,7.9c21.6-3.9,43.3-6.4,65.1-9
		c12.5-1.5,25.1-1.3,37.6-2.4c11.9-1,23.8-0.3,35.7-1.5c4.7-0.5,7.5-2.4,8.9-6.8c0.8-1.1,1.7-1.4,2.8-0.4c1.6,4.3,4.7,5.9,9.4,5.9
		c19.5-0.1,38.9,2.2,58.3,3.5c14,1,28,2,41.9,3.1c8.3,0.6,16.1,3.3,24.1,5c2.9,0.6,5.6,1.4,8.6,0.9c1.2-0.2,2.3-0.2,3.3,0.4
		c9.6,6.5,21.3,5.7,31.8,9.2c3.7,1.2,7.2,2.8,10.9,3.8c0.6,0.2,1.3,0.6,1.5,1.1c1.9,5.5,6,9.2,9.6,13.5c2.2,2.6,4.7,4.8,6.9,7.3
		C689,339.4,690.8,341.4,688.4,344.1z"/>
	<path class="st8" d="M494.7,492.3c0,1,0,1.9,0,2.9c-26.6,0-53.2,0-79.8-0.1c-3.7,0-7.4,0.8-11.1,1c-5.1,0.3-6.8,2.9-3.8,7
		c3.2,4.4,4.5,8.4,1.7,13.6c-1.2,2.2,0.3,5.4,0.8,7.9c1.6,8.2,2.9,16.4,3.8,24.7c0.4,3.3,0.9,6.7,0.4,10.1c-0.4,2.8-0.4,5.7,1.9,8.2
		c1.1,1.2,1.6,3.3,1.5,5c-0.2,6.2,1.7,12,2,18.1c0.1,3.3,1.5,6.6,4,9.1c3,3.1,4.1,6.6,4.8,11c1.2,7.4,1.9,15,4,22.3
		c1.1,3.8,1,7.6,1.9,11.4c0.6,2.5,1.7,3.7,4.2,3.6c-1.9,3.9-5.4,7-6.1,11.6c-3-0.2-3.6-3.4-5.9-4.6c-6.2-3.2-8.6-2.8-12.5,3.1
		c-1,1.5-1.7,3.3-3.8,3.2c-2.3-0.1-3.3-1.8-4.1-3.6c-3.1-7.4-5.9-15-9.2-22.3c-7.5-16.7-10.8-34.7-16.1-52.1
		c-5.1-16.8-8.1-34.1-12-51.2c-2.4-10.4-4.7-20.7-6.1-31.3c-0.5-3.9,0.7-4.8,4.3-4.8c7.9,0.1,15.8,0,23.7,0c2.1,0,4.1-0.1,5.7-2
		c1.5-1.9,3.9-2.2,6.1-2.8c6.1-1.7,12.6-2.4,18.1-5.2c5.5-2.8,10.9-4.1,17-3.9c-4.7-1.1-10,0.4-13.9-3.7c-1.3-1.4-2.6-2.4-1.6-4.5
		c8.4-3.5,15.2-9.6,23.1-13.9c1.7-0.9,3-2.5,5-2.8c-1,2.2-0.7,3.8,2.1,4.1c-0.6,1.1-1.5,0.8-2.2,0.8c-4.5,0.3-4.6,0.4-2.3,4.1
		c1.8,3,1.8,5.7-0.7,8.3c-0.9,0.9-1.8,1.9-2.7,2.8c-1.1,1.1-2.1,2.2-1.4,3.8c0.6,1.4,2.1,1.3,3.4,1.4c4.8,0,9.6,0,14.5,0
		c1-0.7,1.9-0.7,2.9,0c0.6,0,1.3,0,1.9,0c5.8-1.4,11.7,0.4,17.4-1c1.6,0,3.2,0,4.9,0c0.8,0.9,2.1,0,2.9,1c1.3,0,2.6,0,3.9,0
		c6.2,0.1,6.2,0.1,6.8,6.5C493.9,490.2,494.4,491.3,494.7,492.3z"/>
	<path class="st18" d="M234.2,300.6c6.1,1.3,12.2,0.5,18.2-0.7c9.1-1.8,17,1.4,24.9,5.3c9,4.4,17.8,9,27,12.8
		c8.4,3.4,17.4,2.3,26.2,1.4c1.3-0.1,2.5-0.6,3.8-0.9c1.8-0.3,3-0.4,2.5,2.4c-0.8,4.1,2.1,6.3,6.1,5c2-0.6,3.8-1.6,5.7-2.7
		c1.7-0.9,3.2-1.6,4.9-0.2c-6.5,4.3-13,8.7-19.5,13c-1.9,1.2-3.9,2.2-5.2,4.1c-5.3,7.8-10.7,15.6-16,23.4c-1.2,1.7-2,3.6-2.2,5.8
		c-4.5-1.1-7.1-4.3-8.8-8.3c-1.4-3.4-2.5-7-3.6-10.5c-1.4-4.5-0.8-5.3,4.2-5.4c4.6-0.1,9.3,0,14,0c0-0.3,0-0.7,0-1
		c-5.3,0-10.6-0.1-15.9,0.1c-3.3,0.1-5.2-1-5.8-4.3c-0.3-1.7-1.2-3.4-1.6-5.1c-0.8-3-2.7-4.4-5.6-5.3c-13.8-4.5-27.6-8.8-41.2-14
		c-4.8-1.8-8.5-4.3-11.3-8.5c-0.7-1-1.8-1.8-2.8-2.7c-0.5-0.6-0.7-1.2-0.6-2C231.9,301.1,232.8,300.5,234.2,300.6z"/>
	<path class="st18" d="M434.5,333.5c0.3,0.3,0.7,0.5,1,0.8C435.2,334,434.9,333.8,434.5,333.5z"/>
	<path class="st24" d="M421.1,694.9c1-3.5,3-2.8,5.1-1.1c2.9,2.4,4,5.8,4.5,9.4c0.3,2.3,1.1,3.8,3.1,5.1c4,2.7,6.5,7.1,9.5,10.7
		c7.2,8.5,16.1,14.7,24.9,21c6.6,4.8,14.5,7.3,22.3,10c7.6,2.6,15,5.6,22.5,8.4c3.6,1.4,7,1.9,10.8,0.3c5.1-2.3,6.7-1.7,10,3.1
		c-2.6,2.9-6.4,2.7-9.7,3.9c-4.6-0.3-9,1-13.2,2.1c-8.4,2.2-16.4,0.5-24.7-0.4c-17.4-2-30.6-12.1-43.2-22.5
		c-5.3-4.4-7.8-12-12.3-17.7c-5.3-6.8-6.5-14.8-8.5-22.7C421.6,701.3,421.3,698.1,421.1,694.9z"/>
	<path class="st22" d="M232.2,302.5c0,0.6-0.1,1.2-0.1,1.9c-1.2,0.3-2.1,1-2.8,2c-4.2,3.4-5.1,3.1-8-2.5c-0.7-1.6-0.2-3.2,0.5-4.7
		c2.3-4.6,5.3-8.8,8.6-12.8c1.6-1.8,3.7-3.4,6-3.9c4.8-1.2,9.6-2.7,14.4-4c1.6-0.4,3.2-0.5,4.6,0.8c2,3,0.1,4.3-2.3,5.4
		c-5,2.3-8.7,6.3-12.6,9.9c-1.3,1-3.1,1-4.3,2.1c-0.7,0.7-1.3,1.4-2,2C233.1,299.8,233.3,301.4,232.2,302.5z"/>
	<path class="st26" d="M222.6,303.5c1.5,2.6,3.3,4.5,6.7,2.9c-0.2,2-1.9,3.2-2.9,4.8c-5.6,2.2-6.4,3.6-5.1,9.3
		c0.9,4,2.1,8.1,0.3,12.2c-2.6-4.2-3.8-9-5.9-13.4c-0.7-1.5,0.1-2.8,0.3-4.1c-0.9-2.5-0.2-4.7,1.5-6.7
		C218.9,306.5,218.2,302.3,222.6,303.5z"/>
	<path class="st26" d="M771.8,293.6c3.4,1.4,5.5,4.2,7.7,6.9c2.3,4,1.5,7.4-1.8,10.4c-2.8,2.6-4.7,5.7-5.7,9.4
		c-1.3,4.4-4.3,6.1-8.8,5.8c-2.1-0.2-4.1-0.6-6.2-1.2c-9.6-2.9-19.4-5-29.2-6.6c-9.7-1.6-19-4.7-27-10.1
		c-8.6-5.8-17.9-8.5-27.7-10.9c-23.5-5.8-46.9-12-70.4-17.5c-11.7-2.7-23.6-3.3-35.4-4.9c-21.1-2.8-42.3-4.9-63.4-7.4
		c-6.1-0.7-12.2-0.4-18.4-0.4c-1.3,0-2.7,0.1-3.7,1c-2.9,2.5-5.3,2-7.9-0.6c-1.5-1.6-3.9-1.4-6-1.4c-22.1-0.2-44.2-0.9-66.2,0.1
		c-16,0.7-31.6,4.5-47.4,7c-18.6,2.9-37,7.2-55.9,8.9c-4.2,0.4-8.4,0.5-12.6,0.1c-2.1-0.2-3.8-1-4-3.4c-0.2-2.2,1-3.9,3-4.5
		c9.1-2.4,17.7-6.9,27.3-7.3c3.5-0.1,6.7-1.6,10-2.2c13.3-2.7,26.6-5.7,39.8-8.7c7.6-1.7,15.3-2.7,22.7-5.3c2.8-1,6-1,9-0.7
		c0.8,0.1,1.7,0.6,2.4,0.3c8.1-3.3,16.9-1.4,25.4-3.3c6.5-1.5,13.7-1.7,20.6-0.6c2.7,0.4,5.1-0.2,7.4-1.7c2-0.3,3.9-0.8,5.9-0.5
		c2.9,1.2,5.7,1.6,8.8,0.7c3.9-1.1,7.7,0.5,11.6,1c0.8,1.1,1.5,1.3,2.1-0.2c2.6-2.4,5.5-2.9,8.8-2c1.3,0.3,2.6,0.8,4.1,0.4
		c7.8-2.2,15.6-1.5,23.4-0.3c6.4,1,12.8,1.7,19.2,2.4c8.9,1,17.9,1.4,26.8,2c1.7,0.1,3,1.1,3.5,2.8c-0.5,1.1-1.4,1.7-2.7,1.6
		c-12.5-1-25-1.8-37.5-3.1c-11.2-1.1-22.5-1.8-33.8-1.5c-0.8,0-1.7,0-2.4,0.3c-2.2,1.1-6,1.7-5.7,4.3c0.3,2.3,3.9,1,6,1.2
		c15.4,1,30.8,2.2,46.2,3.6c14.4,1.3,28.9,2.2,43.3,3.2c16.1,1.1,32,3.8,47.7,7.3c6.4,1.5,13.4,1.9,19.2,4.7c5.5,2.8,11.1,5,17,6.6
		c9.2,2.6,18.4,5,27.6,7.3c2.1,0.5,4.2,0.9,5.8,2.2c11.4,9.2,25.2,12.7,38.9,16.6c8.8,2.5,17.7,4.8,27.1,4.7
		c5.5-0.1,9.1-3.8,13.2-6.4c1.5-0.9,1.4-2.8,0.5-4.4C772.9,297.6,772.1,295.7,771.8,293.6z"/>
	<path class="st18" d="M547,242.3c17,1.3,34,2.3,50.9,4.2c12.1,1.4,24.1,4.1,36.1,6.2c5.9,1,11.7,2.1,17.5,3.1
		c1.7,0.3,3.5,0.5,5.2-0.2c-0.1-0.7,0.2-1,0.9-1.1c9.7,2.2,19.5,3.8,29.3,5.7c1.7,0.3,3.1,0.8,3.5,2.6c-0.1,3.8-2.3,4.5-5.7,4.5
		c-9.4-0.1-18.6-2.7-28-2.6c-1.7,0-3.4-0.7-5.2-0.1c-1,0.6-1.9,2.4-2.9,0c-2.2-3.1-5.9-3.6-9.1-3.7c-8-0.1-15.4-3.2-23.1-4.6
		c-6-1.1-12.1-1.4-18.1-2.2c-19.5-2.6-38.9-5.9-58.6-7c-5.8-0.3-11.7-0.4-17.5-1.4c-5.6-0.9-6.8-2-6.2-5.7c2.9-0.6,5.8-1.2,8.5,0.5
		c4.7,1.7,9.5,0.8,14.3,1c0.4,0.2,0.8,0.4,1.1,0.6c1,0,2,0.1,3,0.1C544.4,241.4,545.7,241.4,547,242.3z"/>
	<path class="st19" d="M516,240.6c4.4,3.4,9.5,4.5,14.8,4.6c10,0.1,19.9,2.6,29.8,2.5c6.7,0,13.2,1,19.5,2.2
		c14.3,2.6,29,2.1,42.9,5.8c7.6,2,15.5,2.6,23,5c2.1,0.7,3.7,1.3,2.6,4c-11.8-2.7-23.9-4.2-35.8-6.8c-7.5-1.6-15.5-2.5-23.4-1.9
		c-1.4-1.5-3.2-0.8-4.8-1c-0.3,0-0.6,0-1,0c-3.7-1.6-8.1-0.5-11.6-2.9c-0.6,0-1.3,0-1.9,0c-1.6-0.4-3.4,0.2-4.9-1
		c-0.6,0-1.3,0-1.9,0c-2.1-0.8-4.3-1.1-6.5-1.3c-15.8-1-31.6-2-47.3-4.2c-6.1-0.8-12.4-0.8-18.7-0.1c-4.5,0.6-9.3-0.5-13.7,1.6
		c-3-3.4,0-5.2,1.8-7.4c0.4-0.3,0.9-0.5,1.4-0.6c0.3,0,0.7-0.1,0.9,0c4.4,1.9,8.7,2.6,12.3-1.5c6.1-0.9,12.1,0.9,18.2,0.9
		C513.3,238.7,515.3,238.8,516,240.6z"/>
	<path class="st19" d="M651.6,264.6c1.1-1.4,2.6-2.1,4.2-1.7c7,1.6,14.3,0.3,21.4,2.2c3.9,1,8.9,2.6,12.1-2.4c0.8-1.2,2-1.5,3.3-1.4
		c5.3,0.5,10.5,1.5,15.5,3.6c1.2,0.5,2.2,1.3,2.4,2.7c7.9,3.2,15.9,5.7,24.2,7.7c0.3,0.1,0.5,0.3,0.4,0.5c-0.1,0.2-0.1,0.3-0.2,0.3
		c-0.8,1.8-2.4,2.3-4,1.9c-5.1-1.5-10.4-1.1-15.6-2.7c-8.7-2.6-17.7-4-26.7-5.3c-5.8-0.8-11.7-0.7-17.4-2.3c-4.1-1.2-8.5-1-12.8-1.2
		C655.9,266.6,653.6,266.3,651.6,264.6z"/>
	<path class="st26" d="M572.2,252.1c3.9,0.9,8.3-0.2,11.6,2.9C579.7,255.2,575.4,255.7,572.2,252.1z"/>
	<path class="st26" d="M584.8,255c1.9-1.1,3.6-1.4,4.8,1C588,256,586.3,256.1,584.8,255z"/>
	<path class="st26" d="M565.4,251.2c1.7,0,3.4-0.1,4.9,1C568.5,252.8,566.6,253.6,565.4,251.2z"/>
	<path class="st19" d="M737.8,276.4c0.1,0.3,0.1,0.6,0.2,0.8c-0.4-0.2-0.7-0.5-1.1-0.7C737.2,276.5,737.5,276.4,737.8,276.4z"/>
	<path class="st7" d="M735,276.2c0-0.3-0.1-0.6-0.2-0.8c0.4,0.2,0.7,0.5,1.1,0.7C735.5,276.2,735.3,276.2,735,276.2z"/>
	<path class="st4" d="M660.2,252c4.7,3.2,10.3,3.5,15.7,4.6c17,3.5,34.5,4.7,51.6,7.4c14.4,2.3,27.8-1,41.5-3.6
		c2.4-0.5,6.4-0.7,6-4.3c-0.5-3.9-4.4-2.7-7.1-3.1c-10.3-1.3-21,0.6-30.8-4.3c-2.5-1.3-6,0.7-7.9-2.5c4.5-0.4,9.1,0.2,13.4,1.2
		c10.1,2.4,20.4,2.3,30.6,3.5c3.7,0.4,6.6,1.6,7.2,5.7c0.5,3.6-2.1,6.7-6.6,7.6c-6.5,1.3-13,2.1-19.5,3.2
		c-12.7,2.3-25.3,0.8-37.9-0.7c-2-0.2-3.8,0-5.6,0.8c-7.2-1.3-13.7-5.1-21.2-5c-8.3-2.5-17-3-25.5-4.8c-2.4-0.5-5.2-0.3-7.1-2.3
		C657.5,253.9,657.8,251.9,660.2,252z"/>
	<path class="st4" d="M701,242.4c-2.3,1.5-4.6,0.7-6.9,0.2c-8.6-1.8-17.1-3.9-25.8-5c-0.6,0.5-1.3,0.5-1.9,0
		c-8.6-3.3-17.8-4.5-26.8-6.4c-14.8-3.2-29.7-6.2-44.6-8.5c-15.1-2.3-30.3-3.9-45.5-5.5c-13.4-1.5-27-0.9-40.4-2.1
		c-11.6-1.1-23.1-0.4-34.7,0.2c3.6-3.7,8.6-2.4,12.7-2.6c14.6-0.9,29.2,0.8,43.8,1.3c12.7,0.5,25.3,1.9,37.9,3.2
		c32.1,3.2,63.5,10.3,94.9,17.1c10.2,2.2,20.5,4.1,30.8,6.2C696.8,240.9,699.1,241.2,701,242.4z"/>
	<path class="st4" d="M473.4,215.3c-11.7-0.2-23.4,0.3-35.1,1.8c-2.2,0.3-4.5,0.5-6.6-0.8c3.2-1.7,6.9-1.3,10.3-1.6
		c8.9-0.8,17.8-1.8,26.8-1.3C470.6,213.5,472.5,213.3,473.4,215.3z"/>
	<path class="st4" d="M726.2,246.3c-3.8,0.9-7.5,1-10.7-1.9C719.2,244.3,722.8,244.7,726.2,246.3z"/>
	<path class="st4" d="M713.6,244.4c-1.9,1.1-3.6,1.4-4.8-1C710.4,243.4,712.1,243.3,713.6,244.4z"/>
	<path class="st4" d="M705.9,243.4c-1.4,1-2.3,0.6-2.9-1C703.9,242.8,704.9,243.1,705.9,243.4z"/>
	<path class="st19" d="M450.2,247.3c-1.6,1.1-3.4,1.1-5.1,0.9c-15.7-1.3-31,2.6-46.5,3.4c-16.3,0.8-31.6,5.9-47.3,8.8
		c-8.8,1.6-17.7,3.4-26.4,5.8c-4.2,1.2-8.4,2.2-12.8,2.5c-5.1,0.4-10.2,1.4-14.8,4.1c-3.4,2-7.6,1.4-11,3.4c-1.1,0.6-2.8,1-2.6,2.5
		c0.2,2.1,2.2,1.4,3.5,1.4c10.4,0.2,20.6-1.2,30.7-3c26.5-4.6,52.9-9.7,79.7-13.1c6.2-0.8,12.6-0.7,18.8-0.6
		c5.1,0.1,10.2-0.1,15.4-0.5c5.6-0.4,11.2,0.6,16.8,0.6c7.9-0.1,15.8,0,23.7,0.2c2.8,0,5.3,0.2,5.4,4.4c0.8-3.8,3.5-3.3,5.9-3.4
		c15.2-0.8,30.2,1.6,45.3,3.3c17.9,2,35.8,4.6,53.7,6.3c16.8,1.6,32.9,6.1,49.2,10.1c16.7,4.1,33.5,8.3,50.2,12.5
		c5.1,1.3,10.1,2.8,14.6,6c10.2,7,21.5,11.6,33.9,13.4c9.7,1.5,19.3,3.9,28.7,6.7c7.1,2.1,9,1.2,11.8-5.8c1.1-2.9,2.6-5.6,5-7.6
		c2.8-2.4,3.9-5.4,3.7-9.1c5.1,3.6,3.1,8.2,1.8,12.7c-7.3,7.2-8.6,16.4-8.7,26c0,1.7,0.4,3.6-1,5c-19.4,0-38.7,0-58.1,0
		c-3.2-3.6-6.2-7.3-8.5-11.6c-6.7-12.6-17.8-18.6-31.5-20.5c-11.2-1.6-22-5.1-33-7.2c-4.6-0.9-9-2.3-13.7-2.4
		c-0.5-0.2-1-0.4-1.6-0.5c-15.9-4.3-32-7.2-48.4-8.8c-21.6-2.1-43.3-3.3-65-5.3c-8.1-0.8-16.4-1.6-24.6-1.4c-2.6,0.1-5.2,0.1-7-2.3
		c-0.3,0-0.7,0-1,0c-1.2,1.5-2.8,2.1-4.6,2.2c-6,0.3-11.8,1.3-17.8,1.2c-13.6-0.4-27,1.6-40.5,2.2c-9.8,0.5-19.6,0.8-29.4,1.6
		c-19.1,1.5-38.3,2.1-57.2,5.2c-5.9,0.9-11.9,0.8-17.8,1.5c-3.3,0.4-6.4-0.7-9.3-2.2c-9.2-5-19.1-4-28.9-3
		c-9.8,1.1-19.6,2.2-29.4,2.8c-2,0.1-4,0.5-5.2-1.7c4.2-4.9,8.2-10,14.8-11.9c0.6-0.2,1.1-1.1,1.6-1.7c0-0.2,0.1-0.5,0.1-0.7
		c0.2-0.7,0.4-1.4,1-2c3.1-2.2,6.9-2.4,10.3-3.7c0.7-0.2,1.4-0.4,2.1-0.6c0.7-0.2,1.4-0.3,2.1-0.4c3.6,0.8,6.6-0.1,9.3-2.5
		c0.5-0.1,1-0.2,1.5-0.2c3.6,0.1,7.1-0.2,10.4-1.8c5.3-2.6,11-3.5,16.8-4.6c12.2-2.4,24.4-5.2,36.6-7.5c9-1.7,17.8-4.3,26.7-5.8
		c8.6-1.4,17.1-3.3,25.8-4.3c9-1.1,18.1-1.1,27.1-2.5c6.6-1.1,14.2-0.3,21.3,0.8C448.5,244.6,450.4,244.7,450.2,247.3z"/>
	<path class="st8" d="M771.7,344.1c-0.3-7.4,0.2-14.7,2.1-21.9c1.1-4.3,2.9-7.8,7.5-9.1c0,2.4-0.6,4.7-1.7,6.8
		c-2.6,0.4-3.7,2.1-4.1,4.6c-0.8,4.9-1.8,9.7-1.9,14.6C773.6,341,773.9,343.1,771.7,344.1z"/>
	<path class="st9" d="M481.1,240.5c-0.3,0-0.6,0-0.9,0.1c-1.4,1-3.1,1.4-4.8,1.6c-2.8,0.5-5.5-0.1-8.3,0c-2.1,0.8-4.4,0.6-6.6,0.9
		c-3.6,0.4-7.3,0.5-10.9,1.1c-2.8,0.4-5.5-0.7-8.2-0.4c-8.5,0.2-17.1,0.8-25.6,1c-21.6,0.6-42.3,6-63.3,9.9
		c-16.4,3-32.7,6.8-49.1,9.6c-3.6,0.6-6.7,2.5-10.3,3.3c-4.9-1.6-9.4,0-14.1,1.2c-14.8,3.7-30,5.5-44.8,9.6
		c-7,1.9-11.7,6.6-16.5,11.2c-1.8,1.8-1.8,4.5-1.3,6.9c0.7,4.3,1.5,8.5,2.6,12.7c-0.8,2-1.6,4.1-3.1,5.8c-3.4-2.4-3.9-6.3-4.7-9.8
		c-1.8-7.8-3.3-15.8-4.8-23.7c-0.8-4,0.3-5.2,5.4-6c8.7-1.4,17.5-2.7,26.1-5c18.5-5,37.5-7.7,56.4-11.1c19-3.5,37.7-8.4,56.8-11.7
		c14.8-2.5,29.5-5.4,44.3-7.6c10-1.4,20.2-1.7,30.3-2.7c11.6-1.1,23.2,0,34.7-0.9c7.5-0.6,14.7,0.1,22.1,0c8.5-0.2,17-1.9,25.5-0.5
		c5.7,1,11.7,1.1,16.8,4.3c-2.9,0-5.8,0.1-8.7,0.1c-7.8,0.4-15.4-1.9-23.2-1C489.1,242.7,485,239.9,481.1,240.5z"/>
	<path class="st10" d="M777.1,256c-0.3-2.7-2.2-3.7-4.7-3.9c-2.7-0.2-5.3-0.7-8-0.6c-12,0.2-23.6-2.8-35.2-5.2c-1,0-1.9,0-2.9,0
		c-3.6-0.2-7.2-0.6-10.7-1.9c-0.6,0-1.3,0-1.9,0c-1.6-0.2-3.5,0.5-4.8-1c-1,0-1.9,0-2.9,0c-1.1,0-2.1,0-2.9-1c-0.6,0-1.3,0-1.9,0
		c-4.9,0.1-9.4-1.7-14.1-2.5c-6.2-1-12.3-3.2-18.7-3c-0.2,0.2-0.3,0.5-0.5,0.7c-0.2,0-0.4,0-0.6,0c-0.1-0.5-0.5-0.9-0.9-1.3
		c-9.8-3-19.9-4.8-30-6.8c-11.5-2.3-23-4.5-34.5-6.8c-10-2-20-2.7-30.1-3.9c-11.8-1.5-23.5-3.2-35.4-3.6
		c-10.7-0.3-21.5-0.8-32.2-1.6c-9.9-0.7-19.9-0.8-29.7,1.7c-0.3,0.9-0.7,0.9-1,0c-1.7-1.4-3.7-0.9-5.6-1c-12.1-0.6-24,1.8-36,1.9
		c-0.6,0-1.3,0-1.9,0c-0.8,1.8-2.4,1.8-4.1,1.9c-6.9,0.7-13.8,1.1-20.7,2.2c-26.3,4.3-52.5,8.8-78.7,13.2
		c-22.4,3.7-44.6,7.5-67.5,7.2c-17.9-0.3-35.7-2.3-53.5-3.4c-5.8-0.4-10.3,2.4-14.5,5.7c-3.4,2.7-2.6,6,1.4,8
		c2.2,1.1,4.5,1.8,6.6,2.9c12.8,6.8,27,7.7,40.9,7.6c9.2,0,18.5-2.3,27.7-4c30-5.5,60-11,89.8-16.9c25.2-5,50.5-8.5,76-10.8
		c19.3-1.7,38.6-0.9,57.9-1.8c16.7-0.8,33.4,1.7,50.1,3.1c24.1,1.9,48,5.9,71.6,11.1c14.8,3.3,29.6,6.6,44.3,9.9
		c-0.2,1.2-0.4,2.3-0.6,3.5l0.1,0c0.9-0.9,1.7-1.8,2.6-2.7c0,0.2,0.1,0.3,0.1,0.5c1.4,2.2,3.7,2.4,5.9,2.8
		c11.8,2.5,23.6,4.3,35.4,6.5c11.6,2.2,23.5,2.7,35.3,4c8.8,1,17-1.5,25.4-2.5c4.1-0.5,8.3-1.1,12.2-2.9
		C775.9,260.3,777.4,258.7,777.1,256z"/>
	<path class="st9" d="M547,242.3c-1.3,0-2.6,0-3.9,0C544.5,240.2,545.8,240.2,547,242.3z"/>
	<path class="st9" d="M540.1,242.1c-0.4-0.2-0.8-0.4-1.1-0.6C539.4,241.7,539.8,241.9,540.1,242.1z"/>
	<path class="st8" d="M571.2,726.7c0.3-0.4,0.7-0.7,1-1.1C571.9,726,571.5,726.4,571.2,726.7z"/>
	<path class="st25" d="M435.6,642.4c-0.3,0.3-0.6,0.7-0.9,1C435,643.1,435.3,642.8,435.6,642.4z"/>
	<path class="st25" d="M436.6,641.4c-0.3,0.3-0.7,0.7-1,1C435.9,642.1,436.3,641.7,436.6,641.4z"/>
	<path class="st8" d="M514.2,480.8c-1.1-1.6-0.2-2.8,0.9-3.9C514.9,478.2,515.3,479.6,514.2,480.8z"/>
	<path class="st24" d="M603.1,493.9c0.1,0.7-0.3,1-0.8,1c-0.3,0-0.6-0.1-0.8-0.3c-0.3-0.5,0-0.9,0.4-1
		C602.3,493.6,602.8,493.8,603.1,493.9z"/>
	<path class="st18" d="M475.3,481.7c-5.7,2-11.6,0.5-17.4,1C463.6,480.6,469.5,482.1,475.3,481.7z"/>
	<path class="st18" d="M456,482.6c-1,0-1.9,0-2.9,0C454,481.8,455,481.8,456,482.6z"/>
	<path class="st18" d="M483.1,482.6c-1-0.3-1.9-0.6-2.9-1C481.2,482,482.1,482.3,483.1,482.6z"/>
	<path class="st23" d="M627,300.8c2-1.2,4-0.8,6.1-0.3c16.3,3.6,32.7,7.2,49,10.9c10.9,2.4,18.5,9.3,24.3,18.4
		c1.7,2.7,2.9,5.7,5.2,8.1c1.7,1.7,2.1,3.9,2.1,6.3c-8.4,0-16.8,0-25.2,0c-0.4-2-1-4.1-2.7-5c-5.1-2.5-7.1-8-11.5-11.2
		c-0.5-0.4-1.1-0.9-1.2-1.5c-3.4-11.4-13.8-11.7-22.7-14.3c-5.2-1.5-10.6-3-16.1-3.3c-1.1-0.1-2.4-0.2-3.3-0.8
		c-7.6-5.4-17.1-3.5-25.2-6.6c-8.4-3.3-17.4-2.9-26.2-3.9c-19.7-2.1-39.5-2.7-59.2-4.5c-10.7-1-21.5-1.7-32.4-1.3
		c-7.7,0.3-7.7,0-7.7-7.7c15.5-0.3,30.9,1.2,46.3,2.7c10.6,1,21.2,1.2,31.8,2.2c16.5,1.7,33.1,2.2,49.3,6.3
		c4.4,1.1,8.8,1.7,13.3,2.6c2.2,0.5,4.4,1.2,6,2.9L627,300.8z"/>
	<path class="st23" d="M239,293.8c13.6,0.1,27-1.5,40.4-3.4c8.5-1.2,16.6-1.4,24.2,3.2c3.7,2.2,7.8,2,12.2,1.8
		c15.4-1,30.6-4.1,46.1-4.6c15.2-0.5,30.4-2.6,45.7-3.3c7.7-0.4,15.3-1,23-1.3c16.2-0.7,32.5-1.3,48.7-2c0,1.3-0.1,2.6,0,3.9
		c0.3,3.5-1.3,4.8-4.8,4.9c-21.4,0.9-42.7,1.6-64.1,3c-14.9,0.9-29.8,3.4-44.6,5.2c-16.9,2.1-33.7,5.6-50.8,6.5
		c-8.4,0.5-15.8-2.9-21.6-7.2c-9-6.7-18-6.4-27.9-5.1c-9.7,1.3-19.4,3.3-29.3,1.5C236.8,295.4,237.8,294.5,239,293.8z"/>
	<path class="st23" d="M232.2,302.5c0.1-1.6,0.5-2.9,2-3.8c0,0.6,0,1.2,0,1.8C233.5,301.2,232.9,301.8,232.2,302.5z"/>
	<path class="st7" d="M219,309.3c-4.6-2.1-3.8-6.8-4.7-10.5c-1.4-5.6-0.3-10,4.8-14.3c6.6-5.5,13.8-8.3,21.9-10.2
		c15.5-3.7,31.1-6.4,46.8-9c1.6-0.3,3.2-0.6,4.5,0.8c0.2,2-1.2,2.4-2.8,3.1c-2.9,1.2-6.1,1-8.9,2.3l0,0c-2.9,2.1-6.4,2.8-9.7,3.8
		c-0.7,0.1-1.4,0.3-2,0.4c-0.3,0.1-0.6,0.4-0.9,0.6c-3.7,0.6-7.3,1.5-10.7,3.1c-0.6,0.3-1.3,0.3-1.8,0.8l0,0c-6,1.5-12.4,2.3-18,4.7
		c-7.9,3.4-11.6,11-14.8,18.6C221.4,305.4,220.2,307.4,219,309.3z"/>
	<path class="st23" d="M280.7,271.5c3.5-2.6,8.1-3,11.7-5.4c26.5-9,54.5-10.7,81.5-16.9c22.2-5.1,44.8-6.9,67.5-6.8
		c2.5-1.1,5.2,0,7.7-0.7c3.9-0.1,7.8-0.2,11.7-0.3c1.8-1,3.8-0.1,5.6-0.6c3-0.1,5.9-0.1,8.9-0.2c1.4,1.2,1.9,2.6,0.9,4.2
		c-0.6,0.6-1.5,1.1-2.1,0.9c-6.4-1.8-12.7,0.8-19.1,0.5c-1.6,0.3-3.2,0.6-4.8,1c-2.3-1.3-4.9-1.9-7.4-1.8
		c-8.8,0.4-17.7-2.4-26.2,1.4c-0.3,0.1-0.7,0.2-0.9,0.2c-8.1-2-15.9,1.1-23.8,1.5c-8.8,0.5-17.9,2.2-26.4,5c-4,1.3-8,2.1-12.2,2.9
		c-14.6,2.6-28.8,6.6-43.3,9.4c-6.1,1.2-12.3,1.7-18.2,4.4C288.2,271.9,284.4,271.5,280.7,271.5z"/>
	<path class="st19" d="M455,246.3c6.9-2.8,14.1-2.3,21.3-1.9c0.7,1,0.7,1.9,0,2.9c-5.6-0.3-11.1-1.4-16.7,0
		C458.1,247.6,456.4,247.3,455,246.3z"/>
	<path class="st22" d="M455.9,254c0.7-2.2,1.7-2.5,2.6-2.5c5.6,0.2,11.2,1.1,16.8,0.1c0.3-0.1,0.9,0.4,1.1,0.7
		c0.4,0.8-0.3,1.3-0.9,1.4c-1.1,0.2-2.2,0.3-3.3,0.3C466.9,254.1,461.6,254,455.9,254z"/>
	<path class="st18" d="M476.3,247.3c0-1,0-1.9,0-2.9c-0.3-1.2-0.6-2.5-0.9-3.7c1.6,0,3.2-0.1,4.9-0.1c-1.1,2.2-3.4,3.8-2.9,6.7
		C477,248.1,476.6,248.1,476.3,247.3z"/>
	<path class="st18" d="M481.1,240.5c3.8-1.4,7.8-0.7,11.7-0.8c-0.8,2.9-2.7,3.7-5.4,2.8C485.3,241.9,483,241.7,481.1,240.5z"/>
	<path class="st23" d="M270.9,275.3c3-1.9,6.2-3.2,9.7-3.8C278.3,275,274.8,275.6,270.9,275.3z"/>
	<path class="st22" d="M255.5,280.2c0.6-0.3,1.2-0.5,1.8-0.8C256.7,279.7,256.1,279.9,255.5,280.2z"/>
	<path class="st8" d="M627,300.8l-0.2,0L627,300.8z"/>
	<path class="st23" d="M268,276.3c0.3-0.2,0.6-0.4,0.9-0.6C268.6,275.9,268.3,276.1,268,276.3z"/>
	<path class="st18" d="M449.1,241.7c-2.5,1.1-5.1,0.6-7.7,0.7C443.8,241.2,446.5,241.6,449.1,241.7z"/>
	<path class="st18" d="M466.4,240.8c-1.8,0.8-3.7,0.6-5.6,0.6C462.6,240.4,464.5,240.6,466.4,240.8z"/>
</g>
</svg>
