<?xml version="1.0" encoding="UTF-8"?><svg id="Layer_1" xmlns="http://www.w3.org/2000/svg" viewBox="0 0 650 650"><defs><style>.cls-1{fill:#000;}.cls-1,.cls-2{stroke-width:0px;}.cls-2{fill:#fff;}</style></defs><rect class="cls-1" width="650" height="650"/><path class="cls-2" d="M564.95,325.11c-.03,132.27-107.68,239.55-240.31,239.46-132.41-.08-239.73-107.67-239.58-240.19.14-131.92,107.87-239.05,240.31-238.97,132.18.08,239.61,107.56,239.58,239.69ZM324.81,559.69c129.61.04,235.09-104.83,235.25-233.87.16-130.07-104.8-235.43-234.61-235.51-129.91-.08-235.39,104.79-235.5,234.12-.11,129.95,104.98,235.22,234.86,235.26Z"/><path class="cls-2" d="M267.97,311.8c-3.26,1.37-6.58,2.77-8.56,3.6-3.82-1.83-6.51-3.48-9.44-4.32-.98-.28-3.32,1.29-3.64,2.41-.28,1.01,1.06,3.17,2.22,3.75,3.7,1.83,7.74,2.95,11.49,4.7,7.93,3.71,11.04,10.08,8.98,17.78-.09.32-.12.66-.23.97-2.41,6.99-11.63,11.32-21.4,10.04-9.81-1.28-15.76-6.76-16.4-15.42,3.3-.78,6.65-1.56,8.92-2.1,3.58,2.47,6.21,5.14,9.37,6.14,1.8.57,4.47-1.58,6.75-2.5-1.4-1.71-2.49-3.98-4.28-5.01-3.85-2.22-8.24-3.51-12.09-5.72-5.45-3.14-7.66-8.21-6.59-14.4,1-5.83,4.84-9.43,10.32-11.03,9.86-2.87,21.22-.22,24.57,11.12Z"/><path class="cls-2" d="M336.1,315.51c3.91-4.86,8.91-1.38,13.52-2.61v37c-4.52-.66-9.26,1.83-13.75-2.1-9.55,4.9-17.39,3.87-23.28-3.51-5.79-7.26-5.61-19.28.38-26.25,5.59-6.51,14.14-7.37,23.13-2.52ZM321.64,331.32c-.08,5.23,2.75,8.7,7.24,8.87,4.57.18,7.93-3.17,8.12-8.09.19-5.16-3.07-9.05-7.66-9.16-4.58-.11-7.61,3.2-7.69,8.38Z"/><path class="cls-2" d="M278.58,323.28c-8.69-.16-4.25-6.02-5.64-9.82,2.33-.25,4.24-.46,6.49-.7.64-2.7,1.3-5.52,1.99-8.49h9.6c.17,2.78.34,5.5.53,8.57h9v9.87c-2.84.16-5.75.33-8.57.49v16.67c.6.12,1.21.24,1.81.35.61-1.83,1.22-3.66,1.95-5.88.16-.03.85-.41,1.4-.27,2.6.69,6.62-2.12,7.63,2.28.99,4.31.5,8.74-3.6,11.67-5.05,3.61-10.59,3.8-16.13,1.43-4.92-2.11-6.32-6.54-6.44-11.45-.11-4.8-.02-9.61-.02-14.74Z"/><path class="cls-2" d="M407.29,340.14c.35-1.77.69-3.55,1.1-5.62.38-.11,1.05-.55,1.57-.42,2.63.68,6.65-2.1,7.76,2.1,1.12,4.27.63,8.75-3.4,11.73-4.99,3.69-10.56,3.92-16.12,1.62-4.92-2.04-6.47-6.42-6.58-11.36-.11-4.81-.02-9.62-.02-14.72-1.85-.34-3.39-.62-5.17-.95v-9.22c2.08-.18,4.01-.34,6.07-.51.63-2.85,1.23-5.55,1.87-8.47h9.68c.16,2.82.3,5.42.47,8.47,3.06.14,5.95.28,9.14.43v9.52c-2.83.14-5.74.28-8.53.41v16.76c.72.07,1.44.15,2.16.22Z"/><path class="cls-2" d="M371.42,315.55c3.65-1.38,7.2-2.72,11.52-4.36v13.65c-1.15,0-2.11,0-3.07,0-6.1.06-8.42,2.12-8.66,8.28-.21,5.42-.04,10.86-.04,16.56h-12.96v-21.73c0-2.16,0-4.31,0-6.47,0-8.59,2.27-10.4,10.89-8.34,1.02.24,1.72,1.76,2.31,2.4Z"/></svg>