<?xml version="1.0" encoding="UTF-8"?>
<svg id="Layer_1" data-name="Layer 1" xmlns="http://www.w3.org/2000/svg" version="1.1" viewBox="0 0 700 700">
  <defs>
    <style>
      .cls-1 {
        stroke: #837c7f;
      }

      .cls-1, .cls-2, .cls-3, .cls-4, .cls-5, .cls-6, .cls-7, .cls-8, .cls-9, .cls-10, .cls-11, .cls-12, .cls-13, .cls-14, .cls-15, .cls-16, .cls-17, .cls-18, .cls-19, .cls-20 {
        fill: none;
        stroke-width: 2px;
      }

      .cls-2 {
        stroke: #d4dfe2;
      }

      .cls-3 {
        stroke: #6b4a4d;
      }

      .cls-21 {
        fill: #2f1e28;
      }

      .cls-21, .cls-22, .cls-23, .cls-24, .cls-25, .cls-26, .cls-27, .cls-28 {
        stroke-width: 0px;
      }

      .cls-4 {
        stroke: #573538;
      }

      .cls-22 {
        fill: #684141;
      }

      .cls-5 {
        stroke: #3e323a;
      }

      .cls-6 {
        stroke: #2c2631;
      }

      .cls-7 {
        stroke: #a99e9d;
      }

      .cls-23 {
        fill: #916c6b;
      }

      .cls-8 {
        stroke: #3a232b;
      }

      .cls-9 {
        stroke: #a09294;
      }

      .cls-24 {
        fill: #c0d0cf;
      }

      .cls-10 {
        stroke: #60737f;
      }

      .cls-11 {
        stroke: #52484f;
      }

      .cls-12 {
        stroke: #6a7a81;
      }

      .cls-25 {
        fill: #fbfcfa;
      }

      .cls-13 {
        stroke: #b6c9cd;
      }

      .cls-14 {
        stroke: #21212e;
      }

      .cls-15 {
        stroke: #7d5756;
      }

      .cls-26 {
        fill: #45282e;
      }

      .cls-16 {
        stroke: #948988;
      }

      .cls-17 {
        stroke: #879097;
      }

      .cls-18 {
        stroke: #b29f9e;
      }

      .cls-27 {
        fill: #acc2ca;
      }

      .cls-19 {
        stroke: #958d91;
      }

      .cls-20 {
        stroke: #dee6e5;
      }

      .cls-28 {
        fill: #132333;
      }
    </style>
  </defs>
  <g>
    <path class="cls-13" d="M243.5,614.9c4,.6,8,.8,12.1.8s1.4.2,2.2.6c.4.2.3.3,0,.4-2.2.4-4.5.5-7.1.4-7.6-.3-12.1-.4-13.3-.5-3.9-.2-8.9.8-15.3,3-1.6.5-2.9,1.1-3.9,1.7-3,1.9-7.3,4.1-7.3,8.1s1.2,6.5,3.7,8.9c2.1,2,6,2.8,8.7,2.7,9-.3,18.6-.4,28.7-.2,5.1,0,10.3,0,15.7,0,3.5,0,8.8,0,15.7.3,3.3,0,10,.2,19.9,0,41.1-.2,82.3-.3,123.4-.3,0,0,4.1,0,12.2,0,5.8,0,9.9,0,12.3-.4,5.3-.7,9.4-3.2,12.2-7.5,1.2-1.8,2.8-5.9.6-7.4-2.8-2.1-6-3.8-9.6-5.2-.3,0-.6-.3-.8-.6l-4.2-6.6" vector-effect="non-scaling-stroke"/>
    <path class="cls-12" d="M449.5,613.3c6.5-2.1,12.5-6,17.9-9.8,7-4.8,12.8-10.7,17.3-17.6,4.5-6.9,6.7-14.4,6.6-22.7-.4-33.4-.3-60.7,0-81.9,0-.4.2-.5.5-.5,7,.4,13.8.4,20.5,0,4.8-.2,9.4-1.2,13.6-2.8,5.5-2,11.1-4.5,16.7-7.5,4.7-2.5,9.7-6,14.9-10.5,9.4-8.2,17.5-17.5,24.3-28.1,6.3-9.9,10.7-20.6,13.2-32.1,2.3-10.8,2.5-22.4,2.6-33.9,0-16.3.2-33.1.2-50.3s0-17.6-.3-20c-.5-8.6-1.9-17-4.2-25.1-1.2-4.5-2.7-8.4-4.4-11.8-4.2-8.4-9.3-16.6-15.2-24.5-5-6.7-11.1-11.8-17.9-17.1-7.1-5.6-16.1-9.6-24.1-12.9-8.6-3.6-17.6-5.5-27.1-5.9-6.2-.2-10.5-.4-13-.5-.6,0-1-.5-1-1.1.5-13.9.4-27.8-.3-41.6-.2-3.5-1.8-6.1-5.1-7.8-1.8-1-4.1-1.5-6.9-1.7-5.5-.3-10.2,0-14.1.9-.4,0-.7-.1-.8-.5h0c-.3-6.1-1.6-11.8-4.2-17.2-3.7-7.9-8.4-14.5-14.1-19.9-6.1-5.7-12.5-9.4-19.3-11.3-10.8-3-21.8-2.5-32.8,1.4-3.2,1.1-5.8,2.8-8.2,5.2-.1.1-.4.1-.5,0h0c-1.8-3.1-3.6-5.5-5.4-7.2-4.8-4.6-10.5-8.7-17.1-12.1-10.4-5.4-21.2-6.5-32.8-4.7-13,2.1-23.8,7.7-32.2,16.9-1.2,1.3-3.1,3.5-5.7,6.6-.2.2-.4.2-.6,0-2.9-2.2-5.2-3.6-7.1-4.3-15.7-5.8-30.6-4.9-44.5,2.8-14.2,7.8-23.5,19.4-28,34.7-.9,3.2-1.3,6.4-1.2,9.6,0,.4-.3.7-.6.7h-18.9c-5.8.1-8.7,6-8.8,11.2,0,11.6-.2,23.9-.2,36.9s0,59.6-.2,164v11.2c.3,32.2.3,67.7.1,106.8,0,5.7,0,12.4.1,20,.2,12.1.3,26.2.2,42.3,0,11.1.3,20.5.9,28.2.2,3,1.1,6.3,2.5,10,3.6,9.3,9.4,18.5,17.8,24.1,3.9,2.6,6.9,4.5,8.8,5.6,6.3,3.7,13.5,5.9,21.4,6.7,3.5.3,6.9.6,10.4.8" vector-effect="non-scaling-stroke"/>
    <path class="cls-10" d="M449.5,613.3c-3.7,1.2-7.6,1.9-11.5,1.9-27.5,0-55,0-82.5-.4-7,0-13.7,0-20,0-30.7,0-61.4,0-92,.2" vector-effect="non-scaling-stroke"/>
    <path class="cls-10" d="M432.9,146.8h8.1c.3,0,.6-.2.6-.6h0c-.8-3.4-2.1-6.5-4-9.5-3.1-4.8-7.1-8.5-11.9-11.4" vector-effect="non-scaling-stroke"/>
    <path class="cls-17" d="M425.6,125.4c-7.8-5.6-16.1-6.9-24.8-3.8-4,1.4-8,4.2-11.9,8.3-1.9,2-3,2-5.9,2.1-3.6.1-7.4,0-11.6-.2-.7,0-1.3-.5-1.4-1.2-2-8-4.9-14.5-11.7-19.6-9.7-7.3-20.5-9-32.5-5-3.5,1.2-7.2,2.9-10.9,5.1-4,2.4-6.8,5.9-8.4,10.4-1.8,5-3,8.4-3.6,10.1-.1.3-.3.5-.7.5-2,0-3.6-.8-5.6-.5-2.8.3-5.8.4-9.1.3-.7,0-1.4-.4-1.9-.9-1.2-1.4-2.6-3-4.3-4.8-2.6-2.7-5.3-4.2-8.7-5.1-6.1-1.7-12.2-1.6-18.3.3-4.1,1.3-8.1,3.2-11.8,5.8-2.9,2.1-5.3,4.9-7.1,8.5-2,4.1-3.1,7.7-3.3,10.9,0,.6.4,1.1,1,1.1h.2c.9-.1,2.1-.3,3.7-.5,1.1-.1,2.3-.2,3.8-.2,21.5-.1,45.4-.3,71.6-.5h69.5c16.7,0,33.8.4,50.9.5" vector-effect="non-scaling-stroke"/>
    <path class="cls-2" d="M425.6,125.4c2.4,5,4.6,9.9,6.7,14.7.5,1.2.9,2.3,1,3.3.2,1.5,0,2.6-.4,3.5" vector-effect="non-scaling-stroke"/>
    <path class="cls-12" d="M428.6,204.3h36.3c.5.1.8-.3.8-.7v-29.3c0-.6-.5-1.1-1.1-1.1h-36.6" vector-effect="non-scaling-stroke"/>
    <path class="cls-17" d="M428,173.1l-220.2-.7c-.6,0-.9.3-.9.9v31.8c0,.6.5,1.1,1,1.1h.2c4.3-.6,8.4-1.1,12.3-1.4,2.7-.2,6.8-.4,12.2-.5,23.3-.4,73.2-.6,149.9-.7,20,0,35.3.2,46.1.8" vector-effect="non-scaling-stroke"/>
    <path class="cls-20" d="M428,173.1c.3,3.1.5,6.2.5,9.3v9.2c.1,4.2.1,8.4,0,12.7" vector-effect="non-scaling-stroke"/>
    <path class="cls-17" d="M562.1,416.5c2-3.1,3.6-6.1,4.7-8.9,2.4-5.6,3.9-10.8,4.8-15.9.3-1.5.5-7,.7-16.4.6-26.8.6-54,0-81.7,0-3.7-.7-7.5-1.8-11.5-4.6-16.5-13-31.4-27-41-8.6-6-17.7-10.6-27.2-13.9-4.7-1.6-8.8-2.7-12.3-3.1-4.2-.5-8.4-.8-12.7-.9,0,0-.3.1-.3.3l-.5,21.4c0,.6.4,1.1,1,1.1,25.2.9,42.9,12.4,53.1,34.4,2.1,4.5,3.3,9.7,3.7,14.6.5,5.7.8,11.7.8,18.1v9.3c0,20.5-.2,38.3-.9,53.4-.4,7.5-1.9,14.7-4.7,21.5-1,2.5-2.3,4.8-3.9,7-1.5,1.9-2.9,4.2-4.3,6.8-.6,1-1.5,2.3-2.7,3.9-2.9,3.5-5.1,6.7-8,8.6-4.3,3-8.7,5.3-13.1,7-1.9.7-5.2,1.4-9.9,2-3.7.5-7,.7-10,.8-.2,0-.3.2-.3.3l-.5,21.3c0,.5.3.8.8.8h13c6.6,0,9.3-.5,13.9-1.5,2.7-.6,5.9-1.9,9.5-3.9,4.5-2.5,8.2-4.9,11.2-7.3,2.1-1.7,5.6-4.8,10.6-9.4,2-1.9,4.6-5.2,7.8-10,.3-.5,1.8-2.9,4.5-7.1" vector-effect="non-scaling-stroke"/>
    <path class="cls-6" d="M424.3,228c-12.6.2-25.3.6-37.9,1.2-5.9.3-11,.4-15.4.3-1.8,0-7-.1-15.4-.4-9.8-.3-22.7-.2-38.5.2-6.5.1-13.2.2-20,0-16-.3-34.7,0-52.8-.7-5.2-.2-14.8.6-28.8,2.3" vector-effect="non-scaling-stroke"/>
    <path class="cls-11" d="M215.5,231c-2.3-1.3-4.7-2-7-2s-1.2.5-1.2,1.2l-.4,10.7" vector-effect="non-scaling-stroke"/>
    <path class="cls-12" d="M206.8,240.9v5.9" vector-effect="non-scaling-stroke"/>
    <path class="cls-17" d="M206.7,246.8c-.6,18.9-.1,33.3.4,56" vector-effect="non-scaling-stroke"/>
    <path class="cls-12" d="M207.2,302.8v9.4" vector-effect="non-scaling-stroke"/>
    <path class="cls-5" d="M207.1,312.2c0,1.6-.1,3.2-.3,4.9-.2,2-.4,3.6-.4,4.9v15.7c.1,5.1.2,10.4.1,15.7v16.7" vector-effect="non-scaling-stroke"/>
    <path class="cls-11" d="M206.7,370.1v31.8" vector-effect="non-scaling-stroke"/>
    <path class="cls-5" d="M206.8,401.9c0,3.9-.1,7.9-.3,12.1-.7,15.4-.4,30.8-.4,47.5s.1,9.1.4,14c0,1.2.3,5.9.7,14,.1,2.3.3,4.6.5,6.8" vector-effect="non-scaling-stroke"/>
    <path class="cls-6" d="M207.7,496.3c5.4,8.9,10.1,15.3,14.2,19.3,5.3,5.2,11.6,8.5,18.9,9.8,2.9.6,7.5.8,14,.8,28.1-.2,70.4-.3,126.9-.3s15.2-.3,22.8-.9" vector-effect="non-scaling-stroke"/>
    <path class="cls-14" d="M404.5,525c8.6.6,17.2.9,25.8.9s12.9-1.4,17.7-4c5.6-3,9.8-7.3,12.5-12.7s3-6.3,4.5-10.2c.9-2.4,1.5-4.8,1.8-7.2s.4-4.9.4-7.5c0-4.5,0-12,.3-22.6,0-6.1,1.3-13.4,1-19.8-.2-4.6-.4-11.3-.7-20.1,0-2.6-.3-6.5-.7-11.8-.3-4-.4-7.9-.4-11.9,0-25.6,0-55.2,0-88.8,0-8.6-.4-20.5-.3-30.8,0-9.1,0-15.7,0-20-.2-14.1.2-22.2-.8-29-.2-1.1-1.1-1.9-2.2-1.9l-39.2.5" vector-effect="non-scaling-stroke"/>
    <path class="cls-8" d="M404.5,525c2.2-1.1,3.9-2.1,5.1-3.1,2.9-2.3,7.1-6,12.5-11.2,3.7-3.5,6-7.3,6.8-11.5.6-3.4.9-6.3.8-8.8-.3-10.2-.5-20.9-.7-32.3,0-5-.3-11.6-.6-20-.6-13.5-.6-26.8-.2-39.9.4-10.8.6-17.7.6-20.7,0-14.6.4-30,.9-46.1v-6.7c0-.4-.2-4.4-.6-11.8-.2-4.1-.3-8-.2-11.8.4-24,.2-47.9-.4-71.9,0-.4-.2-.6-.5-.6l-3.6-.5" vector-effect="non-scaling-stroke"/>
    <path class="cls-4" d="M207.7,496.3c3.9,1,6.9,1.5,9.2,1.5,6.6.2,7.9-6.2,7.9-11.8-.2-15.2,0-29.2.6-42.2.1-3.1,0-12.6-.5-28.4,0-1.6.5-5.4,1.7-11.2.8-4.2,1.4-7.9,1.6-11.2.1-2.1.2-4.8.3-8.1,0-3.1.2-5.8.6-8,1.3-8.1,2.7-17.8,4.2-29,1.2-9.1,1.3-17.7.1-25.7-.6-4.3-2.3-8.5-5-12.7-.2-.3-.3-.6-.3-.9v-9.4" vector-effect="non-scaling-stroke"/>
    <path class="cls-1" d="M227.9,299c-.1-.4-.2-.7,0-.9" vector-effect="non-scaling-stroke"/>
    <path class="cls-9" d="M227.8,298.1c-.1-14.2-.1-28.4,0-42.5,0-2.6-.3-6.2-1-10.7" vector-effect="non-scaling-stroke"/>
    <path class="cls-1" d="M226.9,245l-1.3-6" vector-effect="non-scaling-stroke"/>
    <path class="cls-3" d="M225.6,239c-.8-3-2.6-4.7-5.4-5.1-.3,0-.6-.2-.9-.3l-3.9-2.6" vector-effect="non-scaling-stroke"/>
    <path class="cls-20" d="M227.8,298.1c-3.4,3.3-7.8,5.2-13.1,5.7-2.8.3-5.3,0-7.5-1" vector-effect="non-scaling-stroke"/>
    <path class="cls-16" d="M227.9,299c0,3.4,0,6.7-.3,10.1,0,1.7-.6,2.7-1.5,3.1-5.5,2.2-11.3,3.4-17.6,3.5-.7,0-1.2-.5-1.3-1.2l-.2-2.2" vector-effect="non-scaling-stroke"/>
    <path class="cls-7" d="M225.6,239c-4.2.5-8.7.2-13.6-.8-2.2-.4-3.9.5-5.3,2.7" vector-effect="non-scaling-stroke"/>
    <path class="cls-20" d="M226.9,245l-20.1,1.8" vector-effect="non-scaling-stroke"/>
    <path class="cls-15" d="M206.8,401.9c6.5,1.3,12.9-.1,19.1-4.3.3-.2.4-.4.5-.8.4-1.9.8-3.3.9-5.3,0-2,.2-5,.5-9.2,0-1.2-.1-2.5-.6-4-.4-1.2-1.1-2.2-2.3-3-5.8-4-11.9-5.7-18.3-5.2" vector-effect="non-scaling-stroke"/>
    <path class="cls-12" d="M495.4,271.4c-1.2-.2-2.1-.3-2.7-.2-.8.1-1.3.6-1.3,1.5v134.7c0,.3.2.5.5.5h0c2.4-.1,5.3-.3,8.5-.7,3.1-.3,5.7-1.2,7.9-2.5,9.7-5.9,15.4-16.1,15.6-27.4.4-23.7.3-46.8-.2-69.2-.2-6.3-.5-10.4-1.1-12.5-3.5-12.2-15.2-22.2-27.2-24.2" vector-effect="non-scaling-stroke"/>
    <path class="cls-17" d="M427.3,551.1h-19.3" vector-effect="non-scaling-stroke"/>
    <path class="cls-5" d="M408,551.2h-11" vector-effect="non-scaling-stroke"/>
    <path class="cls-17" d="M397,551.1c-35.6,0-71.2.2-106.8.2h-36.1c-9.6,0-14.8,0-15.4,0-5.2-.4-10.2-1.5-15.1-3.2-1.6-.6-3.9-2-5.4-3.3-3.5-3-6.7-6.1-11-8-.3,0-.6,0-.8.3v.3c.5,5.5.7,11.4.6,17.8,0,3.7.2,6.6.8,8.6,1.3,4.5,3.5,9,6.4,13.4,1.4,2.2,3.1,4,5,5.3,4.6,3.2,9.5,5.2,14.6,6.1,2.1.4,7.4.5,15.8.5,31.7,0,63.3,0,95,0s24.2-.3,36.3-.5" vector-effect="non-scaling-stroke"/>
    <path class="cls-12" d="M380.7,588.4l45.3.2" vector-effect="non-scaling-stroke"/>
    <path class="cls-10" d="M426,588.6c6.7.3,13.2-.3,19.7-1.7,3-.7,5.8-2.1,8.6-4.2,7.5-5.9,11.3-13.3,11.3-22.2s.3-14.6.8-20.3v-3.3c0-.4-.2-.5-.6-.4-1.3.3-2.1.6-2.6,1-5,4.4-10.2,8-15.4,10.8-3.6,1.9-8,2.9-11.9,3h-8.5" vector-effect="non-scaling-stroke"/>
    <path class="cls-13" d="M426,588.6l.8-5.3" vector-effect="non-scaling-stroke"/>
    <path class="cls-2" d="M426.8,583.3c.5-1.7.7-3.2.8-4.3.4-9.2.3-18.5-.3-27.9" vector-effect="non-scaling-stroke"/>
    <path class="cls-18" d="M397,551.1h11" vector-effect="non-scaling-stroke"/>
    <path class="cls-20" d="M426.8,583.3l-46.1,5.1" vector-effect="non-scaling-stroke"/>
    <path class="cls-9" d="M389.3,268.5c.4-6-2.1-13.4-8.7-15-1.4-.3-3-.8-4.8-1.4" vector-effect="non-scaling-stroke"/>
    <path class="cls-8" d="M375.8,252.1c-3.3-1-6.4-.5-9.2,1.4-5.4,3.7-7.7,8.3-6.7,13.9.8,4.6,3.3,8.2,7.6,10.7,4.7,2.8,10.1,3,16.2.5,4.7-1.9,6.6-5.3,5.6-10.1" vector-effect="non-scaling-stroke"/>
    <path class="cls-19" d="M375.8,252.1c-4.9.2-8.8,2.4-11.7,6.5-1.6,2.2-2.4,4.5-2.4,6.7s.9,5.1,2.8,7.2c2.2,2.5,4.6,4.4,7.1,5.6,1.5.8,3.3,1,5.3.6,6.1-1,11.1-3.5,12.3-10.3" vector-effect="non-scaling-stroke"/>
    <path class="cls-9" d="M266.4,277.9c.6,4.5,5.7,8.6,9.3,10.7,3.2,1.9,8-.9,10.6-3.2,4.6-4,5.4-9.2,1.8-14.5-2.8-4.1-6.3-5.9-10.5-5.3-2,.3-3.7.9-5,1.9-3.4,2.5-6.8,6.1-6.2,10.4" vector-effect="non-scaling-stroke"/>
    <path class="cls-9" d="M390.1,312.1c-.2,3.9,1.1,7.2,3.8,10.2,4.4,4.8,10.6,5.9,16.4,3,3.8-2,6.4-5.2,7.6-9.7" vector-effect="non-scaling-stroke"/>
    <path class="cls-8" d="M417.9,315.5c2.2-5.1,1.1-9.5-3.3-13.2-4-3.3-8.2-4.7-12.6-4.3-5.9.6-9.9,4-12,10-1,2.8-.9,4.2.1,4" vector-effect="non-scaling-stroke"/>
    <path class="cls-19" d="M417.9,315.5c0-4.4-1.3-7.9-4-10.4-6.4-6.1-13.1-6.1-20,0-1.8,1.6-3.1,4-3.8,7" vector-effect="non-scaling-stroke"/>
    <path class="cls-9" d="M299.6,338.3c-.5-6.9-7.1-12-14.8-11.5h0c-7.7.5-13.6,6.5-13.1,13.4h0c.5,6.9,7.1,12,14.8,11.5h0c7.7-.5,13.6-6.5,13.1-13.4" vector-effect="non-scaling-stroke"/>
    <path class="cls-9" d="M343,368.7c-.2,1.2,0,2.3.2,3.3,2.5,7.5,10.7,12.8,18.3,9.2,4.1-1.9,6.4-4.8,7-8.8.6-3.9-.8-7.4-4.2-10.4-6.3-5.6-15.6-2.9-20.2,3.6-.6.9-1,1.9-1.2,3.1" vector-effect="non-scaling-stroke"/>
    <path class="cls-8" d="M384.7,421.9c-2.4,2.4-3.3,5.3-2.7,8.7.9,5.3,4.2,9.8,9.5,11.3,2.6.7,5,.4,7.3-.9" vector-effect="non-scaling-stroke"/>
    <path class="cls-9" d="M398.7,441c5.8-1.5,9.5-4.5,11.2-8.8,1.8-4.8.4-10.4-3.8-13.5-3.2-2.4-7-3.3-11.3-2.7-1.4.2-3.1,1-5,2.4-1.5,1.1-3.2,2.3-5.1,3.6" vector-effect="non-scaling-stroke"/>
    <path class="cls-19" d="M398.7,441c-12.4-.7-17.1-7-14-19.1" vector-effect="non-scaling-stroke"/>
    <path class="cls-9" d="M266.9,442.4c-.6,4.5.5,8.2,3.4,10.9,4.5,4.3,9.8,5.3,15.7,3" vector-effect="non-scaling-stroke"/>
    <path class="cls-8" d="M285.9,456.2l8.4-5.4c.3-.2.5-.4.5-.8,1.1-5.5,2-13-2.9-16.9-3.7-3-8.9-2.5-14.7-2.3-1.7,0-3.3.7-4.5,1.8-1.9,1.7-3.2,2.9-3.7,3.5-1.5,1.8-2.2,3.9-2.1,6.2" vector-effect="non-scaling-stroke"/>
    <path class="cls-19" d="M285.9,456.2c4.2-2.1,6.5-5.4,6.8-9.8.3-4.1-1.2-7.8-4.6-11.1-4-3.9-12.1-1.9-16.5.5-2.8,1.5-4.3,3.7-4.8,6.5" vector-effect="non-scaling-stroke"/>
  </g>
  <path class="cls-24" d="M700,0v700H0V0h700ZM243.5,614.9c4,.6,8,.8,12.1.8s1.4.2,2.2.6c.4.2.3.3,0,.4-2.2.4-4.5.5-7.1.4-7.6-.3-12.1-.4-13.3-.5-3.9-.2-8.9.8-15.3,3-1.6.5-2.9,1.1-3.9,1.7-3,1.9-7.3,4.1-7.3,8.1s1.2,6.5,3.7,8.9c2.1,2,6,2.8,8.7,2.7,9-.3,18.6-.4,28.7-.2,5.1,0,10.3,0,15.7,0,3.5,0,8.8,0,15.7.3,3.3,0,10,.2,19.9,0,41.1-.2,82.3-.3,123.4-.3,0,0,4.1,0,12.2,0,5.8,0,9.9,0,12.3-.4,5.3-.7,9.4-3.2,12.2-7.5,1.2-1.8,2.8-5.9.6-7.4-2.8-2.1-6-3.8-9.6-5.2-.3,0-.6-.3-.8-.6l-4.2-6.6c6.5-2.1,12.5-6,17.9-9.8,7-4.8,12.8-10.7,17.3-17.6,4.5-6.9,6.7-14.4,6.6-22.7-.4-33.4-.3-60.7,0-81.9,0-.4.2-.5.5-.5,7,.4,13.8.4,20.5,0,4.8-.2,9.4-1.2,13.6-2.8,5.5-2,11.1-4.5,16.7-7.5,4.7-2.5,9.7-6,14.9-10.5,9.4-8.2,17.5-17.5,24.3-28.1,6.3-9.9,10.7-20.6,13.2-32.1,2.3-10.8,2.5-22.4,2.6-33.9,0-16.3.2-33.1.2-50.3s0-17.6-.3-20c-.5-8.6-1.9-17-4.2-25.1-1.2-4.5-2.7-8.4-4.4-11.8-4.2-8.4-9.3-16.6-15.2-24.5-5-6.7-11.1-11.8-17.9-17.1-7.1-5.6-16.1-9.6-24.1-12.9-8.6-3.6-17.6-5.5-27.1-5.9-6.2-.2-10.5-.4-13-.5-.6,0-1-.5-1-1.1.5-13.9.4-27.8-.3-41.6-.2-3.5-1.8-6.1-5.1-7.8-1.8-1-4.1-1.5-6.9-1.7-5.5-.3-10.2,0-14.1.9-.4,0-.7-.1-.8-.5h0c-.3-6.1-1.6-11.8-4.2-17.2-3.7-7.9-8.4-14.5-14.1-19.9-6.1-5.7-12.5-9.4-19.3-11.3-10.8-3-21.8-2.5-32.8,1.4-3.2,1.1-5.8,2.8-8.2,5.2-.1.1-.4.1-.5,0h0c-1.8-3.1-3.6-5.5-5.4-7.2-4.8-4.6-10.5-8.7-17.1-12.1-10.4-5.4-21.2-6.5-32.8-4.7-13,2.1-23.8,7.7-32.2,16.9-1.2,1.3-3.1,3.5-5.7,6.6-.2.2-.4.2-.6,0-2.9-2.2-5.2-3.6-7.1-4.3-15.7-5.8-30.6-4.9-44.5,2.8-14.2,7.8-23.5,19.4-28,34.7-.9,3.2-1.3,6.4-1.2,9.6,0,.4-.3.7-.6.7h-18.9c-5.8.1-8.7,6-8.8,11.2,0,11.6-.2,23.9-.2,36.9s0,59.6-.2,164v11.2c.3,32.2.3,67.7.1,106.8,0,5.7,0,12.4.1,20,.2,12.1.3,26.2.2,42.3,0,11.1.3,20.5.9,28.2.2,3,1.1,6.3,2.5,10,3.6,9.3,9.4,18.5,17.8,24.1,3.9,2.6,6.9,4.5,8.8,5.6,6.3,3.7,13.5,5.9,21.4,6.7,3.5.3,6.9.6,10.4.8h.3Z"/>
  <path class="cls-28" d="M449.5,613.3c-3.7,1.2-7.6,1.9-11.5,1.9-27.5,0-55,0-82.5-.4-7,0-13.7,0-20,0-30.7,0-61.4,0-92,.2-3.5-.2-7-.5-10.4-.8-7.9-.7-15.1-3-21.4-6.7-2-1.2-4.9-3-8.8-5.6-8.3-5.5-14.2-14.8-17.8-24.1-1.4-3.7-2.2-7-2.5-10-.6-7.7-.9-17.1-.9-28.2,0-16.1,0-30.2-.2-42.3-.1-7.6-.2-14.3-.1-20,.2-39,.2-74.6-.1-106.8v-11.2c.2-104.4.2-159,.2-164,0-13.1,0-25.4.2-36.9,0-5.2,3-11.1,8.8-11.2h18.9c.4,0,.7-.3.7-.7h0c-.1-3.2.3-6.4,1.2-9.6,4.4-15.4,13.8-26.9,28-34.7,14-7.6,28.8-8.6,44.5-2.8,1.9.7,4.2,2.1,7.1,4.3.2.2.4.1.6,0,2.6-3.1,4.5-5.2,5.7-6.6,8.5-9.1,19.2-14.8,32.2-16.9,11.6-1.9,22.4-.7,32.8,4.7,6.6,3.4,12.3,7.5,17.1,12.1,1.8,1.7,3.6,4.1,5.4,7.2,0,.2.3.2.5.1h0c2.4-2.4,5-4,8.2-5.2,11-3.9,21.9-4.4,32.8-1.4,6.8,1.9,13.2,5.7,19.3,11.3,5.8,5.4,10.5,12,14.1,19.9,2.5,5.4,3.9,11.1,4.2,17.1,0,.4.3.7.7.6h0c3.9-.9,8.6-1.2,14.1-.9,2.8.1,5.1.7,6.9,1.7,3.2,1.7,4.9,4.3,5.1,7.8.7,13.9.8,27.7.3,41.6,0,.6.4,1.1,1,1.1,2.5,0,6.8.3,13,.5,9.5.4,18.5,2.3,27.1,5.9,7.9,3.3,16.9,7.3,24.1,12.9,6.8,5.3,12.8,10.5,17.9,17.1,6,7.9,11.1,16.1,15.2,24.5,1.7,3.4,3.2,7.4,4.4,11.8,2.3,8.1,3.7,16.5,4.2,25.1,0,2.4.2,9.1.3,20,0,17.2,0,34-.2,50.3,0,11.5-.3,23.1-2.6,33.9-2.5,11.5-6.8,22.2-13.2,32.1-6.7,10.6-14.8,20-24.3,28.1-5.2,4.5-10.2,8-14.9,10.5-5.6,3-11.2,5.5-16.7,7.5-4.3,1.6-8.8,2.5-13.6,2.8-6.7.3-13.6.3-20.5,0-.4,0-.5,0-.5.5-.5,21.2-.5,48.5,0,81.9,0,8.3-2.1,15.8-6.6,22.7-4.6,6.9-10.3,12.8-17.3,17.6-5.4,3.7-11.4,7.7-17.9,9.8h-.3ZM432.9,146.8h8.1c.3,0,.6-.2.6-.6h0c-.8-3.4-2.1-6.5-4-9.5-3.1-4.8-7.1-8.5-11.9-11.4-7.8-5.6-16.1-6.9-24.8-3.8-4,1.4-8,4.2-11.9,8.3-1.9,2-3,2-5.9,2.1-3.6.1-7.4,0-11.6-.2-.7,0-1.3-.5-1.4-1.2-2-8-4.9-14.5-11.7-19.6-9.7-7.3-20.5-9-32.5-5-3.5,1.2-7.2,2.9-10.9,5.1-4,2.4-6.8,5.9-8.4,10.4-1.8,5-3,8.4-3.6,10.1-.1.3-.3.5-.7.5-2,0-3.6-.8-5.6-.5-2.8.3-5.8.4-9.1.3-.7,0-1.4-.4-1.9-.9-1.2-1.4-2.6-3-4.3-4.8-2.6-2.7-5.3-4.2-8.7-5.1-6.1-1.7-12.2-1.6-18.3.3-4.1,1.3-8.1,3.2-11.8,5.8-2.9,2.1-5.3,4.9-7.1,8.5-2,4.1-3.1,7.7-3.3,10.9,0,.6.4,1.1,1,1.1h.2c.9-.1,2.1-.3,3.7-.5,1.1-.1,2.3-.2,3.8-.2,21.5-.1,45.4-.3,71.6-.5h69.5c16.7,0,33.8.4,50.9.5h0ZM428.6,204.3h36.3c.5.1.8-.3.8-.7v-29.3c0-.6-.5-1.1-1.1-1.1h-36.6l-220.2-.7c-.6,0-.9.3-.9.9v31.8c0,.6.5,1.1,1,1.1h.2c4.3-.6,8.4-1.1,12.3-1.4,2.7-.2,6.8-.4,12.2-.5,23.3-.4,73.2-.6,149.9-.7,20,0,35.3.2,46.1.8v-.2ZM562.1,416.5c2-3.1,3.6-6.1,4.7-8.9,2.4-5.6,3.9-10.8,4.8-15.9.3-1.5.5-7,.7-16.4.6-26.8.6-54,0-81.7,0-3.7-.7-7.5-1.8-11.5-4.6-16.5-13-31.4-27-41-8.6-6-17.7-10.6-27.2-13.9-4.7-1.6-8.8-2.7-12.3-3.1-4.2-.5-8.4-.8-12.7-.9,0,0-.3.1-.3.3l-.5,21.4c0,.6.4,1.1,1,1.1,25.2.9,42.9,12.4,53.1,34.4,2.1,4.5,3.3,9.7,3.7,14.6.5,5.7.8,11.7.8,18.1v9.3c0,20.5-.2,38.3-.9,53.4-.4,7.5-1.9,14.7-4.7,21.5-1,2.5-2.3,4.8-3.9,7-1.5,1.9-2.9,4.2-4.3,6.8-.6,1-1.5,2.3-2.7,3.9-2.9,3.5-5.1,6.7-8,8.6-4.3,3-8.7,5.3-13.1,7-1.9.7-5.2,1.4-9.9,2-3.7.5-7,.7-10,.8-.2,0-.3.2-.3.3l-.5,21.3c0,.5.3.8.8.8h13c6.6,0,9.3-.5,13.9-1.5,2.7-.6,5.9-1.9,9.5-3.9,4.5-2.5,8.2-4.9,11.2-7.3,2.1-1.7,5.6-4.8,10.6-9.4,2-1.9,4.6-5.2,7.8-10,.3-.5,1.8-2.9,4.5-7.1h0ZM424.3,228c-12.6.2-25.3.6-37.9,1.2-5.9.3-11,.4-15.4.3-1.8,0-7-.1-15.4-.4-9.8-.3-22.7-.2-38.5.2-6.5.1-13.2.2-20,0-16-.3-34.7,0-52.8-.7-5.2-.2-14.8.6-28.8,2.3-2.3-1.3-4.7-2-7-2s-1.2.5-1.2,1.2l-.4,10.7v5.9c-.6,18.9-.2,33.3.4,56v9.4c0,1.6-.2,3.2-.4,4.9-.2,2-.4,3.6-.4,4.9v15.7c.1,5.1.2,10.4.1,15.7v48.5c.1,3.9,0,7.9-.2,12.1-.7,15.4-.4,30.8-.4,47.5s.1,9.1.4,14c0,1.2.3,5.9.7,14,.1,2.3.3,4.6.5,6.8,5.4,8.9,10.1,15.3,14.2,19.3,5.3,5.2,11.6,8.5,18.9,9.8,2.9.6,7.5.8,14,.8,28.1-.2,70.4-.3,126.9-.3s15.2-.3,22.8-.9c8.6.6,17.2.9,25.8.9s12.9-1.4,17.7-4c5.6-3,9.8-7.3,12.5-12.7s3-6.3,4.5-10.2c.9-2.4,1.5-4.8,1.8-7.2s.4-4.9.4-7.5c0-4.5,0-12,.3-22.6,0-6.1,1.3-13.4,1-19.8-.2-4.6-.4-11.3-.7-20.1,0-2.6-.3-6.5-.7-11.8-.3-4-.4-7.9-.4-11.9,0-25.6,0-55.2,0-88.8,0-8.6-.4-20.5-.3-30.8,0-9.1,0-15.7,0-20-.2-14.1.2-22.2-.8-29-.2-1.1-1.1-1.9-2.2-1.9l-39.2.5h.3ZM495.4,271.4c-1.2-.2-2.1-.3-2.7-.2-.8.1-1.3.6-1.3,1.5v134.7c0,.3.2.5.5.5h0c2.4-.1,5.3-.3,8.5-.7,3.1-.3,5.7-1.2,7.9-2.5,9.7-5.9,15.4-16.1,15.6-27.4.4-23.7.3-46.8-.2-69.2-.2-6.3-.5-10.4-1.1-12.5-3.5-12.2-15.2-22.2-27.2-24.2h0ZM427.3,551.1h-30.3c-35.6,0-71.2.2-106.8.2h-36.1c-9.6,0-14.8,0-15.4,0-5.2-.4-10.2-1.5-15.1-3.2-1.6-.6-3.9-2-5.4-3.3-3.5-3-6.7-6.1-11-8-.3,0-.6,0-.8.3v.3c.5,5.5.7,11.4.6,17.8,0,3.7.2,6.6.8,8.6,1.3,4.5,3.5,9,6.4,13.4,1.4,2.2,3.1,4,5,5.3,4.6,3.2,9.5,5.2,14.6,6.1,2.1.4,7.4.5,15.8.5,31.7,0,63.3,0,95,0s24.2-.3,36.3-.5l45.3.2c6.7.3,13.2-.3,19.7-1.7,3-.7,5.8-2.1,8.6-4.2,7.5-5.9,11.3-13.3,11.3-22.2s.3-14.6.8-20.3v-3.3c0-.4-.2-.5-.6-.4-1.3.3-2.1.6-2.6,1-5,4.4-10.2,8-15.4,10.8-3.6,1.9-8,2.9-11.9,3h-8.5l-.3-.3Z"/>
  <path class="cls-25" d="M425.6,125.4c2.4,5,4.6,9.9,6.7,14.7.5,1.2.9,2.3,1,3.3.2,1.5,0,2.6-.4,3.5-17.1,0-34.2-.5-50.9-.5h-69.5c-26.2.2-50.1.4-71.6.5-1.5,0-2.8,0-3.8.2-1.6.2-2.9.4-3.7.5-.6,0-1.1-.3-1.2-.9v-.2c.2-3.2,1.3-6.8,3.3-10.9,1.8-3.6,4.2-6.4,7.1-8.5,3.7-2.6,7.7-4.6,11.8-5.8,6.1-1.9,12.2-2,18.3-.3,3.4,1,6.1,2.4,8.7,5.1,1.7,1.8,3.1,3.4,4.3,4.8.5.6,1.2.9,1.9.9,3.3.1,6.3,0,9.1-.3,2.1-.2,3.6.5,5.6.5s.6-.2.7-.5c.6-1.7,1.8-5.1,3.6-10.1,1.6-4.6,4.4-8.1,8.4-10.4,3.7-2.2,7.3-3.9,10.9-5.1,11.9-4,22.7-2.3,32.5,5,6.7,5.1,9.6,11.6,11.7,19.6.2.7.7,1.1,1.4,1.2,4.2.3,8,.4,11.6.2,2.8-.1,3.9-.1,5.9-2.1,3.9-4.1,7.9-6.8,11.9-8.3,8.7-3.1,17-1.8,24.8,3.8h0Z"/>
  <path class="cls-27" d="M432.9,146.8c.4-.8.6-2,.4-3.5,0-.9-.4-2-1-3.3-2.1-4.8-4.3-9.7-6.7-14.7,4.8,2.8,8.8,6.6,11.9,11.4,1.9,2.9,3.3,6.1,4,9.4,0,.3-.1.7-.5.7h-8.2.1Z"/>
  <path class="cls-25" d="M428,173.1c.3,3.1.5,6.2.5,9.3v9.2c.1,4.2.1,8.4,0,12.7-10.8-.5-26.1-.8-46.1-.8-76.6,0-126.6.2-149.9.7-5.4,0-9.5.3-12.2.5-4,.3-8.1.8-12.3,1.4-.6,0-1.1-.3-1.2-.9v-32c0-.6.3-.9.9-.9l220.2.7h.1Z"/>
  <path class="cls-24" d="M428.6,204.3c.2-4.3.2-8.5,0-12.7v-9.2c0-3.1-.2-6.1-.5-9.3h36.6c.6,0,1.1.5,1.1,1.1v29.3c0,.5-.4.9-.8.9h-36.4Z"/>
  <path class="cls-25" d="M557.6,423.6c-3.2,4.8-5.7,8.1-7.8,10-5,4.6-8.5,7.7-10.6,9.4-3,2.3-6.7,4.8-11.2,7.3-3.6,2-6.8,3.3-9.5,3.9-4.6,1-9.3,1.5-13.9,1.5h-13c-.5,0-.8-.4-.8-.8h0l.5-21.3c0-.2.2-.3.3-.3,3,0,6.3-.3,10-.8,4.7-.6,8-1.2,9.9-2,4.4-1.7,8.8-4,13.1-7,2.9-2,5.1-5.1,8-8.6,1.3-1.6,2.2-2.8,2.7-3.9,1.4-2.6,2.9-4.9,4.3-6.8,1.6-2.1,2.9-4.5,3.9-7,2.8-6.9,4.3-14,4.7-21.5.7-15.1,1.1-32.9.9-53.4v-9.3c0-6.4-.3-12.4-.8-18.1-.5-4.9-1.6-10.1-3.7-14.6-10.2-22-27.9-33.5-53.1-34.4-.6,0-1-.5-1-1.1l.5-21.4c0-.1,0-.3.3-.3,4.3,0,8.5.4,12.7.9,3.5.4,7.6,1.5,12.3,3.1,9.6,3.3,18.7,8,27.2,13.9,13.9,9.7,22.3,24.5,27,41,1.1,4,1.7,7.8,1.8,11.5.6,27.7.5,55,0,81.7-.2,9.4-.5,14.9-.7,16.4-.8,5-2.4,10.3-4.8,15.9-1.2,2.8-2.8,5.8-4.7,8.9-2.7,4.2-4.2,6.6-4.5,7.1h0Z"/>
  <path class="cls-21" d="M404.5,525c2.2-1.1,3.9-2.1,5.1-3.1,2.9-2.3,7.1-6,12.5-11.2,3.7-3.5,6-7.3,6.8-11.5.6-3.4.9-6.3.8-8.8-.3-10.2-.5-20.9-.7-32.3,0-5-.3-11.6-.6-20-.6-13.5-.6-26.8-.2-39.9.4-10.8.6-17.7.6-20.7,0-14.6.4-30,.9-46.1v-6.7c0-.4-.2-4.4-.6-11.8-.2-4.1-.3-8-.2-11.8.4-24,.2-47.9-.4-71.9,0-.4-.2-.6-.5-.6l-3.6-.5,39.2-.5c1.1,0,2.1.8,2.2,1.9,1,6.8.6,14.9.8,29v20c0,10.3.3,22.2.3,30.8,0,33.6.2,63.2,0,88.8,0,4,0,7.9.4,11.9.4,5.3.6,9.3.7,11.8.2,8.9.5,15.6.7,20.1.3,6.4-.9,13.7-1,19.8-.2,10.5-.3,18.1-.3,22.6s0,5.1-.4,7.5c-.3,2.4-.9,4.8-1.8,7.2-1.5,3.8-3,7.2-4.5,10.2-2.8,5.4-7,9.7-12.5,12.7-4.9,2.7-10.8,4-17.7,4s-17.2-.3-25.8-.9h-.3Z"/>
  <path class="cls-26" d="M424.3,228l3.6.5c.3,0,.5.2.5.6.7,24,.8,47.9.4,71.9,0,3.8,0,7.7.2,11.8.4,7.4.6,11.4.6,11.8.1,2.2.1,4.5,0,6.7-.5,16.1-.8,31.5-.9,46.1,0,3-.2,9.9-.6,20.7-.5,13.1-.4,26.4.2,39.9.4,8.4.6,15,.6,20,.2,11.4.4,22.1.7,32.3,0,2.5-.2,5.5-.8,8.8-.8,4.2-3.1,8-6.8,11.5-5.5,5.1-9.7,8.8-12.5,11.2-1.2,1-3,2-5.1,3.1-7.6.6-15.2.9-22.8.9-56.6,0-98.9,0-126.9.3-6.5,0-11.2-.2-14-.8-7.3-1.4-13.6-4.7-18.9-9.8-4.1-4-8.9-10.5-14.2-19.3,3.9,1,6.9,1.5,9.2,1.5,6.6.2,7.9-6.2,7.9-11.8-.2-15.2,0-29.2.6-42.2.1-3.1,0-12.6-.5-28.4,0-1.6.5-5.4,1.7-11.2.8-4.2,1.4-7.9,1.6-11.2.1-2.1.2-4.8.3-8.1,0-3.1.2-5.8.6-8,1.3-8.1,2.7-17.8,4.2-29,1.2-9.1,1.3-17.7.1-25.7-.6-4.3-2.3-8.5-5-12.7-.2-.3-.3-.6-.3-.9v-9.4c-.2-.4-.2-.7-.1-.9-.1-14.2-.1-28.4,0-42.5,0-2.6-.3-6.2-1-10.7l-1.3-6c-.8-3-2.6-4.7-5.4-5.1-.3,0-.6-.2-.9-.3l-3.9-2.6c13.9-1.7,23.5-2.5,28.8-2.3,18.1.7,36.8.3,52.8.7,6.8.1,13.5.1,20,0,15.8-.4,28.7-.4,38.5-.2,8.4.2,13.6.3,15.4.4,4.4,0,9.5,0,15.4-.3,12.6-.6,25.3-1,37.9-1.2h0ZM389.3,268.5c.4-6-2.1-13.4-8.7-15-1.4-.3-3-.8-4.8-1.4-3.3-1-6.4-.5-9.2,1.4-5.4,3.7-7.7,8.3-6.7,13.9.8,4.6,3.3,8.2,7.6,10.7,4.7,2.8,10.1,3,16.2.5,4.7-1.9,6.6-5.3,5.6-10.1ZM266.4,277.9c.6,4.5,5.7,8.6,9.3,10.7,3.2,1.9,8-.9,10.6-3.2,4.6-4,5.4-9.2,1.8-14.5-2.8-4.1-6.3-5.9-10.5-5.3-2,.3-3.7.9-5,1.9-3.4,2.5-6.8,6.1-6.2,10.4h0ZM390.1,312.1c-.2,3.9,1.1,7.2,3.8,10.2,4.4,4.8,10.6,5.9,16.4,3,3.8-2,6.4-5.2,7.6-9.7,2.2-5.1,1.1-9.5-3.3-13.2-4-3.3-8.2-4.7-12.6-4.3-5.9.6-9.9,4-12,10-1,2.8-.9,4.2.1,4ZM299.6,338.3c-.5-6.9-7.1-12-14.8-11.5h0c-7.7.5-13.6,6.5-13.1,13.4h0c.5,6.9,7.1,12,14.8,11.5h0c7.7-.5,13.6-6.5,13.1-13.4ZM343,368.7c-.2,1.2,0,2.3.2,3.3,2.5,7.5,10.7,12.8,18.3,9.2,4.1-1.9,6.4-4.8,7-8.8.6-3.9-.8-7.4-4.2-10.4-6.3-5.6-15.6-2.9-20.2,3.6-.6.9-1,1.9-1.2,3.1h.1ZM384.7,421.9c-2.4,2.4-3.3,5.3-2.7,8.7.9,5.3,4.2,9.8,9.5,11.3,2.6.7,5,.4,7.3-.9,5.8-1.5,9.5-4.5,11.2-8.8,1.8-4.8.4-10.4-3.8-13.5-3.2-2.4-7-3.3-11.3-2.7-1.4.2-3.1,1-5,2.4-1.5,1.1-3.2,2.3-5.1,3.6h-.1ZM266.9,442.4c-.6,4.5.5,8.2,3.4,10.9,4.5,4.3,9.8,5.3,15.7,3l8.4-5.4c.3-.2.5-.4.5-.8,1.1-5.5,2-13-2.9-16.9-3.7-3-8.9-2.5-14.7-2.3-1.7,0-3.3.7-4.5,1.8-1.9,1.7-3.2,2.9-3.7,3.5-1.5,1.8-2.2,3.9-2.1,6.2h0Z"/>
  <path class="cls-23" d="M215.5,231l3.9,2.6c.3.2.6.3.9.3,2.8.4,4.6,2.1,5.4,5.1-4.2.5-8.7.2-13.6-.8-2.2-.4-3.9.5-5.3,2.7l.4-10.7c0-.7.6-1.2,1.2-1.2,2.3,0,4.7.6,7,2h.1Z"/>
  <path class="cls-24" d="M225.6,239l1.3,6-20.1,1.8v-5.9c1.4-2.2,3.2-3.1,5.3-2.7,4.9,1,9.4,1.3,13.6.8h0Z"/>
  <path class="cls-25" d="M226.9,245c.7,4.5,1,8.1,1,10.7-.2,14.1-.2,28.2,0,42.5-3.4,3.3-7.8,5.2-13.1,5.7-2.8.3-5.3,0-7.5-1-.5-22.7-1-37.1-.4-56l20.1-1.8h-.1Z"/>
  <path class="cls-21" d="M375.8,252.1c-4.9.2-8.8,2.4-11.7,6.5-1.6,2.2-2.4,4.5-2.4,6.7s.9,5.1,2.8,7.2c2.2,2.5,4.6,4.4,7.1,5.6,1.5.8,3.3,1,5.3.6,6.1-1,11.1-3.5,12.3-10.3.9,4.8-.9,8.1-5.6,10.1-6.1,2.5-11.5,2.3-16.2-.5-4.3-2.6-6.8-6.2-7.6-10.7-1-5.6,1.2-10.2,6.7-13.9,2.9-1.9,6-2.4,9.2-1.4h.1Z"/>
  <path class="cls-25" d="M375.8,252.1c1.8.6,3.4,1,4.8,1.4,6.7,1.6,9.1,9,8.7,15-1.2,6.7-6.2,9.3-12.3,10.3-2,.3-3.8.1-5.3-.6-2.5-1.2-4.9-3.1-7.1-5.6-1.9-2.1-2.8-4.5-2.8-7.2s.8-4.5,2.4-6.7c2.9-4.1,6.8-6.3,11.7-6.5h-.1Z"/>
  <path class="cls-25" d="M266.4,277.9c-.5-4.4,2.9-7.9,6.2-10.4,1.3-1,3-1.6,5-1.9,4.2-.6,7.7,1.2,10.5,5.3,3.6,5.3,2.9,10.5-1.8,14.5-2.7,2.3-7.4,5.1-10.6,3.2-3.6-2.1-8.8-6.2-9.3-10.7h0Z"/>
  <path class="cls-24" d="M495.4,271.4c12,2,23.7,12.1,27.2,24.2.6,2,.9,6.2,1.1,12.5.6,22.4.6,45.5.2,69.2-.2,11.3-5.9,21.5-15.6,27.4-2.2,1.4-4.9,2.2-7.9,2.5-3.2.3-6.1.6-8.5.7-.3,0-.5-.2-.5-.4h0v-134.7c0-.9.4-1.3,1.3-1.5.6,0,1.5,0,2.7.2h0Z"/>
  <path class="cls-21" d="M417.9,315.5c0-4.4-1.3-7.9-4-10.4-6.4-6.1-13.1-6.1-20,0-1.8,1.6-3.1,4-3.8,7-1.1.2-1.1-1.2-.1-4,2.1-6.1,6.1-9.4,12-10,4.4-.5,8.6,1,12.6,4.3,4.4,3.6,5.5,8,3.3,13.2h0Z"/>
  <path class="cls-24" d="M227.8,298.1c-.1.2,0,.5,0,.9,0,3.4,0,6.7-.3,10.1,0,1.7-.6,2.7-1.5,3.1-5.5,2.2-11.3,3.4-17.6,3.5-.7,0-1.2-.5-1.3-1.2l-.2-2.2v-9.4c2.2.9,4.8,1.3,7.6,1,5.3-.5,9.7-2.4,13.1-5.7h.2Z"/>
  <path class="cls-22" d="M207.7,496.3c-.2-2.2-.4-4.5-.5-6.8-.4-8.1-.6-12.8-.7-14-.2-4.9-.3-9.5-.4-14,0-16.8-.3-32.1.4-47.5.2-4.2.3-8.2.3-12.1,6.5,1.3,12.9-.1,19.1-4.3.3-.2.4-.4.5-.8.4-1.9.8-3.3.9-5.3,0-2,.2-5,.5-9.2,0-1.2-.1-2.5-.6-4-.4-1.2-1.1-2.2-2.3-3-5.8-4-11.9-5.7-18.3-5.2v-16.7c0-5.3,0-10.6-.1-15.7-.1-5.2-.1-10.5,0-15.7,0-1.2.1-2.8.4-4.9.2-1.6.3-3.2.3-4.9l.2,2.2c0,.7.6,1.2,1.3,1.2,6.2-.1,12.1-1.3,17.6-3.5.9-.4,1.4-1.4,1.5-3.1.2-3.3.3-6.7.3-10.1v9.4c0,.3.2.6.4.9,2.7,4.2,4.4,8.4,5,12.7,1.1,8,1.1,16.6-.1,25.7-1.5,11.2-2.9,20.9-4.2,29-.3,2.2-.5,4.9-.6,8,0,3.2-.1,5.9-.3,8.1-.2,3.3-.7,7-1.6,11.2-1.2,5.8-1.7,9.6-1.7,11.2.4,15.8.6,25.3.5,28.4-.6,13-.8,27.1-.6,42.2,0,5.5-1.3,12-7.9,11.8-2.3,0-5.3-.6-9.2-1.5v.3Z"/>
  <path class="cls-25" d="M417.9,315.5c-1.2,4.5-3.7,7.8-7.6,9.7-5.8,2.9-12,1.9-16.4-3-2.7-2.9-3.9-6.3-3.8-10.2.7-3,1.9-5.4,3.8-7,6.9-6.1,13.6-6.2,20,0,2.7,2.6,4,6,4,10.4h0Z"/>
  <ellipse class="cls-25" cx="285.6" cy="339.2" rx="14" ry="12.4" transform="translate(-22.4 20.2) rotate(-3.9)"/>
  <path class="cls-25" d="M368.6,372.5c-.6,3.9-2.9,6.9-7,8.8-7.6,3.6-15.8-1.7-18.3-9.2-.3-1-.4-2.1-.2-3.3.2-1.2.6-2.2,1.2-3.1,4.5-6.5,13.9-9.2,20.2-3.6,3.4,3,4.7,6.5,4.2,10.4h-.1Z"/>
  <path class="cls-23" d="M206.8,401.9v-31.8c6.3-.5,12.4,1.3,18.1,5.2,1.2.8,1.9,1.8,2.3,3,.4,1.4.6,2.8.6,4-.3,4.2-.4,7.2-.5,9.2,0,2.1-.5,3.4-.9,5.3,0,.3-.2.6-.5.8-6.2,4.2-12.6,5.6-19.1,4.3Z"/>
  <path class="cls-25" d="M398.7,441c-12.4-.7-17.1-7-14-19.1,1.9-1.3,3.6-2.5,5.1-3.6,1.9-1.4,3.6-2.2,5-2.4,4.4-.6,8.2.3,11.3,2.7,4.2,3.1,5.6,8.7,3.8,13.5-1.6,4.3-5.4,7.3-11.2,8.8h0Z"/>
  <path class="cls-21" d="M384.7,421.9c-3,12.1,1.7,18.4,14,19.1-2.3,1.3-4.7,1.6-7.3.9-5.2-1.4-8.6-6-9.5-11.3-.6-3.4.3-6.3,2.7-8.7h0Z"/>
  <path class="cls-21" d="M285.9,456.2c4.2-2.1,6.5-5.4,6.8-9.8.3-4.1-1.2-7.8-4.6-11.1-4-3.9-12.1-1.9-16.5.5-2.8,1.5-4.3,3.7-4.8,6.5-.1-2.3.6-4.4,2.1-6.2s1.8-1.8,3.7-3.5c1.3-1.1,2.8-1.7,4.5-1.8,5.9-.2,11-.7,14.7,2.3,4.8,3.9,3.9,11.4,2.9,16.9,0,.3-.2.6-.5.8l-8.4,5.4h0Z"/>
  <path class="cls-25" d="M285.9,456.2c-5.9,2.4-11.1,1.4-15.7-3-2.9-2.7-4-6.4-3.4-10.9.4-2.9,2-5,4.8-6.5,4.4-2.4,12.5-4.4,16.5-.5,3.4,3.3,4.9,7,4.6,11.1-.4,4.4-2.6,7.7-6.8,9.8Z"/>
  <path class="cls-27" d="M426,588.6l.8-5.3c.5-1.7.7-3.2.8-4.3.4-9.2.3-18.5-.3-27.9,4.4,0,7.3,0,8.5,0,3.9,0,8.3-1.1,11.9-3,5.2-2.7,10.3-6.3,15.4-10.8.5-.4,1.3-.7,2.6-1,.4,0,.5,0,.6.4,0,1.3.2,2.4,0,3.3-.5,5.7-.8,12.5-.8,20.3s-3.8,16.3-11.3,22.2c-2.8,2.2-5.6,3.6-8.6,4.2-6.5,1.4-13,2-19.7,1.7v.2Z"/>
  <path class="cls-25" d="M397,551.1h30.3c.6,9.4.7,18.7.3,27.9,0,1.2-.3,2.6-.8,4.3l-46.1,5.1c-12.1,0-24.5.5-36.3.5-31.7,0-63.3-.2-95,0-8.4,0-13.7,0-15.8-.5-5.1-.9-10-2.9-14.6-6.1-1.9-1.3-3.5-3.1-5-5.3-2.9-4.4-5-8.9-6.4-13.4-.6-2.1-.9-4.9-.8-8.6.1-6.3,0-12.2-.6-17.8,0-.3.2-.6.5-.6h.3c4.3,1.9,7.5,5,11,8,1.6,1.3,3.8,2.7,5.4,3.3,4.9,1.8,10,2.8,15.1,3.2.6,0,5.8,0,15.4,0h36.1c35.6,0,71.2,0,106.8-.2h.2Z"/>
  <path class="cls-22" d="M408,551.2h-11,11Z"/>
  <path class="cls-24" d="M426.8,583.3l-.8,5.3-45.3-.2,46.1-5.1h0Z"/>
  <path class="cls-27" d="M449.5,613.3l4.2,6.6c.2.3.4.5.8.6,3.5,1.4,6.7,3.2,9.6,5.2,2.1,1.6.5,5.7-.6,7.4-2.8,4.3-6.9,6.8-12.2,7.5-2.4.3-6.5.4-12.3.4s-12.2,0-12.2,0c-41.1,0-82.3,0-123.4.3h-19.9c-6.9-.3-12.1-.3-15.7-.3-5.4,0-10.6,0-15.7,0-10.1-.2-19.6-.2-28.7.2-2.7,0-6.6-.7-8.7-2.7-2.5-2.4-3.7-5.4-3.7-8.9s4.3-6.2,7.3-8.1c1-.6,2.3-1.2,3.9-1.7,6.3-2.1,11.4-3.1,15.3-3,1.2,0,5.7.2,13.3.5,2.5,0,4.9,0,7.1-.4.4,0,.4-.2,0-.4-.9-.4-1.6-.7-2.2-.6-4.1,0-8.1-.2-12.1-.8,30.7,0,61.4,0,92-.2h20c27.5.3,55,.4,82.5.4s7.7-.6,11.5-1.9h0Z"/>
</svg>