<?xml version="1.0" encoding="utf-8"?>
<!-- Generator: Adobe Illustrator 26.1.0, SVG Export Plug-In . SVG Version: 6.00 Build 0)  -->
<svg version="1.1" id="Layer_1" xmlns="http://www.w3.org/2000/svg" xmlns:xlink="http://www.w3.org/1999/xlink" x="0px" y="0px"
	 viewBox="0 0 100 100" style="enable-background:new 0 0 100 100;" xml:space="preserve">
<style type="text/css">
	.st0{fill:#FFFFFF;}
	.st1{fill:#EF4442;}
</style>
<rect class="st0" width="100" height="100"/>
<g>
	<path class="st1" d="M6,87.6c0-22.7,0-45.4,0-68.2c0.1-0.3,0.2-0.5,0.3-0.8c0.5-2.2,1.7-3.9,3.8-4.9c1.1-0.5,2.2-0.8,3.4-0.8
		c2,0,4.1,0,6,0c0.2-0.3,0.4-0.5,0.5-0.7c1.3-1.8,3-2.8,5.2-2.7c2.5,0.1,5,0,7.5,0c1.8,0,3.2,0.8,4.3,2.2c0.3,0.4,0.6,0.7,0.8,1.1
		c2.2,0,4.2,0,6.4,0c0-0.6,0.1-1.1,0.1-1.6c0.2-3,2.6-5.3,5.6-5.3c8.5,0,17,0.1,25.4-0.1c2.7,0,5.6,2.4,5.7,5.5c0,0.5,0.1,1,0.1,1.6
		c2,0,3.9,0,5.7,0c2.1,0.1,3.9,0.9,5.2,2.5C93.6,17.2,94,19,94,21c0,21.6,0,43.3,0,64.9c0,0.3,0,0.6,0,0.8c-0.2,3.4-2.1,6-5.1,6.8
		c-1,0.3-2.1,0.4-3.2,0.4c-23.8,0-47.6,0-71.4,0c-0.4,0-0.7,0-1.1,0c-3.6-0.2-6.3-2.3-7-5.8C6.2,88,6.1,87.8,6,87.6z M26.1,53.5
		c0,12.8,10.3,24.1,24,24c13.7,0,23.9-11.3,23.9-24C74,40.5,63.3,29.5,50.1,29.5C36.8,29.4,26,40.4,26.1,53.5z M15.3,27.4
		c1.1,0,2.2-0.1,3.3,0c1.2,0.1,2.1-1,2.2-1.8c0.1-0.9-0.8-1.9-2-1.9c-2.4-0.1-4.7-0.1-7.1,0c-1.2,0-2,1-2,1.9c0.1,1,0.9,1.8,2.1,1.8
		C12.9,27.4,14.1,27.4,15.3,27.4z M15.1,33.5C15.1,33.5,15.1,33.5,15.1,33.5c1.2,0,2.4,0,3.6,0c1.1,0,1.8-0.7,1.8-1.7
		c0-1-0.5-1.8-1.7-1.8c-2.5-0.1-4.9-0.1-7.4,0c-1.2,0.1-1.8,0.9-1.7,1.9c0.1,0.9,0.8,1.6,2,1.6C12.9,33.6,14,33.5,15.1,33.5z"/>
	<path class="st1" d="M50,35.5c9.8,0.1,17.9,7.8,17.9,18c0,10.1-7.9,18.1-18,18c-10.2-0.1-17.9-8.2-17.9-18
		C32.1,43.4,40.1,35.6,50,35.5z M50.1,57.9c2.5,0,4.4-1.9,4.4-4.4c0-2.5-1.9-4.5-4.3-4.5c-2.6,0-4.5,1.9-4.5,4.5
		C45.6,56.1,47.5,57.9,50.1,57.9z M38.1,52.4c0,0.3-0.1,0.6,0,0.8c0.2,0.4,0.5,0.8,0.8,0.9c0.5,0.1,0.9-0.3,1-0.8
		c0.1-0.5,0.2-0.9,0.2-1.4c0.5-4.5,3.9-8.3,8.3-9.2c0.7-0.2,1.5-0.2,2.2-0.3c0.7-0.1,1.1-0.5,1-1.1c-0.1-0.7-0.6-0.8-1.1-0.9
		c-0.2,0-0.4,0-0.6,0c-1.4,0.3-2.8,0.5-4.2,1C41.6,43.1,38.2,47.9,38.1,52.4z"/>
</g>
</svg>
