<?xml version="1.0" encoding="utf-8"?>
<!-- Generator: Adobe Illustrator 27.3.1, SVG Export Plug-In . SVG Version: 6.00 Build 0)  -->
<svg version="1.1" id="Layer_1" xmlns="http://www.w3.org/2000/svg" xmlns:xlink="http://www.w3.org/1999/xlink" x="0px" y="0px"
	 viewBox="0 0 1000 1000" style="enable-background:new 0 0 1000 1000;" xml:space="preserve">
<style type="text/css">
	.st0{fill:#FFFFFF;}
</style>
<rect width="1000" height="1000"/>
<g>
	<path class="st0" d="M235,838c-0.2,0.9-0.4,2.1-0.9,3.2c-0.6,1.4-1.8,2.4-3.4,2.1c-1.7-0.4-2.2-1.8-2.1-3.3
		c0.1-1.2,0.4-2.4,0.7-3.6c0.5-1.7,1.2-3.5,3.3-3.2C235.4,833.5,235.1,835.7,235,838z"/>
	<path class="st0" d="M345.5,781.3c1.7,0.1,2.9,1,2.9,2.7c0,1.7-1.1,2.7-2.8,2.8c-1.6,0.1-2.9-0.7-2.8-2.6
		C342.8,782.6,343.9,781.6,345.5,781.3z"/>
	<path class="st0" d="M576.4,851.4c2,0.1,3.1,0.9,3.4,2.6c0.2,1.7-0.6,2.9-2.3,3.1c-1.7,0.1-2.8-0.8-3-2.5
		C574.1,852.8,575,851.8,576.4,851.4z"/>
	<path class="st0" d="M261.1,360.4c-0.1,1.7-1,2.9-2.7,2.9c-1.7,0-2.7-1.1-2.8-2.8c-0.1-1.6,0.7-2.9,2.6-2.8
		C259.8,357.7,260.8,358.7,261.1,360.4z"/>
	<path class="st0" d="M632.7,408.2c-2.1-0.3-3-1.4-3-3c0-1.7,1-2.8,2.7-2.7c1.6,0.1,2.6,1.3,2.7,2.9
		C635.2,407.2,633.9,407.9,632.7,408.2z"/>
	<path class="st0" d="M728.3,480.1c-1.7-0.2-2.7-1.2-2.5-2.9c0.2-1.6,1.4-2.6,3-2.5c1.7,0.1,2.7,1.2,2.5,2.9
		C731.2,479.3,730,479.9,728.3,480.1z"/>
	<path class="st0" d="M637.3,513.2c-0.3,1.7-1.2,2.7-3,2.3c-1.6-0.3-2.6-1.5-2.4-3.1c0.2-1.7,1.3-2.6,3-2.4
		C636.6,510.3,637.3,511.5,637.3,513.2z"/>
	<path class="st0" d="M589.1,700.9c-1.7-0.1-2.7-1.1-2.7-2.8c0.1-1.7,1.3-2.6,2.9-2.7c1.7,0,2.9,0.9,2.7,2.7
		C591.9,699.7,590.8,700.7,589.1,700.9z"/>
	<path class="st0" d="M565.2,192.1c-1.7-0.1-2.7-1.1-2.7-2.8c0.1-1.7,1.3-2.6,2.9-2.7c1.7,0,2.9,0.9,2.7,2.7
		C567.9,190.9,566.8,191.9,565.2,192.1z"/>
	<path class="st0" d="M360.1,741.3c-1.8-0.2-2.7-1.2-2.6-2.9c0.1-1.7,1.4-2.6,3-2.6c1.7,0,2.8,1.1,2.6,2.8
		C362.9,740.3,361.7,741.2,360.1,741.3z"/>
	<path class="st0" d="M666.9,754.5c-0.3,2-1.2,3.1-2.9,3.2c-1.7,0.1-2.9-0.9-2.9-2.6c0-1.7,1.1-2.7,2.8-2.8
		C665.7,752.2,666.6,753.2,666.9,754.5z"/>
	<path class="st0" d="M710.6,317.8c-1.7,0-2.9-0.8-3-2.6c0-1.7,1.1-2.8,2.8-2.8c1.4,0,2.3,0.9,2.6,2.2
		C713.2,316.4,712.3,317.4,710.6,317.8z"/>
	<path class="st0" d="M717.7,347.3c1.7,0.2,2.8,1.1,2.7,2.9c-0.1,1.7-1.2,2.7-3,2.5c-1.4-0.1-2.2-1.1-2.3-2.5
		C715,348.5,716,347.5,717.7,347.3z"/>
	<path class="st0" d="M648,789.7c-1.8-0.1-2.8-1.1-2.8-2.8c0-1.4,0.9-2.3,2.3-2.5c1.7-0.2,3,0.6,3.1,2.4
		C650.7,788.5,649.7,789.5,648,789.7z"/>
	<path class="st0" d="M527.7,130.7c-1.7-0.4-2.6-1.5-2.4-3.2c0.3-1.8,1.6-2.4,3.3-2.1c1.3,0.3,2.2,1.2,2.1,2.6
		C530.5,129.6,529.5,130.6,527.7,130.7z"/>
	<path class="st0" d="M238.3,809.4c2,0.2,3.2,1,3.2,2.8c0,1.7-1.2,2.7-2.9,2.7c-1.5,0-2.2-1-2.4-2.3
		C236,810.8,236.9,809.8,238.3,809.4z"/>
	<path class="st0" d="M653.7,779.3c-1.7,0-2.9-0.8-3-2.6c-0.1-1.7,1-2.8,2.7-2.8c1.4,0,2.4,0.9,2.6,2.2
		C656.3,777.8,655.5,778.9,653.7,779.3z"/>
	<path class="st0" d="M544,148.1c-0.5,2-1.5,3-3.3,2.6c-1.3-0.3-2.2-1.2-2.2-2.6c0-1.7,1.1-2.8,2.8-2.7
		C543.1,145.5,543.8,146.8,544,148.1z"/>
	<path class="st0" d="M552.2,775.8c-2.1-0.1-3.3-1-3.2-2.8c0-1.7,1.2-2.7,2.9-2.7c1.4,0,2.3,1,2.4,2.3
		C554.5,774.5,553.4,775.4,552.2,775.8z"/>
	<path class="st0" d="M337.3,818.6c-0.5,1.6-1.6,2.6-3.3,2.3c-1.7-0.4-2.4-1.7-2-3.4c0.3-1.3,1.3-2.2,2.7-2
		C336.4,815.8,337.3,816.8,337.3,818.6z"/>
	<path class="st0" d="M654.5,158.4c-0.4,1.7-1.4,2.7-3.1,2.5c-1.8-0.2-2.5-1.5-2.2-3.2c0.2-1.3,1.1-2.3,2.5-2.2
		C653.4,155.7,654.4,156.7,654.5,158.4z"/>
	<path class="st0" d="M243.3,843.4c-2.2-0.4-2.9-1.6-2.6-3.3c0.2-1.4,1-2.3,2.5-2.2c1.7,0.1,2.9,1.1,2.8,2.8
		C245.9,842.5,244.5,843.1,243.3,843.4z"/>
	<path class="st0" d="M263.6,722.4c-1.7,0-2.9-0.9-2.8-2.7c0-1.7,1.1-2.7,2.8-2.7c1.4,0,2.3,0.9,2.5,2.3
		C266.2,721.1,265.3,722.1,263.6,722.4z"/>
	<path class="st0" d="M587.3,709.4c-0.3,1.8-1.3,2.7-3,2.5c-1.4-0.1-2.3-1.1-2.4-2.4c-0.1-1.7,0.9-2.9,2.6-2.9
		C586.3,706.5,587.2,707.6,587.3,709.4z"/>
	<path class="st0" d="M371.3,707.3c-1.9-0.6-3.1-1.5-2.6-3.3c0.4-1.6,1.7-2.5,3.3-2.1c1.4,0.3,2,1.4,1.9,2.8
		C373.8,706.4,372.7,707.1,371.3,707.3z"/>
	<path class="st0" d="M254.9,843.4c-1.8-0.4-2.5-1.6-2.2-3.3c0.2-1.3,1.1-2.3,2.6-2.2c1.6,0.2,2.8,1.1,2.7,2.9
		C257.8,842.6,256.5,843.3,254.9,843.4z"/>
	<path class="st0" d="M686.8,697.3c1.8-0.1,2.8,0.9,2.9,2.6c0.1,1.3-0.6,2.5-2,2.7c-1.7,0.3-3-0.5-3.3-2.2
		C684,698.6,685.1,697.7,686.8,697.3z"/>
	<path class="st0" d="M269.9,840.9c-0.4,1.7-1.5,2.6-3.2,2.4c-1.8-0.3-2.4-1.6-2.1-3.3c0.3-1.3,1.2-2.2,2.6-2.1
		C268.9,838.2,269.9,839.1,269.9,840.9z"/>
	<path class="st0" d="M275.2,684.9c-0.1,1.7-0.9,3-2.8,2.8c-1.6-0.1-2.8-1.2-2.6-3c0.1-1.4,1.1-2.2,2.4-2.4
		C274.1,682.1,275,683.2,275.2,684.9z"/>
	<path class="st0" d="M619,618.4c-0.1,1.7-0.8,2.9-2.6,3c-1.7,0.1-2.7-1.1-2.8-2.8c-0.1-1.4,0.9-2.3,2.2-2.5
		C617.5,615.9,618.7,616.6,619,618.4z"/>
	<path class="st0" d="M723.2,546c2,0.3,3.2,1.2,3.1,2.9c-0.1,1.7-1.3,2.6-3,2.6c-1.4,0-2.2-1.1-2.3-2.4
		C720.8,547.3,721.8,546.4,723.2,546z"/>
	<path class="st0" d="M727.8,536.8c-0.2,1.8-1.2,2.8-2.9,2.8c-1.9,0-2.6-1.3-2.5-3c0.1-1.4,0.9-2.4,2.3-2.4
		C726.5,534.1,727.6,535,727.8,536.8z"/>
	<path class="st0" d="M281.9,841c-0.5,1.6-1.6,2.6-3.3,2.3c-1.7-0.4-2.4-1.7-2-3.4c0.3-1.3,1.3-2.2,2.7-2
		C281,838.2,281.9,839.2,281.9,841z"/>
	<path class="st0" d="M730,513.5c-0.8,1.9-1.9,2.8-3.6,2.2c-1.6-0.6-2.2-1.9-1.6-3.6c0.5-1.3,1.6-1.9,3-1.6
		C729.5,510.9,730,512.2,730,513.5z"/>
	<path class="st0" d="M293.9,840.8c-0.3,1.7-1.4,2.7-3.1,2.5c-1.8-0.2-2.5-1.5-2.2-3.2c0.2-1.3,1.1-2.3,2.5-2.2
		C292.8,838.1,293.8,839.1,293.9,840.8z"/>
	<path class="st0" d="M305.9,840.4c-0.1,1.8-1.1,2.8-2.7,2.9c-1.4,0.1-2.3-0.8-2.6-2.1c-0.3-1.7,0.4-3,2.1-3.2
		C304.4,837.8,305.5,838.7,305.9,840.4z"/>
	<path class="st0" d="M638.8,476.8c0,1.7-0.7,3-2.6,2.9c-1.7-0.1-2.8-1.1-2.8-2.8c0-1.4,1-2.3,2.3-2.5
		C637.5,474,638.5,475,638.8,476.8z"/>
	<path class="st0" d="M635.9,462.3c1.8-0.1,2.8,0.9,2.9,2.6c0.1,1.3-0.6,2.5-2,2.7c-1.7,0.3-3-0.6-3.3-2.2
		C633.1,463.7,634.3,462.8,635.9,462.3z"/>
	<path class="st0" d="M731.3,456.9c-0.4,1.9-1.3,3.1-3.1,2.9c-1.7-0.2-2.6-1.4-2.4-3.1c0.1-1.4,1.2-2.2,2.5-2.2
		C730.1,454.5,731,455.5,731.3,456.9z"/>
	<path class="st0" d="M636.3,455.8c-1.7-0.2-2.9-1-2.9-2.8c0-1.7,1.3-2.6,3-2.7c1.4,0,2.3,1,2.4,2.3
		C638.9,454.4,638.2,455.6,636.3,455.8z"/>
	<path class="st0" d="M700.1,268.9c-0.3,1.7-1.3,2.6-3,2.5c-1.4-0.1-2.3-1-2.4-2.4c-0.1-1.7,0.9-2.9,2.6-2.9
		C699,266,699.9,267.2,700.1,268.9z"/>
	<path class="st0" d="M727.2,424c-1.8-0.1-2.7-1.1-2.9-2.8c-0.1-1.5,0.8-2.3,2.2-2.5c1.7-0.3,3,0.4,3.2,2.2
		C729.9,422.6,728.9,423.6,727.2,424z"/>
	<path class="st0" d="M633.9,414.4c1.6,0.4,2.8,1.2,2.6,3c-0.2,1.7-1.4,2.6-3.1,2.4c-1.4-0.1-2.2-1.2-2.2-2.6
		C631.2,415.5,632,414.5,633.9,414.4z"/>
	<path class="st0" d="M284.1,415.1c-1.7,0-2.9-0.9-2.9-2.6c0-1.7,1.1-2.7,2.8-2.8c1.4,0,2.3,0.9,2.5,2.3
		C286.7,413.7,285.8,414.8,284.1,415.1z"/>
	<path class="st0" d="M317.8,840.4c-0.1,1.8-1.1,2.8-2.7,2.9c-1.4,0.1-2.3-0.8-2.6-2.1c-0.3-1.7,0.4-3,2.1-3.2
		C316.4,837.8,317.5,838.7,317.8,840.4z"/>
	<path class="st0" d="M274.9,401.4c1.8,0.1,2.8,1.1,2.9,2.7c0.1,1.4-0.8,2.3-2.1,2.6c-1.7,0.3-3-0.4-3.3-2.1
		C272.2,402.8,273.2,401.7,274.9,401.4z"/>
	<path class="st0" d="M707,291.5c-0.1,1.7-1,2.9-2.7,2.9c-1.7,0-2.7-1.2-2.7-2.9c0-1.4,1-2.3,2.3-2.4
		C705.7,288.9,706.7,289.8,707,291.5z"/>
	<path class="st0" d="M267.6,397.2c-1.7-0.3-2.6-1.4-2.4-3.1c0.2-1.4,1.1-2.3,2.5-2.3c1.7,0,2.8,1.1,2.8,2.8
		C270.5,396.3,269.4,397.1,267.6,397.2z"/>
	<path class="st0" d="M629.2,384.2c-1.7-0.4-2.6-1.5-2.3-3.2c0.2-1.4,1.2-2.2,2.6-2.2c1.7,0.1,2.8,1.1,2.7,2.8
		C632.1,383.4,630.9,384.3,629.2,384.2z"/>
	<path class="st0" d="M327.6,843.3c-2.1,0.1-3.1-0.9-3.2-2.6c-0.1-1.3,0.6-2.5,2-2.7c1.7-0.3,3,0.6,3.3,2.2
		C330.1,842,328.8,842.8,327.6,843.3z"/>
	<path class="st0" d="M247.8,788.8c0,1.8-1.3,2.5-2.9,2.7c-1.4,0.1-2.5-0.6-2.6-2c-0.1-1.8,1.1-2.7,2.8-2.8
		C246.5,786.6,247.5,787.4,247.8,788.8z"/>
	<path class="st0" d="M596.7,870c-1.9-0.6-2.7-1.7-2.3-3.4c0.4-1.6,1.7-2.4,3.3-1.9c1.3,0.3,1.9,1.4,1.7,2.8
		C599.2,869.1,598.1,869.8,596.7,870z"/>
	<path class="st0" d="M396.7,622.1c1.5-0.1,2.4,0.7,2.6,2c0.2,1.4-0.6,2.3-2,2.5c-1.4,0.2-2.3-0.6-2.5-2
		C394.6,623.3,395.5,622.5,396.7,622.1z"/>
	<path class="st0" d="M293.1,615.4c0,1.5-0.8,2.3-2.2,2.3c-1.4,0.1-2.3-0.8-2.3-2.2c-0.1-1.4,0.8-2.3,2.2-2.3
		C292.2,613.1,292.9,614,293.1,615.4z"/>
	<path class="st0" d="M709.9,303.8c-0.5,1.6-1.6,2.4-3.3,2c-1.6-0.4-2.4-1.7-2-3.3c0.3-1.3,1.4-2,2.8-1.7
		C709,301,709.9,302.1,709.9,303.8z"/>
	<path class="st0" d="M285,308c-0.1,1.7-0.9,2.8-2.6,2.9c-1.3,0.1-2.4-0.7-2.5-2.1c-0.2-2,0.9-3.3,2.9-3.2
		C284.2,305.6,284.9,306.7,285,308z"/>
	<path class="st0" d="M596.6,72.8c-0.4,1.5-1.3,2.6-3,2.5c-1.7-0.2-2.5-1.4-2.1-3.1c0.4-1.6,1.5-2.5,3.2-2.1
		C596,70.4,596.6,71.4,596.6,72.8z"/>
	<path class="st0" d="M567.5,850.5c-1.8,0-2.7-0.8-2.9-2.1c-0.3-1.7,0.5-2.9,2.1-3.2c1.7-0.3,2.9,0.5,2.9,2.3
		C569.7,849.2,568.6,850,567.5,850.5z"/>
	<path class="st0" d="M604.3,76.6c0,1.5-0.8,2.3-2.2,2.3c-1.4,0.1-2.3-0.8-2.3-2.2c-0.1-1.4,0.8-2.3,2.2-2.3
		C603.4,74.4,604.1,75.3,604.3,76.6z"/>
	<path class="st0" d="M274.1,318.6c-1.5,0-2.8-0.5-2.7-2.4c0-1.3,0.9-2.2,2.2-2.3c1.6-0.1,2.8,0.7,2.9,2.4
		C276.5,317.8,275.5,318.5,274.1,318.6z"/>
	<path class="st0" d="M388.8,316.8c1.5,0.2,2.8,0.8,2.6,2.7c-0.2,1.3-1.2,2.1-2.5,2c-1.6-0.1-2.8-0.8-2.6-2.6
		C386.4,317.5,387.5,316.9,388.8,316.8z"/>
	<path class="st0" d="M617.1,320.2c1.7,0.2,2.4,1.4,2.2,3c-0.1,1.3-0.9,2.3-2.3,2.2c-1.8-0.1-2.4-1.4-2.3-3
		C614.9,321.2,615.7,320.3,617.1,320.2z"/>
	<path class="st0" d="M608.4,88.9c-1.4-0.2-2.3-0.9-2.3-2.3c0-1.6,0.9-2.8,2.6-2.8c1.6,0,2.8,0.9,2.6,2.7
		C611.2,88.1,610,88.8,608.4,88.9z"/>
	<path class="st0" d="M715.1,326.3c0.1,1.5-0.7,2.4-2,2.6c-1.4,0.2-2.3-0.6-2.5-2c-0.2-1.4,0.7-2.3,2-2.5
		C714,324.1,714.7,325,715.1,326.3z"/>
	<path class="st0" d="M395,327.3c1.4,0.2,2.4,0.8,2.4,2.2c0.1,1.8-1.2,2.5-2.7,2.5c-1.3,0-2.3-0.8-2.4-2.1
		C392.1,327.9,393.4,327.4,395,327.3z"/>
	<path class="st0" d="M619.5,838.7c0,1.5-0.5,2.8-2.4,2.8c-1.3,0-2.2-0.9-2.3-2.2c-0.1-1.6,0.7-2.8,2.4-2.9
		C618.7,836.3,619.4,837.2,619.5,838.7z"/>
	<path class="st0" d="M331,827.2c1.6,0.3,2.6,1.3,2.3,3c-0.2,1.4-1.4,1.9-2.7,1.8c-1.6-0.2-2.7-1.1-2.3-2.8
		C328.5,827.7,329.6,827.2,331,827.2z"/>
	<path class="st0" d="M717.9,338.7c-0.5,1.3-1.3,2.2-2.6,2c-1.7-0.3-2.3-1.6-1.9-3.2c0.3-1.3,1.1-2.2,2.5-1.9
		C717.5,335.9,718.2,337,717.9,338.7z"/>
	<path class="st0" d="M402,340.2c-0.1,1.6-0.8,2.8-2.5,3c-1.7,0.1-2.7-1-2.7-2.6c0-1.7,1.1-2.6,2.8-2.6
		C401,337.9,401.8,338.8,402,340.2z"/>
	<path class="st0" d="M626.5,828.1c-0.2,1.6-0.9,2.8-2.6,2.9c-1.7,0.1-2.6-1.1-2.6-2.8c0.1-1.7,1.2-2.6,2.9-2.5
		C625.6,825.8,626.4,826.7,626.5,828.1z"/>
	<path class="st0" d="M539.6,828c-0.2,1.8-1.4,2.4-3,2.2c-1.3-0.1-2.3-0.9-2.2-2.3c0.1-1.8,1.4-2.4,3-2.3
		C538.7,825.8,539.5,826.6,539.6,828z"/>
	<path class="st0" d="M533.4,114.8c-1.3-0.3-2.2-1.1-2.1-2.5c0.1-1.6,1-2.8,2.7-2.8c1.7,0,2.6,1.2,2.4,2.9
		C536.2,114.1,535.1,114.9,533.4,114.8z"/>
	<path class="st0" d="M628.2,114c1.4,0.1,2.3,1,2.4,2.3c0.2,1.6-0.6,2.9-2.3,3.1c-1.7,0.2-2.8-0.7-2.8-2.5
		C625.6,115.2,626.6,114.2,628.2,114z"/>
	<path class="st0" d="M625.3,355.7c1.5,0.2,2.8,0.9,2.5,2.7c-0.2,1.3-1.3,2-2.6,2c-1.6-0.1-2.8-0.9-2.6-2.7
		C622.8,356.3,624,355.8,625.3,355.7z"/>
	<path class="st0" d="M305.1,296.3c-0.3,1.3-1,2.2-2.5,1.9c-1.6-0.4-2.4-1.6-2.2-3.2c0.2-1.3,1.1-2.2,2.5-1.9
		C304.5,293.5,305.2,294.7,305.1,296.3z"/>
	<path class="st0" d="M719.9,364.5c-1.6-0.2-2.8-1.1-2.8-2.7c0-1.7,1.3-2.6,2.9-2.4c1.6,0.2,2.6,1.3,2.3,3
		C722.3,363.7,721.4,364.5,719.9,364.5z"/>
	<path class="st0" d="M340.8,806.7c-0.1,1.7-1.2,2.5-2.8,2.6c-1.4,0.1-2.3-0.7-2.3-2.1c0-1.7,1.2-2.6,2.8-2.7
		C339.8,804.5,340.6,805.3,340.8,806.7z"/>
	<path class="st0" d="M535.5,803.2c0,1.4-0.6,2.5-1.9,2.7c-2,0.3-3.3-0.7-3.4-2.7c-0.1-1.4,1-2.2,2.3-2.3
		C534.1,800.7,535.2,801.5,535.5,803.2z"/>
	<path class="st0" d="M261.7,372c0,1.5-0.5,2.8-2.3,2.9c-1.4,0.1-2.2-0.9-2.3-2.2c-0.2-1.6,0.6-2.9,2.3-2.9
		C260.8,369.6,261.5,370.6,261.7,372z"/>
	<path class="st0" d="M721.5,371.1c1.5-0.1,2.3,0.7,2.6,2c0.3,1.6-0.3,2.9-2,3.2c-1.4,0.3-2.3-0.7-2.5-2
		C719.1,372.7,719.9,371.6,721.5,371.1z"/>
	<path class="st0" d="M644.7,797.3c0,1.4-0.7,2.5-2.1,2.7c-1.9,0.3-2.7-1-2.6-2.7c0-1.4,0.8-2.4,2.3-2.4
		C643.7,795,644.5,795.9,644.7,797.3z"/>
	<path class="st0" d="M350,295.9c-1.4,0-2.5-0.6-2.7-1.9c-0.3-2,0.8-3.3,2.8-3.4c1.4-0.1,2.2,1,2.3,2.3
		C352.4,294.6,351.6,295.6,350,295.9z"/>
	<path class="st0" d="M539.1,795.8c-1.4-0.2-2.2-1-2.1-2.4c0.1-1.4,1-2.2,2.4-2.2c1.4,0.1,2.2,0.9,2.2,2.4
		C541.4,795,540.5,795.8,539.1,795.8z"/>
	<path class="st0" d="M637.2,126.4c0,1.7-0.6,2.8-1.9,3.1c-2,0.3-3.3-0.7-3.4-2.7c-0.1-1.4,1-2.2,2.3-2.3
		C635.9,124.3,636.8,125.3,637.2,126.4z"/>
	<path class="st0" d="M642.9,137c-0.1,1.6-0.8,2.9-2.5,2.9c-1.6-0.1-2.6-1.2-2.6-2.9c-0.1-1.4,0.7-2.3,2.1-2.4
		C641.5,134.5,642.6,135.3,642.9,137z"/>
	<path class="st0" d="M633.7,393.5c-0.2,1.7-1.1,2.7-2.8,2.6c-1.4,0-2.3-0.9-2.3-2.2c-0.1-1.6,0.8-2.9,2.4-3
		C632.7,390.7,633.5,391.9,633.7,393.5z"/>
	<path class="st0" d="M247.9,775c1.5,0.3,2.7,1.2,2.6,2.9c-0.1,1.7-1.3,2.5-3,2.3c-1.6-0.3-2.5-1.4-2.2-3.1
		C245.5,775.7,246.4,775.1,247.9,775z"/>
	<path class="st0" d="M389.8,395.1c1.6,0.4,2.3,1.5,2,3.2c-0.2,1.3-1,2.3-2.5,2c-1.7-0.3-2.3-1.5-2-3.1
		C387.6,395.9,388.3,395,389.8,395.1z"/>
	<path class="st0" d="M537,137.8c0.1,1.4-0.7,2.3-2,2.5c-1.4,0.2-2.3-0.6-2.5-2c-0.2-1.4,0.7-2.3,2-2.5
		C535.9,135.6,536.7,136.5,537,137.8z"/>
	<path class="st0" d="M340.6,291.1c-0.6,1.6-1.7,2.2-3.3,1.8c-1.3-0.3-2.2-1.2-1.9-2.6c0.4-1.6,1.7-2.3,3.3-1.9
		C339.9,288.8,340.7,289.7,340.6,291.1z"/>
	<path class="st0" d="M328.6,290.9c-0.3,1.6-1.5,2.3-3.1,2c-1.3-0.2-2.3-1-2.1-2.4c0.2-1.7,1.4-2.4,3.1-2.1
		C327.8,288.6,328.6,289.4,328.6,290.9z"/>
	<path class="st0" d="M351.5,772.3c0.1,1.4-0.7,2.3-2,2.5c-1.4,0.2-2.3-0.6-2.5-2c-0.2-1.4,0.6-2.3,2-2.5
		C350.3,770.1,351.1,771,351.5,772.3z"/>
	<path class="st0" d="M728.5,409.1c-0.4,1.7-1.3,2.4-2.6,2.3c-1.6-0.1-2.9-0.8-2.6-2.6c0.2-1.3,1.2-2.1,2.5-2.1
		C727.4,406.7,728.2,407.8,728.5,409.1z"/>
	<path class="st0" d="M606.7,285.7c1.5,0.2,2.8,0.9,2.9,2.6c0.1,1.7-1.1,2.6-2.8,2.6c-1.7-0.1-2.6-1.2-2.5-2.9
		C604.4,286.6,605.3,285.8,606.7,285.7z"/>
	<path class="st0" d="M661.3,765.8c-0.2,1.5-0.9,2.8-2.7,2.6c-1.3-0.2-2.1-1.2-2-2.5c0.1-1.6,0.8-2.8,2.6-2.6
		C660.6,763.4,661.2,764.5,661.3,765.8z"/>
	<path class="st0" d="M703.1,279.9c0.1,1.4-0.7,2.3-2,2.5c-1.4,0.2-2.3-0.6-2.5-2c-0.2-1.4,0.7-2.3,2-2.5
		C702,277.7,702.8,278.6,703.1,279.9z"/>
	<path class="st0" d="M253.6,765.8c0,1.7-0.7,2.8-2.4,3c-1.3,0.1-2.4-0.5-2.7-1.9c-0.3-2,0.7-3.3,2.7-3.4
		C252.6,763.4,253.3,764.5,253.6,765.8z"/>
	<path class="st0" d="M364.9,421.2c-0.3,1.3-1.1,2.2-2.6,2c-1.3-0.2-2.2-1.1-2-2.5c0.2-1.3,1.1-2.2,2.5-2
		C364.3,418.9,365,419.7,364.9,421.2z"/>
	<path class="st0" d="M560.3,762.8c-0.1,1.4-1,2.3-2.3,2.4c-1.6,0.2-2.9-0.6-3-2.3c-0.2-1.7,0.7-2.8,2.5-2.8
		C559.1,760.2,560.1,761.2,560.3,762.8z"/>
	<path class="st0" d="M547.4,160.7c-1.9-0.6-2.7-1.7-2.3-3.3c0.4-1.6,1.7-2.4,3.3-1.9c1.3,0.3,2,1.4,1.7,2.8
		C549.9,159.8,548.7,160.5,547.4,160.7z"/>
	<path class="st0" d="M354,425.3c-0.1,1.4-0.9,2.2-2.2,2.3c-1.6,0.1-2.9-0.5-3-2.3c-0.1-1.4,0.9-2.2,2.2-2.3
		C352.7,422.9,353.8,423.6,354,425.3z"/>
	<path class="st0" d="M256.8,754.9c-0.4,1.6-1.5,2.3-3.2,2c-1.3-0.2-2.3-1-2-2.5c0.3-1.7,1.5-2.3,3.1-2
		C256,752.6,256.8,753.4,256.8,754.9z"/>
	<path class="st0" d="M342.3,428.5c-0.5,1.3-1.3,2.2-2.7,2c-1.7-0.3-2.3-1.6-1.9-3.2c0.3-1.3,1.1-2.2,2.5-1.9
		C341.9,425.7,342.6,426.8,342.3,428.5z"/>
	<path class="st0" d="M358.9,750c0,1.4-0.8,2.3-2.2,2.3c-1.4,0.1-2.3-0.8-2.3-2.2c-0.1-1.4,0.8-2.3,2.2-2.3
		C358,747.8,358.8,748.6,358.9,750z"/>
	<path class="st0" d="M635,431.7c-1.4-0.1-2.2-0.9-2.3-2.3c-0.1-1.6,0.5-2.9,2.3-3c1.4-0.1,2.2,0.9,2.3,2.2
		C637.4,430.4,636.7,431.5,635,431.7z"/>
	<path class="st0" d="M259.7,742.9c-0.3,1.6-1.4,2.3-3.1,2c-1.3-0.2-2.3-1-2.1-2.4c0.2-1.7,1.4-2.4,3.1-2.1
		C258.9,740.6,259.8,741.3,259.7,742.9z"/>
	<path class="st0" d="M638,440.5c0,1.7-0.7,2.6-1.9,2.9c-1.7,0.4-2.9-0.4-3.3-2c-0.4-1.7,0.4-2.9,2.2-3
		C636.7,438.2,637.6,439.3,638,440.5z"/>
	<path class="st0" d="M730.3,445.2c-0.2,1.5-0.6,2.9-2.5,2.7c-1.3-0.1-2.2-1.1-2.2-2.4c0-1.6,0.9-2.8,2.6-2.7
		C729.5,442.8,730.2,443.8,730.3,445.2z"/>
	<path class="st0" d="M553.6,165.7c1.3,0.1,2.4,0.7,2.5,2.1c0.2,2-0.9,3.3-2.9,3.2c-1.3,0-2.2-1.1-2.2-2.4
		C551,166.9,551.9,166,553.6,165.7z"/>
	<path class="st0" d="M696.4,257.9c-0.4,1.4-1.3,2.2-2.7,2.1c-1.8-0.2-2.7-1.3-2.3-3.1c0.3-1.5,1.6-1.8,2.9-1.6
		C695.7,255.6,696.5,256.4,696.4,257.9z"/>
	<path class="st0" d="M577,730.7c-0.2,1.7-1.4,2.4-3,2.2c-1.3-0.1-2.3-0.9-2.2-2.3c0.1-1.8,1.4-2.4,3-2.3
		C576.1,728.5,576.9,729.3,577,730.7z"/>
	<path class="st0" d="M260.6,734c-1.6-0.1-2.7-0.9-2.9-2.6c-0.2-1.3,0.4-2.4,1.8-2.7c2-0.3,3.3,0.7,3.3,2.7
		C262.8,732.8,262,733.7,260.6,734z"/>
	<path class="st0" d="M680.7,722.9c-0.4,1.4-1.3,2.2-2.6,1.8c-1.5-0.5-2.3-1.7-2-3.3c0.2-1.3,1.3-2.1,2.6-1.7
		C680.2,720.1,680.9,721.3,680.7,722.9z"/>
	<path class="st0" d="M593.2,243.3c0,1.4-0.8,2.4-2.1,2.6c-1.7,0.3-2.9-0.5-3.2-2.1c-0.3-1.7,0.5-2.9,2.3-2.9
		C591.8,240.8,592.9,241.7,593.2,243.3z"/>
	<path class="st0" d="M581.9,720.5c-0.3,1.3-1.1,2.2-2.6,2c-1.3-0.2-2.2-1.1-2-2.6c0.2-1.3,1.1-2.2,2.6-2
		C581.2,718.1,582,719,581.9,720.5z"/>
	<path class="st0" d="M727.9,492c-1.3-0.3-2.2-1.1-2.1-2.5c0.1-1.6,1-2.8,2.7-2.8c1.7,0,2.6,1.2,2.4,2.9
		C730.7,491.2,729.6,492,727.9,492z"/>
	<path class="st0" d="M367.2,718.1c-1.4-0.1-2.3-0.8-2.2-2.3c0.2-1.7,1.3-2.5,2.9-2.5c1.4,0,2.3,0.8,2.2,2.2
		C370,717.3,368.8,718,367.2,718.1z"/>
	<path class="st0" d="M730.1,501.9c-0.4,1.4-1.2,2.2-2.6,1.8c-1.6-0.4-2.4-1.6-2.1-3.2c0.2-1.3,1.2-2.2,2.5-1.8
		C729.6,499.1,730.3,500.3,730.1,501.9z"/>
	<path class="st0" d="M682.6,713.4c-1.2-0.2-2.1-0.9-2-2.4c0.1-1.4,1-2.2,2.4-2.2c1.4,0.1,2.3,0.9,2.2,2.4
		C685,712.7,684.2,713.5,682.6,713.4z"/>
	<path class="st0" d="M562.1,178.3c0,1.7-0.7,2.9-2.4,3.2c-1.7,0.3-2.8-0.9-2.8-2.5c0-1.6,1-2.7,2.7-2.8
		C561,176.2,561.8,177.1,562.1,178.3z"/>
	<path class="st0" d="M633,522.3c1.8,0,2.6,0.9,2.8,2.1c0.2,1.6-0.4,2.9-2.2,3.1c-1.4,0.2-2.2-0.8-2.4-2.1
		C630.9,523.7,631.8,522.7,633,522.3z"/>
	<path class="st0" d="M681.4,225.7c-1.5,0-2.3-0.8-2.3-2.2c-0.1-1.4,0.8-2.3,2.2-2.3c1.4-0.1,2.3,0.8,2.3,2.2
		C683.7,224.7,682.8,225.4,681.4,225.7z"/>
	<path class="st0" d="M606.6,859.2c-0.7,1.6-1.9,2.2-3.5,1.6c-1.6-0.6-2.1-1.9-1.5-3.5c0.5-1.3,1.6-1.8,2.9-1.4
		C606,856.5,606.9,857.5,606.6,859.2z"/>
	<path class="st0" d="M266.3,705.8c1.7,0.1,2.6,0.8,2.6,2.2c0,1.7-1.2,2.5-2.8,2.6c-1.4,0.1-2.3-0.7-2.3-2.1
		C263.9,706.7,265.2,706.1,266.3,705.8z"/>
	<path class="st0" d="M630.4,551.1c-1.5-0.4-2.4-1.4-2.3-3.1c0.1-1.3,0.9-2.3,2.4-2c1.6,0.3,2.5,1.4,2.3,3.1
		C632.7,550.5,631.9,551.2,630.4,551.1z"/>
	<path class="st0" d="M269.2,698.8c-1.4-0.2-2.4-0.9-2.3-2.4c0.1-1.4,1-2.4,2.4-2.3c1.7,0,2.9,1.1,2.7,2.8
		C271.8,698.3,270.6,698.8,269.2,698.8z"/>
	<path class="st0" d="M377.7,693c-0.1,1.4-0.8,2.3-2.2,2.4c-1.6,0.1-2.8-0.7-2.9-2.4c-0.1-1.4,0.8-2.2,2.2-2.3
		C376.3,690.6,377.5,691.2,377.7,693z"/>
	<path class="st0" d="M724.8,561.2c-0.5,1.6-1.6,2.4-3.3,2c-1.6-0.4-2.4-1.7-2-3.3c0.3-1.3,1.4-2,2.8-1.7
		C724,558.4,724.9,559.5,724.8,561.2z"/>
	<path class="st0" d="M629.4,572.1c-0.2,1.7-1.4,2.4-3,2.2c-1.3-0.1-2.3-0.9-2.2-2.3c0.1-1.8,1.4-2.4,3-2.3
		C628.5,569.9,629.3,570.7,629.4,572.1z"/>
	<path class="st0" d="M691.1,686.4c1.5,0.2,2.8,0.9,2.5,2.7c-0.2,1.3-1.3,2-2.6,2c-1.6-0.1-2.8-0.9-2.6-2.7
		C688.7,687.1,689.8,686.5,691.1,686.4z"/>
	<path class="st0" d="M626.8,584.3c-0.4,1.3-1.2,2.2-2.6,2c-1.3-0.2-2.2-1.1-2-2.5c0.2-1.3,1.1-2.2,2.6-1.9
		C626.1,582,626.9,582.9,626.8,584.3z"/>
	<path class="st0" d="M718.4,581.8c1.6,0.2,2.6,1.1,2.5,2.8c-0.1,1.4-1.2,2-2.5,1.9c-1.6-0.1-2.8-0.9-2.6-2.7
		C715.9,582.5,717,581.9,718.4,581.8z"/>
	<path class="st0" d="M624.6,595.9c-0.3,1.6-1.3,2.5-3,2.3c-1.3-0.2-2.2-1.1-2.2-2.4c0-1.9,1.3-2.4,2.9-2.2
		C623.7,593.7,624.5,594.4,624.6,595.9z"/>
	<path class="st0" d="M674.7,201.5c-0.1,1.5-0.6,2.9-2.5,2.8c-1.4-0.1-2.2-1-2.2-2.4c0-1.6,0.7-2.9,2.5-2.8
		C673.9,199.1,674.6,200.1,674.7,201.5z"/>
	<path class="st0" d="M598,673.3c1.5,0.3,2.7,1.2,2.6,2.9c-0.1,1.7-1.3,2.5-3,2.3c-1.6-0.3-2.5-1.4-2.2-3.1
		C595.6,674,596.6,673.3,598,673.3z"/>
	<path class="st0" d="M384.4,669.8c0,1.5-0.5,2.8-2.4,2.8c-1.4,0-2.2-0.9-2.3-2.3c-0.1-1.6,0.5-2.9,2.3-2.9
		C383.5,667.4,384.2,668.4,384.4,669.8z"/>
	<path class="st0" d="M698.9,663.2c1.6,0.5,2.4,1.6,2,3.3c-0.4,1.6-1.7,2.4-3.3,2c-1.3-0.3-2-1.4-1.7-2.7
		C696.2,664.1,697.2,663.2,698.9,663.2z"/>
	<path class="st0" d="M601.9,667.1c-1.4-0.2-2.2-1-2.1-2.4c0.1-1.4,1-2.2,2.4-2.2c1.4,0.1,2.2,0.9,2.2,2.4
		C604.2,666.3,603.4,667.1,601.9,667.1z"/>
	<path class="st0" d="M278.8,659.5c1.4,0,2.3,0.8,2.3,2.2c0.1,1.4-0.8,2.3-2.2,2.3c-1.4,0.1-2.2-0.8-2.3-2.2
		C276.5,660.4,277.4,659.7,278.8,659.5z"/>
	<path class="st0" d="M388.5,658.6c0,1.5-0.8,2.3-2.1,2.5c-1.6,0.3-2.9-0.4-3.1-2.1c-0.2-1.4,0.8-2.2,2-2.4
		C386.9,656.3,388,657,388.5,658.6z"/>
	<path class="st0" d="M608.6,653.1c-0.2,1.6-1.1,2.8-2.7,2.9c-1.7,0-2.6-1.2-2.4-2.9c0.2-1.7,1.3-2.6,3-2.4
		C607.7,650.8,608.5,651.7,608.6,653.1z"/>
	<path class="st0" d="M284.2,651.1c-0.4,1.4-1.3,2.2-2.6,1.8c-1.6-0.5-2.3-1.7-2-3.3c0.2-1.3,1.3-2.1,2.6-1.7
		C283.7,648.3,284.4,649.5,284.2,651.1z"/>
	<path class="st0" d="M612,641.9c0,1.3-0.5,2.5-1.9,2.6c-1.6,0.1-2.7-0.9-2.9-2.5c-0.2-1.3,0.4-2.5,1.8-2.6
		C610.7,639.2,611.6,640.3,612,641.9z"/>
	<path class="st0" d="M287.2,638.6c-0.2,1.5-0.9,2.8-2.7,2.6c-1.3-0.2-2.1-1.2-2-2.5c0.1-1.6,0.8-2.8,2.6-2.6
		C286.5,636.2,287.1,637.3,287.2,638.6z"/>
	<path class="st0" d="M393,633.2c1.7,0.2,2.6,1,2.7,2.3c0.2,1.6-0.6,2.9-2.3,3.1c-1.7,0.2-2.8-0.7-2.8-2.5
		C390.7,634.4,391.8,633.6,393,633.2z"/>
	<path class="st0" d="M710.7,631.1c-0.2,1.6-0.9,2.8-2.7,2.6c-1.3-0.2-2.1-1.2-2-2.5c0.1-1.6,0.8-2.8,2.6-2.6
		C710,628.7,710.5,629.8,710.7,631.1z"/>
	<path class="st0" d="M400.3,610.4c1.6,0.2,2.8,1.1,2.8,2.7c0,1.7-1.2,2.6-2.9,2.4c-1.7-0.2-2.6-1.3-2.4-3
		C398,611.3,398.9,610.5,400.3,610.4z"/>
	<path class="st0" d="M589.4,860.8c0,1.5-0.8,2.3-2.2,2.3c-1.4,0.1-2.3-0.8-2.3-2.2c-0.1-1.4,0.8-2.3,2.2-2.3
		C588.4,858.5,589.2,859.4,589.4,860.8z"/>
	<path class="st0" d="M578.9,210.2c0,1.7-0.6,2.8-1.9,3.1c-2,0.3-3.3-0.7-3.4-2.7c-0.1-1.4,1-2.2,2.3-2.3
		C577.5,208.1,578.4,209.1,578.9,210.2z"/>
	<path class="st0" d="M615.6,630.1c-0.1,1.7-1.1,2.6-2.7,2.7c-1.3,0.1-2.4-0.6-2.5-2c-0.1-1.7,1.1-2.6,2.7-2.8
		C614.4,628,615.4,628.6,615.6,630.1z"/>
	<path class="st0" d="M290.1,627.7c-0.2,1.2-0.9,2.1-2.4,2c-1.4-0.1-2.2-1-2.1-2.4c0.1-1.4,0.9-2.2,2.4-2.2
		C289.3,625.2,290.1,626.1,290.1,627.7z"/>
	<path class="st0" d="M291.9,303.3c-1.2-0.2-1.9-0.9-1.9-2c0-1.8,1.1-2.7,2.9-2.4c1.1,0.2,1.7,1.1,1.5,2.2
		C294.1,302.5,293.3,303.3,291.9,303.3z"/>
	<path class="st0" d="M371.6,305c-1.5-0.1-2.3-0.9-2.3-2.3c0-1.1,0.6-2,1.7-2.1c1.8-0.1,2.8,0.9,2.7,2.7
		C373.6,304.4,372.7,304.9,371.6,305z"/>
	<path class="st0" d="M716.2,607.7c0.1,1.4-0.7,2.3-2,2.6c-1.3,0.3-2.5-0.1-2.8-1.5c-0.4-1.7,0.5-2.8,2.2-3
		C714.9,605.6,715.8,606.3,716.2,607.7z"/>
	<path class="st0" d="M619.3,604.8c1.5,0.2,2.3,1,2.4,2.3c0.1,1.7-0.8,2.8-2.6,2.7c-1.3,0-2.4-0.8-2.5-2.2
		C616.6,606,617.6,605,619.3,604.8z"/>
	<path class="st0" d="M401.5,601.4c1.3,0.3,2.2,1.1,2.1,2.5c-0.1,1.5-1.2,2.2-2.6,1.9c-1.4-0.3-2-1.4-1.8-2.8
		C399.5,601.8,400.3,601.3,401.5,601.4z"/>
	<path class="st0" d="M387.3,603.1c0.3-1.1,1-1.8,2.1-1.7c1.4,0.1,2.3,0.9,2.3,2.4c0,1.5-1,2.3-2.5,2
		C387.8,605.5,387.2,604.5,387.3,603.1z"/>
	<path class="st0" d="M707.4,642.7c-0.1,1.1-0.7,1.9-1.8,2c-1.8,0.1-2.8-1-2.6-2.8c0.1-1.1,1-1.7,2.1-1.6
		C706.5,640.4,707.3,641.3,707.4,642.7z"/>
	<path class="st0" d="M389.8,649.9c-1.4-0.2-2.4-0.9-2.5-2.3c-0.1-1.7,0.8-2.9,2.6-2.7c1.4,0.2,2,1.3,2,2.6
		C391.9,649,391.1,649.8,389.8,649.9z"/>
	<path class="st0" d="M379.8,604c-0.2,1.1-1,1.8-2,1.8c-1.8,0-2.7-1.2-2.3-2.9c0.2-1.1,1.1-1.6,2.2-1.4
		C379,601.7,379.8,602.6,379.8,604z"/>
	<path class="st0" d="M367.8,603.9c-0.2,1.1-0.8,1.9-1.9,1.9c-1.8,0.1-2.7-1-2.5-2.8c0.1-1.1,1.1-1.7,2.1-1.6
		C366.9,601.6,367.7,602.4,367.8,603.9z"/>
	<path class="st0" d="M704.4,654.5c-0.4,1.3-1.3,2.2-2.7,1.9c-1.5-0.3-1.9-1.5-1.5-2.8c0.4-1.4,1.6-1.9,2.9-1.4
		C704.1,652.5,704.6,653.3,704.4,654.5z"/>
	<path class="st0" d="M353.3,601.3c1.4,0.1,2.3,0.9,2.5,2.3c0.1,1.1-0.4,2-1.6,2.1c-1.8,0.2-2.9-0.7-2.8-2.5
		C351.4,602.1,352.2,601.5,353.3,601.3z"/>
	<path class="st0" d="M341.3,601.3c1.4,0.1,2.3,0.9,2.5,2.3c0.1,1.1-0.4,2-1.6,2.1c-1.8,0.2-2.9-0.7-2.8-2.5
		C339.5,602.1,340.2,601.5,341.3,601.3z"/>
	<path class="st0" d="M331.9,603.7c-0.1,1.1-0.6,1.9-1.7,2.1c-1.4,0.2-2.4-0.6-2.7-1.9c-0.2-1.4,0.5-2.4,2-2.4
		C330.9,601.4,331.7,602.3,331.9,603.7z"/>
	<path class="st0" d="M317.8,605.8c-1.5-0.1-2.3-0.9-2.3-2.3c0-1.1,0.6-2,1.7-2.1c1.8-0.1,2.8,0.9,2.7,2.7
		C319.8,605.1,318.9,605.7,317.8,605.8z"/>
	<path class="st0" d="M307.9,603.8c-0.1,1.1-0.7,1.9-1.8,2c-1.8,0.1-2.8-1-2.6-2.8c0.1-1.1,1-1.7,2.1-1.6
		C307,601.5,307.8,602.4,307.9,603.8z"/>
	<path class="st0" d="M278,673.7c-0.3,1.4-1.1,2.3-2.5,2.2c-1.5-0.1-2.2-1.2-1.9-2.6c0.3-1.4,1.4-2,2.8-1.8
		C277.5,671.7,278,672.6,278,673.7z"/>
	<path class="st0" d="M296.2,604.2c-0.4,1.6-1.1,2.6-2.6,2.3c-1.3-0.2-2.1-1.2-2.1-2.5c0-1.4,0.8-2.3,2.2-2.4
		C295.6,601.6,296.1,603,296.2,604.2z"/>
	<path class="st0" d="M695.2,674.9c1.6,0.5,2.3,1.7,2,3.3c-0.3,1.4-1.4,2-2.7,1.5c-1.3-0.4-1.9-1.5-1.7-2.8
		C692.8,675.6,693.7,674.8,695.2,674.9z"/>
	<path class="st0" d="M381,681.2c-0.1,1.4-0.9,2.2-2.2,2.4c-1.3,0.2-2.5-0.3-2.7-1.8c-0.2-1.7,0.9-2.7,2.5-2.8
		C380,679,380.8,679.9,381,681.2z"/>
	<path class="st0" d="M718.1,595.8c0,1.5-0.8,2.3-2.2,2.4c-1.1,0.1-2.1-0.4-2.2-1.6c-0.2-1.8,0.7-2.9,2.5-2.8
		C717.4,593.9,718,594.7,718.1,595.8z"/>
	<path class="st0" d="M593.5,684.8c1.7,0.1,2.7,0.8,2.6,2.2c0,1.4-0.8,2.3-2.2,2.4c-1.3,0.2-2.5-0.5-2.7-1.8
		C591,685.8,592.3,685.2,593.5,684.8z"/>
	<path class="st0" d="M720.6,570.1c1.6,0.5,2.3,1.7,2,3.3c-0.3,1.4-1.4,2-2.7,1.5c-1.3-0.4-1.9-1.5-1.7-2.8
		C718.3,570.8,719.1,570.1,720.6,570.1z"/>
	<path class="st0" d="M628.7,562.4c-1.4-0.3-2.2-1.1-2-2.6c0.2-1.4,1.2-2.1,2.7-1.7c1.3,0.4,2,1.5,1.7,2.9
		C630.7,562,629.8,562.4,628.7,562.4z"/>
	<path class="st0" d="M679.2,213c-0.2,1.1-0.7,1.9-1.8,2c-1.8,0-2.7-1.1-2.5-2.8c0.1-1.1,1.1-1.6,2.2-1.6
		C678.4,210.7,679.2,211.6,679.2,213z"/>
	<path class="st0" d="M570.8,197.5c1.7,0.3,2.4,1.4,2.2,3.1c-0.1,1-0.8,1.8-1.9,1.9c-1.7,0-2.7-1-2.7-2.7
		C568.4,198.4,569.3,197.6,570.8,197.5z"/>
	<path class="st0" d="M667.1,192.8c-1.4-0.1-2.4-0.8-2.3-2.3c0.1-1.3,1-2.2,2.3-2.3c1.3-0.1,2.4,0.6,2.6,2
		C669.9,192,668.7,192.7,667.1,192.8z"/>
	<path class="st0" d="M665,179.4c0,1.4-0.6,2.4-1.9,2.7c-1.7,0.4-2.9-0.3-3-2.1c-0.1-1.4,0.9-2.2,2.2-2.4
		C663.6,177.5,664.6,178,665,179.4z"/>
	<path class="st0" d="M581.4,219.5c1.4,0.4,2.2,1.2,2,2.6c-0.2,1.4-1.3,2.1-2.7,1.7c-1.3-0.4-2-1.5-1.6-2.9
		C579.4,219.8,580.3,219.4,581.4,219.5z"/>
	<path class="st0" d="M585.6,234.7c-1.1-0.1-2-0.5-2.1-1.6c-0.2-1.4,0.6-2.4,1.9-2.7c1.5-0.3,2.4,0.5,2.5,2
		C588,233.7,587,234.5,585.6,234.7z"/>
	<path class="st0" d="M688.1,234.9c-0.1,1.4-0.9,2.4-2.3,2.3c-1.8,0-2.5-1.3-2.4-2.9c0.1-1,0.7-1.9,1.8-2
		C687,232.2,688,233.2,688.1,234.9z"/>
	<path class="st0" d="M635.2,498.3c1.7,0.4,2.4,1.5,2.1,3.2c-0.3,1.4-1.3,2.1-2.7,1.7c-1.3-0.3-2-1.4-1.9-2.7
		C632.9,499.1,633.7,498.3,635.2,498.3z"/>
	<path class="st0" d="M659.7,169.2c-0.3,1.4-1,2.4-2.4,2.2c-1.7-0.2-2.4-1.5-2.1-3.2c0.2-1,0.9-1.8,2-1.8
		C658.9,166.4,659.6,167.5,659.7,169.2z"/>
	<path class="st0" d="M638.3,488.7c-0.2,1.6-1.1,2.7-2.9,2.6c-1.4-0.1-2.2-1.1-2.2-2.4c0-1.7,1-2.7,2.8-2.5
		C637.3,486.5,638.2,487.2,638.3,488.7z"/>
	<path class="st0" d="M692.2,245.9c-0.3,1.7-1.4,2.4-3.1,2.2c-1-0.1-1.8-0.8-1.9-1.9c-0.1-1.8,1-2.7,2.7-2.7
		C691.3,243.6,692.1,244.5,692.2,245.9z"/>
	<path class="st0" d="M366.4,727.5c-0.3,1.3-1.1,2.3-2.5,2c-1.7-0.3-2.3-1.6-2-3.3c0.2-1,1-1.7,2-1.7
		C365.7,724.7,366.4,725.8,366.4,727.5z"/>
	<path class="st0" d="M731.1,468.5c0.1,1.4-0.7,2.3-2,2.6c-1.3,0.3-2.5-0.1-2.8-1.5c-0.4-1.7,0.6-2.8,2.3-3
		C729.9,466.4,730.8,467.2,731.1,468.5z"/>
	<path class="st0" d="M597.6,254.9c-0.4,1.5-1.5,2.4-3.2,2c-1.3-0.3-2-1.4-1.7-2.7c0.3-1.4,1.5-1.9,2.8-1.8
		C596.9,252.6,597.7,253.4,597.6,254.9z"/>
	<path class="st0" d="M676.1,733.7c-0.5,1.4-1.4,2.2-2.7,1.8c-1.7-0.5-2.1-1.9-1.7-3.5c0.3-1,1.1-1.6,2.2-1.4
		C675.6,730.9,676.3,732,676.1,733.7z"/>
	<path class="st0" d="M599.4,263.4c1.6,0.5,2.3,1.7,2,3.3c-0.3,1.4-1.4,2-2.7,1.5c-1.3-0.4-1.9-1.5-1.7-2.8
		C597.1,264.1,597.9,263.3,599.4,263.4z"/>
	<path class="st0" d="M569,739c1.4,0.3,2.3,1.1,2.2,2.5c-0.1,1.5-1.2,2.2-2.6,1.9c-1.4-0.3-2-1.4-1.8-2.8
		C567.1,739.5,567.9,739,569,739z"/>
	<path class="st0" d="M729.9,433.5c-0.3,1.2-1.1,1.8-2.2,1.7c-1.8-0.1-2.6-1.3-2.1-3.1c0.3-1.1,1.2-1.6,2.3-1.3
		C729.2,431.2,729.9,432.1,729.9,433.5z"/>
	<path class="st0" d="M671.5,743.8c-0.1,1.4-0.9,2.3-2.3,2.5c-1.1,0.1-2-0.5-2.1-1.6c-0.2-1.8,0.7-2.9,2.5-2.8
		C670.7,741.9,671.4,742.6,671.5,743.8z"/>
	<path class="st0" d="M327.9,430.7c-1.4-0.3-2.2-1.1-2-2.6c0.2-1.4,1.2-2.1,2.7-1.7c1.3,0.4,2,1.5,1.7,2.9
		C330,430.4,329,430.7,327.9,430.7z"/>
	<path class="st0" d="M563,754.7c-1.5-0.4-2.4-1.5-2-3.2c0.3-1.3,1.4-2,2.7-1.7c1.4,0.3,1.9,1.5,1.8,2.8
		C565.4,754,564.6,754.8,563,754.7z"/>
	<path class="st0" d="M315.9,424.8c1.4,0.1,2.3,0.9,2.5,2.3c0.1,1.1-0.4,2-1.6,2.1c-1.8,0.2-2.9-0.6-2.8-2.5
		C314,425.5,314.8,424.9,315.9,424.8z"/>
	<path class="st0" d="M304.1,426.2c-1-0.1-1.9-0.7-1.9-1.8c0-1.8,1-2.8,2.8-2.6c1.1,0.1,1.7,1.1,1.6,2.1
		C306.5,425.4,305.6,426.2,304.1,426.2z"/>
	<path class="st0" d="M355.5,761.1c-0.2,1.6-1.1,2.7-2.9,2.6c-1.4-0.1-2.2-1.1-2.2-2.5c0-1.7,1-2.7,2.8-2.5
		C354.5,758.8,355.4,759.6,355.5,761.1z"/>
	<path class="st0" d="M603.1,279.3c-1.2-0.2-1.9-0.9-1.9-2c0-1.8,1.1-2.7,2.9-2.4c1.1,0.2,1.7,1.1,1.5,2.2
		C605.4,278.6,604.5,279.3,603.1,279.3z"/>
	<path class="st0" d="M725.7,522.5c1.4,0,2.4,0.6,2.7,1.9c0.4,1.7-0.4,2.9-2.1,3c-1.4,0.1-2.2-0.9-2.4-2.2
		C723.8,523.9,724.3,522.9,725.7,522.5z"/>
	<path class="st0" d="M373.1,417c-1.1,0.1-2-0.4-2.2-1.5c-0.3-1.4,0.3-2.5,1.7-2.8c1.4-0.3,2.5,0.3,2.6,1.8
		C375.3,415.9,374.4,416.7,373.1,417z"/>
	<path class="st0" d="M384.4,406.9c-0.1,1.4-0.9,2.4-2.3,2.3c-1.8,0-2.5-1.3-2.4-2.9c0.1-1,0.7-1.9,1.8-2
		C383.3,404.3,384.2,405.3,384.4,406.9z"/>
	<path class="st0" d="M648.6,147.6c-0.1,1.8-1.1,2.7-2.9,2.6c-1.4-0.1-2.3-1-2.2-2.4c0-1.3,0.7-2.4,2.1-2.6
		C647.3,145,648.2,146,648.6,147.6z"/>
	<path class="st0" d="M724.2,394.8c1.4,0,2.3,0.8,2.6,2.1c0.2,1.1-0.3,2-1.4,2.2c-1.8,0.3-2.9-0.5-2.9-2.3
		C722.5,395.7,723.1,395,724.2,394.8z"/>
	<path class="st0" d="M316.6,292.3c-0.2,1.4-1,2.2-2.4,2.3c-1.3,0.1-2.5-0.5-2.6-1.9c-0.1-1.7,1-2.7,2.7-2.7
		C315.8,290,316.5,290.9,316.6,292.3z"/>
	<path class="st0" d="M397.8,388c-0.5,1.4-1.4,2.2-2.7,1.8c-1.7-0.5-2.1-1.9-1.7-3.5c0.3-1,1.1-1.6,2.2-1.4
		C397.2,385.2,398,386.3,397.8,388z"/>
	<path class="st0" d="M545.2,785.4c-1.1,0-2-0.5-2.1-1.6c-0.2-1.4,0.6-2.4,1.9-2.7c1.5-0.3,2.4,0.5,2.5,2
		C547.6,784.4,546.6,785.2,545.2,785.4z"/>
	<path class="st0" d="M725.7,385.8c-0.1,1.5-0.9,2.4-2.3,2.3c-1.3-0.1-2.2-1-2.3-2.3c-0.1-1.3,0.6-2.4,2-2.6
		C724.8,383,725.5,384.2,725.7,385.8z"/>
	<path class="st0" d="M523.4,116.4c1.3,0,2.5,0.5,2.6,1.9c0.2,1.8-1,2.7-2.6,2.7c-1.4,0-2.3-0.8-2.3-2.2
		C521.2,117.4,522.1,116.6,523.4,116.4z"/>
	<path class="st0" d="M262.7,381.6c1.6,0.5,2.3,1.7,2,3.3c-0.3,1.4-1.4,2-2.7,1.5c-1.3-0.4-1.9-1.5-1.7-2.8
		C260.4,382.3,261.2,381.5,262.7,381.6z"/>
	<path class="st0" d="M341.7,798.1c-1.6-0.4-2.5-1.4-2.2-3.1c0.3-1.3,1.3-2.1,2.6-1.8c1.3,0.3,1.9,1.4,1.9,2.7
		C344,797.3,343.2,798,341.7,798.1z"/>
	<path class="st0" d="M399,378.4c-1.4-0.3-2.2-1.1-2-2.5c0.3-1.3,1.2-2.1,2.6-2.1c1.4,0,2.3,0.8,2.3,2.2
		C401.9,377.8,400.6,378.4,399,378.4z"/>
	<path class="st0" d="M241.9,803.3c-1.4-0.2-2.3-0.9-2.3-2.3c0.1-1.4,1-2.2,2.3-2.3c1.3-0.1,2.5,0.5,2.6,1.9
		C244.6,802.3,243.5,803.1,241.9,803.3z"/>
	<path class="st0" d="M627.8,367.7c1.4,0.4,2.1,1.3,1.7,2.7c-0.4,1.3-1.5,2-2.9,1.7c-1.1-0.3-1.6-1.2-1.4-2.3
		C625.4,368.3,626.3,367.6,627.8,367.7z"/>
	<path class="st0" d="M403.7,364.4c-0.2,1.1-0.8,1.9-1.9,1.9c-1.8,0.1-2.7-1-2.5-2.8c0.1-1.1,1.1-1.7,2.1-1.6
		C402.8,362.1,403.6,363,403.7,364.4z"/>
	<path class="st0" d="M636.4,810.4c-1.7-0.3-2.4-1.4-2.2-3.1c0.1-1,0.8-1.8,1.9-1.9c1.8-0.1,2.7,1,2.7,2.7
		C638.7,809.5,637.8,810.2,636.4,810.4z"/>
	<path class="st0" d="M403.7,352.4c-0.1,1.1-0.7,1.9-1.8,2c-1.8,0.1-2.8-1-2.6-2.8c0.1-1.1,1-1.7,2.1-1.6
		C402.8,350.1,403.6,351,403.7,352.4z"/>
	<path class="st0" d="M525.7,810.9c1.3,0.3,2.3,1.1,2.2,2.5c-0.1,1.5-1.2,2.2-2.6,1.9c-1.4-0.3-2-1.4-1.8-2.8
		C523.7,811.3,524.5,810.8,525.7,810.9z"/>
	<path class="st0" d="M363.3,297.2c-0.2,1.1-1,1.8-2,1.8c-1.8,0-2.7-1.2-2.3-2.9c0.2-1.1,1.2-1.6,2.2-1.4
		C362.6,294.9,363.3,295.8,363.3,297.2z"/>
	<path class="st0" d="M632.8,818.5c-0.1,1.4-0.9,2.4-2.3,2.3c-1.8,0-2.5-1.3-2.4-2.9c0.1-1,0.7-1.9,1.8-2
		C631.7,815.8,632.6,816.8,632.8,818.5z"/>
	<path class="st0" d="M529.4,822c-0.5,1.4-1.4,2.2-2.7,1.8c-1.7-0.5-2.1-1.9-1.7-3.5c0.3-1,1.1-1.6,2.2-1.4
		C528.9,819.2,529.7,820.3,529.4,822z"/>
	<path class="st0" d="M235.3,821.5c1.5,0,2.2,0.8,2.5,2.1c0.2,1.3-0.2,2.5-1.6,2.8c-1.7,0.3-2.8-0.7-2.9-2.4
		C233.1,822.7,233.9,821.8,235.3,821.5z"/>
	<path class="st0" d="M261.5,349.1c-0.4,1.3-1.2,2.3-2.6,2c-1.5-0.2-2-1.3-1.7-2.7c0.4-1.4,1.5-1.9,2.9-1.6
		C261.1,347.1,261.6,348,261.5,349.1z"/>
	<path class="st0" d="M622.7,348.4c-1.4-0.3-2.2-1.1-2-2.6c0.2-1.4,1.3-2.1,2.7-1.7c1.3,0.4,2,1.5,1.7,2.9
		C624.7,348,623.8,348.4,622.7,348.4z"/>
	<path class="st0" d="M260,336.7c0.3-1.1,1-1.8,2.1-1.7c1.8,0.2,2.7,1.3,2.2,3.1c-0.3,1.1-1.2,1.5-2.3,1.3
		C260.6,339.1,260,338.1,260,336.7z"/>
	<path class="st0" d="M549.1,834.4c0,1.3-0.5,2.5-2,2.5c-1.8,0.1-2.7-1.1-2.6-2.7c0-1.4,0.9-2.3,2.3-2.2
		C548.2,832.1,548.9,833.1,549.1,834.4z"/>
	<path class="st0" d="M621.7,108.9c-1.3-0.3-2.3-1.1-2-2.5c0.3-1.7,1.6-2.3,3.3-2c1,0.2,1.7,1,1.7,2
		C624.5,108.2,623.4,108.9,621.7,108.9z"/>
	<path class="st0" d="M617.7,334.6c0.1-1.4,0.9-2.4,2.3-2.3c1.8,0,2.5,1.3,2.4,2.9c-0.1,1-0.7,1.9-1.8,2
		C618.8,337.2,617.9,336.3,617.7,334.6z"/>
	<path class="st0" d="M543.9,108.2c-1.7-0.3-2.7-1.3-2.4-3c0.2-1.3,1.1-2.2,2.5-2c1.4,0.2,2,1.3,2,2.6
		C546.1,107.3,545.3,108.1,543.9,108.2z"/>
	<path class="st0" d="M554.2,96.8c1.1,0.1,2,0.6,2.1,1.7c0.1,1.8-0.9,2.8-2.7,2.7c-1.1-0.1-1.7-1-1.7-2.1
		C551.9,97.7,552.7,97,554.2,96.8z"/>
	<path class="st0" d="M613.2,95.8c0.3-1.1,1-1.8,2.1-1.7c1.4,0.1,2.3,0.9,2.3,2.4c0,1.5-1,2.3-2.5,2
		C613.7,98.2,613.1,97.2,613.2,95.8z"/>
	<path class="st0" d="M563.8,90c1.5,0.1,2.3,0.9,2.5,2.3c0.2,1.7-0.7,2.8-2.5,2.8c-1.3,0-2.4-0.8-2.5-2.2
		C561.2,91.3,562.2,90.3,563.8,90z"/>
	<path class="st0" d="M270,326.2c0,1.4-0.8,2.3-2.1,2.6c-1.7,0.3-2.9-0.4-2.9-2.3c0-1.4,1-2.1,2.4-2.2
		C268.7,324.2,269.7,324.8,270,326.2z"/>
	<path class="st0" d="M576,86c-0.4,1.4-1.2,2.2-2.6,2c-1.4-0.2-2.1-1.3-1.7-2.7c0.4-1.3,1.5-2,2.9-1.6C575.6,84,576,84.9,576,86z"/>
	<path class="st0" d="M584,81.8c-1.1,0.1-2-0.4-2.2-1.5c-0.3-1.4,0.3-2.5,1.7-2.8c1.4-0.3,2.5,0.3,2.6,1.8
		C586.3,80.6,585.4,81.4,584,81.8z"/>
	<path class="st0" d="M610.3,297.4c1.7,0.2,2.7,0.9,2.6,2.3c0,1.8-1.3,2.5-2.9,2.4c-1-0.1-1.9-0.7-2-1.8
		C607.9,298.5,609,297.7,610.3,297.4z"/>
	<path class="st0" d="M559.3,841.4c-0.4,1.3-1.2,2.2-2.7,2c-1.5-0.2-2-1.4-1.7-2.7c0.4-1.4,1.5-1.9,2.9-1.6
		C558.9,839.4,559.4,840.3,559.3,841.4z"/>
	<path class="st0" d="M616.3,311.6c-0.1,1.1-0.6,2-1.7,2.1c-1.8,0.1-2.8-0.9-2.7-2.7c0.1-1.1,1-1.7,2.1-1.7
		C615.5,309.3,616.2,310.2,616.3,311.6z"/>
	<path class="st0" d="M611.2,846.5c1.1,0.2,1.9,0.7,2,1.8c0,1.8-1,2.7-2.8,2.5c-1.1-0.1-1.6-1.1-1.6-2.2
		C608.8,847.3,609.7,846.6,611.2,846.5z"/>
	<path class="st0" d="M381.2,308c1.4,0.4,2,1.4,1.7,2.8c-0.4,1.4-1.5,1.9-2.9,1.6c-1.1-0.3-1.6-1.2-1.4-2.3
		C378.8,308.8,379.7,308,381.2,308z"/>
	<path class="st0" d="M634.4,536.8c-0.1,1.4-0.8,2.4-2.2,2.3c-1.4,0-2.3-0.8-2.4-2.2c-0.1-1.3,0.5-2.5,1.8-2.7
		C633.4,534,634.2,535.2,634.4,536.8z"/>
	<path class="st0" d="M713.5,619.3c0,1.4-0.6,2.3-2,2.5c-1.4,0.2-2.2-0.8-2.3-2.1c-0.1-1.1,0.5-1.8,1.6-2
		C712.1,617.4,713.1,617.9,713.5,619.3z"/>
	<path class="st0" d="M296,418.9c0,1.4-0.7,2.3-2.1,2.3c-1.4,0-2.2-0.8-2.2-2.2c0-1.1,0.7-1.8,1.7-2
		C294.7,416.9,295.7,417.5,296,418.9z"/>
</g>
</svg>
