<?xml version="1.0" encoding="utf-8"?>
<!-- Generator: Adobe Illustrator 27.3.1, SVG Export Plug-In . SVG Version: 6.00 Build 0)  -->
<svg version="1.1" id="Layer_1" xmlns="http://www.w3.org/2000/svg" xmlns:xlink="http://www.w3.org/1999/xlink" x="0px" y="0px"
	 viewBox="0 0 1000 1000" style="enable-background:new 0 0 1000 1000;" xml:space="preserve">
<style type="text/css">
	.st0{fill:#FFFFFF;stroke:#FFFFFF;stroke-width:16;stroke-miterlimit:10;}
</style>
<rect width="1000" height="1000"/>
<g>
	<path class="st0" d="M570.4,847.4c2,0.1,3.1,0.9,3.4,2.6c0.2,1.7-0.6,2.9-2.3,3.1c-1.7,0.1-2.8-0.8-3-2.5
		C568.1,848.8,569,847.8,570.4,847.4z"/>
	<path class="st0" d="M632.7,408.2c-2.1-0.3-3-1.4-3-3c0-1.7,1-2.8,2.7-2.7c1.6,0.1,2.6,1.3,2.7,2.9
		C635.2,407.2,633.9,407.9,632.7,408.2z"/>
	<path class="st0" d="M637.3,513.2c-0.3,1.7-1.2,2.7-3,2.3c-1.6-0.3-2.6-1.5-2.4-3.1c0.2-1.7,1.3-2.6,3-2.4
		C636.6,510.3,637.3,511.5,637.3,513.2z"/>
	<path class="st0" d="M360.1,741.3c-1.8-0.2-2.7-1.2-2.6-2.9s1.4-2.6,3-2.6c1.7,0,2.8,1.1,2.6,2.8
		C362.9,740.3,361.7,741.2,360.1,741.3z"/>
	<path class="st0" d="M653.7,779.3c-1.7,0-2.9-0.8-3-2.6c-0.1-1.7,1-2.8,2.7-2.8c1.4,0,2.4,0.9,2.6,2.2
		C656.3,777.8,655.5,778.9,653.7,779.3z"/>
	<path class="st0" d="M654.5,158.4c-0.4,1.7-1.4,2.7-3.1,2.5c-1.8-0.2-2.5-1.5-2.2-3.2c0.2-1.3,1.1-2.3,2.5-2.2
		C653.4,155.7,654.4,156.7,654.5,158.4z"/>
	<path class="st0" d="M231.2,841.3c-2.2-0.4-2.9-1.6-2.6-3.3c0.2-1.4,1-2.3,2.5-2.2c1.7,0.1,2.9,1.1,2.8,2.8
		C233.8,840.4,232.4,841,231.2,841.3z"/>
	<path class="st0" d="M371.3,707.3c-1.9-0.6-3.1-1.5-2.6-3.3c0.4-1.6,1.7-2.5,3.3-2.1c1.4,0.3,2,1.4,1.9,2.8
		C373.8,706.4,372.7,707.1,371.3,707.3z"/>
	<path class="st0" d="M266.9,840.9c-0.4,1.7-1.5,2.6-3.2,2.4c-1.8-0.3-2.4-1.6-2.1-3.3c0.3-1.3,1.2-2.2,2.6-2.1
		C265.9,838.2,266.9,839.1,266.9,840.9z"/>
	<path class="st0" d="M619,618.4c-0.1,1.7-0.8,2.9-2.6,3c-1.7,0.1-2.7-1.1-2.8-2.8c-0.1-1.4,0.9-2.3,2.2-2.5
		C617.5,615.9,618.7,616.6,619,618.4z"/>
	<path class="st0" d="M727.8,536.8c-0.2,1.8-1.2,2.8-2.9,2.8c-1.9,0-2.6-1.3-2.5-3c0.1-1.4,0.9-2.4,2.3-2.4
		C726.5,534.1,727.6,535,727.8,536.8z"/>
	<path class="st0" d="M298.9,840.4c-0.1,1.8-1.1,2.8-2.7,2.9c-1.4,0.1-2.3-0.8-2.6-2.1c-0.3-1.7,0.4-3,2.1-3.2
		C297.4,837.8,298.5,838.7,298.9,840.4z"/>
	<path class="st0" d="M638.8,476.8c0,1.7-0.7,3-2.6,2.9c-1.7-0.1-2.8-1.1-2.8-2.8c0-1.4,1-2.3,2.3-2.5
		C637.5,474,638.5,475,638.8,476.8z"/>
	<path class="st0" d="M284.1,415.1c-1.7,0-2.9-0.9-2.9-2.6s1.1-2.7,2.8-2.8c1.4,0,2.3,0.9,2.5,2.3
		C286.7,413.7,285.8,414.8,284.1,415.1z"/>
	<path class="st0" d="M707,291.5c-0.1,1.7-1,2.9-2.7,2.9s-2.7-1.2-2.7-2.9c0-1.4,1-2.3,2.3-2.4C705.7,288.9,706.7,289.8,707,291.5z"
		/>
	<path class="st0" d="M327.6,843.3c-2.1,0.1-3.1-0.9-3.2-2.6c-0.1-1.3,0.6-2.5,2-2.7c1.7-0.3,3,0.6,3.3,2.2
		C330.1,842,328.8,842.8,327.6,843.3z"/>
	<path class="st0" d="M596.7,870c-1.9-0.6-2.7-1.7-2.3-3.4c0.4-1.6,1.7-2.4,3.3-1.9c1.3,0.3,1.9,1.4,1.7,2.8
		C599.2,869.1,598.1,869.8,596.7,870z"/>
	<path class="st0" d="M596.6,72.8c-0.4,1.5-1.3,2.6-3,2.5c-1.7-0.2-2.5-1.4-2.1-3.1c0.4-1.6,1.5-2.5,3.2-2.1
		C596,70.4,596.6,71.4,596.6,72.8z"/>
	<path class="st0" d="M274.1,318.6c-1.5,0-2.8-0.5-2.7-2.4c0-1.3,0.9-2.2,2.2-2.3c1.6-0.1,2.8,0.7,2.9,2.4
		C276.5,317.8,275.5,318.5,274.1,318.6z"/>
	<path class="st0" d="M715.1,326.3c0.1,1.5-0.7,2.4-2,2.6c-1.4,0.2-2.3-0.6-2.5-2s0.7-2.3,2-2.5C714,324.1,714.7,325,715.1,326.3z"
		/>
	<path class="st0" d="M619.5,838.7c0,1.5-0.5,2.8-2.4,2.8c-1.3,0-2.2-0.9-2.3-2.2c-0.1-1.6,0.7-2.8,2.4-2.9
		C618.7,836.3,619.4,837.2,619.5,838.7z"/>
	<path class="st0" d="M403,344.2c-0.1,1.6-0.8,2.8-2.5,3c-1.7,0.1-2.7-1-2.7-2.6c0-1.7,1.1-2.6,2.8-2.6
		C402,341.9,402.8,342.8,403,344.2z"/>
	<path class="st0" d="M305.1,296.3c-0.3,1.3-1,2.2-2.5,1.9c-1.6-0.4-2.4-1.6-2.2-3.2c0.2-1.3,1.1-2.2,2.5-1.9
		C304.5,293.5,305.2,294.7,305.1,296.3z"/>
	<path class="st0" d="M719.9,364.5c-1.6-0.2-2.8-1.1-2.8-2.7c0-1.7,1.3-2.6,2.9-2.4c1.6,0.2,2.6,1.3,2.3,3
		C722.3,363.7,721.4,364.5,719.9,364.5z"/>
	<path class="st0" d="M340.8,806.7c-0.1,1.7-1.2,2.5-2.8,2.6c-1.4,0.1-2.3-0.7-2.3-2.1c0-1.7,1.2-2.6,2.8-2.7
		C339.8,804.5,340.6,805.3,340.8,806.7z"/>
	<path class="st0" d="M362,300.9c-1.4,0-2.5-0.6-2.7-1.9c-0.3-2,0.8-3.3,2.8-3.4c1.4-0.1,2.2,1,2.3,2.3
		C364.4,299.6,363.6,300.6,362,300.9z"/>
	<path class="st0" d="M637.2,126.4c0,1.7-0.6,2.8-1.9,3.1c-2,0.3-3.3-0.7-3.4-2.7c-0.1-1.4,1-2.2,2.3-2.3
		C635.9,124.3,636.8,125.3,637.2,126.4z"/>
	<path class="st0" d="M539,140.8c0.1,1.4-0.7,2.3-2,2.5c-1.4,0.2-2.3-0.6-2.5-2s0.7-2.3,2-2.5C537.9,138.6,538.7,139.5,539,140.8z"
		/>
	<path class="st0" d="M334.6,291.1c-0.6,1.6-1.7,2.2-3.3,1.8c-1.3-0.3-2.2-1.2-1.9-2.6c0.4-1.6,1.7-2.3,3.3-1.9
		C333.9,288.8,334.7,289.7,334.6,291.1z"/>
	<path class="st0" d="M351.5,772.3c0.1,1.4-0.7,2.3-2,2.5c-1.4,0.2-2.3-0.6-2.5-2s0.6-2.3,2-2.5C350.3,770.1,351.1,771,351.5,772.3z
		"/>
	<path class="st0" d="M253.6,765.8c0,1.7-0.7,2.8-2.4,3c-1.3,0.1-2.4-0.5-2.7-1.9c-0.3-2,0.7-3.3,2.7-3.4
		C252.6,763.4,253.3,764.5,253.6,765.8z"/>
	<path class="st0" d="M354,425.3c-0.1,1.4-0.9,2.2-2.2,2.3c-1.6,0.1-2.9-0.5-3-2.3c-0.1-1.4,0.9-2.2,2.2-2.3
		C352.7,422.9,353.8,423.6,354,425.3z"/>
	<path class="st0" d="M638,440.5c0,1.7-0.7,2.6-1.9,2.9c-1.7,0.4-2.9-0.4-3.3-2c-0.4-1.7,0.4-2.9,2.2-3
		C636.7,438.2,637.6,439.3,638,440.5z"/>
	<path class="st0" d="M553.6,165.7c1.3,0.1,2.4,0.7,2.5,2.1c0.2,2-0.9,3.3-2.9,3.2c-1.3,0-2.2-1.1-2.2-2.4
		C551,166.9,551.9,166,553.6,165.7z"/>
	<path class="st0" d="M696.4,257.9c-0.4,1.4-1.3,2.2-2.7,2.1c-1.8-0.2-2.7-1.3-2.3-3.1c0.3-1.5,1.6-1.8,2.9-1.6
		C695.7,255.6,696.5,256.4,696.4,257.9z"/>
	<path class="st0" d="M260.6,734c-1.6-0.1-2.7-0.9-2.9-2.6c-0.2-1.3,0.4-2.4,1.8-2.7c2-0.3,3.3,0.7,3.3,2.7
		C262.8,732.8,262,733.7,260.6,734z"/>
	<path class="st0" d="M581.9,720.5c-0.3,1.3-1.1,2.2-2.6,2c-1.3-0.2-2.2-1.1-2-2.6c0.2-1.3,1.1-2.2,2.6-2
		C581.2,718.1,582,719,581.9,720.5z"/>
	<path class="st0" d="M730.1,501.9c-0.4,1.4-1.2,2.2-2.6,1.8c-1.6-0.4-2.4-1.6-2.1-3.2c0.2-1.3,1.2-2.2,2.5-1.8
		C729.6,499.1,730.3,500.3,730.1,501.9z"/>
	<path class="st0" d="M682.6,713.4c-1.2-0.2-2.1-0.9-2-2.4c0.1-1.4,1-2.2,2.4-2.2c1.4,0.1,2.3,0.9,2.2,2.4
		C685,712.7,684.2,713.5,682.6,713.4z"/>
	<path class="st0" d="M681.4,225.7c-1.5,0-2.3-0.8-2.3-2.2c-0.1-1.4,0.8-2.3,2.2-2.3c1.4-0.1,2.3,0.8,2.3,2.2
		C683.7,224.7,682.8,225.4,681.4,225.7z"/>
	<path class="st0" d="M630.4,551.1c-1.5-0.4-2.4-1.4-2.3-3.1c0.1-1.3,0.9-2.3,2.4-2c1.6,0.3,2.5,1.4,2.3,3.1
		C632.7,550.5,631.9,551.2,630.4,551.1z"/>
	<path class="st0" d="M269.2,698.8c-1.4-0.2-2.4-0.9-2.3-2.4c0.1-1.4,1-2.4,2.4-2.3c1.7,0,2.9,1.1,2.7,2.8
		C271.8,698.3,270.6,698.8,269.2,698.8z"/>
	<path class="st0" d="M626.8,584.3c-0.4,1.3-1.2,2.2-2.6,2c-1.3-0.2-2.2-1.1-2-2.5c0.2-1.3,1.1-2.2,2.6-1.9
		C626.1,582,626.9,582.9,626.8,584.3z"/>
	<path class="st0" d="M384.4,669.8c0,1.5-0.5,2.8-2.4,2.8c-1.4,0-2.2-0.9-2.3-2.3c-0.1-1.6,0.5-2.9,2.3-2.9
		C383.5,667.4,384.2,668.4,384.4,669.8z"/>
	<path class="st0" d="M278.8,659.5c1.4,0,2.3,0.8,2.3,2.2c0.1,1.4-0.8,2.3-2.2,2.3c-1.4,0.1-2.2-0.8-2.3-2.2
		C276.5,660.4,277.4,659.7,278.8,659.5z"/>
	<path class="st0" d="M608.6,653.1c-0.2,1.6-1.1,2.8-2.7,2.9c-1.7,0-2.6-1.2-2.4-2.9c0.2-1.7,1.3-2.6,3-2.4
		C607.7,650.8,608.5,651.7,608.6,653.1z"/>
	<path class="st0" d="M288.2,631.6c-0.2,1.5-0.9,2.8-2.7,2.6c-1.3-0.2-2.1-1.2-2-2.5c0.1-1.6,0.8-2.8,2.6-2.6
		C287.5,629.2,288.1,630.3,288.2,631.6z"/>
	<path class="st0" d="M393,633.2c1.7,0.2,2.6,1,2.7,2.3c0.2,1.6-0.6,2.9-2.3,3.1c-1.7,0.2-2.8-0.7-2.8-2.5
		C390.7,634.4,391.8,633.6,393,633.2z"/>
	<path class="st0" d="M716.2,607.7c0.1,1.4-0.7,2.3-2,2.6s-2.5-0.1-2.8-1.5c-0.4-1.7,0.5-2.8,2.2-3
		C714.9,605.6,715.8,606.3,716.2,607.7z"/>
	<path class="st0" d="M401.5,601.4c1.3,0.3,2.2,1.1,2.1,2.5c-0.1,1.5-1.2,2.2-2.6,1.9s-2-1.4-1.8-2.8
		C399.5,601.8,400.3,601.3,401.5,601.4z"/>
	<path class="st0" d="M707.4,642.7c-0.1,1.1-0.7,1.9-1.8,2c-1.8,0.1-2.8-1-2.6-2.8c0.1-1.1,1-1.7,2.1-1.6
		C706.5,640.4,707.3,641.3,707.4,642.7z"/>
	<path class="st0" d="M367.8,603.9c-0.2,1.1-0.8,1.9-1.9,1.9c-1.8,0.1-2.7-1-2.5-2.8c0.1-1.1,1.1-1.7,2.1-1.6
		C366.9,601.6,367.7,602.4,367.8,603.9z"/>
	<path class="st0" d="M331.9,603.7c-0.1,1.1-0.6,1.9-1.7,2.1c-1.4,0.2-2.4-0.6-2.7-1.9c-0.2-1.4,0.5-2.4,2-2.4
		C330.9,601.4,331.7,602.3,331.9,603.7z"/>
	<path class="st0" d="M296.2,604.2c-0.4,1.6-1.1,2.6-2.6,2.3c-1.3-0.2-2.1-1.2-2.1-2.5c0-1.4,0.8-2.3,2.2-2.4
		C295.6,601.6,296.1,603,296.2,604.2z"/>
	<path class="st0" d="M695.2,674.9c1.6,0.5,2.3,1.7,2,3.3c-0.3,1.4-1.4,2-2.7,1.5c-1.3-0.4-1.9-1.5-1.7-2.8
		C692.8,675.6,693.7,674.8,695.2,674.9z"/>
	<path class="st0" d="M593.5,684.8c1.7,0.1,2.7,0.8,2.6,2.2c0,1.4-0.8,2.3-2.2,2.4c-1.3,0.2-2.5-0.5-2.7-1.8
		C591,685.8,592.3,685.2,593.5,684.8z"/>
	<path class="st0" d="M720.6,570.1c1.6,0.5,2.3,1.7,2,3.3c-0.3,1.4-1.4,2-2.7,1.5c-1.3-0.4-1.9-1.5-1.7-2.8
		C718.3,570.8,719.1,570.1,720.6,570.1z"/>
	<path class="st0" d="M570.8,197.5c1.7,0.3,2.4,1.4,2.2,3.1c-0.1,1-0.8,1.8-1.9,1.9c-1.7,0-2.7-1-2.7-2.7
		C568.4,198.4,569.3,197.6,570.8,197.5z"/>
	<path class="st0" d="M667.1,192.8c-1.4-0.1-2.4-0.8-2.3-2.3c0.1-1.3,1-2.2,2.3-2.3s2.4,0.6,2.6,2
		C669.9,192,668.7,192.7,667.1,192.8z"/>
	<path class="st0" d="M585.6,234.7c-1.1-0.1-2-0.5-2.1-1.6c-0.2-1.4,0.6-2.4,1.9-2.7c1.5-0.3,2.4,0.5,2.5,2
		C588,233.7,587,234.5,585.6,234.7z"/>
	<path class="st0" d="M731.1,468.5c0.1,1.4-0.7,2.3-2,2.6c-1.3,0.3-2.5-0.1-2.8-1.5c-0.4-1.7,0.6-2.8,2.3-3
		C729.9,466.4,730.8,467.2,731.1,468.5z"/>
	<path class="st0" d="M599.4,263.4c1.6,0.5,2.3,1.7,2,3.3c-0.3,1.4-1.4,2-2.7,1.5c-1.3-0.4-1.9-1.5-1.7-2.8
		C597.1,264.1,597.9,263.3,599.4,263.4z"/>
	<path class="st0" d="M729.9,433.5c-0.3,1.2-1.1,1.8-2.2,1.7c-1.8-0.1-2.6-1.3-2.1-3.1c0.3-1.1,1.2-1.6,2.3-1.3
		C729.2,431.2,729.9,432.1,729.9,433.5z"/>
	<path class="st0" d="M671.5,743.8c-0.1,1.4-0.9,2.3-2.3,2.5c-1.1,0.1-2-0.5-2.1-1.6c-0.2-1.8,0.7-2.9,2.5-2.8
		C670.7,741.9,671.4,742.6,671.5,743.8z"/>
	<path class="st0" d="M563,754.7c-1.5-0.4-2.4-1.5-2-3.2c0.3-1.3,1.4-2,2.7-1.7c1.4,0.3,1.9,1.5,1.8,2.8
		C565.4,754,564.6,754.8,563,754.7z"/>
	<path class="st0" d="M315.9,424.8c1.4,0.1,2.3,0.9,2.5,2.3c0.1,1.1-0.4,2-1.6,2.1c-1.8,0.2-2.9-0.6-2.8-2.5
		C314,425.5,314.8,424.9,315.9,424.8z"/>
	<path class="st0" d="M384.4,406.9c-0.1,1.4-0.9,2.4-2.3,2.3c-1.8,0-2.5-1.3-2.4-2.9c0.1-1,0.7-1.9,1.8-2
		C383.3,404.3,384.2,405.3,384.4,406.9z"/>
	<path class="st0" d="M724.2,394.8c1.4,0,2.3,0.8,2.6,2.1c0.2,1.1-0.3,2-1.4,2.2c-1.8,0.3-2.9-0.5-2.9-2.3
		C722.5,395.7,723.1,395,724.2,394.8z"/>
	<path class="st0" d="M543.2,787.4c-1.1,0-2-0.5-2.1-1.6c-0.2-1.4,0.6-2.4,1.9-2.7c1.5-0.3,2.4,0.5,2.5,2
		C545.6,786.4,544.6,787.2,543.2,787.4z"/>
	<path class="st0" d="M523.4,116.4c1.3,0,2.5,0.5,2.6,1.9c0.2,1.8-1,2.7-2.6,2.7c-1.4,0-2.3-0.8-2.3-2.2
		C521.2,117.4,522.1,116.6,523.4,116.4z"/>
	<path class="st0" d="M262.7,381.6c1.6,0.5,2.3,1.7,2,3.3c-0.3,1.4-1.4,2-2.7,1.5c-1.3-0.4-1.9-1.5-1.7-2.8
		C260.4,382.3,261.2,381.5,262.7,381.6z"/>
	<path class="st0" d="M399,378.4c-1.4-0.3-2.2-1.1-2-2.5c0.3-1.3,1.2-2.1,2.6-2.1s2.3,0.8,2.3,2.2
		C401.9,377.8,400.6,378.4,399,378.4z"/>
	<path class="st0" d="M241.9,803.3c-1.4-0.2-2.3-0.9-2.3-2.3c0.1-1.4,1-2.2,2.3-2.3s2.5,0.5,2.6,1.9
		C244.6,802.3,243.5,803.1,241.9,803.3z"/>
	<path class="st0" d="M627.8,367.7c1.4,0.4,2.1,1.3,1.7,2.7c-0.4,1.3-1.5,2-2.9,1.7c-1.1-0.3-1.6-1.2-1.4-2.3
		C625.4,368.3,626.3,367.6,627.8,367.7z"/>
	<path class="st0" d="M636.4,810.4c-1.7-0.3-2.4-1.4-2.2-3.1c0.1-1,0.8-1.8,1.9-1.9c1.8-0.1,2.7,1,2.7,2.7
		C638.7,809.5,637.8,810.2,636.4,810.4z"/>
	<path class="st0" d="M523.7,814.9c1.3,0.3,2.3,1.1,2.2,2.5c-0.1,1.5-1.2,2.2-2.6,1.9c-1.4-0.3-2-1.4-1.8-2.8
		C521.7,815.3,522.5,814.8,523.7,814.9z"/>
	<path class="st0" d="M261.5,349.1c-0.4,1.3-1.2,2.3-2.6,2c-1.5-0.2-2-1.3-1.7-2.7c0.4-1.4,1.5-1.9,2.9-1.6
		C261.1,347.1,261.6,348,261.5,349.1z"/>
	<path class="st0" d="M549.1,834.4c0,1.3-0.5,2.5-2,2.5c-1.8,0.1-2.7-1.1-2.6-2.7c0-1.4,0.9-2.3,2.3-2.2
		C548.2,832.1,548.9,833.1,549.1,834.4z"/>
	<path class="st0" d="M617.7,334.6c0.1-1.4,0.9-2.4,2.3-2.3c1.8,0,2.5,1.3,2.4,2.9c-0.1,1-0.7,1.9-1.8,2
		C618.8,337.2,617.9,336.3,617.7,334.6z"/>
	<path class="st0" d="M546.2,99.8c1.1,0.1,2,0.6,2.1,1.7c0.1,1.8-0.9,2.8-2.7,2.7c-1.1-0.1-1.7-1-1.7-2.1
		C543.9,100.7,544.7,100,546.2,99.8z"/>
	<path class="st0" d="M613.2,95.8c0.3-1.1,1-1.8,2.1-1.7c1.4,0.1,2.3,0.9,2.3,2.4s-1,2.3-2.5,2C613.7,98.2,613.1,97.2,613.2,95.8z"
		/>
	<path class="st0" d="M570,89.8c-1.1,0.1-2-0.4-2.2-1.5c-0.3-1.4,0.3-2.5,1.7-2.8s2.5,0.3,2.6,1.8C572.3,88.6,571.4,89.4,570,89.8z"
		/>
	<path class="st0" d="M610.3,297.4c1.7,0.2,2.7,0.9,2.6,2.3c0,1.8-1.3,2.5-2.9,2.4c-1-0.1-1.9-0.7-2-1.8
		C607.9,298.5,609,297.7,610.3,297.4z"/>
	<path class="st0" d="M386.2,315c1.4,0.4,2,1.4,1.7,2.8c-0.4,1.4-1.5,1.9-2.9,1.6c-1.1-0.3-1.6-1.2-1.4-2.3
		C383.8,315.8,384.7,315,386.2,315z"/>
</g>
</svg>
