<?xml version="1.0" encoding="utf-8"?>
<!-- Generator: Adobe Illustrator 27.3.1, SVG Export Plug-In . SVG Version: 6.00 Build 0)  -->
<svg version="1.1" id="Layer_1" xmlns="http://www.w3.org/2000/svg" xmlns:xlink="http://www.w3.org/1999/xlink" x="0px" y="0px"
	 viewBox="0 0 100 100" style="enable-background:new 0 0 100 100;" xml:space="preserve">
<style type="text/css">
	.st0{fill:#C0E2C8;stroke:#000000;stroke-miterlimit:10;}
	.st1{fill:#EF4044;}
	.st2{fill:#3FB65D;}
	.st3{fill:#9AA2AE;}
	.st4{fill:#FFFFFF;}
</style>
<g id="ciusMo.tif">
	<g>
		<path class="st0" d="M0,100C0,66.6,0,33.3,0,0c33.3,0,66.7,0,100,0c0,33.3,0,66.7,0,100C66.7,100,33.4,100,0,100z"/>
		<path class="st1" d="M31.9,81.2c0,2.4,0.1,4.8,0,7.2c-0.2,3.8-3.2,7.1-6.9,7.8c-0.6,0.1-1.3,0.2-1.9,0.2c-4.2,0-8.5,0-12.7,0
			c-4.4,0-7.9-2.9-8.7-7.3c-0.1-0.5-0.1-1-0.1-1.5c0-4.3,0-8.6,0-12.9c0-4.5,3.2-8.1,7.6-8.7c0.4-0.1,0.9-0.1,1.3-0.1
			c4.2,0,8.4,0,12.6,0c4.4-0.1,8.1,3.1,8.8,7.4c0.1,0.5,0.1,1,0.1,1.5C31.9,76.9,31.9,79,31.9,81.2C31.9,81.2,31.9,81.2,31.9,81.2z
			 M11.9,90.9c0.7,0,1.4,0,2.1,0c0.3,0,0.5-0.1,0.6-0.4c1.5-3,3-6,4.5-8.9c1-1.9,1.9-3.9,2.9-5.8c0.5-1,0.6-2,0.6-3
			c0-0.3-0.1-0.4-0.4-0.3c-0.4,0-0.9,0-1.3,0c-3.3,0-6.7,0-10,0c-0.4,0-0.6,0.1-0.5,0.5c0,0.4,0,0.7,0,1.1c0,0.4,0.1,0.5,0.5,0.5
			c2.9,0,5.9,0,8.8,0c0.2,0,0.3,0,0.6,0C17.5,80.1,14.7,85.5,11.9,90.9z"/>
		<path class="st2" d="M83.3,34.1c-2.3,0-4.7,0.1-7,0c-3.8-0.1-7.2-3.1-7.9-6.8c-0.1-0.6-0.2-1.3-0.2-1.9c0-4.3,0-8.6,0-12.9
			c0-4.4,3-7.9,7.3-8.7c0.5-0.1,0.9-0.1,1.4-0.1c4.3,0,8.7,0,13,0c4.8,0,8.7,3.8,8.7,8.6c0,4.4,0,8.8,0,13.2c0,4.6-3.6,8.4-8.3,8.6
			C87.9,34.1,85.6,34.1,83.3,34.1C83.3,34.1,83.3,34.1,83.3,34.1z M76.9,23.8c0.2,2.1,1.2,3.5,2.9,4.4c1.6,0.8,3.3,1,5,0.7
			c2.5-0.4,4.9-2.2,5-4.9c0.1-1.8-0.5-3.3-2.1-4.2c-0.7-0.4-1.4-0.5-2-0.8c0.2-0.1,0.6-0.2,0.9-0.3c1.5-0.7,2.5-1.8,2.6-3.5
			c0.2-1.9-0.6-3.4-2.3-4.4c-2.1-1.1-4.2-1.2-6.4-0.3c-2,0.8-3.1,2.4-3.3,4.6c0.8,0,1.5,0,2.2,0c0.1-0.2,0.1-0.5,0.2-0.7
			c0.3-1,0.9-1.7,1.9-2.1c0.9-0.4,1.8-0.4,2.8-0.3c1.3,0.2,2.3,1,2.5,2.1c0.3,1.4-0.2,2.6-1.3,3.4c-0.8,0.5-1.7,0.6-2.6,0.7
			c-0.6,0-1.3,0-1.9,0c0,0.7,0,1.3,0,2c0.6,0,1.1,0,1.6,0c0.9,0.1,1.9,0.1,2.8,0.4c1.3,0.4,2,1.4,2.1,2.8c0.1,1.4-0.5,2.4-1.6,3
			c-1.2,0.6-2.5,0.7-3.7,0.4c-1.5-0.4-2.6-1.1-2.9-2.8c0-0.1-0.2-0.2-0.3-0.2C78.3,23.8,77.6,23.8,76.9,23.8z"/>
		<path class="st3" d="M19.4,10.3c0,6.2,0,12.3,0,18.4c-0.8,0-1.5,0-2.3,0c0-5.3,0-10.5,0-15.8c0,0-0.1-0.1-0.1-0.1
			c-1.6,1.1-3.1,2.2-4.8,3.4c0-0.5,0-0.8,0-1.2c0-1.3,0-1.3,1.1-2.1c1.2-0.8,2.3-1.7,3.5-2.5c0.1-0.1,0.2-0.2,0.4-0.2
			C17.9,10.2,18.6,10.3,19.4,10.3z"/>
		<path class="st4" d="M11.9,90.9c2.8-5.5,5.5-10.9,8.3-16.3c-0.3,0-0.4,0-0.6,0c-2.9,0-5.9,0-8.8,0c-0.4,0-0.6-0.1-0.5-0.5
			c0-0.4,0-0.7,0-1.1c0-0.4,0.1-0.5,0.5-0.5c3.3,0,6.7,0,10,0c0.4,0,0.9,0,1.3,0c0.3,0,0.4,0.1,0.4,0.3c0,1,0,2-0.6,3
			c-1.1,1.9-2,3.9-2.9,5.8c-1.5,3-3,6-4.5,8.9c-0.1,0.3-0.3,0.4-0.6,0.4C13.3,90.9,12.7,90.9,11.9,90.9z"/>
		<path class="st4" d="M76.9,23.8c0.7,0,1.4,0,2,0c0.1,0,0.3,0.1,0.3,0.2c0.3,1.6,1.4,2.4,2.9,2.8c1.3,0.3,2.6,0.3,3.7-0.4
			c1.2-0.6,1.7-1.7,1.6-3c-0.1-1.4-0.8-2.4-2.1-2.8c-0.9-0.3-1.8-0.3-2.8-0.4c-0.5,0-1,0-1.6,0c0-0.7,0-1.3,0-2c0.7,0,1.3,0,1.9,0
			c0.9,0,1.8-0.1,2.6-0.7c1.1-0.7,1.6-2,1.3-3.4c-0.2-1.1-1.2-1.9-2.5-2.1c-0.9-0.1-1.9-0.1-2.8,0.3c-1,0.4-1.6,1.1-1.9,2.1
			c-0.1,0.2-0.1,0.4-0.2,0.7c-0.7,0-1.5,0-2.2,0c0.2-2.2,1.3-3.8,3.3-4.6c2.1-0.9,4.3-0.8,6.4,0.3c1.7,0.9,2.4,2.4,2.3,4.4
			c-0.1,1.7-1.2,2.8-2.6,3.5c-0.3,0.2-0.7,0.3-0.9,0.3c0.6,0.2,1.4,0.4,2,0.8c1.7,0.9,2.3,2.4,2.1,4.2c-0.2,2.8-2.5,4.5-5,4.9
			c-1.7,0.3-3.4,0.1-5-0.7C78.1,27.3,77.1,25.8,76.9,23.8z"/>
		<path class="st3" d="M44.2,52c0.1-1,0.2-2,0.3-3c0.1-1.5,0.3-3,0.4-4.5c0.1-0.9,0.2-1.8,0.3-2.7c0-0.4,0.2-0.4,0.5-0.4
			c1.2,0,2.4,0,3.6,0c1.9,0,3.7,0,5.6,0c0.2,0,0.4,0,0.6,0c0,0.7,0,1.4,0,2.1c-2.8,0-5.6,0-8.4,0c-0.2,2.1-0.4,4.1-0.6,6.2
			c0.2-0.1,0.2-0.2,0.3-0.2c1.1-1.3,2.5-1.7,4.2-1.7c2.5,0.1,4.8,1.9,5.4,4.4c0.6,2.4,0.2,4.5-1.5,6.3c-1.1,1.1-2.4,1.7-3.9,1.8
			c-1.7,0.1-3.4-0.2-4.8-1.3c-1.2-1-1.9-2.2-2.1-3.7c0-0.1,0.2-0.3,0.3-0.3c0.6,0,1.1,0,1.7,0c0.1,0,0.3,0.2,0.3,0.3
			c0.3,1.7,2.1,3.1,4.1,2.9c1.6-0.1,2.8-0.8,3.4-2.3c1.1-2.4,0-5.5-2.7-6c-1.7-0.3-3.6,0.2-4.6,1.8C46.3,51.8,46.2,52,46,52
			C45.4,52,44.8,52,44.2,52z"/>
		<path class="st3" d="M76.9,86.6c0.8,0,1.5,0,2.2,0c0.1,0,0.3,0.2,0.4,0.4c1,2.5,4.4,2.8,6,1.5c0.9-0.7,1.4-1.6,1.7-2.6
			c0.4-1.2,0.6-2.5,0.6-3.8c0-0.1,0-0.1,0-0.3c-0.3,0.4-0.5,0.7-0.7,1c-1.1,1.4-2.6,2-4.3,1.9c-2.2,0-4-0.9-5.1-2.8
			c-0.9-1.4-1.1-3-0.8-4.7c0.5-2.8,2.6-4.7,5.3-5.1c3.2-0.4,5.9,1.1,7.1,4.2c0.8,1.9,0.9,3.9,0.8,5.9c-0.1,1.5-0.2,3-0.8,4.4
			c-0.6,1.7-1.5,3.1-3.2,4c-1.2,0.7-2.5,0.9-3.9,0.7c-1.2-0.1-2.4-0.6-3.4-1.4C77.8,89.1,77.2,88,76.9,86.6z M87.3,78.5
			c0-2.4-1.8-4.3-4-4.3c-2.4,0-4.2,1.8-4.2,4.2c0,2.5,1.6,4.2,4.1,4.2C85.5,82.6,87.2,80.8,87.3,78.5z"/>
	</g>
</g>
</svg>
