<?xml version="1.0" encoding="utf-8"?>
<!-- Generator: Adobe Illustrator 26.1.0, SVG Export Plug-In . SVG Version: 6.00 Build 0)  -->
<svg version="1.1" id="Layer_1" xmlns="http://www.w3.org/2000/svg" xmlns:xlink="http://www.w3.org/1999/xlink" x="0px" y="0px"
	 viewBox="0 0 15 15" style="enable-background:new 0 0 15 15;" xml:space="preserve">
<g>
	<path d="M2.1,9.2V7.9h1.3V7.1H2.1V5.8H1.3v1.3H0v0.8h1.3v1.3H2.1z"/>
	<g>
		<circle cx="7.5" cy="5.6" r="2.9"/>
		<path d="M7.7,0C4.9-0.1,2.5,1.4,1.2,3.5c-0.1,0.1,0,0.2,0.1,0.2H2c0.1,0,0.2,0,0.2-0.1C3.4,2,5.4,0.9,7.7,0.9
			c3.5,0.1,6.3,3,6.4,6.5c0,1.6-0.5,3-1.4,4.2c-0.7-1.1-2.2-2.2-5.2-2.2c-2.9,0-4.4,1.1-5.2,2.1c0-0.1-0.1-0.1-0.1-0.2
			c-0.1-0.1-0.1-0.1-0.2-0.1H1.3c-0.1,0-0.2,0.1-0.1,0.2C2.5,13.6,4.8,15,7.5,15c4.2,0,7.6-3.5,7.5-7.7C14.9,3.4,11.6,0.1,7.7,0z"/>
	</g>
</g>
</svg>
