<?xml version="1.0" encoding="utf-8"?>
<!-- Generator: Adobe Illustrator 26.1.0, SVG Export Plug-In . SVG Version: 6.00 Build 0)  -->
<svg version="1.1" id="a" xmlns="http://www.w3.org/2000/svg" xmlns:xlink="http://www.w3.org/1999/xlink" x="0px" y="0px"
	 viewBox="0 0 15 15" style="enable-background:new 0 0 15 15;" xml:space="preserve">
<style type="text/css">
	.st0{fill:#FFFFFF;}
	.st1{display:none;}
	.st2{display:inline;fill:#FFFFFF;}
</style>
<g>
	<path class="st0" d="M2.1,9.2V7.9h1.3V7.1H2.1V5.8H1.3v1.3H0v0.8h1.3v1.3C1.3,9.2,2.1,9.2,2.1,9.2z"/>
	<g>
		<circle class="st0" cx="7.5" cy="5.6" r="2.9"/>
		<path class="st0" d="M7.5,9.4c-3,0-4.4,1.1-5.2,2.1v0L2,11.9c-0.2,0.2-0.1,0.5,0,0.6C3.3,14.1,5.3,15,7.5,15
			c2.1,0,4.1-0.9,5.4-2.3c0.2-0.2,0.2-0.4,0.1-0.6l-0.3-0.4C12,10.5,10.5,9.4,7.5,9.4z"/>
	</g>
	<g class="st1">
		<circle class="st2" cx="7.5" cy="5.6" r="2.9"/>
		<path class="st2" d="M15,7.3C14.9,3.4,11.6,0.1,7.7,0C4.9-0.1,2.5,1.4,1.2,3.5c-0.1,0.1,0,0.2,0.1,0.2H2c0.1,0,0.2,0,0.2-0.1
			C3.4,2,5.4,0.9,7.7,0.9c3.5,0.1,6.3,3,6.4,6.5c0,1.6-0.5,3-1.4,4.2l0.5,0.8C14.4,11,15.1,9.2,15,7.3z"/>
		<path class="st2" d="M2.2,11.3c-0.1-0.1-0.1-0.1-0.2-0.1H1.3c-0.1,0-0.2,0.1-0.1,0.2c0.2,0.3,0.3,0.5,0.5,0.8l0.6-0.7
			C2.3,11.4,2.2,11.4,2.2,11.3z"/>
		<path class="st2" d="M7.5,9.4c-3,0-4.4,1.1-5.2,2.1v0l-0.6,0.7C3.1,13.9,5.1,15,7.5,15c2.3,0,4.3-1,5.7-2.6l-0.5-0.8
			C12,10.5,10.5,9.4,7.5,9.4z"/>
	</g>
</g>
</svg>
