<?xml version="1.0" encoding="utf-8"?>
<!-- Generator: Adobe Illustrator 27.3.1, SVG Export Plug-In . SVG Version: 6.00 Build 0)  -->
<svg version="1.1" id="Layer_1" xmlns="http://www.w3.org/2000/svg" xmlns:xlink="http://www.w3.org/1999/xlink" x="0px" y="0px"
	 viewBox="0 0 615 200" style="enable-background:new 0 0 615 200;" xml:space="preserve">
<style type="text/css">
	.st0{fill:#1D0326;}
	.st1{fill:#CD006A;}
</style>
<g id="SWNZ2k.tif">
	<g>
		<path class="st0" d="M272,77.8c-5.4,31.3-14.5,61.2-33.4,87.3c0,0-0.1,0-0.1,0c0,0.1,0,0.1,0,0.2c-0.1,0.2-0.3,0.4-0.4,0.6
			c-0.1,0-0.1,0-0.2,0c0,0.1,0,0.1,0,0.2c-0.1,0.1-0.2,0.3-0.3,0.4c-0.1,0.1-0.2,0.3-0.3,0.4c-0.3,0.3-0.5,0.7-0.8,1
			c0,0.1-0.1,0.1-0.1,0.2c-0.8,0.9-1.5,1.7-2.3,2.6c0,0.1-0.1,0.1-0.1,0.2c-0.3,0.3-0.6,0.6-0.8,0.9c-0.2,0.3-0.5,0.6-0.7,1
			c-7.9,8.8-16.9,16-27.9,20.6c-2,0.9-4.1,1.7-6.1,2.6c-9,3-18.3,4.3-27.8,4c-1.7-0.1-3.4-0.3-5.1-0.4c-0.8-0.1-1.6-0.3-2.4-0.4
			c-1-0.2-2.1-0.4-3.1-0.6c0,0-0.1,0-0.1,0c-0.5-0.1-1-0.3-1.4-0.4c-2.7-0.9-5.4-1.7-8.1-2.6c-6.9-2.5-13.2-6.2-19.2-10.4
			c-8.7-6-16.2-13.2-23.1-21.1c-0.1-0.1-0.1-0.2-0.2-0.4c-0.2-0.2-0.3-0.4-0.5-0.6c-0.5-0.6-1.1-1.2-1.6-1.8c-2-2.5-4-4.9-5.9-7.4
			c-0.2-0.3-0.4-0.7-0.6-1c-0.5-0.6-1-1.2-1.6-1.8c0-0.1-0.1-0.2-0.1-0.3c-0.2-0.2-0.3-0.4-0.5-0.6c-0.1-0.1-0.1-0.2-0.2-0.4
			c-0.2-0.2-0.3-0.4-0.5-0.5c0-0.1-0.1-0.1-0.1-0.2c-0.2-0.3-0.5-0.7-0.7-1c-0.1-0.2-0.2-0.4-0.4-0.7c-0.1-0.2-0.3-0.3-0.4-0.5
			c0-0.1-0.1-0.1-0.1-0.2c-0.5-0.6-0.9-1.2-1.4-1.8c-0.7-1.1-1.4-2.3-2.1-3.4c-0.1-0.1-0.2-0.3-0.3-0.4c0-0.1,0-0.1,0-0.2
			c-0.1,0-0.1,0-0.2,0c-0.1-0.1-0.2-0.3-0.3-0.4c-0.2-0.4-0.5-0.8-0.7-1.2c-0.4-0.6-0.8-1.1-1.2-1.7c-3.6-8.3-7.2-16.6-10.8-25
			C69.1,92.5,61.1,71.9,57,50c-3.3-17.7,1.5-25.9,18.4-31.8c10.9-3.8,22.1-5.9,33.5-7.4c16.2-2.1,32.5-2.4,48.7-2.7
			c2.2,0,4.5,1,6.5-0.5c25.6,5.3,51.3,10,75,21.7c12.6,6.2,23.8,14.3,29.7,27.8c0.1,0.2,0.3,0.3,0.4,0.4
			C271.7,64.1,272.4,70.9,272,77.8z"/>
		<path class="st0" d="M427.5,198.5c-0.3,0-0.6-0.1-0.9-0.1c-3-0.9-6-1.8-9-2.7c-8.8-2.9-16.7-7.5-23.9-13.5
			c-16.2-13.4-26.3-31-34.2-49.9c-7-16.8-11.5-34.5-14.6-52.5c0-0.3-0.1-0.5-0.2-0.8c-0.9-7.1-0.5-14.1,2.1-20.8
			c12.2-25.3,36.5-32.6,60.4-40.2c12.9-4.1,26.3-6.6,39.6-9.3c0.1,0.1,0.2,0.2,0.3,0.2c11.4-1.3,22.9-0.7,34.4-0.2
			c20.9,1,41.8,2.7,61.6,10.4c6.6,2.6,13.4,5.7,16.1,12.8c2.5,6.5,1.3,13.5-0.1,20.2c-5.2,24.9-15.1,48.2-25,71.5
			c-2,4.6-4.8,8.8-5.8,13.8c-0.3,0.5-0.7,1-1,1.5c-0.1,0-0.1,0-0.2,0c0,0.1,0,0.1,0.1,0.2c-0.1,0.1-0.2,0.3-0.3,0.4
			c-0.1,0-0.1,0-0.2,0c0,0.1,0,0.2,0,0.2c-0.1,0.1-0.2,0.3-0.3,0.4c-0.1,0-0.1,0-0.2,0c0,0.1,0,0.2,0,0.2c-0.1,0.1-0.2,0.3-0.3,0.4
			c-0.1,0-0.1,0-0.2,0c0,0.1,0,0.1,0,0.2c-0.1,0.1-0.2,0.3-0.3,0.4c-0.1,0-0.1,0-0.2,0c0,0.1,0,0.2,0,0.2c-0.1,0.1-0.2,0.3-0.3,0.4
			c-0.1,0-0.1,0-0.2,0c0,0.1,0,0.2,0,0.2c-0.1,0.1-0.2,0.3-0.3,0.4c-0.1,0-0.1,0-0.2,0c0,0.1,0,0.2,0,0.2c-0.1,0.1-0.2,0.3-0.3,0.4
			c-0.2,0.3-0.3,0.5-0.5,0.8c-0.1,0.1-0.2,0.3-0.3,0.4c-0.1,0-0.1,0-0.2,0c0,0.1,0,0.2,0,0.2c-0.1,0.1-0.1,0.2-0.2,0.3
			c-0.1,0.2-0.3,0.4-0.4,0.5c-0.3,0.4-0.6,0.8-0.9,1.2c-0.1,0-0.1,0-0.2,0c0,0.1,0,0.1,0,0.2c-0.1,0.2-0.3,0.4-0.4,0.6
			c-0.1,0-0.1,0-0.2,0c0,0.1,0,0.1,0,0.2c-0.2,0.3-0.4,0.7-0.7,1c-0.8,1.1-1.7,2.2-2.5,3.2c-0.1,0.1-0.1,0.2-0.2,0.2
			c-0.4,0.5-0.9,1-1.3,1.4c-2.1,2.7-4.2,5.4-6.4,8.1c-0.7,0.2-1.2,0.5-1.1,1.4c-2.6,2.7-5.1,5.5-7.7,8.2c-0.1,0-0.1,0-0.2,0
			c0,0,0,0.1,0,0.1c-0.2,0.2-0.4,0.4-0.7,0.6c-0.6,0.6-1.1,1.2-1.7,1.8c-8.7,8.2-18.1,15.1-29.1,20c-1.1,0.5-2.3,1-3.4,1.5
			C453.8,200.2,440.8,201.3,427.5,198.5C427.5,198.5,427.5,198.5,427.5,198.5L427.5,198.5z"/>
		<path class="st1" d="M164.2,7.6c-2.1,1.4-4.4,0.4-6.5,0.5c-16.3,0.3-32.6,0.6-48.7,2.7c-11.4,1.5-22.6,3.6-33.5,7.4
			C58.5,24.1,53.7,32.3,57,50c4.1,21.9,12.1,42.5,20.7,62.9c3.5,8.3,7.2,16.7,10.8,25c-3.2-5.2-6.5-10.4-9.6-15.7
			c-11.8-20.2-21-41.7-29.7-63.4c-0.1-0.2-0.6-0.4-0.8-0.4c-12,1.6-24,2.9-36-0.4c-5.3-1.5-10.2-4.2-11.8-10c-2-7,0.6-12.7,6-17.2
			c7.5-6.1,16.6-8.2,25.7-10c4.5-0.9,9.1-1.2,13.7-1.7c1.8-0.2,2-1.8,2.7-2.9C56,5.1,67.2,1.8,79.6,0.9c10.3-0.8,20.6-1,30.9-0.8
			c16.1,0.4,32,2.3,47.6,6.3C160.1,6.9,162.2,7.2,164.2,7.6z"/>
		<path class="st1" d="M528.3,137.5c0.9-5,3.8-9.2,5.8-13.8c9.9-23.3,19.9-46.6,25-71.5c1.4-6.7,2.5-13.7,0.1-20.2
			c-2.7-7.2-9.5-10.3-16.1-12.8c-19.8-7.7-40.7-9.4-61.6-10.4c-11.4-0.6-22.9-1.1-34.4,0.2c-0.1,0-0.2-0.1-0.3-0.2
			c11-2.3,22-4.9,33.1-6.5c19.2-2.7,38.4-2.9,57.6-1.2c7.7,0.7,15.3,1.7,21.8,6.5c2.1,1.6,4.7,3.2,5.8,5.4c2.8,5.5,7.3,6.5,12.8,7.2
			c10.2,1.2,20.2,3.5,28.8,9.6c6.2,4.3,9.6,10.2,7.7,17.8c-2,7.9-8.9,10.1-15.8,11.4c-10,1.9-20.1,1.2-30.1-0.2
			c-1-0.1-1.3,0.2-1.6,1c-6.8,17.2-14,34.1-22.8,50.4c-4.9,9.1-10.2,17.9-15.3,26.8C528.8,137.2,528.5,137.3,528.3,137.5z"/>
		<path class="st1" d="M346.8,58.2c-2.6,6.7-3,13.7-2.1,20.8c-11.8-7-24.6-10.1-38.1-10c-10.8,0.1-21.2,2.5-31.1,7
			c-1.2,0.5-1.9,2-3.4,1.8c0.4-6.9-0.3-13.7-2.7-20.3c15.8-7.5,32.4-9.6,49.7-7.6c9.3,1.1,18.1,4,26.7,7.5
			C346.1,57.7,346.4,58,346.8,58.2z"/>
		<path class="st1" d="M417.6,195.7c3,0.9,6,1.8,9,2.7C423.4,198.3,420.3,197.7,417.6,195.7z"/>
		<path class="st1" d="M150.4,195.5c2.7,0.9,5.4,1.7,8.1,2.6C155.4,198.4,152.9,197.1,150.4,195.5z"/>
		<path class="st1" d="M198.5,195.9c2-0.9,4.1-1.7,6.1-2.6C202.6,194.2,200.5,195.1,198.5,195.9z"/>
		<path class="st1" d="M466.4,195.4c1.1-0.5,2.3-1,3.4-1.5c-1.1,0.5-2.2,1.1-3.3,1.6C466.5,195.6,466.4,195.6,466.4,195.4
			C466.4,195.5,466.4,195.5,466.4,195.4z"/>
		<path class="st1" d="M91.2,141.7c0.7,1.1,1.4,2.3,2.1,3.4C92.6,143.9,91.9,142.8,91.2,141.7z"/>
		<path class="st1" d="M518.2,151.9c0.8-1.1,1.7-2.2,2.5-3.2C519.9,149.8,519,150.9,518.2,151.9z"/>
		<path class="st1" d="M105.8,161.3c0.5,0.6,1.1,1.2,1.6,1.8c-0.6-0.6-1.2-1.2-1.8-1.8C105.7,161.3,105.7,161.3,105.8,161.3
			C105.8,161.2,105.8,161.3,105.8,161.3z"/>
		<path class="st1" d="M163.2,199.1c0.8,0.1,1.6,0.3,2.4,0.4C164.8,199.4,164,199.3,163.2,199.1z"/>
		<path class="st1" d="M498.9,173.9c0.6-0.6,1.1-1.2,1.7-1.8C500,172.8,499.5,173.3,498.9,173.9z"/>
		<path class="st1" d="M516.7,153.6c0.4-0.5,0.9-1,1.3-1.4C517.6,152.7,517.1,153.2,516.7,153.6z"/>
		<path class="st1" d="M509.2,163.2c-0.1-0.9,0.4-1.2,1.1-1.4C510,162.2,509.6,162.7,509.2,163.2z"/>
		<path class="st1" d="M89.7,139.5c0.2,0.4,0.5,0.8,0.7,1.2C90.2,140.3,90,139.9,89.7,139.5z"/>
		<path class="st1" d="M99.3,152.9c0.2,0.3,0.4,0.7,0.6,1C99.1,153.9,99.2,153.4,99.3,152.9z"/>
		<path class="st1" d="M232.5,172.8c0.2-0.3,0.5-0.6,0.7-1C233,172.2,232.7,172.5,232.5,172.8z"/>
		<path class="st1" d="M524,144c0.2-0.3,0.3-0.5,0.5-0.8C524.3,143.5,524.2,143.8,524,144z"/>
		<path class="st1" d="M95.2,147.5c0.1,0.2,0.2,0.5,0.4,0.7C95.5,148,95.4,147.7,95.2,147.5z"/>
		<path class="st1" d="M523,145.5c0.1-0.2,0.3-0.4,0.4-0.5C523.3,145.1,523.1,145.3,523,145.5z"/>
		<path class="st1" d="M237.3,167c0.1-0.1,0.2-0.3,0.3-0.4C237.5,166.7,237.4,166.8,237.3,167z"/>
		<path class="st1" d="M96.9,149.9c0.1,0.1,0.1,0.2,0.2,0.4c-0.1,0-0.2,0-0.3,0C96.9,150.1,96.9,150,96.9,149.9z"/>
		<path class="st1" d="M97.6,150.8c0,0.1,0.1,0.2,0.1,0.3c-0.1,0-0.2,0-0.3,0.1C97.5,151,97.5,150.9,97.6,150.8z"/>
		<path class="st1" d="M107.9,163.7c0.1,0.1,0.1,0.2,0.2,0.4C108,163.9,108,163.8,107.9,163.7z"/>
		<path class="st1" d="M524.8,142.9c0-0.1,0-0.2,0-0.2c0.1,0,0.1,0,0.2,0c0,0.1,0,0.1,0,0.2C524.9,142.9,524.8,142.9,524.8,142.9z"
			/>
		<path class="st1" d="M90.7,141.1c0.1,0,0.1,0,0.2,0c0,0.1,0,0.1,0,0.2C90.8,141.2,90.8,141.2,90.7,141.1z"/>
		<path class="st1" d="M525.6,141.7c0-0.1,0-0.2,0-0.2c0.1,0,0.1,0,0.2,0c0,0.1,0,0.1,0,0.2C525.7,141.7,525.6,141.7,525.6,141.7z"
			/>
		<path class="st1" d="M525.2,142.3c0-0.1,0-0.2,0-0.2c0.1,0,0.1,0,0.2,0c0,0,0,0.1,0.1,0.1C525.3,142.2,525.3,142.2,525.2,142.3z"
			/>
		<path class="st1" d="M238.5,165.4c0-0.1,0-0.1,0-0.2c0,0,0.1,0,0.1,0C238.6,165.2,238.6,165.3,238.5,165.4z"/>
		<path class="st1" d="M237.9,166.2c0-0.1,0-0.1,0-0.2c0.1,0,0.1,0,0.2,0C238,166.1,238,166.1,237.9,166.2z"/>
		<path class="st1" d="M521.4,147.7c0-0.1,0-0.1,0-0.2c0.1,0,0.1,0,0.2,0c0,0.1,0,0.1,0,0.2C521.5,147.7,521.4,147.7,521.4,147.7z"
			/>
		<path class="st1" d="M236.5,168.1c0-0.1,0.1-0.1,0.1-0.2C236.6,168,236.5,168.1,236.5,168.1z"/>
		<path class="st1" d="M234.1,170.9c0-0.1,0.1-0.1,0.1-0.2c0,0.1,0,0.1,0,0.2C234.2,171,234.1,170.9,234.1,170.9z"/>
		<path class="st1" d="M501.3,171.5c0,0,0-0.1,0-0.1c0.1,0,0.1,0,0.2,0c0,0,0,0.1,0,0.1C501.4,171.5,501.4,171.5,501.3,171.5z"/>
		<path class="st1" d="M94.7,146.8c0,0.1,0.1,0.1,0.1,0.2c-0.1,0-0.1,0-0.2,0C94.6,146.9,94.7,146.9,94.7,146.8z"/>
		<path class="st1" d="M522,146.9c0-0.1,0-0.1,0-0.2c0.1,0,0.1,0,0.2,0c0,0.1,0,0.1,0,0.2C522.1,146.9,522,146.9,522,146.9z"/>
		<path class="st1" d="M526,141.1c0-0.1,0-0.1,0-0.2c0.1,0,0.1,0,0.2,0c0,0.1,0,0.1,0,0.2C526.1,141.1,526,141.1,526,141.1z"/>
		<path class="st1" d="M526.4,140.5c0-0.1,0-0.2,0-0.2c0.1,0,0.1,0,0.2,0c0,0.1,0,0.1,0,0.2C526.5,140.5,526.4,140.5,526.4,140.5z"
			/>
		<path class="st1" d="M526.8,139.9c0-0.1,0-0.2,0-0.2c0.1,0,0.1,0,0.2,0c0,0,0,0.1,0.1,0.1C526.9,139.8,526.9,139.8,526.8,139.9z"
			/>
		<path class="st1" d="M523.6,144.7c0-0.1,0-0.2,0-0.2c0.1,0,0.1,0,0.2,0c0,0,0,0.1,0.1,0.1C523.7,144.6,523.7,144.7,523.6,144.7z"
			/>
		<path class="st1" d="M527.2,139.3c0-0.1,0-0.1-0.1-0.2c0.1,0,0.1,0,0.2,0c0,0.1,0,0.1,0,0.2C527.3,139.3,527.2,139.3,527.2,139.3z
			"/>
		<path class="st1" d="M96.3,149.2c0,0.1,0.1,0.1,0.1,0.2c-0.1,0-0.1,0-0.2,0C96.3,149.3,96.3,149.3,96.3,149.2z"/>
		<path class="st1" d="M159.9,198.5c0,0,0.1,0,0.1,0C160,198.5,160,198.6,159.9,198.5L159.9,198.5z"/>
		<polygon class="st1" points="427.5,198.5 427.5,198.5 427.5,198.5 427.5,198.6 		"/>
	</g>
</g>
</svg>
