<?xml version="1.0" encoding="utf-8"?>
<!-- Generator: Adobe Illustrator 27.3.1, SVG Export Plug-In . SVG Version: 6.00 Build 0)  -->
<svg version="1.1" id="Layer_1" xmlns="http://www.w3.org/2000/svg" xmlns:xlink="http://www.w3.org/1999/xlink" x="0px" y="0px"
	 viewBox="0 0 500 500" style="enable-background:new 0 0 500 500;" xml:space="preserve">
<g>
	<path d="M318.4,429c-4.3,8.3-7.7,16.6-12.6,23.9c-12.7,19.3-29.7,34-49.5,45.4c-3.9,2.2-7.7,2.4-11.7,0.2
		c-27.8-15.5-49.1-36.9-61.2-67.2c-0.3-0.7-0.7-1.4-1.2-2.5c-1.1,0.6-2,1-2.8,1.6c-11.2,8.3-23.7,13.7-36.6,18.5c-1,0.4-2,0.7-3,1
		c-4.1,0.9-7.2-0.8-8.2-4.4c-1-3.6,0.7-7,4.4-8.4c5.1-1.9,10.2-3.7,15.3-5.7c22-8.3,37.3-24.2,49-44.3c0.1-0.2,0.1-0.5,0.1-0.7
		c-20.1,11-40.2,22.1-60.4,33.1c-0.3-0.4-0.7-0.7-1-1.1c0.2-1.4,0.4-2.8,0.6-4.2c5.8-31.1,20-57.9,40.2-81.5c2.6-3,2.7-4.8-0.1-7.6
		c-4.2-4.2-4.2-4.7-8.7-1.1c-19.5,15.3-42.4,23-65.5,30.5c-7.2,2.3-14.3,5-21.5,7.4c-1.3,0.5-2.7,0.8-4.9,1.4
		c0.8-2.4,1.2-4.2,1.9-5.9c7.6-18.4,20-32.6,36.2-43.6c19.9-13.4,42.1-20.8,65.3-25.3c2.5-0.5,4.2,0.1,5.6,2.5
		c4.9,9.1,11.6,16.7,20,22.7c2.1,1.5,2.8,3.2,2.5,5.8c-2.6,22.3-14,37.1-35.2,43.7c-1.3,0.4-2.8,1.7-3.4,3
		c-4.2,8.8-8.2,17.8-12.2,26.7c11.6-2.1,66.6-40,74.1-51.3c-1.8-1-3.7-1.8-5.3-3c-0.9-0.7-2-2-1.9-2.9c0.4-4.4,1.1-8.8,1.8-13.5
		c3.9,0.8,7.7,1.5,11.5,2.6c0.9,0.2,1.8,1.5,2.2,2.5c2.2,6.8,4.3,13.6,6.2,20.5c0.4,1.3,0.4,2.9,0.1,4.3c-3.6,20-7.7,40-10.9,60
		c-1.2,7.4-0.7,15.1-0.3,22.6c0.3,7.1,5.8,12,12.6,12.1c7.2,0.1,11.9-4.1,12.5-11.8c1.4-18.9-1.2-37.5-5.3-55.8
		c-1.9-8.4-3.8-16.8-5.3-25.4c-0.5-3.2-0.1-6.7,0.7-9.8c1.3-5.5,3.1-10.9,4.8-16.3c0.4-1.1,1.2-2.7,2.2-2.9c3.9-1.1,8-1.8,12.2-2.6
		c0.7,4.6,1.4,9.1,1.8,13.6c0.1,0.7-1,1.7-1.8,2.3c-1.8,1.3-3.8,2.3-6.1,3.7c6.2,8.1,13.1,14.7,21.3,19.7
		c10.8,6.7,21.9,12.7,32.8,19.1c5.8,3.4,11.5,7.1,17.3,10.7c0.7,0.4,1.5,0.8,3.2,1.8c-3.3-7.4-6.1-13.9-9-20.4
		c-0.7-1.5-1.5-2.9-2.1-4.4c-1.2-3.3-3.4-4.9-6.9-5.7c-16.1-3.9-29.1-20.2-32.1-38.6c-0.9-5.6,0.1-9,4.5-13.1
		c6.3-5.8,11.1-13.2,16.7-19.9c1-1.1,2.6-2.6,3.8-2.5c29.9,3.7,57.1,14,79.7,35c10.6,9.9,18.9,21.5,24.5,35.1
		c0.4,0.9,0.7,1.8,0.9,2.7c0.1,0.3-0.1,0.8-0.1,1.1c-0.3,0.1-0.6,0.2-0.8,0.2c-21.4-7.8-43.1-15.1-64.2-23.8
		c-9.6-3.9-18.1-10.5-26.9-16.3c-2.8-1.8-4.3-2.2-6.5,0.6c-5.3,6.7-5.5,4.8,0,11.4c19,22.9,32.7,48.4,38.4,78.1
		c0.2,1.2,0.4,2.4,0.6,3.6c0.1,0.5,0,1,0,2.1c-21.6-9.9-42.2-20.9-61.9-33.6c6.1,10.2,12.3,20.3,21.2,28.3
		c10.9,9.8,23.6,16.3,37.3,21c2.5,0.9,5.1,1.7,7.4,3c3.3,1.8,4.6,5.3,3.4,8.6c-1.2,3.4-4,5-8.1,3.7c-13-4-25.5-9.3-36.7-17.3
		C321.7,431.1,319.9,430,318.4,429z M230.9,365.9c-0.5-0.2-0.9-0.3-1.4-0.5c-3.5,5.8-7,11.7-10.7,17.4c-5.1,7.9-10.1,15.8-15.6,23.3
		c-3.6,4.9-4.5,10.2-1.4,14.9c2.9,4.4,8.7,6.4,13.7,4.6c5.2-1.9,7.3-6,7.1-12.5c-0.1-3.9,0.3-8,1.1-11.8c1.8-9,4-17.9,5.9-26.8
		C230.2,371.6,230.4,368.8,230.9,365.9z M270.3,364.2c-0.3,0.1-0.7,0.3-1,0.4c0,1-0.2,2.1,0,3.1c2.7,12.2,5.5,24.4,8.1,36.7
		c0.5,2.5,0.7,5.2,0.3,7.8c-0.9,6,1.5,11,6.6,13.3c4.7,2.1,10.6,0.5,13.6-3.7c3.1-4.4,2.6-10.6-0.6-15c-4.8-6.6-9.6-13.2-13.9-20.1
		C278.7,379.3,274.6,371.7,270.3,364.2z M170.6,307c-16.7,1.7-58.3,23.8-62.8,33.1C120.7,338.1,163.7,315.6,170.6,307z M391.2,339.4
		c-12.7-14.5-45.8-31.9-61.6-32.5C347.9,322.4,369,331.2,391.2,339.4z"/>
	<path d="M421.2,144c-2.9,9.2-7,16.9-12.3,23.8c-12.6,16.4-29.6,26.3-48.5,33.3c-13.9,5.2-28.1,8.7-42.8,10.6
		c-3.5,0.5-5.6-0.7-8-3.5c-5.4-6.4-11.5-12.3-17.5-18c-2-1.9-2.9-3.4-2.5-6.2c3.3-21.1,14.8-35,34.9-41.4c1.5-0.5,3.5-1.4,4.2-2.7
		c4.2-8.7,8.1-17.5,12.2-26.6c-0.9-0.1-1.3-0.3-1.6-0.2c-16.8,9.8-33.7,19.4-50.2,29.6c-7.5,4.6-14.2,10.3-21.3,15.6
		c-0.7,0.5-1.2,1.4-2.1,2.4c2.2,1.5,4.3,2.9,6.2,4.4c0.8,0.7,1.8,1.9,1.8,2.8c-0.4,4.5-1.2,9-1.9,14c-4.2-0.7-8.4-1.2-12.5-2.1
		c-0.8-0.2-1.4-1.7-1.8-2.8c-1.3-4-2-8.2-3.7-12c-2.8-6.2-2.2-12.1-0.8-18.5c5.5-26,10.7-52.1,10-79c-0.1-5-0.8-9.8-5.2-13
		c-4.3-3.1-9.1-3.6-14-1.3c-4.7,2.3-6.5,6.5-6.7,11.6c-0.7,18.4,0.6,36.7,4.3,54.8c2.3,11.1,4.6,22.2,6.7,33.3
		c0.4,2,0.2,4.3-0.4,6.3c-1.6,5.8-3.4,11.6-5.4,17.4c-0.4,1.3-1.8,2.9-3,3.2c-3.7,1-7.5,1.5-11.3,2.2c-0.5-4.9-1.2-9.5-1.5-14.2
		c-0.1-0.9,0.9-2.1,1.7-2.8c1.6-1.4,3.4-2.5,5.7-4.2c-2.5-2.4-4.4-4.9-6.8-6.5c-10.1-6.9-20.3-13.6-30.7-20.1
		c-11.8-7.4-23.9-14.5-35.8-21.7c-0.3-0.2-0.7-0.2-1.4-0.4c0.1,0.7,0.1,1.2,0.3,1.7c3.6,8.1,7.2,16.2,10.8,24.4
		c1.3,2.9,3.2,4.4,6.4,5.4c19,6,30.9,19.9,33.9,41.2c0.2,1.3-0.7,3.3-1.7,4c-8,5.7-14.6,12.8-20.2,21.1c-0.8,1.1-2.9,2-4.3,1.8
		c-6.4-0.8-12.9-1.6-19.2-3.1c-19.3-4.7-38.1-10.9-54.6-22.5c-13-9.1-23.4-20.7-29.6-35.8c-0.4-1-0.8-2-1.1-3
		c-0.2-0.6-0.3-1.3-0.4-2.3c1.1,0.1,2-0.1,2.8,0.2c18,6,36.2,11.4,53.9,18.4c12.1,4.8,23.4,11.9,35,18.2c4.3,2.3,9.9,0,10.4-4.9
		c0.1-1-1-2.4-1.8-3.3c-12.7-13.9-23.4-29.3-30.1-46.9c-4.5-11.7-6.9-24.3-10.2-36.5c-0.2-0.6,0-1.3,0-2.8
		c21.8,9.5,41.8,21,61.2,33.6c0.3-0.2,0.6-0.4,0.8-0.7c-2.9-4.6-5.6-9.3-8.7-13.7c-13.6-19.5-33.1-29.8-55.2-35.8
		c-4.7-1.3-6.2-3.1-5.9-7.2c0.3-4.4,2.8-6.8,7-6.4c2.9,0.3,5.9,0.9,8.5,2.1c10,4.6,19.8,9.5,29.7,14.4c1.8,0.9,3.4,2.1,5.3,3.3
		c0.5-1.2,1.1-2.1,1.3-3.1c4.8-19.3,15.8-34.6,29.3-48.3c9-9.3,19.4-16.8,30.4-23.3c4.7-2.8,9.1-2.9,13.8-0.1
		c26.2,15.6,46.4,36.6,57.7,65.7c0.6,1.5,1,3.1,1.5,4.6c0.5,1.5,1,3,1.6,4.8c1.3-0.7,2.2-1.2,3-1.8c10.3-7.9,22.2-12.6,34.2-16.8
		c1.7-0.6,3.6-1.1,5.4-1.3c4.5-0.5,7.4,1.9,8,6c0.5,3.7-1.5,6.1-5.8,7.3c-18.5,5.3-35.8,13.2-48.8,28.1
		c-5.9,6.8-10.7,14.5-15.5,22.4c20.6-12.1,40.7-24.5,63.1-34.3c-3.5,17.7-7.3,34.3-15.1,49.7c-7,13.8-15.9,26.2-26.6,37.2
		c-2,2.1-1.8,3.4,0,5.3c5.5,6,3.1,6.2,10.3,1.6c16.3-10.4,34.1-17.3,52.3-23.4c10.7-3.6,21.4-7.3,32-11
		C416.5,145.6,418.4,144.9,421.2,144z M268.8,139.9c0.4,0.2,0.9,0.4,1.3,0.6c2.4-3.5,4.9-6.8,7-10.4c7.2-12.3,14.1-24.6,21.2-36.9
		c2.9-5,2.2-11.1-1.7-14.9c-4.1-4-9.4-4.5-14.2-1.3c-4.7,3.2-6.2,8.4-4.1,14.2c0.5,1.3,0.8,2.9,0.5,4.2c-2.5,10.6-5.3,21.1-7.8,31.7
		C270.1,131.3,269.6,135.6,268.8,139.9z M229.7,139.9c0.4-0.2,0.8-0.3,1.2-0.5c-2.2-13.5-3.5-27.2-8.3-40.1c-1.1-3-1.5-5.7-0.5-8.9
		c1.1-3.6,1.1-7.5-1.5-10.7c-4.2-5.1-10.7-6.3-15.6-2.6c-5.4,4-6.6,10.6-3.1,16.5c7.4,12.7,14.8,25.5,22.2,38.2
		C225.8,134.6,227.9,137.2,229.7,139.9z M108,166.7c17.5,13.8,38.1,20.3,59.1,26C148.5,181.7,128.7,173.3,108,166.7z M332.4,192.9
		c15-0.8,54.8-18.7,59.8-26.7C372.2,174.5,352.2,181.9,332.4,192.9z"/>
	<path d="M70.6,320c-3.3-1.1-6.2-2-9.1-3c-20.2-7.1-35.3-21-48.2-37.8c-3.8-5-7.1-10.4-10.8-15.5c-3.6-5-3.4-9.9-0.1-15
		c11.7-18.4,26-34.2,45.2-44.6c8-4.3,16.5-7.8,25.1-11.8c-0.4-0.5-0.8-1.4-1.5-2.2C60,175.9,52.2,160,48.8,141.9
		c-0.9-4.8,0.4-7.5,4.3-8.5c3.8-1,7,0.8,7.9,5.3c6.4,30.8,25.7,51.8,50.2,68.7c7.5,5.2,15.6,9.6,23.3,15.2
		c-13.7-2.8-27.4-5.5-41-8.6c-2.6-0.6-4.9-2.6-7.3-3.9c-8.1-4.5-17.5,0.2-18.3,9.1c-0.4,4.6,1.2,8.3,5,10.7
		c4.1,2.6,8.5,2.6,12.3-0.3c2.7-2,5.2-2.2,8.2-1.6c19.3,3.5,38.6,6.8,57.9,10.4c3.1,0.6,4-0.7,4.4-3.4c0.4-2.8,0.9-5.6,1.7-8.3
		c0.3-0.9,1.7-2.3,2.5-2.2c7.1,0.6,14.1,1.5,21,2.3c-0.9,4.5-1.8,9.7-3.1,14.7c-0.3,1.3-1.7,2.7-2.9,3.2c-6.1,2.4-12.2,4.6-18.4,6.5
		c-2.2,0.7-4.7,1-6.9,0.5c-29.1-5.3-58.4-9.4-88.1-8.5c-10.1,0.3-15.7,9-11.5,18.2c2.3,5,6.5,6.5,11.6,6.9
		c26.3,1.6,51.9-2.4,76.8-10.5c13-4.2,24.8-1.4,37,1.9c0.9,0.2,2,1.2,2.2,2c1.1,4.4,2,8.9,3,13.6c-3.4,0-6.4-0.3-9.4,0.1
		c-3.3,0.4-6.5,1.3-9.6,2.3c-2.4,0.8-3.6,0.4-4.4-2.2c-2.5-7.9-2.6-7.5-10.5-5.6c-18.7,4.6-37.4,8.9-56.2,13.2
		c-1.6,0.4-3.6-0.1-5.1-0.8c-5.2-2.6-11.3-1.7-14.9,2.6c-3.6,4.4-3.6,10.5,0,14.9c3.7,4.4,10.2,6.1,14.7,2.1
		c7.8-7,17.5-6.8,26.6-9.3c3.5-1,7.2-1.3,11.1-1.1c-4,2.7-8.1,5.3-12.1,8.1c-20.8,14.4-36.9,32.8-45.6,57.2
		c-1.7,4.7-2.6,9.6-3.9,14.4c-1.3,4.9-3.8,6.9-7.8,6c-3.8-0.8-5.3-3.8-4.6-8.8c2.5-16.4,9.1-30.9,18.9-44.1
		C68.6,322.9,69.5,321.6,70.6,320z"/>
	<path d="M376.5,290c10.5,2.2,21,4.3,31.4,6.7c2.1,0.5,4,2.5,5.8,3.9c5.5,4.2,12.8,3.7,16.3-1.3c4-5.7,2.8-13.5-2.8-17.1
		c-3.7-2.5-7.5-1.6-11.5-0.7c-3.1,0.8-6.6,1.5-9.6,0.9c-18.4-4-36.7-8.4-55-12.7c-6.1-1.4-6.3-1.6-7.9,4.5c-0.9,3.5-2.4,4-5.7,3.3
		c-5.8-1.3-11.7-1.8-18-2.7c0.8-4,1.7-8.7,2.7-13.4c0.1-0.6,1-1.2,1.7-1.5c0.7-0.3,1.6-0.3,2.3-0.6c17.4-7.5,34.2-1.9,50.8,2.7
		c19.9,5.6,40.2,6.7,60.7,6.6c10.3,0,16.2-8,13-17.1c-1.9-5.3-5.8-8-11.9-8.2c-23.4-0.7-46.6,1.1-69.6,5.3c-7,1.3-14.1,2.4-21.2,3.4
		c-1.7,0.2-3.7-0.4-5.4-1c-6-2.1-12-4.3-17.9-6.7c-1-0.4-2.2-1.3-2.5-2.2c-1.2-5.1-2.2-10.2-3.3-15.9c1.4-0.1,2.7-0.1,3.9-0.2
		c5.2-0.5,10.5-0.9,15.7-1.8c2.5-0.4,3.8,0.1,4.2,2.7c0.3,1.7,0.7,3.4,1,5.2c1.2,7,1.2,7.1,8.3,5.8c18.3-3.3,36.5-6.7,54.8-9.8
		c2.4-0.4,5.3,0,7.5,1.1c6.1,3.2,11.7,3,15.3-1.2c3.4-4,3.5-10.6,0.3-15.1c-3.4-4.7-10.2-6.6-15.4-3.3c-14.9,9.3-32.1,8.9-48.4,12.6
		c-0.2,0-0.4-0.2-0.4-0.2c7.8-4.9,15.9-9.4,23.4-14.8c16.8-12.1,32.1-25.9,41.3-45.2c3.3-6.9,5.1-14.4,7.7-21.6
		c0.8-2.1,1.4-4.5,2.9-6c2-2.1,4.8-1.9,7.4-0.3c3,1.7,3.4,4.6,2.6,7.4c-2.5,8.4-4.4,17.1-8.1,24.9c-3.8,8.1-9.3,15.3-14.1,22.9
		c-0.6,1-1.4,1.9-2.6,3.5c3.1,1.2,5.7,2.2,8.4,3.3c25.7,10.1,46.1,26.8,61.1,50.4c0.9,1.5,1.7,3,2.6,4.5c2,3.3,2,6.6,0.1,9.9
		c-14.8,26-34.3,46.5-62.7,57.1c-1.7,0.6-3.4,1.4-5.7,2.2c0.9,1.5,1.5,2.7,2.3,3.9c9.1,13.1,15.5,27.3,18.3,43.1
		c0.2,1.2,0.4,2.4,0.4,3.6c-0.1,3.6-2.1,5.8-5.5,6.3c-3.5,0.6-5.8-1-6.8-4.6c-2.3-7.9-3.8-16.1-7.2-23.5c-9.9-21.7-25-39-45-51.7
		c-3.5-2.2-7-4.4-10.4-6.6C376.4,290.5,376.4,290.3,376.5,290z"/>
	<path d="M250.8,194.3c31.4,0,56.8,25.7,56.3,57.8c-0.5,30.4-22.8,57.9-57.9,57.8c-30.8-0.1-56.2-26.3-56.1-57.9
		C193.2,219,218,194.3,250.8,194.3z M250.3,294.2c23,0,41.3-18.8,41.3-42.3c0.1-23-18.8-41.9-41.8-41.9c-23.4,0-41.2,18.2-41.2,42.2
		C208.6,275.6,227.1,294.2,250.3,294.2z"/>
	<path d="M355.8,151.6c3.5-7.5,7.2-13.9,9.6-20.8c3.5-10.3,6.4-20.8,9-31.4c3.5-14.1,11.6-23.9,25.1-28.5c13.5-4.6,27.3-8.8,40.9-13
		c4.2-1.3,6.9,0.8,6,5.1c-2.5,12.9-4.5,26.1-8.5,38.6c-5,15.4-16.5,25.8-31.1,31.6C390.3,139.8,373.3,145.4,355.8,151.6z"/>
	<path d="M144.1,151.3c-15.2-5.3-30.5-10.5-45.7-15.9c-16.9-6-29.8-16.7-36.5-33.8c-3.2-8.3-4.4-17.4-6.4-26.2
		c-0.8-3.7-1.5-7.4-2.2-11.1c-0.9-5.1,1.6-7.8,6.4-6.3c13.3,4,26.7,7.9,39.8,12.5c14.2,5,23.3,15,26.2,30.4
		c3.3,17.7,8.8,34.4,18.2,49.8C144.2,150.8,144.1,151.1,144.1,151.3z"/>
	<path d="M145.1,355.5c-0.7,1.6-0.8,2.3-1.2,2.8c-8.8,14.8-14.5,30.9-18,47.8c-3.2,15.4-11.9,25.9-26.5,31.2
		c-13.5,4.9-26.9,9.8-40.4,14.6c-4.3,1.5-6.7-1.1-5.7-6.5c1.8-9.4,3.9-18.7,6.1-28.1c2.7-11.7,8.2-22,16.8-30.2
		c4.3-4.1,9.1-8.2,14.5-10.4C108.3,369.3,126.2,362.8,145.1,355.5z"/>
	<path d="M355.7,355.6c17.6,6.7,34.6,12.5,51,19.7c18.6,8.2,29.8,23.3,34.4,43.4c1.8,8,3.5,16.1,5.1,24.1c0.2,1.2,0.4,2.4,0.5,3.6
		c0.3,5.2-2.1,6.9-6.9,5.1c-9.6-3.6-19.2-7-28.7-10.7c-6.5-2.5-13.3-4.7-19.4-8.1c-9-5-14.5-13.2-16.6-23.6
		c-3.5-17.9-9.2-34.9-18.2-50.8C356.5,357.8,356.3,357.2,355.7,355.6z"/>
	<path d="M224.8,252.1c-0.1-15.1,10.5-26.1,25-26.1c14.7-0.1,26.2,11.4,26.2,26.2c0,14-11.8,26-25.8,26
		C236.2,278.2,224.8,266.6,224.8,252.1z"/>
</g>
</svg>
