<?xml version="1.0" encoding="utf-8"?>
<!-- Generator: Adobe Illustrator 26.1.0, SVG Export Plug-In . SVG Version: 6.00 Build 0)  -->
<svg version="1.1" id="Layer_1" xmlns="http://www.w3.org/2000/svg" xmlns:xlink="http://www.w3.org/1999/xlink" x="0px" y="0px"
	 viewBox="0 0 12 12" style="enable-background:new 0 0 12 12;" xml:space="preserve">
<path d="M6,0C2.7,0,0,2.7,0,6s2.7,6,6,6s6-2.7,6-6S9.3,0,6,0z M6,9.5C5.7,9.5,5.5,9.3,5.5,9S5.7,8.5,6,8.5S6.5,8.7,6.5,9
	C6.5,9.2,6.3,9.5,6,9.5z M6.8,6.5C6.6,6.6,6.4,6.9,6.4,7.1v0.3c0,0.1,0,0.1-0.1,0.1H5.7c-0.1,0-0.1,0-0.1-0.1V7.2
	c0-0.3,0.1-0.6,0.3-0.9C6,6,6.3,5.8,6.5,5.7c0.5-0.2,0.8-0.6,0.8-1c0-0.6-0.6-1.1-1.3-1.1S4.7,4.2,4.7,4.8v0.1C4.7,5,4.7,5,4.6,5H4
	C3.9,5,3.9,5,3.9,4.9V4.8c0-0.5,0.2-1,0.6-1.4S5.4,2.8,6,2.8S7.1,3,7.5,3.4s0.6,0.9,0.6,1.4C8.1,5.5,7.6,6.2,6.8,6.5z"/>
</svg>
